{
  "asset": {
    "copyright": "",
    "generator": "Source 2 Viewer 19.2.0.0 - https://valveresourceformat.github.io",
    "version": "2.0"
  },
  "accessors": [
    {
      "bufferView": 0,
      "componentType": 5126,
      "count": 8089,
      "max": [
        16.740005493164062,
        1.3844069242477417,
        6.8195576667785645
      ],
      "min": [
        3.404344320297241,
        -0.9776219725608826,
        -3.3122177124023438
      ],
      "type": "VEC3"
    },
    {
      "bufferView": 1,
      "componentType": 5126,
      "count": 8089,
      "max": [
        1.9921875,
        0.99560546875
      ],
      "min": [
        0.00438690185546875,
        0.0048980712890625
      ],
      "type": "VEC2"
    },
    {
      "bufferView": 2,
      "componentType": 5126,
      "count": 8089,
      "max": [
        0.9999995231628418,
        0.9998885989189148,
        0.9999990463256836
      ],
      "min": [
        -0.9998885989189148,
        -0.9999995231628418,
        -1
      ],
      "type": "VEC3"
    },
    {
      "bufferView": 3,
      "componentType": 5126,
      "count": 8089,
      "type": "VEC4"
    },
    {
      "bufferView": 4,
      "componentType": 5126,
      "count": 8089,
      "max": [
        1.037109375,
        0.69189453125
      ],
      "min": [
        -1.9482421875,
        -0.08978271484375
      ],
      "type": "VEC2"
    },
    {
      "bufferView": 5,
      "componentType": 5123,
      "count": 8089,
      "type": "VEC4"
    },
    {
      "bufferView": 6,
      "componentType": 5126,
      "count": 8089,
      "type": "VEC4"
    },
    {
      "bufferView": 7,
      "componentType": 5125,
      "count": 26835,
      "type": "SCALAR"
    },
    {
      "bufferView": 8,
      "componentType": 5126,
      "count": 16518,
      "max": [
        16.778657913208008,
        1.469151496887207,
        6.733808994293213
      ],
      "min": [
        3.4190785884857178,
        -0.9174522757530212,
        -3.3625237941741943
      ],
      "type": "VEC3"
    },
    {
      "bufferView": 9,
      "componentType": 5126,
      "count": 16518,
      "max": [
        0.9970701932907104,
        0.9970701932907104
      ],
      "min": [
        0.0023194067180156708,
        0.008911404758691788
      ],
      "type": "VEC2"
    },
    {
      "bufferView": 10,
      "componentType": 5126,
      "count": 16518,
      "max": [
        0.9999995231628418,
        0.9999995231628418,
        0.9999990463256836
      ],
      "min": [
        -0.9999995231628418,
        -0.9999995231628418,
        -1
      ],
      "type": "VEC3"
    },
    {
      "bufferView": 11,
      "componentType": 5126,
      "count": 16518,
      "type": "VEC4"
    },
    {
      "bufferView": 12,
      "componentType": 5126,
      "count": 16518,
      "max": [
        1.0478515625,
        0.69482421875
      ],
      "min": [
        -1.9501953125,
        -0.06915283203125
      ],
      "type": "VEC2"
    },
    {
      "bufferView": 13,
      "componentType": 5123,
      "count": 16518,
      "type": "VEC4"
    },
    {
      "bufferView": 14,
      "componentType": 5126,
      "count": 16518,
      "type": "VEC4"
    },
    {
      "bufferView": 15,
      "componentType": 5125,
      "count": 65430,
      "type": "SCALAR"
    }
  ],
  "bufferViews": [
    {
      "buffer": 0,
      "byteLength": 97068,
      "byteOffset": 1949348,
      "target": 34962
    },
    {
      "buffer": 0,
      "byteLength": 64712,
      "byteOffset": 2143484,
      "target": 34962
    },
    {
      "buffer": 0,
      "byteLength": 97068,
      "byteOffset": 2046416,
      "target": 34962
    },
    {
      "buffer": 0,
      "byteLength": 129424,
      "byteOffset": 1583160,
      "target": 34962
    },
    {
      "buffer": 0,
      "byteLength": 64712,
      "byteOffset": 2208196,
      "target": 34962
    },
    {
      "buffer": 0,
      "byteLength": 64712,
      "byteOffset": 2272908,
      "byteStride": 8,
      "target": 34962
    },
    {
      "buffer": 0,
      "byteLength": 129424,
      "byteOffset": 1712584,
      "target": 34962
    },
    {
      "buffer": 0,
      "byteLength": 107340,
      "byteOffset": 1842008,
      "target": 34963
    },
    {
      "buffer": 0,
      "byteLength": 198216,
      "byteOffset": 790296,
      "target": 34962
    },
    {
      "buffer": 0,
      "byteLength": 132144,
      "byteOffset": 1186728,
      "target": 34962
    },
    {
      "buffer": 0,
      "byteLength": 198216,
      "byteOffset": 988512,
      "target": 34962
    },
    {
      "buffer": 0,
      "byteLength": 264288,
      "target": 34962
    },
    {
      "buffer": 0,
      "byteLength": 132144,
      "byteOffset": 1318872,
      "target": 34962
    },
    {
      "buffer": 0,
      "byteLength": 132144,
      "byteOffset": 1451016,
      "byteStride": 8,
      "target": 34962
    },
    {
      "buffer": 0,
      "byteLength": 264288,
      "byteOffset": 264288,
      "target": 34962
    },
    {
      "buffer": 0,
      "byteLength": 261720,
      "byteOffset": 528576,
      "target": 34963
    }
  ],
  "buffers": [
    {
      "byteLength": 2337620,
      "uri": "weapon_pist_tec9.bin"
    }
  ],
  "materials": [
    {
      "extras": {
        "vmat": {
          "Name": "materials/models/weapons/v_models/pist_tec9/pist_tec9.vmat",
          "ShaderName": "csgo_weapon.vfx",
          "IntParams": {
            "F_STICKERS": 1,
            "g_bEnableSticker0": 0,
            "g_bEnableSticker1": 0,
            "g_bEnableSticker2": 0,
            "g_bEnableSticker3": 0,
            "g_bEnableSticker4": 0,
            "g_bFogEnabled": 1,
            "g_nScaleTexCoordUByModelScaleAxis": 0,
            "g_nScaleTexCoordVByModelScaleAxis": 0,
            "g_nTextureAddressModeU": 0,
            "g_nTextureAddressModeV": 0
          },
          "FloatParams": {
            "g_flMetalnessTransitionBias": 2,
            "g_flModelTintAmount": 1,
            "g_flSticker0Rotation": 0,
            "g_flSticker0Wear": 0,
            "g_flSticker1Rotation": 0,
            "g_flSticker1Wear": 0,
            "g_flSticker2Rotation": 0,
            "g_flSticker2Wear": 0,
            "g_flSticker3Rotation": 0,
            "g_flSticker3Wear": 0,
            "g_flSticker4Rotation": 0,
            "g_flSticker4Wear": 0,
            "g_flTexCoordRotation": 0,
            "g_fWearScratchesSticker0": 1,
            "g_fWearScratchesSticker1": 1,
            "g_fWearScratchesSticker2": 1,
            "g_fWearScratchesSticker3": 1,
            "g_fWearScratchesSticker4": 1
          },
          "VectorParams": {
            "g_vColorTint": [
              1,
              1,
              1,
              0
            ],
            "g_vMetalnessRemapRange": [
              0,
              1,
              0,
              0
            ],
            "g_vSticker0Offset": [
              0.309,
              -0.384,
              0,
              0
            ],
            "g_vSticker0Scale": [
              6.1,
              6.1,
              0,
              0
            ],
            "g_vSticker1Offset": [
              0.137,
              -0.38,
              0,
              0
            ],
            "g_vSticker1Scale": [
              6.05,
              6.05,
              0,
              0
            ],
            "g_vSticker2Offset": [
              -0.031,
              -0.359,
              0,
              0
            ],
            "g_vSticker2Scale": [
              6,
              6,
              0,
              0
            ],
            "g_vSticker3Offset": [
              -0.256,
              -0.204,
              0,
              0
            ],
            "g_vSticker3Scale": [
              7.5,
              7.5,
              0,
              0
            ],
            "g_vSticker4Offset": [
              0,
              0,
              0,
              0
            ],
            "g_vSticker4Scale": [
              0,
              0,
              0,
              0
            ],
            "g_vTexCoordCenter": [
              0.5,
              0.5,
              0,
              0
            ],
            "g_vTexCoordOffset": [
              0,
              0,
              0,
              0
            ],
            "g_vTexCoordScale": [
              1,
              1,
              0,
              0
            ],
            "g_vTexCoordScrollSpeed": [
              0,
              0,
              0,
              0
            ],
            "g_vWearBiasSticker0": [
              1,
              1,
              0,
              0
            ],
            "g_vWearBiasSticker1": [
              1,
              1,
              0,
              0
            ],
            "g_vWearBiasSticker2": [
              1,
              1,
              0,
              0
            ],
            "g_vWearBiasSticker3": [
              1,
              1,
              0,
              0
            ],
            "g_vWearBiasSticker4": [
              1,
              1,
              0,
              0
            ],
            "TextureStickerMask": [
              1,
              1,
              1,
              0
            ]
          },
          "TextureParams": {
            "g_tAmbientOcclusion": "materials/models/weapons/v_models/pist_tec9/pist_tec9_ao_psd_9b21597c.vtex",
            "g_tColor": "materials/models/weapons/v_models/pist_tec9/pist_tec9_color_psd_e6ffcf66.vtex",
            "g_tGlitterNormalSticker0": "materials/default/stickers/squares_glitter_normal_tga_25145674.vtex",
            "g_tGlitterNormalSticker1": "materials/default/stickers/squares_glitter_normal_tga_25145674.vtex",
            "g_tGlitterNormalSticker2": "materials/default/stickers/squares_glitter_normal_tga_25145674.vtex",
            "g_tGlitterNormalSticker3": "materials/default/stickers/squares_glitter_normal_tga_25145674.vtex",
            "g_tGlitterNormalSticker4": "materials/default/stickers/squares_glitter_normal_tga_25145674.vtex",
            "g_tHoloSpectrumSticker0": "materials/default/stickers/default_holospectrum_tga_e12c79bd.vtex",
            "g_tHoloSpectrumSticker1": "materials/default/stickers/default_holospectrum_tga_e12c79bd.vtex",
            "g_tHoloSpectrumSticker2": "materials/default/stickers/default_holospectrum_tga_e12c79bd.vtex",
            "g_tHoloSpectrumSticker3": "materials/default/stickers/default_holospectrum_tga_e12c79bd.vtex",
            "g_tHoloSpectrumSticker4": "materials/default/stickers/default_holospectrum_tga_e12c79bd.vtex",
            "g_tMetalness": "materials/models/weapons/v_models/pist_tec9/pist_tec9_rough_psd_7055a363.vtex",
            "g_tNormal": "materials/default/default_normal_tga_4fc2d3dd.vtex",
            "g_tNormalRoughnessSticker0": "materials/default/default_normal_tga_4c6e7391.vtex",
            "g_tNormalRoughnessSticker1": "materials/default/default_normal_tga_4c6e7391.vtex",
            "g_tNormalRoughnessSticker2": "materials/default/default_normal_tga_4c6e7391.vtex",
            "g_tNormalRoughnessSticker3": "materials/default/default_normal_tga_4c6e7391.vtex",
            "g_tNormalRoughnessSticker4": "materials/default/default_normal_tga_4c6e7391.vtex",
            "g_tSfxMaskSticker0": "materials/default/stickers/default_holomask_tga_daef1ed1.vtex",
            "g_tSfxMaskSticker1": "materials/default/stickers/default_holomask_tga_daef1ed1.vtex",
            "g_tSfxMaskSticker2": "materials/default/stickers/default_holomask_tga_daef1ed1.vtex",
            "g_tSfxMaskSticker3": "materials/default/stickers/default_holomask_tga_daef1ed1.vtex",
            "g_tSfxMaskSticker4": "materials/default/stickers/default_holomask_tga_daef1ed1.vtex",
            "g_tSticker0": "materials/default/stickers/sticker_default_psd_7f7731d3.vtex",
            "g_tSticker1": "materials/default/stickers/sticker_default_psd_7f7731d3.vtex",
            "g_tSticker2": "materials/default/stickers/sticker_default_psd_7f7731d3.vtex",
            "g_tSticker3": "materials/default/stickers/sticker_default_psd_7f7731d3.vtex",
            "g_tSticker4": "materials/default/stickers/sticker_default_psd_7f7731d3.vtex",
            "g_tStickerScratches": "materials/default/stickers/sticker_default_scratches_psd_a9ad199b.vtex",
            "g_tStickerWepInputs": "weapons/models/tec9/materials/stickers/weapon_pist_tec9_sticker_cavity_legacy_tga_254a2a79.vtex"
          }
        }
      },
      "name": "pist_tec9"
    },
    {
      "extras": {
        "vmat": {
          "Name": "weapons/models/tec9/materials/weapon_pist_tec9.vmat",
          "ShaderName": "csgo_weapon.vfx",
          "IntParams": {
            "F_STICKERS": 1,
            "g_bEnableSticker0": 0,
            "g_bEnableSticker1": 0,
            "g_bEnableSticker2": 0,
            "g_bEnableSticker3": 0,
            "g_bEnableSticker4": 0,
            "g_bFogEnabled": 1,
            "g_nScaleTexCoordUByModelScaleAxis": 0,
            "g_nScaleTexCoordVByModelScaleAxis": 0,
            "g_nTextureAddressModeU": 0,
            "g_nTextureAddressModeV": 0
          },
          "FloatParams": {
            "g_flMetalnessTransitionBias": 2,
            "g_flModelTintAmount": 1,
            "g_flSticker0Rotation": 0,
            "g_flSticker0Wear": 0,
            "g_flSticker1Rotation": 0,
            "g_flSticker1Wear": 0,
            "g_flSticker2Rotation": 0,
            "g_flSticker2Wear": 0,
            "g_flSticker3Rotation": 0,
            "g_flSticker3Wear": 0,
            "g_flSticker4Rotation": 0,
            "g_flSticker4Wear": 0,
            "g_flTexCoordRotation": 0,
            "g_fWearScratchesSticker0": 1,
            "g_fWearScratchesSticker1": 1,
            "g_fWearScratchesSticker2": 1,
            "g_fWearScratchesSticker3": 1,
            "g_fWearScratchesSticker4": 1
          },
          "VectorParams": {
            "g_vColorTint": [
              1,
              1,
              1,
              0
            ],
            "g_vMetalnessRemapRange": [
              0,
              1,
              0,
              0
            ],
            "g_vSticker0Offset": [
              0.289,
              -0.384,
              0,
              0
            ],
            "g_vSticker0Scale": [
              6.818,
              6.818,
              0,
              0
            ],
            "g_vSticker1Offset": [
              0.134,
              -0.385,
              0,
              0
            ],
            "g_vSticker1Scale": [
              6.818,
              6.818,
              0,
              0
            ],
            "g_vSticker2Offset": [
              -0.015,
              -0.378,
              0,
              0
            ],
            "g_vSticker2Scale": [
              6.818,
              6.818,
              0,
              0
            ],
            "g_vSticker3Offset": [
              -0.256,
              -0.204,
              0,
              0
            ],
            "g_vSticker3Scale": [
              7.5,
              7.5,
              0,
              0
            ],
            "g_vSticker4Offset": [
              0,
              0,
              0,
              0
            ],
            "g_vSticker4Scale": [
              0,
              0,
              0,
              0
            ],
            "g_vTexCoordCenter": [
              0.5,
              0.5,
              0,
              0
            ],
            "g_vTexCoordOffset": [
              0,
              0,
              0,
              0
            ],
            "g_vTexCoordScale": [
              1,
              1,
              0,
              0
            ],
            "g_vTexCoordScrollSpeed": [
              0,
              0,
              0,
              0
            ],
            "g_vWearBiasSticker0": [
              1,
              1,
              0,
              0
            ],
            "g_vWearBiasSticker1": [
              1,
              1,
              0,
              0
            ],
            "g_vWearBiasSticker2": [
              1,
              1,
              0,
              0
            ],
            "g_vWearBiasSticker3": [
              1,
              1,
              0,
              0
            ],
            "g_vWearBiasSticker4": [
              1,
              1,
              0,
              0
            ]
          },
          "TextureParams": {
            "g_tAmbientOcclusion": "weapons/models/tec9/materials/tec9_default_ao_tga_42bd270b.vtex",
            "g_tColor": "weapons/models/tec9/materials/tec9_default_color_psd_3d06c5df.vtex",
            "g_tGlitterNormalSticker0": "materials/default/stickers/squares_glitter_normal_tga_25145674.vtex",
            "g_tGlitterNormalSticker1": "materials/default/stickers/squares_glitter_normal_tga_25145674.vtex",
            "g_tGlitterNormalSticker2": "materials/default/stickers/squares_glitter_normal_tga_25145674.vtex",
            "g_tGlitterNormalSticker3": "materials/default/stickers/squares_glitter_normal_tga_25145674.vtex",
            "g_tGlitterNormalSticker4": "materials/default/stickers/squares_glitter_normal_tga_25145674.vtex",
            "g_tHoloSpectrumSticker0": "materials/default/stickers/default_holospectrum_tga_e12c79bd.vtex",
            "g_tHoloSpectrumSticker1": "materials/default/stickers/default_holospectrum_tga_e12c79bd.vtex",
            "g_tHoloSpectrumSticker2": "materials/default/stickers/default_holospectrum_tga_e12c79bd.vtex",
            "g_tHoloSpectrumSticker3": "materials/default/stickers/default_holospectrum_tga_e12c79bd.vtex",
            "g_tHoloSpectrumSticker4": "materials/default/stickers/default_holospectrum_tga_e12c79bd.vtex",
            "g_tMetalness": "weapons/models/tec9/materials/tec9_default_rough_psd_f4601ada.vtex",
            "g_tNormal": "weapons/models/tec9/materials/tec9_default_normal_tga_28a2b684.vtex",
            "g_tNormalRoughnessSticker0": "materials/default/default_normal_tga_b59982b.vtex",
            "g_tNormalRoughnessSticker1": "materials/default/default_normal_tga_b59982b.vtex",
            "g_tNormalRoughnessSticker2": "materials/default/default_normal_tga_b59982b.vtex",
            "g_tNormalRoughnessSticker3": "materials/default/default_normal_tga_b59982b.vtex",
            "g_tNormalRoughnessSticker4": "materials/default/default_normal_tga_b59982b.vtex",
            "g_tSfxMaskSticker0": "materials/default/stickers/default_holomask_tga_daef1ed1.vtex",
            "g_tSfxMaskSticker1": "materials/default/stickers/default_holomask_tga_daef1ed1.vtex",
            "g_tSfxMaskSticker2": "materials/default/stickers/default_holomask_tga_daef1ed1.vtex",
            "g_tSfxMaskSticker3": "materials/default/stickers/default_holomask_tga_daef1ed1.vtex",
            "g_tSfxMaskSticker4": "materials/default/stickers/default_holomask_tga_daef1ed1.vtex",
            "g_tSticker0": "materials/default/stickers/sticker_default_psd_7f7731d3.vtex",
            "g_tSticker1": "materials/default/stickers/sticker_default_psd_7f7731d3.vtex",
            "g_tSticker2": "materials/default/stickers/sticker_default_psd_7f7731d3.vtex",
            "g_tSticker3": "materials/default/stickers/sticker_default_psd_7f7731d3.vtex",
            "g_tSticker4": "materials/default/stickers/sticker_default_psd_7f7731d3.vtex",
            "g_tStickerScratches": "materials/default/stickers/sticker_default_scratches_psd_a9ad199b.vtex",
            "g_tStickerWepInputs": "weapons/models/tec9/materials/stickers/weapon_pist_tec9_sticker_mask_hd_tga_f5f37e8.vtex"
          }
        }
      },
      "name": "weapon_pist_tec9"
    }
  ],
  "meshes": [
    {
      "extras": {},
      "name": "weapons\\models\\tec9\\weapon_pist_tec9.vmdl_c.body_legacy",
      "primitives": [
        {
          "attributes": {
            "POSITION": 0,
            "TEXCOORD_0": 1,
            "NORMAL": 2,
            "TANGENT": 3,
            "TEXCOORD_1": 4,
            "JOINTS_0": 5,
            "WEIGHTS_0": 6
          },
          "indices": 7,
          "material": 0
        }
      ]
    },
    {
      "extras": {},
      "name": "weapons\\models\\tec9\\weapon_pist_tec9.vmdl_c.body_hd",
      "primitives": [
        {
          "attributes": {
            "POSITION": 8,
            "TEXCOORD_0": 9,
            "NORMAL": 10,
            "TANGENT": 11,
            "TEXCOORD_1": 12,
            "JOINTS_0": 13,
            "WEIGHTS_0": 14
          },
          "indices": 15,
          "material": 1
        }
      ]
    }
  ],
  "nodes": [
    {
      "name": "weapons\\models\\tec9\\weapon_pist_tec9.vmdl_c.body_legacy",
      "matrix": [
        3.027916e-09,
        0,
        0.025399996,
        0,
        0.025399996,
        3.027916e-09,
        0,
        0,
        0,
        0.025399996,
        3.027916e-09,
        0,
        0,
        0,
        0,
        1
      ],
      "mesh": 0
    },
    {
      "name": "weapons\\models\\tec9\\weapon_pist_tec9.vmdl_c.body_hd",
      "matrix": [
        3.027916e-09,
        0,
        0.025399996,
        0,
        0.025399996,
        3.027916e-09,
        0,
        0,
        0,
        0.025399996,
        3.027916e-09,
        0,
        0,
        0,
        0,
        1
      ],
      "mesh": 1
    }
  ],
  "scenes": [
    {
      "name": "weapon_pist_tec9.vmdl_c",
      "nodes": [
        0,
        1
      ]
    }
  ],
  "extensionsUsed": [],
  "images": [],
  "textures": []
}