{
  "asset": {
    "copyright": "",
    "generator": "Source 2 Viewer 19.2.0.0 - https://valveresourceformat.github.io",
    "version": "2.0"
  },
  "accessors": [
    {
      "bufferView": 0,
      "componentType": 5126,
      "count": 14446,
      "max": [
        45.53297424316406,
        1.3457015752792358,
        17.076318740844727
      ],
      "min": [
        1.481400489807129,
        -1.2997751235961914,
        5.853125095367432
      ],
      "type": "VEC3"
    },
    {
      "bufferView": 1,
      "componentType": 5126,
      "count": 14446,
      "max": [
        2.00390625,
        1.5419921875
      ],
      "min": [
        -0.00499725341796875,
        -0.58203125
      ],
      "type": "VEC2"
    },
    {
      "bufferView": 2,
      "componentType": 5126,
      "count": 14446,
      "max": [
        0.9999995231628418,
        0.9999995231628418,
        0.9999990463256836
      ],
      "min": [
        -0.9999995231628418,
        -0.9999995231628418,
        -1
      ],
      "type": "VEC3"
    },
    {
      "bufferView": 3,
      "componentType": 5126,
      "count": 14446,
      "type": "VEC4"
    },
    {
      "bufferView": 4,
      "componentType": 5126,
      "count": 14446,
      "max": [
        0.9912109375,
        0.2607421875
      ],
      "min": [
        -1.998046875,
        0.0085601806640625
      ],
      "type": "VEC2"
    },
    {
      "bufferView": 5,
      "componentType": 5123,
      "count": 14446,
      "type": "VEC4"
    },
    {
      "bufferView": 6,
      "componentType": 5126,
      "count": 14446,
      "type": "VEC4"
    },
    {
      "bufferView": 7,
      "componentType": 5125,
      "count": 36636,
      "type": "SCALAR"
    },
    {
      "bufferView": 8,
      "componentType": 5125,
      "count": 216,
      "type": "SCALAR"
    },
    {
      "bufferView": 9,
      "componentType": 5126,
      "count": 48263,
      "max": [
        44.57282257080078,
        1.576358675956726,
        16.669828414916992
      ],
      "min": [
        2.0243725776672363,
        -1.4273405075073242,
        5.856568813323975
      ],
      "type": "VEC3"
    },
    {
      "bufferView": 10,
      "componentType": 5126,
      "count": 48263,
      "max": [
        0.9980468153953552,
        0.9980468153953552
      ],
      "min": [
        0.0016785180196166039,
        0.0021668141707777977
      ],
      "type": "VEC2"
    },
    {
      "bufferView": 11,
      "componentType": 5126,
      "count": 48263,
      "max": [
        0.9999995231628418,
        0.9999995231628418,
        0.9999990463256836
      ],
      "min": [
        -0.9999995231628418,
        -0.9999995231628418,
        -1
      ],
      "type": "VEC3"
    },
    {
      "bufferView": 12,
      "componentType": 5126,
      "count": 48263,
      "type": "VEC4"
    },
    {
      "bufferView": 13,
      "componentType": 5126,
      "count": 48263,
      "max": [
        0.97900390625,
        0.260498046875
      ],
      "min": [
        -1.9765625,
        0.0176849365234375
      ],
      "type": "VEC2"
    },
    {
      "bufferView": 14,
      "componentType": 5123,
      "count": 48263,
      "type": "VEC4"
    },
    {
      "bufferView": 15,
      "componentType": 5126,
      "count": 48263,
      "type": "VEC4"
    },
    {
      "bufferView": 16,
      "componentType": 5125,
      "count": 165228,
      "type": "SCALAR"
    }
  ],
  "bufferViews": [
    {
      "buffer": 0,
      "byteLength": 173352,
      "byteOffset": 4984224,
      "target": 34962
    },
    {
      "buffer": 0,
      "byteLength": 115568,
      "byteOffset": 5477472,
      "target": 34962
    },
    {
      "buffer": 0,
      "byteLength": 173352,
      "byteOffset": 5157576,
      "target": 34962
    },
    {
      "buffer": 0,
      "byteLength": 231136,
      "byteOffset": 4521952,
      "target": 34962
    },
    {
      "buffer": 0,
      "byteLength": 115568,
      "byteOffset": 5593040,
      "target": 34962
    },
    {
      "buffer": 0,
      "byteLength": 115568,
      "byteOffset": 5708608,
      "byteStride": 8,
      "target": 34962
    },
    {
      "buffer": 0,
      "byteLength": 231136,
      "byteOffset": 4753088,
      "target": 34962
    },
    {
      "buffer": 0,
      "byteLength": 146544,
      "byteOffset": 5330928,
      "target": 34963
    },
    {
      "buffer": 0,
      "byteLength": 864,
      "byteOffset": 5824176,
      "target": 34963
    },
    {
      "buffer": 0,
      "byteLength": 579156,
      "byteOffset": 2205328,
      "target": 34962
    },
    {
      "buffer": 0,
      "byteLength": 386104,
      "byteOffset": 3363640,
      "target": 34962
    },
    {
      "buffer": 0,
      "byteLength": 579156,
      "byteOffset": 2784484,
      "target": 34962
    },
    {
      "buffer": 0,
      "byteLength": 772208,
      "target": 34962
    },
    {
      "buffer": 0,
      "byteLength": 386104,
      "byteOffset": 3749744,
      "target": 34962
    },
    {
      "buffer": 0,
      "byteLength": 386104,
      "byteOffset": 4135848,
      "byteStride": 8,
      "target": 34962
    },
    {
      "buffer": 0,
      "byteLength": 772208,
      "byteOffset": 772208,
      "target": 34962
    },
    {
      "buffer": 0,
      "byteLength": 660912,
      "byteOffset": 1544416,
      "target": 34963
    }
  ],
  "buffers": [
    {
      "byteLength": 5825040,
      "uri": "weapon_snip_scar20.bin"
    }
  ],
  "materials": [
    {
      "extras": {
        "vmat": {
          "Name": "materials/models/weapons/v_models/snip_scar20/snip_scar20.vmat",
          "ShaderName": "csgo_weapon.vfx",
          "IntParams": {
            "F_STICKERS": 1,
            "g_bEnableSticker0": 0,
            "g_bEnableSticker1": 0,
            "g_bEnableSticker2": 0,
            "g_bEnableSticker3": 0,
            "g_bEnableSticker4": 0,
            "g_bFogEnabled": 1,
            "g_nScaleTexCoordUByModelScaleAxis": 0,
            "g_nScaleTexCoordVByModelScaleAxis": 0,
            "g_nTextureAddressModeU": 0,
            "g_nTextureAddressModeV": 0
          },
          "FloatParams": {
            "g_flMetalnessTransitionBias": 2,
            "g_flModelTintAmount": 1,
            "g_flSticker0Rotation": 0,
            "g_flSticker0Wear": 0,
            "g_flSticker1Rotation": 0,
            "g_flSticker1Wear": 0,
            "g_flSticker2Rotation": 0,
            "g_flSticker2Wear": 0,
            "g_flSticker3Rotation": 0,
            "g_flSticker3Wear": 0,
            "g_flSticker4Rotation": 0,
            "g_flSticker4Wear": 0,
            "g_flTexCoordRotation": 0,
            "g_fWearScratchesSticker0": 1,
            "g_fWearScratchesSticker1": 1,
            "g_fWearScratchesSticker2": 1,
            "g_fWearScratchesSticker3": 1,
            "g_fWearScratchesSticker4": 1
          },
          "VectorParams": {
            "g_vColorTint": [
              1,
              1,
              1,
              0
            ],
            "g_vMetalnessRemapRange": [
              0,
              1,
              0,
              0
            ],
            "g_vSticker0Offset": [
              0.259,
              -0.371,
              0,
              0
            ],
            "g_vSticker0Scale": [
              18.3,
              18.3,
              0,
              0
            ],
            "g_vSticker1Offset": [
              0.147,
              -0.353,
              0,
              0
            ],
            "g_vSticker1Scale": [
              18,
              18,
              0,
              0
            ],
            "g_vSticker2Offset": [
              0.078,
              -0.339,
              0,
              0
            ],
            "g_vSticker2Scale": [
              17.9,
              17.9,
              0,
              0
            ],
            "g_vSticker3Offset": [
              0.049,
              -0.397,
              0,
              0
            ],
            "g_vSticker3Scale": [
              17.9,
              17.9,
              0,
              0
            ],
            "g_vSticker4Offset": [
              0,
              0,
              0,
              0
            ],
            "g_vSticker4Scale": [
              0,
              0,
              0,
              0
            ],
            "g_vTexCoordCenter": [
              0.5,
              0.5,
              0,
              0
            ],
            "g_vTexCoordOffset": [
              0,
              0,
              0,
              0
            ],
            "g_vTexCoordScale": [
              1,
              1,
              0,
              0
            ],
            "g_vTexCoordScrollSpeed": [
              0,
              0,
              0,
              0
            ],
            "g_vWearBiasSticker0": [
              1,
              1,
              0,
              0
            ],
            "g_vWearBiasSticker1": [
              1,
              1,
              0,
              0
            ],
            "g_vWearBiasSticker2": [
              1,
              1,
              0,
              0
            ],
            "g_vWearBiasSticker3": [
              1,
              1,
              0,
              0
            ],
            "g_vWearBiasSticker4": [
              1,
              1,
              0,
              0
            ]
          },
          "TextureParams": {
            "g_tAmbientOcclusion": "materials/models/weapons/v_models/snip_scar20/snip_scar20_substrate_ao_psd_b46a1f41.vtex",
            "g_tColor": "materials/models/weapons/v_models/snip_scar20/snip_scar20_substrate_color_psd_e9850a95.vtex",
            "g_tGlitterNormalSticker0": "materials/default/stickers/squares_glitter_normal_tga_25145674.vtex",
            "g_tGlitterNormalSticker1": "materials/default/stickers/squares_glitter_normal_tga_25145674.vtex",
            "g_tGlitterNormalSticker2": "materials/default/stickers/squares_glitter_normal_tga_25145674.vtex",
            "g_tGlitterNormalSticker3": "materials/default/stickers/squares_glitter_normal_tga_25145674.vtex",
            "g_tGlitterNormalSticker4": "materials/default/stickers/squares_glitter_normal_tga_25145674.vtex",
            "g_tHoloSpectrumSticker0": "materials/default/stickers/default_holospectrum_tga_e12c79bd.vtex",
            "g_tHoloSpectrumSticker1": "materials/default/stickers/default_holospectrum_tga_e12c79bd.vtex",
            "g_tHoloSpectrumSticker2": "materials/default/stickers/default_holospectrum_tga_e12c79bd.vtex",
            "g_tHoloSpectrumSticker3": "materials/default/stickers/default_holospectrum_tga_e12c79bd.vtex",
            "g_tHoloSpectrumSticker4": "materials/default/stickers/default_holospectrum_tga_e12c79bd.vtex",
            "g_tMetalness": "materials/models/weapons/v_models/snip_scar20/snip_scar20_rough_psd_b5c7538c.vtex",
            "g_tNormal": "materials/models/weapons/v_models/snip_scar20/snip_scar20_substrate_normal_psd_a329b745.vtex",
            "g_tNormalRoughnessSticker0": "materials/default/default_normal_tga_4c6e7391.vtex",
            "g_tNormalRoughnessSticker1": "materials/default/default_normal_tga_4c6e7391.vtex",
            "g_tNormalRoughnessSticker2": "materials/default/default_normal_tga_4c6e7391.vtex",
            "g_tNormalRoughnessSticker3": "materials/default/default_normal_tga_4c6e7391.vtex",
            "g_tNormalRoughnessSticker4": "materials/default/default_normal_tga_4c6e7391.vtex",
            "g_tSfxMaskSticker0": "materials/default/stickers/default_holomask_tga_daef1ed1.vtex",
            "g_tSfxMaskSticker1": "materials/default/stickers/default_holomask_tga_daef1ed1.vtex",
            "g_tSfxMaskSticker2": "materials/default/stickers/default_holomask_tga_daef1ed1.vtex",
            "g_tSfxMaskSticker3": "materials/default/stickers/default_holomask_tga_daef1ed1.vtex",
            "g_tSfxMaskSticker4": "materials/default/stickers/default_holomask_tga_daef1ed1.vtex",
            "g_tSticker0": "materials/default/stickers/sticker_default_psd_7f7731d3.vtex",
            "g_tSticker1": "materials/default/stickers/sticker_default_psd_7f7731d3.vtex",
            "g_tSticker2": "materials/default/stickers/sticker_default_psd_7f7731d3.vtex",
            "g_tSticker3": "materials/default/stickers/sticker_default_psd_7f7731d3.vtex",
            "g_tSticker4": "materials/default/stickers/sticker_default_psd_7f7731d3.vtex",
            "g_tStickerScratches": "materials/default/stickers/sticker_default_scratches_psd_a9ad199b.vtex",
            "g_tStickerWepInputs": "weapons/models/scar20/materials/stickers/weapon_snip_scar20_sticker_mask_legacy_tga_55424728.vtex"
          }
        }
      },
      "name": "snip_scar20"
    },
    {
      "extras": {
        "vmat": {
          "Name": "weapons/models/shared/materials/scope/shared_scope.vmat",
          "ShaderName": "csgo_weapon.vfx",
          "IntParams": {
            "g_bFogEnabled": 1,
            "g_nScaleTexCoordUByModelScaleAxis": 0,
            "g_nScaleTexCoordVByModelScaleAxis": 0,
            "g_nTextureAddressModeU": 0,
            "g_nTextureAddressModeV": 0
          },
          "FloatParams": {
            "g_flMetalnessTransitionBias": 2,
            "g_flModelTintAmount": 1,
            "g_flTexCoordRotation": 0
          },
          "VectorParams": {
            "g_vColorTint": [
              1,
              1,
              1,
              0
            ],
            "g_vMetalnessRemapRange": [
              0,
              1,
              0,
              0
            ],
            "g_vTexCoordCenter": [
              0.5,
              0.5,
              0,
              0
            ],
            "g_vTexCoordOffset": [
              0,
              0,
              0,
              0
            ],
            "g_vTexCoordScale": [
              1,
              1,
              0,
              0
            ],
            "g_vTexCoordScrollSpeed": [
              0,
              0,
              0,
              0
            ],
            "TextureColor1": [
              0.290196,
              0.290196,
              0.290196,
              1
            ],
            "TextureMetalness1": [
              1,
              1,
              1,
              0
            ],
            "TextureRoughness1": [
              0.27451,
              0.27451,
              0.27451,
              1
            ]
          },
          "TextureParams": {
            "g_tAmbientOcclusion": "weapons/models/shared/materials/scope/shared_scope_ao_psd_60406729.vtex",
            "g_tColor": "weapons/models/shared/materials/scope/shared_scope_vmat_g_tcolor_b1605615.vtex",
            "g_tMetalness": "weapons/models/shared/materials/scope/shared_scope_vmat_g_tmetalness_b51739c.vtex",
            "g_tNormal": "weapons/models/shared/materials/scope/shared_scope_normal_psd_85f00f27.vtex"
          }
        }
      },
      "name": "shared_scope"
    },
    {
      "extras": {
        "vmat": {
          "Name": "weapons/models/scar20/materials/weapon_snip_scar20.vmat",
          "ShaderName": "csgo_weapon.vfx",
          "IntParams": {
            "F_STICKERS": 1,
            "g_bEnableSticker0": 0,
            "g_bEnableSticker1": 0,
            "g_bEnableSticker2": 0,
            "g_bEnableSticker3": 0,
            "g_bEnableSticker4": 0,
            "g_bFogEnabled": 1,
            "g_nScaleTexCoordUByModelScaleAxis": 0,
            "g_nScaleTexCoordVByModelScaleAxis": 0,
            "g_nTextureAddressModeU": 0,
            "g_nTextureAddressModeV": 0
          },
          "FloatParams": {
            "g_flMetalnessTransitionBias": 1.67,
            "g_flModelTintAmount": 1,
            "g_flSticker0Rotation": 0,
            "g_flSticker0Wear": 0,
            "g_flSticker1Rotation": 0,
            "g_flSticker1Wear": 0,
            "g_flSticker2Rotation": 0,
            "g_flSticker2Wear": 0,
            "g_flSticker3Rotation": 0,
            "g_flSticker3Wear": 0,
            "g_flSticker4Rotation": 0,
            "g_flSticker4Wear": 0,
            "g_flTexCoordRotation": 0,
            "g_fWearScratchesSticker0": 1,
            "g_fWearScratchesSticker1": 1,
            "g_fWearScratchesSticker2": 1,
            "g_fWearScratchesSticker3": 1,
            "g_fWearScratchesSticker4": 1
          },
          "VectorParams": {
            "g_vColorTint": [
              1,
              1,
              1,
              0
            ],
            "g_vMetalnessRemapRange": [
              0,
              1,
              0,
              0
            ],
            "g_vSticker0Offset": [
              0.192,
              -0.383,
              0,
              0
            ],
            "g_vSticker0Scale": [
              15.893,
              15.893,
              0,
              0
            ],
            "g_vSticker1Offset": [
              0.132,
              -0.367,
              0,
              0
            ],
            "g_vSticker1Scale": [
              15.893,
              15.893,
              0,
              0
            ],
            "g_vSticker2Offset": [
              0.069,
              -0.339,
              0,
              0
            ],
            "g_vSticker2Scale": [
              15.893,
              15.893,
              0,
              0
            ],
            "g_vSticker3Offset": [
              0.056,
              -0.389,
              0,
              0
            ],
            "g_vSticker3Scale": [
              15.893,
              15.893,
              0,
              0
            ],
            "g_vSticker4Offset": [
              0,
              0,
              0,
              0
            ],
            "g_vSticker4Scale": [
              0,
              0,
              0,
              0
            ],
            "g_vTexCoordCenter": [
              0.5,
              0.5,
              0,
              0
            ],
            "g_vTexCoordOffset": [
              0,
              0,
              0,
              0
            ],
            "g_vTexCoordScale": [
              1,
              1,
              0,
              0
            ],
            "g_vTexCoordScrollSpeed": [
              0,
              0,
              0,
              0
            ],
            "g_vWearBiasSticker0": [
              1,
              1,
              0,
              0
            ],
            "g_vWearBiasSticker1": [
              1,
              1,
              0,
              0
            ],
            "g_vWearBiasSticker2": [
              1,
              1,
              0,
              0
            ],
            "g_vWearBiasSticker3": [
              1,
              1,
              0,
              0
            ],
            "g_vWearBiasSticker4": [
              1,
              1,
              0,
              0
            ]
          },
          "TextureParams": {
            "g_tAmbientOcclusion": "weapons/models/scar20/materials/scar20_default_ao_tga_ae60e13b.vtex",
            "g_tColor": "weapons/models/scar20/materials/scar20_default_color_psd_24a39c92.vtex",
            "g_tGlitterNormalSticker0": "materials/default/stickers/squares_glitter_normal_tga_25145674.vtex",
            "g_tGlitterNormalSticker1": "materials/default/stickers/squares_glitter_normal_tga_25145674.vtex",
            "g_tGlitterNormalSticker2": "materials/default/stickers/squares_glitter_normal_tga_25145674.vtex",
            "g_tGlitterNormalSticker3": "materials/default/stickers/squares_glitter_normal_tga_25145674.vtex",
            "g_tGlitterNormalSticker4": "materials/default/stickers/squares_glitter_normal_tga_25145674.vtex",
            "g_tHoloSpectrumSticker0": "materials/default/stickers/default_holospectrum_tga_e12c79bd.vtex",
            "g_tHoloSpectrumSticker1": "materials/default/stickers/default_holospectrum_tga_e12c79bd.vtex",
            "g_tHoloSpectrumSticker2": "materials/default/stickers/default_holospectrum_tga_e12c79bd.vtex",
            "g_tHoloSpectrumSticker3": "materials/default/stickers/default_holospectrum_tga_e12c79bd.vtex",
            "g_tHoloSpectrumSticker4": "materials/default/stickers/default_holospectrum_tga_e12c79bd.vtex",
            "g_tMetalness": "weapons/models/scar20/materials/scar20_default_rough_psd_a3c74000.vtex",
            "g_tNormal": "weapons/models/scar20/materials/scar20_default_normal_tga_cbf11dcc.vtex",
            "g_tNormalRoughnessSticker0": "materials/default/default_normal_tga_4c6e7391.vtex",
            "g_tNormalRoughnessSticker1": "materials/default/default_normal_tga_4c6e7391.vtex",
            "g_tNormalRoughnessSticker2": "materials/default/default_normal_tga_4c6e7391.vtex",
            "g_tNormalRoughnessSticker3": "materials/default/default_normal_tga_4c6e7391.vtex",
            "g_tNormalRoughnessSticker4": "materials/default/default_normal_tga_4c6e7391.vtex",
            "g_tSfxMaskSticker0": "materials/default/stickers/default_holomask_tga_daef1ed1.vtex",
            "g_tSfxMaskSticker1": "materials/default/stickers/default_holomask_tga_daef1ed1.vtex",
            "g_tSfxMaskSticker2": "materials/default/stickers/default_holomask_tga_daef1ed1.vtex",
            "g_tSfxMaskSticker3": "materials/default/stickers/default_holomask_tga_daef1ed1.vtex",
            "g_tSfxMaskSticker4": "materials/default/stickers/default_holomask_tga_daef1ed1.vtex",
            "g_tSticker0": "materials/default/stickers/sticker_default_psd_7f7731d3.vtex",
            "g_tSticker1": "materials/default/stickers/sticker_default_psd_7f7731d3.vtex",
            "g_tSticker2": "materials/default/stickers/sticker_default_psd_7f7731d3.vtex",
            "g_tSticker3": "materials/default/stickers/sticker_default_psd_7f7731d3.vtex",
            "g_tSticker4": "materials/default/stickers/sticker_default_psd_7f7731d3.vtex",
            "g_tStickerScratches": "materials/default/stickers/sticker_default_scratches_psd_a9ad199b.vtex",
            "g_tStickerWepInputs": "weapons/models/scar20/materials/stickers/weapon_snip_scar20_sticker_mask_hd_tga_f9e7d087.vtex"
          }
        }
      },
      "name": "weapon_snip_scar20"
    }
  ],
  "meshes": [
    {
      "extras": {},
      "name": "weapons\\models\\scar20\\weapon_snip_scar20.vmdl_c.body_legacy",
      "primitives": [
        {
          "attributes": {
            "POSITION": 0,
            "TEXCOORD_0": 1,
            "NORMAL": 2,
            "TANGENT": 3,
            "TEXCOORD_1": 4,
            "JOINTS_0": 5,
            "WEIGHTS_0": 6
          },
          "indices": 7,
          "material": 0
        },
        {
          "attributes": {
            "POSITION": 0,
            "TEXCOORD_0": 1,
            "NORMAL": 2,
            "TANGENT": 3,
            "TEXCOORD_1": 4,
            "JOINTS_0": 5,
            "WEIGHTS_0": 6
          },
          "indices": 8,
          "material": 1
        }
      ]
    },
    {
      "extras": {},
      "name": "weapons\\models\\scar20\\weapon_snip_scar20.vmdl_c.body_hd",
      "primitives": [
        {
          "attributes": {
            "POSITION": 9,
            "TEXCOORD_0": 10,
            "NORMAL": 11,
            "TANGENT": 12,
            "TEXCOORD_1": 13,
            "JOINTS_0": 14,
            "WEIGHTS_0": 15
          },
          "indices": 16,
          "material": 2
        }
      ]
    }
  ],
  "nodes": [
    {
      "name": "weapons\\models\\scar20\\weapon_snip_scar20.vmdl_c.body_legacy",
      "matrix": [
        3.027916e-09,
        0,
        0.025399996,
        0,
        0.025399996,
        3.027916e-09,
        0,
        0,
        0,
        0.025399996,
        3.027916e-09,
        0,
        0,
        0,
        0,
        1
      ],
      "mesh": 0
    },
    {
      "name": "weapons\\models\\scar20\\weapon_snip_scar20.vmdl_c.body_hd",
      "matrix": [
        3.027916e-09,
        0,
        0.025399996,
        0,
        0.025399996,
        3.027916e-09,
        0,
        0,
        0,
        0.025399996,
        3.027916e-09,
        0,
        0,
        0,
        0,
        1
      ],
      "mesh": 1
    }
  ],
  "scenes": [
    {
      "name": "weapon_snip_scar20.vmdl_c",
      "nodes": [
        0,
        1
      ]
    }
  ],
  "extensionsUsed": [],
  "images": [],
  "textures": []
}