{"asset":{"copyright":"","generator":"Source 2 Viewer 19.2.0.0 - https://valveresourceformat.github.io","version":"2.0"},"accessors":[{"bufferView":0,"componentType":5126,"count":96,"max":[26.22677230834961,0.75,4.50745964050293],"min":[-11.904805183410645,-0.75,-6.542678356170654],"type":"VEC3"},{"bufferView":1,"componentType":5126,"count":96,"max":[0.7056037187576294,1,0.754420280456543],"min":[-0.7871977686882019,-1,-0.7276341915130615],"type":"VEC3"},{"bufferView":2,"componentType":5126,"count":96,"max":[0.5245354175567627,0.0764593705534935],"min":[-0.23809610307216644,-0.11714012920856476],"type":"VEC2"},{"bufferView":3,"componentType":5125,"count":96,"type":"SCALAR"}],"bufferViews":[{"buffer":0,"byteLength":1152,"target":34962},{"buffer":0,"byteLength":1152,"byteOffset":1152,"target":34962},{"buffer":0,"byteLength":768,"byteOffset":2304,"target":34962},{"buffer":0,"byteLength":384,"byteOffset":3072,"target":34963}],"buffers":[{"byteLength":3456,"uri":"weapon_rif_ak47_physics.bin"}],"meshes":[{"name":"physics_group_weaponrifle","primitives":[{"attributes":{"POSITION":0,"NORMAL":1,"TEXCOORD_0":2},"indices":3}]}],"nodes":[{"extras":{"SurfaceProperty":"weaponrifle","InteractAs":[]},"name":"physics_group_weaponrifle","matrix":[3.027916E-09,0,0.025399996,0,0.025399996,3.027916E-09,0,0,0,0.025399996,3.027916E-09,0,0,0,0,1],"mesh":0}],"samplers":[{"magFilter":9729,"minFilter":9987}],"scenes":[{"name":"weapon_rif_ak47.vmdl_c","nodes":[0]}]}