{"asset":{"copyright":"","generator":"Source 2 Viewer 19.2.0.0 - https://valveresourceformat.github.io","version":"2.0"},"accessors":[{"bufferView":0,"componentType":5126,"count":12935,"max":[26.098600387573242,1.0002771615982056,4.428019046783447],"min":[-11.64754867553711,-1.9876148700714111,-6.483077526092529],"type":"VEC3"},{"bufferView":1,"componentType":5126,"count":12935,"max":[2.009765625,3.408203125],"min":[-0.1170654296875,-4],"type":"VEC2"},{"bufferView":2,"componentType":5126,"count":12935,"max":[0.9999995231628418,0.9998885989189148,0.9999990463256836],"min":[-0.9999995231628418,-0.9999995231628418,-1],"type":"VEC3"},{"bufferView":3,"componentType":5126,"count":12935,"type":"VEC4"},{"bufferView":4,"componentType":5126,"count":12935,"max":[0.99853515625,0.299560546875],"min":[-1.994140625,0.012542724609375],"type":"VEC2"},{"bufferView":5,"componentType":5123,"count":12935,"type":"VEC4"},{"bufferView":6,"componentType":5126,"count":12935,"type":"VEC4"},{"bufferView":7,"componentType":5125,"count":40305,"type":"SCALAR"},{"bufferView":8,"componentType":5125,"count":144,"type":"SCALAR"},{"bufferView":9,"componentType":5126,"count":21414,"max":[25.911012649536133,1.0221797227859497,4.524250030517578],"min":[-11.375741958618164,-1.7899433374404907,-6.181813716888428],"type":"VEC3"},{"bufferView":10,"componentType":5126,"count":21414,"max":[0.9970701932907104,0.9972838759422302],"min":[0.002685628831386566,0.0026551103219389915],"type":"VEC2"},{"bufferView":11,"componentType":5126,"count":21414,"max":[0.9999995231628418,0.9999995231628418,0.9999990463256836],"min":[-0.9999995231628418,-0.9999995231628418,-1],"type":"VEC3"},{"bufferView":12,"componentType":5126,"count":21414,"type":"VEC4"},{"bufferView":13,"componentType":5126,"count":21414,"max":[0.9912109375,0.291748046875],"min":[-1.9892578125,0.010009765625],"type":"VEC2"},{"bufferView":14,"componentType":5123,"count":21414,"type":"VEC4"},{"bufferView":15,"componentType":5126,"count":21414,"type":"VEC4"},{"bufferView":16,"componentType":5126,"count":36,"max":[16.080991744995117,0.75184166431427,3.303863286972046],"min":[11.37360954284668,0.3022060692310333,2.7477378845214844],"type":"VEC3"},{"bufferView":17,"componentType":5126,"count":36,"max":[0,-4],"min":[0,-4],"type":"VEC2"},{"bufferView":18,"componentType":5126,"count":36,"max":[0.0857931599020958,0.9988486766815186,0.6296352744102478],"min":[-0.9999995231628418,0,-0.4808693528175354],"type":"VEC3"},{"bufferView":19,"componentType":5126,"count":36,"type":"VEC4"},{"bufferView":20,"componentType":5126,"count":36,"max":[0.392578125,0.0567626953125],"min":[-1.6123046875,0.0421142578125],"type":"VEC2"},{"bufferView":21,"componentType":5123,"count":36,"type":"VEC4"},{"bufferView":22,"componentType":5126,"count":36,"type":"VEC4"},{"bufferView":23,"componentType":5125,"count":78399,"type":"SCALAR"},{"bufferView":24,"componentType":5125,"count":99,"type":"SCALAR"}],"bufferViews":[{"buffer":0,"byteLength":155220,"byteOffset":2601856,"target":34962},{"buffer":0,"byteLength":103480,"byteOffset":2912296,"target":34962},{"buffer":0,"byteLength":155220,"byteOffset":2757076,"target":34962},{"buffer":0,"byteLength":206960,"byteOffset":1512780,"target":34962},{"buffer":0,"byteLength":103480,"byteOffset":3015776,"target":34962},{"buffer":0,"byteLength":103480,"byteOffset":3119256,"byteStride":8,"target":34962},{"buffer":0,"byteLength":206960,"byteOffset":1719740,"target":34962},{"buffer":0,"byteLength":161220,"byteOffset":2440636,"target":34963},{"buffer":0,"byteLength":576,"byteOffset":3222736,"target":34963},{"buffer":0,"byteLength":256968,"byteOffset":998844,"target":34962},{"buffer":0,"byteLength":171312,"byteOffset":1926700,"target":34962},{"buffer":0,"byteLength":256968,"byteOffset":1255812,"target":34962},{"buffer":0,"byteLength":342624,"target":34962},{"buffer":0,"byteLength":171312,"byteOffset":2098012,"target":34962},{"buffer":0,"byteLength":171312,"byteOffset":2269324,"byteStride":8,"target":34962},{"buffer":0,"byteLength":342624,"byteOffset":342624,"target":34962},{"buffer":0,"byteLength":432,"byteOffset":3224464,"target":34962},{"buffer":0,"byteLength":288,"byteOffset":3225724,"target":34962},{"buffer":0,"byteLength":432,"byteOffset":3224896,"target":34962},{"buffer":0,"byteLength":576,"byteOffset":3223312,"target":34962},{"buffer":0,"byteLength":288,"byteOffset":3226012,"target":34962},{"buffer":0,"byteLength":288,"byteOffset":3226300,"byteStride":8,"target":34962},{"buffer":0,"byteLength":576,"byteOffset":3223888,"target":34962},{"buffer":0,"byteLength":313596,"byteOffset":685248,"target":34963},{"buffer":0,"byteLength":396,"byteOffset":3225328,"target":34963}],"buffers":[{"byteLength":3226588,"uri":"ak47.bin"}],"meshes":[{"extras":{},"name":"weapons\\models\\ak47\\weapon_rif_ak47.vmdl_c.body_legacy","primitives":[{"attributes":{"POSITION":0,"TEXCOORD_0":1,"NORMAL":2,"TANGENT":3,"TEXCOORD_1":4,"JOINTS_0":5,"WEIGHTS_0":6},"indices":7},{"attributes":{"POSITION":0,"TEXCOORD_0":1,"NORMAL":2,"TANGENT":3,"TEXCOORD_1":4,"JOINTS_0":5,"WEIGHTS_0":6},"indices":8}]},{"extras":{},"name":"weapons\\models\\ak47\\weapon_rif_ak47.vmdl_c.body_hd","primitives":[{"attributes":{"POSITION":9,"TEXCOORD_0":10,"NORMAL":11,"TANGENT":12,"TEXCOORD_1":13,"JOINTS_0":14,"WEIGHTS_0":15},"indices":23},{"attributes":{"POSITION":16,"TEXCOORD_0":17,"NORMAL":18,"TANGENT":19,"TEXCOORD_1":20,"JOINTS_0":21,"WEIGHTS_0":22},"indices":24}]}],"nodes":[{"name":"weapons\\models\\ak47\\weapon_rif_ak47.vmdl_c.body_legacy","matrix":[3.027916E-09,0,0.025399996,0,0.025399996,3.027916E-09,0,0,0,0.025399996,3.027916E-09,0,0,0,0,1],"mesh":0},{"name":"weapons\\models\\ak47\\weapon_rif_ak47.vmdl_c.body_hd","matrix":[3.027916E-09,0,0.025399996,0,0.025399996,3.027916E-09,0,0,0,0.025399996,3.027916E-09,0,0,0,0,1],"mesh":1}],"samplers":[{"magFilter":9729,"minFilter":9987}],"scenes":[{"name":"weapon_rif_ak47.vmdl_c","nodes":[0,1]}]}