{"asset":{"copyright":"","generator":"Source 2 Viewer 19.2.0.0 - https://valveresourceformat.github.io","version":"2.0"},"accessors":[{"bufferView":0,"componentType":5126,"count":18754,"max":[18.354248046875,2.2771661281585693,7.376962184906006],"min":[-12.711626052856445,-1.5254158973693848,-5.669050216674805],"type":"VEC3"},{"bufferView":1,"componentType":5126,"count":18754,"max":[1.990234375,1.4453125],"min":[-0.9912109375,0],"type":"VEC2"},{"bufferView":2,"componentType":5126,"count":18754,"max":[0.9999995231628418,0.9998885989189148,0.9999990463256836],"min":[-0.9999995231628418,-0.9999995231628418,-1],"type":"VEC3"},{"bufferView":3,"componentType":5126,"count":18754,"type":"VEC4"},{"bufferView":4,"componentType":5126,"count":18754,"max":[0.9697265625,0.428955078125],"min":[-1.9990234375,0.021331787109375],"type":"VEC2"},{"bufferView":5,"componentType":5123,"count":18754,"type":"VEC4"},{"bufferView":6,"componentType":5126,"count":18754,"type":"VEC4"},{"bufferView":7,"componentType":5125,"count":48822,"type":"SCALAR"},{"bufferView":8,"componentType":5125,"count":15441,"type":"SCALAR"},{"bufferView":9,"componentType":5125,"count":1440,"type":"SCALAR"},{"bufferView":10,"componentType":5125,"count":90,"type":"SCALAR"},{"bufferView":11,"componentType":5126,"count":32844,"max":[17.38813591003418,2.205859899520874,7.486413955688477],"min":[-12.898075103759766,-1.4984430074691772,-6.033155918121338],"type":"VEC3"},{"bufferView":12,"componentType":5126,"count":32844,"max":[0.9970703125,1.533203125],"min":[0.00244140625,0.0036468505859375],"type":"VEC2"},{"bufferView":13,"componentType":5126,"count":32844,"max":[0.9999995231628418,0.9999995231628418,0.9999990463256836],"min":[-0.9999995231628418,-0.9999995231628418,-1],"type":"VEC3"},{"bufferView":14,"componentType":5126,"count":32844,"type":"VEC4"},{"bufferView":15,"componentType":5126,"count":32844,"max":[0.9765625,0.440185546875],"min":[-1.96875,0.017913818359375],"type":"VEC2"},{"bufferView":16,"componentType":5123,"count":32844,"type":"VEC4"},{"bufferView":17,"componentType":5126,"count":32844,"type":"VEC4"},{"bufferView":18,"componentType":5126,"count":66,"max":[-0.6913122534751892,0.39961159229278564,6.8037238121032715],"min":[-0.7139006853103638,-0.48803624510765076,5.916034698486328],"type":"VEC3"},{"bufferView":19,"componentType":5126,"count":66,"max":[0.5322122573852539,0.5375835299491882],"min":[0.4997406005859375,0.504379391670227],"type":"VEC2"},{"bufferView":20,"componentType":5126,"count":66,"max":[-0.9929165244102478,0.11644691228866577,0.11765869706869125],"min":[-0.9997795224189758,-0.11765869706869125,-0.11536117643117905],"type":"VEC3"},{"bufferView":21,"componentType":5126,"count":66,"type":"VEC4"},{"bufferView":22,"componentType":5126,"count":66,"max":[-1.40234375,0.06695556640625],"min":[-1.4033203125,0.03924560546875],"type":"VEC2"},{"bufferView":23,"componentType":5123,"count":66,"type":"VEC4"},{"bufferView":24,"componentType":5126,"count":66,"type":"VEC4"},{"bufferView":25,"componentType":5125,"count":119523,"type":"SCALAR"},{"bufferView":26,"componentType":5125,"count":246,"type":"SCALAR"}],"bufferViews":[{"buffer":0,"byteLength":225048,"byteOffset":3705740,"target":34962},{"buffer":0,"byteLength":150032,"byteOffset":4351124,"target":34962},{"buffer":0,"byteLength":225048,"byteOffset":3930788,"target":34962},{"buffer":0,"byteLength":300064,"byteOffset":2317356,"target":34962},{"buffer":0,"byteLength":150032,"byteOffset":4501156,"target":34962},{"buffer":0,"byteLength":150032,"byteOffset":4651188,"byteStride":8,"target":34962},{"buffer":0,"byteLength":300064,"byteOffset":2617420,"target":34962},{"buffer":0,"byteLength":195288,"byteOffset":4155836,"target":34963},{"buffer":0,"byteLength":61764,"byteOffset":4801220,"target":34963},{"buffer":0,"byteLength":5760,"byteOffset":4862984,"target":34963},{"buffer":0,"byteLength":360,"byteOffset":4875008,"target":34963},{"buffer":0,"byteLength":394128,"byteOffset":1529100,"target":34962},{"buffer":0,"byteLength":262752,"byteOffset":2917484,"target":34962},{"buffer":0,"byteLength":394128,"byteOffset":1923228,"target":34962},{"buffer":0,"byteLength":525504,"target":34962},{"buffer":0,"byteLength":262752,"byteOffset":3180236,"target":34962},{"buffer":0,"byteLength":262752,"byteOffset":3442988,"byteStride":8,"target":34962},{"buffer":0,"byteLength":525504,"byteOffset":525504,"target":34962},{"buffer":0,"byteLength":792,"byteOffset":4871840,"target":34962},{"buffer":0,"byteLength":528,"byteOffset":4873424,"target":34962},{"buffer":0,"byteLength":792,"byteOffset":4872632,"target":34962},{"buffer":0,"byteLength":1056,"byteOffset":4868744,"target":34962},{"buffer":0,"byteLength":528,"byteOffset":4873952,"target":34962},{"buffer":0,"byteLength":528,"byteOffset":4874480,"byteStride":8,"target":34962},{"buffer":0,"byteLength":1056,"byteOffset":4869800,"target":34962},{"buffer":0,"byteLength":478092,"byteOffset":1051008,"target":34963},{"buffer":0,"byteLength":984,"byteOffset":4870856,"target":34963}],"buffers":[{"byteLength":4875368,"uri":"aug.bin"}],"meshes":[{"extras":{},"name":"weapons\\models\\aug\\weapon_rif_aug.vmdl_c.body_legacy","primitives":[{"attributes":{"POSITION":0,"TEXCOORD_0":1,"NORMAL":2,"TANGENT":3,"TEXCOORD_1":4,"JOINTS_0":5,"WEIGHTS_0":6},"indices":7},{"attributes":{"POSITION":0,"TEXCOORD_0":1,"NORMAL":2,"TANGENT":3,"TEXCOORD_1":4,"JOINTS_0":5,"WEIGHTS_0":6},"indices":8},{"attributes":{"POSITION":0,"TEXCOORD_0":1,"NORMAL":2,"TANGENT":3,"TEXCOORD_1":4,"JOINTS_0":5,"WEIGHTS_0":6},"indices":9},{"attributes":{"POSITION":0,"TEXCOORD_0":1,"NORMAL":2,"TANGENT":3,"TEXCOORD_1":4,"JOINTS_0":5,"WEIGHTS_0":6},"indices":10}]},{"extras":{},"name":"weapons\\models\\aug\\weapon_rif_aug.vmdl_c.body_hd","primitives":[{"attributes":{"POSITION":11,"TEXCOORD_0":12,"NORMAL":13,"TANGENT":14,"TEXCOORD_1":15,"JOINTS_0":16,"WEIGHTS_0":17},"indices":25},{"attributes":{"POSITION":18,"TEXCOORD_0":19,"NORMAL":20,"TANGENT":21,"TEXCOORD_1":22,"JOINTS_0":23,"WEIGHTS_0":24},"indices":26}]}],"nodes":[{"name":"weapons\\models\\aug\\weapon_rif_aug.vmdl_c.body_legacy","matrix":[3.027916E-09,0,0.025399996,0,0.025399996,3.027916E-09,0,0,0,0.025399996,3.027916E-09,0,0,0,0,1],"mesh":0},{"name":"weapons\\models\\aug\\weapon_rif_aug.vmdl_c.body_hd","matrix":[3.027916E-09,0,0.025399996,0,0.025399996,3.027916E-09,0,0,0,0.025399996,3.027916E-09,0,0,0,0,1],"mesh":1}],"samplers":[{"magFilter":9729,"minFilter":9987}],"scenes":[{"name":"weapon_rif_aug.vmdl_c","nodes":[0,1]}]}