{"asset":{"copyright":"","generator":"Source 2 Viewer 19.2.0.0 - https://valveresourceformat.github.io","version":"2.0"},"accessors":[{"bufferView":0,"componentType":5126,"count":150,"max":[17.48352813720703,2.0745415687561035,7.704381942749023],"min":[-13.064681053161621,-1.0931096076965332,-6.098416328430176],"type":"VEC3"},{"bufferView":1,"componentType":5126,"count":150,"max":[0.8158175349235535,0.9976912140846252,0.7432741522789001],"min":[-0.7820582985877991,-0.99993896484375,-0.733370304107666],"type":"VEC3"},{"bufferView":2,"componentType":5126,"count":150,"max":[0.34967055916786194,0.15401910245418549],"min":[-0.2612936198711395,-0.12196832150220871],"type":"VEC2"},{"bufferView":3,"componentType":5125,"count":150,"type":"SCALAR"}],"bufferViews":[{"buffer":0,"byteLength":1800,"target":34962},{"buffer":0,"byteLength":1800,"byteOffset":1800,"target":34962},{"buffer":0,"byteLength":1200,"byteOffset":3600,"target":34962},{"buffer":0,"byteLength":600,"byteOffset":4800,"target":34963}],"buffers":[{"byteLength":5400,"uri":"weapon_rif_aug_physics.bin"}],"meshes":[{"name":"physics_group_weaponrifle","primitives":[{"attributes":{"POSITION":0,"NORMAL":1,"TEXCOORD_0":2},"indices":3}]}],"nodes":[{"extras":{"SurfaceProperty":"weaponrifle","InteractAs":[]},"name":"physics_group_weaponrifle","matrix":[3.027916E-09,0,0.025399996,0,0.025399996,3.027916E-09,0,0,0,0.025399996,3.027916E-09,0,0,0,0,1],"mesh":0}],"samplers":[{"magFilter":9729,"minFilter":9987}],"scenes":[{"name":"weapon_rif_aug.vmdl_c","nodes":[0]}]}