{"asset":{"copyright":"","generator":"Source 2 Viewer 19.2.0.0 - https://valveresourceformat.github.io","version":"2.0"},"accessors":[{"bufferView":0,"componentType":5126,"count":22528,"max":[43.56620407104492,1.7107820510864258,12.729227066040039],"min":[-10.23768138885498,-2.844208240509033,2.627065896987915],"type":"VEC3"},{"bufferView":1,"componentType":5126,"count":22528,"max":[1.9716796875,0.99560546875],"min":[0.003173828125,0.00384521484375],"type":"VEC2"},{"bufferView":2,"componentType":5126,"count":22528,"max":[0.9999995231628418,0.9998885989189148,0.9999990463256836],"min":[-0.9999995231628418,-0.9999995231628418,-1],"type":"VEC3"},{"bufferView":3,"componentType":5126,"count":22528,"type":"VEC4"},{"bufferView":4,"componentType":5126,"count":22528,"max":[0.9736328125,0.2017822265625],"min":[-2.00390625,0.018096923828125],"type":"VEC2"},{"bufferView":5,"componentType":5123,"count":22528,"type":"VEC4"},{"bufferView":6,"componentType":5126,"count":22528,"type":"VEC4"},{"bufferView":7,"componentType":5125,"count":65604,"type":"SCALAR"},{"bufferView":8,"componentType":5125,"count":144,"type":"SCALAR"},{"bufferView":9,"componentType":5126,"count":33783,"max":[42.64473342895508,1.6683465242385864,13.426980972290039],"min":[-11.010603904724121,-2.7823214530944824,2.929696798324585],"type":"VEC3"},{"bufferView":10,"componentType":5126,"count":33783,"max":[0.9975585341453552,0.9975585341453552],"min":[0.0021973326802253723,0.0015564439818263054],"type":"VEC2"},{"bufferView":11,"componentType":5126,"count":33783,"max":[0.9999995231628418,0.9999995231628418,0.9999990463256836],"min":[-0.9999995231628418,-0.9999995231628418,-1],"type":"VEC3"},{"bufferView":12,"componentType":5126,"count":33783,"type":"VEC4"},{"bufferView":13,"componentType":5126,"count":33783,"max":[0.9873046875,0.20263671875],"min":[-1.9873046875,0.01184844970703125],"type":"VEC2"},{"bufferView":14,"componentType":5123,"count":33783,"type":"VEC4"},{"bufferView":15,"componentType":5126,"count":33783,"type":"VEC4"},{"bufferView":16,"componentType":5125,"count":119292,"type":"SCALAR"}],"bufferViews":[{"buffer":0,"byteLength":270336,"byteOffset":3089912,"target":34962},{"buffer":0,"byteLength":180224,"byteOffset":4703792,"target":34962},{"buffer":0,"byteLength":270336,"byteOffset":3360248,"target":34962},{"buffer":0,"byteLength":360448,"byteOffset":2369016,"target":34962},{"buffer":0,"byteLength":180224,"byteOffset":4884016,"target":34962},{"buffer":0,"byteLength":180224,"byteOffset":5064240,"byteStride":8,"target":34962},{"buffer":0,"byteLength":360448,"byteOffset":2729464,"target":34962},{"buffer":0,"byteLength":262416,"byteOffset":4441376,"target":34963},{"buffer":0,"byteLength":576,"byteOffset":5244464,"target":34963},{"buffer":0,"byteLength":405396,"byteOffset":1558224,"target":34962},{"buffer":0,"byteLength":270264,"byteOffset":3630584,"target":34962},{"buffer":0,"byteLength":405396,"byteOffset":1963620,"target":34962},{"buffer":0,"byteLength":540528,"target":34962},{"buffer":0,"byteLength":270264,"byteOffset":3900848,"target":34962},{"buffer":0,"byteLength":270264,"byteOffset":4171112,"byteStride":8,"target":34962},{"buffer":0,"byteLength":540528,"byteOffset":540528,"target":34962},{"buffer":0,"byteLength":477168,"byteOffset":1081056,"target":34963}],"buffers":[{"byteLength":5245040,"uri":"awp.bin"}],"meshes":[{"extras":{},"name":"weapons\\models\\awp\\weapon_snip_awp.vmdl_c.body_legacy","primitives":[{"attributes":{"POSITION":0,"TEXCOORD_0":1,"NORMAL":2,"TANGENT":3,"TEXCOORD_1":4,"JOINTS_0":5,"WEIGHTS_0":6},"indices":7},{"attributes":{"POSITION":0,"TEXCOORD_0":1,"NORMAL":2,"TANGENT":3,"TEXCOORD_1":4,"JOINTS_0":5,"WEIGHTS_0":6},"indices":8}]},{"extras":{},"name":"weapons\\models\\awp\\weapon_snip_awp.vmdl_c.body_hd","primitives":[{"attributes":{"POSITION":9,"TEXCOORD_0":10,"NORMAL":11,"TANGENT":12,"TEXCOORD_1":13,"JOINTS_0":14,"WEIGHTS_0":15},"indices":16}]}],"nodes":[{"name":"weapons\\models\\awp\\weapon_snip_awp.vmdl_c.body_legacy","matrix":[3.027916E-09,0,0.025399996,0,0.025399996,3.027916E-09,0,0,0,0.025399996,3.027916E-09,0,0,0,0,1],"mesh":0},{"name":"weapons\\models\\awp\\weapon_snip_awp.vmdl_c.body_hd","matrix":[3.027916E-09,0,0.025399996,0,0.025399996,3.027916E-09,0,0,0,0.025399996,3.027916E-09,0,0,0,0,1],"mesh":1}],"samplers":[{"magFilter":9729,"minFilter":9987}],"scenes":[{"name":"weapon_snip_awp.vmdl_c","nodes":[0,1]}]}