{"asset":{"copyright":"","generator":"Source 2 Viewer 19.2.0.0 - https://valveresourceformat.github.io","version":"2.0"},"accessors":[{"bufferView":0,"componentType":5126,"count":114,"max":[43.659263610839844,1.101222276687622,12.576654434204102],"min":[-10.332375526428223,-1.101337194442749,2.754025459289551],"type":"VEC3"},{"bufferView":1,"componentType":5126,"count":114,"max":[0.9010574817657471,0.9999998211860657,0.8449294567108154],"min":[-0.884130597114563,-0.9999998211860657,-0.8921154141426086],"type":"VEC3"},{"bufferView":2,"componentType":5126,"count":114,"max":[0.8731852769851685,0.2377181202173233],"min":[-0.20664750039577484,-0.022024445235729218],"type":"VEC2"},{"bufferView":3,"componentType":5125,"count":114,"type":"SCALAR"}],"bufferViews":[{"buffer":0,"byteLength":1368,"target":34962},{"buffer":0,"byteLength":1368,"byteOffset":1368,"target":34962},{"buffer":0,"byteLength":912,"byteOffset":2736,"target":34962},{"buffer":0,"byteLength":456,"byteOffset":3648,"target":34963}],"buffers":[{"byteLength":4104,"uri":"weapon_snip_awp_physics.bin"}],"meshes":[{"name":"physics_group_weaponsniper","primitives":[{"attributes":{"POSITION":0,"NORMAL":1,"TEXCOORD_0":2},"indices":3}]}],"nodes":[{"extras":{"SurfaceProperty":"weaponsniper","InteractAs":[]},"name":"physics_group_weaponsniper","matrix":[3.027916E-09,0,0.025399996,0,0.025399996,3.027916E-09,0,0,0,0.025399996,3.027916E-09,0,0,0,0,1],"mesh":0}],"samplers":[{"magFilter":9729,"minFilter":9987}],"scenes":[{"name":"weapon_snip_awp.vmdl_c","nodes":[0]}]}