{"asset":{"copyright":"","generator":"Source 2 Viewer 19.2.0.0 - https://valveresourceformat.github.io","version":"2.0"},"accessors":[{"bufferView":0,"componentType":5126,"count":114,"max":[19.14411163330078,0.9999998807907104,5.071009635925293],"min":[-12.734066009521484,-1,-4.147974014282227],"type":"VEC3"},{"bufferView":1,"componentType":5126,"count":114,"max":[0.5855228900909424,1,0.7940566539764404],"min":[-0.8016554713249207,-1,-0.7421268820762634],"type":"VEC3"},{"bufferView":2,"componentType":5126,"count":114,"max":[0.3828822374343872,0.10142019391059875],"min":[-0.2546813189983368,-0.08295948058366776],"type":"VEC2"},{"bufferView":3,"componentType":5125,"count":114,"type":"SCALAR"}],"bufferViews":[{"buffer":0,"byteLength":1368,"target":34962},{"buffer":0,"byteLength":1368,"byteOffset":1368,"target":34962},{"buffer":0,"byteLength":912,"byteOffset":2736,"target":34962},{"buffer":0,"byteLength":456,"byteOffset":3648,"target":34963}],"buffers":[{"byteLength":4104,"uri":"weapon_smg_bizon_physics.bin"}],"meshes":[{"name":"physics_group_weaponsmg","primitives":[{"attributes":{"POSITION":0,"NORMAL":1,"TEXCOORD_0":2},"indices":3}]}],"nodes":[{"extras":{"SurfaceProperty":"weaponsmg","InteractAs":[]},"name":"physics_group_weaponsmg","matrix":[3.027916E-09,0,0.025399996,0,0.025399996,3.027916E-09,0,0,0,0.025399996,3.027916E-09,0,0,0,0,1],"mesh":0}],"samplers":[{"magFilter":9729,"minFilter":9987}],"scenes":[{"name":"weapon_smg_bizon.vmdl_c","nodes":[0]}]}