{"asset":{"copyright":"","generator":"Source 2 Viewer 19.2.0.0 - https://valveresourceformat.github.io","version":"2.0"},"accessors":[{"bufferView":0,"componentType":5126,"count":16479,"max":[18.22867774963379,1.1892298460006714,4.35527229309082],"min":[-11.515003204345703,-1.5826094150543213,-3.836733818054199],"type":"VEC3"},{"bufferView":1,"componentType":5126,"count":16479,"max":[3.25,0.99609375],"min":[0.006145477294921875,-0.439453125],"type":"VEC2"},{"bufferView":2,"componentType":5126,"count":16479,"max":[0.9999995231628418,0.9998885989189148,0.9999990463256836],"min":[-0.9999995231628418,-0.9999995231628418,-1],"type":"VEC3"},{"bufferView":3,"componentType":5126,"count":16479,"type":"VEC4"},{"bufferView":4,"componentType":5126,"count":16479,"max":[0.9423828125,0.2685546875],"min":[-1.9580078125,0.0204010009765625],"type":"VEC2"},{"bufferView":5,"componentType":5123,"count":16479,"type":"VEC4"},{"bufferView":6,"componentType":5126,"count":16479,"type":"VEC4"},{"bufferView":7,"componentType":5125,"count":47916,"type":"SCALAR"},{"bufferView":8,"componentType":5126,"count":23582,"max":[18.865385055541992,1.394675850868225,4.713422775268555],"min":[-12.66313362121582,-1.9944450855255127,-4.074763774871826],"type":"VEC3"},{"bufferView":9,"componentType":5126,"count":23582,"max":[0.9970701932907104,0.9970701932907104],"min":[0.0024414807558059692,0.0024109622463583946],"type":"VEC2"},{"bufferView":10,"componentType":5126,"count":23582,"max":[0.9999995231628418,0.9999995231628418,0.9999990463256836],"min":[-0.9999995231628418,-0.9999995231628418,-1],"type":"VEC3"},{"bufferView":11,"componentType":5126,"count":23582,"type":"VEC4"},{"bufferView":12,"componentType":5126,"count":23582,"max":[0.9765625,0.275634765625],"min":[-1.9775390625,0.009552001953125],"type":"VEC2"},{"bufferView":13,"componentType":5123,"count":23582,"type":"VEC4"},{"bufferView":14,"componentType":5126,"count":23582,"type":"VEC4"},{"bufferView":15,"componentType":5125,"count":80742,"type":"SCALAR"}],"bufferViews":[{"buffer":0,"byteLength":197748,"byteOffset":2170888,"target":34962},{"buffer":0,"byteLength":131832,"byteOffset":3324016,"target":34962},{"buffer":0,"byteLength":197748,"byteOffset":2368636,"target":34962},{"buffer":0,"byteLength":263664,"byteOffset":1643560,"target":34962},{"buffer":0,"byteLength":131832,"byteOffset":3455848,"target":34962},{"buffer":0,"byteLength":131832,"byteOffset":3587680,"byteStride":8,"target":34962},{"buffer":0,"byteLength":263664,"byteOffset":1907224,"target":34962},{"buffer":0,"byteLength":191664,"byteOffset":2566384,"target":34963},{"buffer":0,"byteLength":282984,"byteOffset":1077592,"target":34962},{"buffer":0,"byteLength":188656,"byteOffset":2758048,"target":34962},{"buffer":0,"byteLength":282984,"byteOffset":1360576,"target":34962},{"buffer":0,"byteLength":377312,"target":34962},{"buffer":0,"byteLength":188656,"byteOffset":2946704,"target":34962},{"buffer":0,"byteLength":188656,"byteOffset":3135360,"byteStride":8,"target":34962},{"buffer":0,"byteLength":377312,"byteOffset":377312,"target":34962},{"buffer":0,"byteLength":322968,"byteOffset":754624,"target":34963}],"buffers":[{"byteLength":3719512,"uri":"bizon.bin"}],"meshes":[{"extras":{},"name":"weapons\\models\\bizon\\weapon_smg_bizon.vmdl_c.body_legacy","primitives":[{"attributes":{"POSITION":0,"TEXCOORD_0":1,"NORMAL":2,"TANGENT":3,"TEXCOORD_1":4,"JOINTS_0":5,"WEIGHTS_0":6},"indices":7}]},{"extras":{},"name":"weapons\\models\\bizon\\weapon_smg_bizon.vmdl_c.body_hd","primitives":[{"attributes":{"POSITION":8,"TEXCOORD_0":9,"NORMAL":10,"TANGENT":11,"TEXCOORD_1":12,"JOINTS_0":13,"WEIGHTS_0":14},"indices":15}]}],"nodes":[{"name":"weapons\\models\\bizon\\weapon_smg_bizon.vmdl_c.body_legacy","matrix":[3.027916E-09,0,0.025399996,0,0.025399996,3.027916E-09,0,0,0,0.025399996,3.027916E-09,0,0,0,0,1],"mesh":0},{"name":"weapons\\models\\bizon\\weapon_smg_bizon.vmdl_c.body_hd","matrix":[3.027916E-09,0,0.025399996,0,0.025399996,3.027916E-09,0,0,0,0.025399996,3.027916E-09,0,0,0,0,1],"mesh":1}],"samplers":[{"magFilter":9729,"minFilter":9987}],"scenes":[{"name":"weapon_smg_bizon.vmdl_c","nodes":[0,1]}]}