{"asset":{"copyright":"","generator":"Source 2 Viewer 19.2.0.0 - https://valveresourceformat.github.io","version":"2.0"},"accessors":[{"bufferView":0,"componentType":5126,"count":36,"max":[3.8399996757507324,3.49399995803833,1.149999976158142],"min":[-5.480000019073486,-3.366000175476074,-1.6100003719329834],"type":"VEC3"},{"bufferView":1,"componentType":5126,"count":36,"max":[1,1,1],"min":[-1,-1,-1],"type":"VEC3"},{"bufferView":2,"componentType":5126,"count":36,"max":[0.07679998874664307,0.06732000410556793],"min":[-0.1096000000834465,-0.06988000124692917],"type":"VEC2"},{"bufferView":3,"componentType":5125,"count":36,"type":"SCALAR"}],"bufferViews":[{"buffer":0,"byteLength":432,"target":34962},{"buffer":0,"byteLength":432,"byteOffset":432,"target":34962},{"buffer":0,"byteLength":288,"byteOffset":864,"target":34962},{"buffer":0,"byteLength":144,"byteOffset":1152,"target":34963}],"buffers":[{"byteLength":1296,"uri":"weapon_c4_physics.bin"}],"meshes":[{"name":"physics_group_weaponc4","primitives":[{"attributes":{"POSITION":0,"NORMAL":1,"TEXCOORD_0":2},"indices":3}]}],"nodes":[{"extras":{"SurfaceProperty":"weaponc4","InteractAs":[]},"name":"physics_group_weaponc4","matrix":[3.027916E-09,0,0.025399996,0,0.025399996,3.027916E-09,0,0,0,0.025399996,3.027916E-09,0,0,0,0,1],"mesh":0}],"samplers":[{"magFilter":9729,"minFilter":9987}],"scenes":[{"name":"weapon_c4.vmdl_c","nodes":[0]}]}