{"asset":{"copyright":"","generator":"Source 2 Viewer 19.2.0.0 - https://valveresourceformat.github.io","version":"2.0"},"accessors":[{"bufferView":0,"componentType":5126,"count":96,"max":[10.15432357788086,0.5500000715255737,5.688593864440918],"min":[-0.34020519256591797,-0.5500001311302185,-0.9383702278137207],"type":"VEC3"},{"bufferView":1,"componentType":5126,"count":96,"max":[0.6551240086555481,1,0.692980170249939],"min":[-0.6983708143234253,-1,-0.6988438963890076],"type":"VEC3"},{"bufferView":2,"componentType":5126,"count":96,"max":[0.2030864655971527,0.11377187818288803],"min":[-0.006804103497415781,-0.018767403438687325],"type":"VEC2"},{"bufferView":3,"componentType":5125,"count":96,"type":"SCALAR"}],"bufferViews":[{"buffer":0,"byteLength":1152,"target":34962},{"buffer":0,"byteLength":1152,"byteOffset":1152,"target":34962},{"buffer":0,"byteLength":768,"byteOffset":2304,"target":34962},{"buffer":0,"byteLength":384,"byteOffset":3072,"target":34963}],"buffers":[{"byteLength":3456,"uri":"weapon_pist_cz75a_physics.bin"}],"meshes":[{"name":"physics_group_weaponpistol","primitives":[{"attributes":{"POSITION":0,"NORMAL":1,"TEXCOORD_0":2},"indices":3}]}],"nodes":[{"extras":{"SurfaceProperty":"weaponpistol","InteractAs":[]},"name":"physics_group_weaponpistol","matrix":[3.027916E-09,0,0.025399996,0,0.025399996,3.027916E-09,0,0,0,0.025399996,3.027916E-09,0,0,0,0,1],"mesh":0}],"samplers":[{"magFilter":9729,"minFilter":9987}],"scenes":[{"name":"weapon_pist_cz75a.vmdl_c","nodes":[0]}]}