{"asset":{"copyright":"","generator":"Source 2 Viewer 19.2.0.0 - https://valveresourceformat.github.io","version":"2.0"},"accessors":[{"bufferView":0,"componentType":5126,"count":20277,"max":[10.665099143981934,0.6504086852073669,5.772799015045166],"min":[-0.12142399698495865,-0.6466363668441772,-1.025281310081482],"type":"VEC3"},{"bufferView":1,"componentType":5126,"count":20277,"max":[1,0.9990233778953552],"min":[0.0058290353044867516,0.0003662221133708954],"type":"VEC2"},{"bufferView":2,"componentType":5126,"count":20277,"max":[0.9999995231628418,0.9999995231628418,0.9999990463256836],"min":[-0.9999995231628418,-0.9999995231628418,-1],"type":"VEC3"},{"bufferView":3,"componentType":5126,"count":20277,"type":"VEC4"},{"bufferView":4,"componentType":5126,"count":20277,"max":[0.96923828125,0.6259765625],"min":[-1.966796875,0.035064697265625],"type":"VEC2"},{"bufferView":5,"componentType":5123,"count":20277,"type":"VEC4"},{"bufferView":6,"componentType":5126,"count":20277,"type":"VEC4"},{"bufferView":7,"componentType":5125,"count":69831,"type":"SCALAR"},{"bufferView":8,"componentType":5126,"count":18461,"max":[10.021965026855469,0.6979842782020569,5.702042579650879],"min":[-0.23613578081130981,-0.6806781888008118,-0.9233703017234802],"type":"VEC3"},{"bufferView":9,"componentType":5126,"count":18461,"max":[0.9975585341453552,0.9975585341453552],"min":[0.0023194067180156708,0.0023194067180156708],"type":"VEC2"},{"bufferView":10,"componentType":5126,"count":18461,"max":[0.9999995231628418,0.9999995231628418,0.9999990463256836],"min":[-0.9999995231628418,-0.9999995231628418,-1],"type":"VEC3"},{"bufferView":11,"componentType":5126,"count":18461,"type":"VEC4"},{"bufferView":12,"componentType":5126,"count":18461,"max":[0.94775390625,0.6171875],"min":[-1.9423828125,0.041229248046875],"type":"VEC2"},{"bufferView":13,"componentType":5123,"count":18461,"type":"VEC4"},{"bufferView":14,"componentType":5126,"count":18461,"type":"VEC4"},{"bufferView":15,"componentType":5125,"count":67203,"type":"SCALAR"}],"bufferViews":[{"buffer":0,"byteLength":243324,"byteOffset":1787752,"target":34962},{"buffer":0,"byteLength":162216,"byteOffset":2717464,"target":34962},{"buffer":0,"byteLength":243324,"byteOffset":2031076,"target":34962},{"buffer":0,"byteLength":324432,"target":34962},{"buffer":0,"byteLength":162216,"byteOffset":2879680,"target":34962},{"buffer":0,"byteLength":162216,"byteOffset":3041896,"byteStride":8,"target":34962},{"buffer":0,"byteLength":324432,"byteOffset":324432,"target":34962},{"buffer":0,"byteLength":279324,"byteOffset":1239616,"target":34963},{"buffer":0,"byteLength":221532,"byteOffset":2274400,"target":34962},{"buffer":0,"byteLength":147688,"byteOffset":3204112,"target":34962},{"buffer":0,"byteLength":221532,"byteOffset":2495932,"target":34962},{"buffer":0,"byteLength":295376,"byteOffset":648864,"target":34962},{"buffer":0,"byteLength":147688,"byteOffset":3351800,"target":34962},{"buffer":0,"byteLength":147688,"byteOffset":3499488,"byteStride":8,"target":34962},{"buffer":0,"byteLength":295376,"byteOffset":944240,"target":34962},{"buffer":0,"byteLength":268812,"byteOffset":1518940,"target":34963}],"buffers":[{"byteLength":3647176,"uri":"cz75a.bin"}],"meshes":[{"extras":{},"name":"weapons\\models\\cz75a\\weapon_pist_cz75a.vmdl_c.body_legacy","primitives":[{"attributes":{"POSITION":0,"TEXCOORD_0":1,"NORMAL":2,"TANGENT":3,"TEXCOORD_1":4,"JOINTS_0":5,"WEIGHTS_0":6},"indices":7}]},{"extras":{},"name":"weapons\\models\\cz75a\\weapon_pist_cz75a.vmdl_c.body_hd","primitives":[{"attributes":{"POSITION":8,"TEXCOORD_0":9,"NORMAL":10,"TANGENT":11,"TEXCOORD_1":12,"JOINTS_0":13,"WEIGHTS_0":14},"indices":15}]}],"nodes":[{"name":"weapons\\models\\cz75a\\weapon_pist_cz75a.vmdl_c.body_legacy","matrix":[3.027916E-09,0,0.025399996,0,0.025399996,3.027916E-09,0,0,0,0.025399996,3.027916E-09,0,0,0,0,1],"mesh":0},{"name":"weapons\\models\\cz75a\\weapon_pist_cz75a.vmdl_c.body_hd","matrix":[3.027916E-09,0,0.025399996,0,0.025399996,3.027916E-09,0,0,0,0.025399996,3.027916E-09,0,0,0,0,1],"mesh":1}],"samplers":[{"magFilter":9729,"minFilter":9987}],"scenes":[{"name":"weapon_pist_cz75a.vmdl_c","nodes":[0,1]}]}