{"asset":{"copyright":"","generator":"Source 2 Viewer 19.2.0.0 - https://valveresourceformat.github.io","version":"2.0"},"accessors":[{"bufferView":0,"componentType":5126,"count":114,"max":[9.062030792236328,0.7500001192092896,4.739110469818115],"min":[-2.5421066284179688,-0.7500001192092896,-1.9802403450012207],"type":"VEC3"},{"bufferView":1,"componentType":5126,"count":114,"max":[0.8048709034919739,1,0.7526761889457703],"min":[-0.7338434457778931,-1,-0.8003739714622498],"type":"VEC3"},{"bufferView":2,"componentType":5126,"count":114,"max":[0.18124061822891235,0.09403487294912338],"min":[-0.039604805409908295,-0.03948672115802765],"type":"VEC2"},{"bufferView":3,"componentType":5125,"count":114,"type":"SCALAR"}],"bufferViews":[{"buffer":0,"byteLength":1368,"target":34962},{"buffer":0,"byteLength":1368,"byteOffset":1368,"target":34962},{"buffer":0,"byteLength":912,"byteOffset":2736,"target":34962},{"buffer":0,"byteLength":456,"byteOffset":3648,"target":34963}],"buffers":[{"byteLength":4104,"uri":"weapon_pist_deagle_physics.bin"}],"meshes":[{"name":"physics_group_weaponpistol","primitives":[{"attributes":{"POSITION":0,"NORMAL":1,"TEXCOORD_0":2},"indices":3}]}],"nodes":[{"extras":{"SurfaceProperty":"weaponpistol","InteractAs":[]},"name":"physics_group_weaponpistol","matrix":[3.027916E-09,0,0.025399996,0,0.025399996,3.027916E-09,0,0,0,0.025399996,3.027916E-09,0,0,0,0,1],"mesh":0}],"samplers":[{"magFilter":9729,"minFilter":9987}],"scenes":[{"name":"weapon_pist_deagle.vmdl_c","nodes":[0]}]}