{"asset":{"copyright":"","generator":"Source 2 Viewer 19.2.0.0 - https://valveresourceformat.github.io","version":"2.0"},"accessors":[{"bufferView":0,"componentType":5126,"count":10738,"max":[8.917840957641602,0.6180981993675232,4.473557949066162],"min":[-2.4514997005462646,-0.6792134642601013,-1.5897656679153442],"type":"VEC3"},{"bufferView":1,"componentType":5126,"count":10738,"max":[1.998046875,0.998046875],"min":[-0.07525634765625,-0.09356689453125],"type":"VEC2"},{"bufferView":2,"componentType":5126,"count":10738,"max":[0.9999995231628418,0.9999995231628418,0.9999990463256836],"min":[-0.9999995231628418,-0.9999995231628418,-1],"type":"VEC3"},{"bufferView":3,"componentType":5126,"count":10738,"type":"VEC4"},{"bufferView":4,"componentType":5126,"count":10738,"max":[0.96923828125,0.521484375],"min":[-1.9384765625,0.03656005859375],"type":"VEC2"},{"bufferView":5,"componentType":5123,"count":10738,"type":"VEC4"},{"bufferView":6,"componentType":5126,"count":10738,"type":"VEC4"},{"bufferView":7,"componentType":5125,"count":26037,"type":"SCALAR"},{"bufferView":8,"componentType":5126,"count":15038,"max":[9.024170875549316,0.8696485757827759,4.669670104980469],"min":[-2.5258359909057617,-0.8781659007072449,-1.9924136400222778],"type":"VEC3"},{"bufferView":9,"componentType":5126,"count":15038,"max":[0.9975585341453552,0.9975585341453552],"min":[0.0021668141707777977,0.013702810741961002],"type":"VEC2"},{"bufferView":10,"componentType":5126,"count":15038,"max":[0.9999995231628418,0.9999995231628418,0.9999990463256836],"min":[-0.9999995231628418,-0.9999995231628418,-1],"type":"VEC3"},{"bufferView":11,"componentType":5126,"count":15038,"type":"VEC4"},{"bufferView":12,"componentType":5126,"count":15038,"max":[0.97509765625,0.5537109375],"min":[-1.947265625,0.0208740234375],"type":"VEC2"},{"bufferView":13,"componentType":5123,"count":15038,"type":"VEC4"},{"bufferView":14,"componentType":5126,"count":15038,"type":"VEC4"},{"bufferView":15,"componentType":5125,"count":54801,"type":"SCALAR"}],"bufferViews":[{"buffer":0,"byteLength":128856,"byteOffset":1404948,"target":34962},{"buffer":0,"byteLength":85904,"byteOffset":2127720,"target":34962},{"buffer":0,"byteLength":128856,"byteOffset":1533804,"target":34962},{"buffer":0,"byteLength":171808,"byteOffset":1061332,"target":34962},{"buffer":0,"byteLength":85904,"byteOffset":2213624,"target":34962},{"buffer":0,"byteLength":85904,"byteOffset":2299528,"byteStride":8,"target":34962},{"buffer":0,"byteLength":171808,"byteOffset":1233140,"target":34962},{"buffer":0,"byteLength":104148,"byteOffset":2023572,"target":34963},{"buffer":0,"byteLength":180456,"byteOffset":700420,"target":34962},{"buffer":0,"byteLength":120304,"byteOffset":1662660,"target":34962},{"buffer":0,"byteLength":180456,"byteOffset":880876,"target":34962},{"buffer":0,"byteLength":240608,"target":34962},{"buffer":0,"byteLength":120304,"byteOffset":1782964,"target":34962},{"buffer":0,"byteLength":120304,"byteOffset":1903268,"byteStride":8,"target":34962},{"buffer":0,"byteLength":240608,"byteOffset":240608,"target":34962},{"buffer":0,"byteLength":219204,"byteOffset":481216,"target":34963}],"buffers":[{"byteLength":2385432,"uri":"deagle.bin"}],"meshes":[{"extras":{},"name":"weapons\\models\\deagle\\weapon_pist_deagle.vmdl_c.body_legacy","primitives":[{"attributes":{"POSITION":0,"TEXCOORD_0":1,"NORMAL":2,"TANGENT":3,"TEXCOORD_1":4,"JOINTS_0":5,"WEIGHTS_0":6},"indices":7}]},{"extras":{},"name":"weapons\\models\\deagle\\weapon_pist_deagle.vmdl_c.body_hd","primitives":[{"attributes":{"POSITION":8,"TEXCOORD_0":9,"NORMAL":10,"TANGENT":11,"TEXCOORD_1":12,"JOINTS_0":13,"WEIGHTS_0":14},"indices":15}]}],"nodes":[{"name":"weapons\\models\\deagle\\weapon_pist_deagle.vmdl_c.body_legacy","matrix":[3.027916E-09,0,0.025399996,0,0.025399996,3.027916E-09,0,0,0,0.025399996,3.027916E-09,0,0,0,0,1],"mesh":0},{"name":"weapons\\models\\deagle\\weapon_pist_deagle.vmdl_c.body_hd","matrix":[3.027916E-09,0,0.025399996,0,0.025399996,3.027916E-09,0,0,0,0.025399996,3.027916E-09,0,0,0,0,1],"mesh":1}],"samplers":[{"magFilter":9729,"minFilter":9987}],"scenes":[{"name":"weapon_pist_deagle.vmdl_c","nodes":[0,1]}]}