{"asset":{"copyright":"","generator":"Source 2 Viewer 19.2.0.0 - https://valveresourceformat.github.io","version":"2.0"},"accessors":[{"bufferView":0,"componentType":5126,"count":108,"max":[1.48492431640625,1.4849244356155396,4.7951250076293945],"min":[-1.48492431640625,-2.4542274475097656,-3.8274145126342773],"type":"VEC3"},{"bufferView":1,"componentType":5126,"count":108,"max":[0.9238796234130859,0.9238794445991516,0.5298460125923157],"min":[-0.9238799214363098,-0.8704009056091309,-1],"type":"VEC3"},{"bufferView":2,"componentType":5126,"count":108,"max":[0.09590249508619308,0.09590249508619308],"min":[-0.07654828578233719,-0.07654828578233719],"type":"VEC2"},{"bufferView":3,"componentType":5125,"count":108,"type":"SCALAR"}],"bufferViews":[{"buffer":0,"byteLength":1296,"target":34962},{"buffer":0,"byteLength":1296,"byteOffset":1296,"target":34962},{"buffer":0,"byteLength":864,"byteOffset":2592,"target":34962},{"buffer":0,"byteLength":432,"byteOffset":3456,"target":34963}],"buffers":[{"byteLength":3888,"uri":"weapon_decoy_physics.bin"}],"meshes":[{"name":"physics_group_weaponflashbang","primitives":[{"attributes":{"POSITION":0,"NORMAL":1,"TEXCOORD_0":2},"indices":3}]}],"nodes":[{"extras":{"SurfaceProperty":"weaponflashbang","InteractAs":[]},"name":"physics_group_weaponflashbang","matrix":[3.027916E-09,0,0.025399996,0,0.025399996,3.027916E-09,0,0,0,0.025399996,3.027916E-09,0,0,0,0,1],"mesh":0}],"samplers":[{"magFilter":9729,"minFilter":9987}],"scenes":[{"name":"weapon_decoy.vmdl_c","nodes":[0]}]}