{"asset":{"copyright":"","generator":"Source 2 Viewer 19.2.0.0 - https://valveresourceformat.github.io","version":"2.0"},"accessors":[{"bufferView":0,"componentType":5126,"count":180,"max":[3.8592472076416016,8.72584342956543,4.304193496704102],"min":[-3.6535720825195312,-7.966402053833008,-3.4460372924804688],"type":"VEC3"},{"bufferView":1,"componentType":5126,"count":180,"max":[0.9861474633216858,0.9336512684822083,0.995598316192627],"min":[-0.9877102971076965,-0.9116463661193848,-0.9987709522247314],"type":"VEC3"},{"bufferView":2,"componentType":5126,"count":180,"max":[0.08547820895910263,0.15932804346084595],"min":[-0.07037601619958878,-0.17451687157154083],"type":"VEC2"},{"bufferView":3,"componentType":5125,"count":180,"type":"SCALAR"}],"bufferViews":[{"buffer":0,"byteLength":2160,"target":34962},{"buffer":0,"byteLength":2160,"byteOffset":2160,"target":34962},{"buffer":0,"byteLength":1440,"byteOffset":4320,"target":34962},{"buffer":0,"byteLength":720,"byteOffset":5760,"target":34963}],"buffers":[{"byteLength":6480,"uri":"defuser_physics.bin"}],"meshes":[{"name":"physics_group_defuser","primitives":[{"attributes":{"POSITION":0,"NORMAL":1,"TEXCOORD_0":2},"indices":3}]}],"nodes":[{"extras":{"SurfaceProperty":"defuser","InteractAs":[]},"name":"physics_group_defuser","matrix":[3.027916E-09,0,0.025399996,0,0.025399996,3.027916E-09,0,0,0,0.025399996,3.027916E-09,0,0,0,0,1],"mesh":0}],"samplers":[{"magFilter":9729,"minFilter":9987}],"scenes":[{"name":"defuser.vmdl_c","nodes":[0]}]}