{"asset":{"copyright":"","generator":"Source 2 Viewer 19.2.0.0 - https://valveresourceformat.github.io","version":"2.0"},"accessors":[{"bufferView":0,"componentType":5126,"count":1402,"max":[53.78528594970703,1.9999998807907104,1.001259207725525],"min":[-3.999999761581421,-1.9999998807907104,-0.7004495859146118],"type":"VEC3"},{"bufferView":1,"componentType":5126,"count":1402,"max":[72.86490631103516,3.0798816680908203],"min":[0.01025421917438507,-30.883699417114258],"type":"VEC2"},{"bufferView":2,"componentType":5126,"count":1402,"max":[0.9999995231628418,0.9999995231628418,0.9999990463256836],"min":[-0.9999995231628418,-0.9999995231628418,-1],"type":"VEC3"},{"bufferView":3,"componentType":5126,"count":1402,"type":"VEC4"},{"bufferView":4,"componentType":5123,"count":1402,"type":"VEC4"},{"bufferView":5,"componentType":5126,"count":1402,"type":"VEC4"},{"bufferView":6,"componentType":5125,"count":2424,"type":"SCALAR"},{"bufferView":7,"componentType":5125,"count":648,"type":"SCALAR"},{"bufferView":8,"componentType":5125,"count":648,"type":"SCALAR"}],"bufferViews":[{"buffer":0,"byteLength":16824,"byteOffset":44864,"target":34962},{"buffer":0,"byteLength":11216,"byteOffset":78512,"target":34962},{"buffer":0,"byteLength":16824,"byteOffset":61688,"target":34962},{"buffer":0,"byteLength":22432,"target":34962},{"buffer":0,"byteLength":11216,"byteOffset":89728,"byteStride":8,"target":34962},{"buffer":0,"byteLength":22432,"byteOffset":22432,"target":34962},{"buffer":0,"byteLength":9696,"byteOffset":100944,"target":34963},{"buffer":0,"byteLength":2592,"byteOffset":110640,"target":34963},{"buffer":0,"byteLength":2592,"byteOffset":113232,"target":34963}],"buffers":[{"byteLength":115824,"uri":"defuse_multimeter.bin"}],"meshes":[{"extras":{},"name":"weapons\\models\\c4\\defuse_multimeter.vmdl_c.defuse_multimeter","primitives":[{"attributes":{"POSITION":0,"TEXCOORD_0":1,"NORMAL":2,"TANGENT":3,"JOINTS_0":4,"WEIGHTS_0":5},"indices":6},{"attributes":{"POSITION":0,"TEXCOORD_0":1,"NORMAL":2,"TANGENT":3,"JOINTS_0":4,"WEIGHTS_0":5},"indices":7},{"attributes":{"POSITION":0,"TEXCOORD_0":1,"NORMAL":2,"TANGENT":3,"JOINTS_0":4,"WEIGHTS_0":5},"indices":8}]}],"nodes":[{"name":"weapons\\models\\c4\\defuse_multimeter.vmdl_c.defuse_multimeter","matrix":[3.027916E-09,0,0.025399996,0,0.025399996,3.027916E-09,0,0,0,0.025399996,3.027916E-09,0,0,0,0,1],"mesh":0}],"samplers":[{"magFilter":9729,"minFilter":9987}],"scenes":[{"name":"defuse_multimeter.vmdl_c","nodes":[0]}]}