{"asset":{"copyright":"","generator":"Source 2 Viewer 19.2.0.0 - https://valveresourceformat.github.io","version":"2.0"},"accessors":[{"bufferView":0,"componentType":5126,"count":209,"max":[5.777898788452148,1.2293570041656494,2.4434444904327393],"min":[-5.777899742126465,-1.2293570041656494,-2.44344425201416],"type":"VEC3"},{"bufferView":1,"componentType":5126,"count":209,"max":[0.9431745409965515,0.9678640365600586],"min":[0.028046511113643646,0.1031220406293869],"type":"VEC2"},{"bufferView":2,"componentType":5126,"count":209,"max":[0.9987523555755615,0.9997313618659973,0.9993062615394592],"min":[-0.9330238699913025,-0.9997313618659973,-0.998566746711731],"type":"VEC3"},{"bufferView":3,"componentType":5126,"count":209,"type":"VEC4"},{"bufferView":4,"componentType":5123,"count":209,"type":"VEC4"},{"bufferView":5,"componentType":5126,"count":209,"type":"VEC4"},{"bufferView":6,"componentType":5125,"count":936,"type":"SCALAR"}],"bufferViews":[{"buffer":0,"byteLength":2508,"byteOffset":10432,"target":34962},{"buffer":0,"byteLength":1672,"byteOffset":15448,"target":34962},{"buffer":0,"byteLength":2508,"byteOffset":12940,"target":34962},{"buffer":0,"byteLength":3344,"byteOffset":3744,"target":34962},{"buffer":0,"byteLength":1672,"byteOffset":17120,"byteStride":8,"target":34962},{"buffer":0,"byteLength":3344,"byteOffset":7088,"target":34962},{"buffer":0,"byteLength":3744,"target":34963}],"buffers":[{"byteLength":18792,"uri":"eholster.bin"}],"meshes":[{"extras":{},"name":"weapons\\models\\elite\\eholster.vmdl_c.eholster","primitives":[{"attributes":{"POSITION":0,"TEXCOORD_0":1,"NORMAL":2,"TANGENT":3,"JOINTS_0":4,"WEIGHTS_0":5},"indices":6}]}],"nodes":[{"name":"weapons\\models\\elite\\eholster.vmdl_c.eholster","matrix":[3.027916E-09,0,0.025399996,0,0.025399996,3.027916E-09,0,0,0,0.025399996,3.027916E-09,0,0,0,0,1],"mesh":0}],"samplers":[{"magFilter":9729,"minFilter":9987}],"scenes":[{"name":"eholster.vmdl_c","nodes":[0]}]}