{"asset":{"copyright":"","generator":"Source 2 Viewer 19.2.0.0 - https://valveresourceformat.github.io","version":"2.0"},"accessors":[{"bufferView":0,"componentType":5126,"count":14890,"max":[9.986845970153809,20.686704635620117,4.79868745803833],"min":[-0.4213503897190094,-0.7159296274185181,-1.9115945100784302],"type":"VEC3"},{"bufferView":1,"componentType":5126,"count":14890,"max":[1.69140625,0.99755859375],"min":[-1.826171875,-0.826171875],"type":"VEC2"},{"bufferView":2,"componentType":5126,"count":14890,"max":[0.9999995231628418,0.9999995231628418,0.9999990463256836],"min":[-0.9999995231628418,-0.9999995231628418,-1],"type":"VEC3"},{"bufferView":3,"componentType":5126,"count":14890,"type":"VEC4"},{"bufferView":4,"componentType":5126,"count":14890,"max":[0.982421875,0.322509765625],"min":[-1.982421875,0.0138092041015625],"type":"VEC2"},{"bufferView":5,"componentType":5123,"count":14890,"type":"VEC4"},{"bufferView":6,"componentType":5126,"count":14890,"type":"VEC4"},{"bufferView":7,"componentType":5125,"count":35658,"type":"SCALAR"},{"bufferView":8,"componentType":5126,"count":36252,"max":[9.977502822875977,20.84515380859375,4.763053894042969],"min":[-0.3712766468524933,-0.8261334300041199,-1.7237725257873535],"type":"VEC3"},{"bufferView":9,"componentType":5126,"count":36252,"max":[0.9956053495407104,0.9975585341453552],"min":[0.0034485915675759315,0.0046388134360313416],"type":"VEC2"},{"bufferView":10,"componentType":5126,"count":36252,"max":[0.9999995231628418,0.9999995231628418,0.9999990463256836],"min":[-0.9999995231628418,-0.9999995231628418,-1],"type":"VEC3"},{"bufferView":11,"componentType":5126,"count":36252,"type":"VEC4"},{"bufferView":12,"componentType":5126,"count":36252,"max":[0.98046875,0.31396484375],"min":[-1.978515625,0.01543426513671875],"type":"VEC2"},{"bufferView":13,"componentType":5123,"count":36252,"type":"VEC4"},{"bufferView":14,"componentType":5126,"count":36252,"type":"VEC4"},{"bufferView":15,"componentType":5125,"count":125898,"type":"SCALAR"},{"bufferView":16,"componentType":5126,"count":209,"max":[10.39083480834961,1.1289499998092651,5.289856433868408],"min":[-1.164963960647583,-1.3297640085220337,0.40296828746795654],"type":"VEC3"},{"bufferView":17,"componentType":5126,"count":209,"max":[0.9431745409965515,0.9678640365600586],"min":[0.028046511113643646,0.1031220406293869],"type":"VEC2"},{"bufferView":18,"componentType":5126,"count":209,"max":[0.9994078874588013,0.9998752474784851,0.9993851780891418],"min":[-0.9964557886123657,-0.9998839497566223,-0.9996019601821899],"type":"VEC3"},{"bufferView":19,"componentType":5126,"count":209,"type":"VEC4"},{"bufferView":20,"componentType":5123,"count":209,"type":"VEC4"},{"bufferView":21,"componentType":5126,"count":209,"type":"VEC4"},{"bufferView":22,"componentType":5125,"count":936,"type":"SCALAR"}],"bufferViews":[{"buffer":0,"byteLength":178680,"byteOffset":3880232,"target":34962},{"buffer":0,"byteLength":119120,"byteOffset":4380224,"target":34962},{"buffer":0,"byteLength":178680,"byteOffset":4058912,"target":34962},{"buffer":0,"byteLength":238240,"byteOffset":3403752,"target":34962},{"buffer":0,"byteLength":119120,"byteOffset":4499344,"target":34962},{"buffer":0,"byteLength":119120,"byteOffset":4618464,"byteStride":8,"target":34962},{"buffer":0,"byteLength":238240,"byteOffset":3641992,"target":34962},{"buffer":0,"byteLength":142632,"byteOffset":4237592,"target":34963},{"buffer":0,"byteLength":435024,"byteOffset":1663656,"target":34962},{"buffer":0,"byteLength":290016,"byteOffset":2533704,"target":34962},{"buffer":0,"byteLength":435024,"byteOffset":2098680,"target":34962},{"buffer":0,"byteLength":580032,"target":34962},{"buffer":0,"byteLength":290016,"byteOffset":2823720,"target":34962},{"buffer":0,"byteLength":290016,"byteOffset":3113736,"byteStride":8,"target":34962},{"buffer":0,"byteLength":580032,"byteOffset":580032,"target":34962},{"buffer":0,"byteLength":503592,"byteOffset":1160064,"target":34963},{"buffer":0,"byteLength":2508,"byteOffset":4748016,"target":34962},{"buffer":0,"byteLength":1672,"byteOffset":4753032,"target":34962},{"buffer":0,"byteLength":2508,"byteOffset":4750524,"target":34962},{"buffer":0,"byteLength":3344,"byteOffset":4741328,"target":34962},{"buffer":0,"byteLength":1672,"byteOffset":4754704,"byteStride":8,"target":34962},{"buffer":0,"byteLength":3344,"byteOffset":4744672,"target":34962},{"buffer":0,"byteLength":3744,"byteOffset":4737584,"target":34963}],"buffers":[{"byteLength":4756376,"uri":"elite.bin"}],"meshes":[{"extras":{},"name":"weapons\\models\\elite\\weapon_pist_elite.vmdl_c.body_legacy","primitives":[{"attributes":{"POSITION":0,"TEXCOORD_0":1,"NORMAL":2,"TANGENT":3,"TEXCOORD_1":4,"JOINTS_0":5,"WEIGHTS_0":6},"indices":7}]},{"extras":{},"name":"weapons\\models\\elite\\weapon_pist_elite.vmdl_c.body_hd","primitives":[{"attributes":{"POSITION":8,"TEXCOORD_0":9,"NORMAL":10,"TANGENT":11,"TEXCOORD_1":12,"JOINTS_0":13,"WEIGHTS_0":14},"indices":15}]},{"extras":{},"name":"weapons\\models\\elite\\weapon_pist_elite.vmdl_c.eholster","primitives":[{"attributes":{"POSITION":16,"TEXCOORD_0":17,"NORMAL":18,"TANGENT":19,"JOINTS_0":20,"WEIGHTS_0":21},"indices":22}]}],"nodes":[{"name":"weapons\\models\\elite\\weapon_pist_elite.vmdl_c.body_legacy","matrix":[3.027916E-09,0,0.025399996,0,0.025399996,3.027916E-09,0,0,0,0.025399996,3.027916E-09,0,0,0,0,1],"mesh":0},{"name":"weapons\\models\\elite\\weapon_pist_elite.vmdl_c.body_hd","matrix":[3.027916E-09,0,0.025399996,0,0.025399996,3.027916E-09,0,0,0,0.025399996,3.027916E-09,0,0,0,0,1],"mesh":1},{"name":"weapons\\models\\elite\\weapon_pist_elite.vmdl_c.eholster","matrix":[3.027916E-09,0,0.025399996,0,0.025399996,3.027916E-09,0,0,0,0.025399996,3.027916E-09,0,0,0,0,1],"mesh":2}],"samplers":[{"magFilter":9729,"minFilter":9987}],"scenes":[{"name":"weapon_pist_elite.vmdl_c","nodes":[0,1,2]}]}