{"asset":{"copyright":"","generator":"Source 2 Viewer 19.2.0.0 - https://valveresourceformat.github.io","version":"2.0"},"accessors":[{"bufferView":0,"componentType":5126,"count":180,"max":[9.58742904663086,2.442272424697876,4.790592670440674],"min":[-2.283255100250244,-0.756542980670929,-4.911692142486572],"type":"VEC3"},{"bufferView":1,"componentType":5126,"count":180,"max":[0.6662008762359619,0.9958104491233826,0.8888797163963318],"min":[-0.9611784219741821,-0.9991805553436279,-0.8888846635818481],"type":"VEC3"},{"bufferView":2,"componentType":5126,"count":180,"max":[0.19174857437610626,0.09581185132265091],"min":[-0.04566510021686554,-0.09823384135961533],"type":"VEC2"},{"bufferView":3,"componentType":5125,"count":180,"type":"SCALAR"}],"bufferViews":[{"buffer":0,"byteLength":2160,"target":34962},{"buffer":0,"byteLength":2160,"byteOffset":2160,"target":34962},{"buffer":0,"byteLength":1440,"byteOffset":4320,"target":34962},{"buffer":0,"byteLength":720,"byteOffset":5760,"target":34963}],"buffers":[{"byteLength":6480,"uri":"weapon_pist_elite_physics.bin"}],"meshes":[{"name":"physics_group_weaponpistol","primitives":[{"attributes":{"POSITION":0,"NORMAL":1,"TEXCOORD_0":2},"indices":3}]}],"nodes":[{"extras":{"SurfaceProperty":"weaponpistol","InteractAs":[]},"name":"physics_group_weaponpistol","matrix":[3.027916E-09,0,0.025399996,0,0.025399996,3.027916E-09,0,0,0,0.025399996,3.027916E-09,0,0,0,0,1],"mesh":0}],"samplers":[{"magFilter":9729,"minFilter":9987}],"scenes":[{"name":"weapon_pist_elite.vmdl_c","nodes":[0]}]}