{"asset":{"copyright":"","generator":"Source 2 Viewer 19.2.0.0 - https://valveresourceformat.github.io","version":"2.0"},"accessors":[{"bufferView":0,"componentType":5126,"count":10778,"max":[23.442462921142578,1.4377576112747192,7.15895938873291],"min":[-11.731513023376465,-1.4377553462982178,-6.276397228240967],"type":"VEC3"},{"bufferView":1,"componentType":5126,"count":10778,"max":[2.994140625,1.5439453125],"min":[-4.0234375,0.003753662109375],"type":"VEC2"},{"bufferView":2,"componentType":5126,"count":10778,"max":[0.9999995231628418,0.9999995231628418,0.9999990463256836],"min":[-0.9999995231628418,-0.9999995231628418,-1],"type":"VEC3"},{"bufferView":3,"componentType":5126,"count":10778,"type":"VEC4"},{"bufferView":4,"componentType":5126,"count":10778,"max":[1.0078125,0.384033203125],"min":[-1.9169921875,0.030670166015625],"type":"VEC2"},{"bufferView":5,"componentType":5123,"count":10778,"type":"VEC4"},{"bufferView":6,"componentType":5126,"count":10778,"type":"VEC4"},{"bufferView":7,"componentType":5125,"count":31152,"type":"SCALAR"},{"bufferView":8,"componentType":5126,"count":27115,"max":[23.970163345336914,1.6229517459869385,7.334045886993408],"min":[-10.506497383117676,-1.6229530572891235,-5.575320243835449],"type":"VEC3"},{"bufferView":9,"componentType":5126,"count":27115,"max":[0.9965819120407104,0.9965819120407104],"min":[0.002929776906967163,0.004913480021059513],"type":"VEC2"},{"bufferView":10,"componentType":5126,"count":27115,"max":[0.9999995231628418,0.9999995231628418,0.9999990463256836],"min":[-0.9999995231628418,-0.9999995231628418,-1],"type":"VEC3"},{"bufferView":11,"componentType":5126,"count":27115,"type":"VEC4"},{"bufferView":12,"componentType":5126,"count":27115,"max":[0.9755859375,0.36572265625],"min":[-1.9306640625,0.02606201171875],"type":"VEC2"},{"bufferView":13,"componentType":5123,"count":27115,"type":"VEC4"},{"bufferView":14,"componentType":5126,"count":27115,"type":"VEC4"},{"bufferView":15,"componentType":5125,"count":98607,"type":"SCALAR"}],"bufferViews":[{"buffer":0,"byteLength":129336,"byteOffset":2908524,"target":34962},{"buffer":0,"byteLength":86224,"byteOffset":3291804,"target":34962},{"buffer":0,"byteLength":129336,"byteOffset":3037860,"target":34962},{"buffer":0,"byteLength":172448,"byteOffset":2563628,"target":34962},{"buffer":0,"byteLength":86224,"byteOffset":3378028,"target":34962},{"buffer":0,"byteLength":86224,"byteOffset":3464252,"byteStride":8,"target":34962},{"buffer":0,"byteLength":172448,"byteOffset":2736076,"target":34962},{"buffer":0,"byteLength":124608,"byteOffset":3167196,"target":34963},{"buffer":0,"byteLength":325380,"byteOffset":1262108,"target":34962},{"buffer":0,"byteLength":216920,"byteOffset":1912868,"target":34962},{"buffer":0,"byteLength":325380,"byteOffset":1587488,"target":34962},{"buffer":0,"byteLength":433840,"target":34962},{"buffer":0,"byteLength":216920,"byteOffset":2129788,"target":34962},{"buffer":0,"byteLength":216920,"byteOffset":2346708,"byteStride":8,"target":34962},{"buffer":0,"byteLength":433840,"byteOffset":433840,"target":34962},{"buffer":0,"byteLength":394428,"byteOffset":867680,"target":34963}],"buffers":[{"byteLength":3550476,"uri":"famas.bin"}],"meshes":[{"extras":{},"name":"weapons\\models\\famas\\weapon_rif_famas.vmdl_c.body_legacy","primitives":[{"attributes":{"POSITION":0,"TEXCOORD_0":1,"NORMAL":2,"TANGENT":3,"TEXCOORD_1":4,"JOINTS_0":5,"WEIGHTS_0":6},"indices":7}]},{"extras":{},"name":"weapons\\models\\famas\\weapon_rif_famas.vmdl_c.body_hd","primitives":[{"attributes":{"POSITION":8,"TEXCOORD_0":9,"NORMAL":10,"TANGENT":11,"TEXCOORD_1":12,"JOINTS_0":13,"WEIGHTS_0":14},"indices":15}]}],"nodes":[{"name":"weapons\\models\\famas\\weapon_rif_famas.vmdl_c.body_legacy","matrix":[3.027916E-09,0,0.025399996,0,0.025399996,3.027916E-09,0,0,0,0.025399996,3.027916E-09,0,0,0,0,1],"mesh":0},{"name":"weapons\\models\\famas\\weapon_rif_famas.vmdl_c.body_hd","matrix":[3.027916E-09,0,0.025399996,0,0.025399996,3.027916E-09,0,0,0,0.025399996,3.027916E-09,0,0,0,0,1],"mesh":1}],"samplers":[{"magFilter":9729,"minFilter":9987}],"scenes":[{"name":"weapon_rif_famas.vmdl_c","nodes":[0,1]}]}