{"asset":{"copyright":"","generator":"Source 2 Viewer 19.2.0.0 - https://valveresourceformat.github.io","version":"2.0"},"accessors":[{"bufferView":0,"componentType":5126,"count":114,"max":[24.01004981994629,1.1000003814697266,7.345747947692871],"min":[-10.465141296386719,-1.1000003814697266,-5.686957359313965],"type":"VEC3"},{"bufferView":1,"componentType":5126,"count":114,"max":[0.9007768630981445,1,0.8505206108093262],"min":[-0.8644314408302307,-1,-0.8374432325363159],"type":"VEC3"},{"bufferView":2,"componentType":5126,"count":114,"max":[0.48020097613334656,0.13257895410060883],"min":[-0.20930282771587372,-0.10020553320646286],"type":"VEC2"},{"bufferView":3,"componentType":5125,"count":114,"type":"SCALAR"}],"bufferViews":[{"buffer":0,"byteLength":1368,"target":34962},{"buffer":0,"byteLength":1368,"byteOffset":1368,"target":34962},{"buffer":0,"byteLength":912,"byteOffset":2736,"target":34962},{"buffer":0,"byteLength":456,"byteOffset":3648,"target":34963}],"buffers":[{"byteLength":4104,"uri":"weapon_rif_famas_physics.bin"}],"meshes":[{"name":"physics_group_weaponrifle","primitives":[{"attributes":{"POSITION":0,"NORMAL":1,"TEXCOORD_0":2},"indices":3}]}],"nodes":[{"extras":{"SurfaceProperty":"weaponrifle","InteractAs":[]},"name":"physics_group_weaponrifle","matrix":[3.027916E-09,0,0.025399996,0,0.025399996,3.027916E-09,0,0,0,0.025399996,3.027916E-09,0,0,0,0,1],"mesh":0}],"samplers":[{"magFilter":9729,"minFilter":9987}],"scenes":[{"name":"weapon_rif_famas.vmdl_c","nodes":[0]}]}