{"asset":{"copyright":"","generator":"Source 2 Viewer 19.2.0.0 - https://valveresourceformat.github.io","version":"2.0"},"accessors":[{"bufferView":0,"componentType":5126,"count":96,"max":[6.380528926849365,0.5500001311302185,7.480682849884033],"min":[-1.6817618608474731,-0.5500001311302185,2.029310703277588],"type":"VEC3"},{"bufferView":1,"componentType":5126,"count":96,"max":[0.7129383683204651,1,0.6596726775169373],"min":[-0.6599876284599304,-1,-0.6633622050285339],"type":"VEC3"},{"bufferView":2,"componentType":5126,"count":96,"max":[0.1496136486530304,0.1496136486530304],"min":[-0.03363523632287979,-0.010999999940395355],"type":"VEC2"},{"bufferView":3,"componentType":5125,"count":96,"type":"SCALAR"}],"bufferViews":[{"buffer":0,"byteLength":1152,"target":34962},{"buffer":0,"byteLength":1152,"byteOffset":1152,"target":34962},{"buffer":0,"byteLength":768,"byteOffset":2304,"target":34962},{"buffer":0,"byteLength":384,"byteOffset":3072,"target":34963}],"buffers":[{"byteLength":3456,"uri":"weapon_pist_fiveseven_physics.bin"}],"meshes":[{"name":"physics_group_weaponpistol","primitives":[{"attributes":{"POSITION":0,"NORMAL":1,"TEXCOORD_0":2},"indices":3}]}],"nodes":[{"extras":{"SurfaceProperty":"weaponpistol","InteractAs":[]},"name":"physics_group_weaponpistol","matrix":[3.027916E-09,0,0.025399996,0,0.025399996,3.027916E-09,0,0,0,0.025399996,3.027916E-09,0,0,0,0,1],"mesh":0}],"samplers":[{"magFilter":9729,"minFilter":9987}],"scenes":[{"name":"weapon_pist_fiveseven.vmdl_c","nodes":[0]}]}