{"asset":{"copyright":"","generator":"Source 2 Viewer 19.2.0.0 - https://valveresourceformat.github.io","version":"2.0"},"accessors":[{"bufferView":0,"componentType":5126,"count":11468,"max":[6.365514278411865,0.6877890229225159,7.477758407592773],"min":[-1.6708937883377075,-0.687770426273346,1.8625072240829468],"type":"VEC3"},{"bufferView":1,"componentType":5126,"count":11468,"max":[2.8984375,0.99609375],"min":[-0.72314453125,0.003162384033203125],"type":"VEC2"},{"bufferView":2,"componentType":5126,"count":11468,"max":[0.9999995231628418,0.9998885989189148,0.9999990463256836],"min":[-0.9999995231628418,-0.9999995231628418,-1],"type":"VEC3"},{"bufferView":3,"componentType":5126,"count":11468,"type":"VEC4"},{"bufferView":4,"componentType":5126,"count":11468,"max":[0.9091796875,0.603515625],"min":[-1.8935546875,0.04229736328125],"type":"VEC2"},{"bufferView":5,"componentType":5123,"count":11468,"type":"VEC4"},{"bufferView":6,"componentType":5126,"count":11468,"type":"VEC4"},{"bufferView":7,"componentType":5125,"count":33648,"type":"SCALAR"},{"bufferView":8,"componentType":5126,"count":19655,"max":[6.4168548583984375,0.6407226324081421,7.441612720489502],"min":[-1.616895079612732,-0.6258172392845154,2.0000104904174805],"type":"VEC3"},{"bufferView":9,"componentType":5126,"count":19655,"max":[0.9965819120407104,0.9965819120407104],"min":[0.0029602954164147377,0.0033875545486807823],"type":"VEC2"},{"bufferView":10,"componentType":5126,"count":19655,"max":[0.9999995231628418,0.9999995231628418,0.9999990463256836],"min":[-0.9999995231628418,-0.9999995231628418,-1],"type":"VEC3"},{"bufferView":11,"componentType":5126,"count":19655,"type":"VEC4"},{"bufferView":12,"componentType":5126,"count":19655,"max":[0.90380859375,0.58984375],"min":[-1.8984375,0.0458984375],"type":"VEC2"},{"bufferView":13,"componentType":5123,"count":19655,"type":"VEC4"},{"bufferView":14,"componentType":5126,"count":19655,"type":"VEC4"},{"bufferView":15,"componentType":5125,"count":74541,"type":"SCALAR"}],"bufferViews":[{"buffer":0,"byteLength":137616,"byteOffset":2237540,"target":34962},{"buffer":0,"byteLength":91744,"byteOffset":2647364,"target":34962},{"buffer":0,"byteLength":137616,"byteOffset":2375156,"target":34962},{"buffer":0,"byteLength":183488,"byteOffset":1398844,"target":34962},{"buffer":0,"byteLength":91744,"byteOffset":2739108,"target":34962},{"buffer":0,"byteLength":91744,"byteOffset":2830852,"byteStride":8,"target":34962},{"buffer":0,"byteLength":183488,"byteOffset":1582332,"target":34962},{"buffer":0,"byteLength":134592,"byteOffset":2512772,"target":34963},{"buffer":0,"byteLength":235860,"byteOffset":927124,"target":34962},{"buffer":0,"byteLength":157240,"byteOffset":1765820,"target":34962},{"buffer":0,"byteLength":235860,"byteOffset":1162984,"target":34962},{"buffer":0,"byteLength":314480,"target":34962},{"buffer":0,"byteLength":157240,"byteOffset":1923060,"target":34962},{"buffer":0,"byteLength":157240,"byteOffset":2080300,"byteStride":8,"target":34962},{"buffer":0,"byteLength":314480,"byteOffset":314480,"target":34962},{"buffer":0,"byteLength":298164,"byteOffset":628960,"target":34963}],"buffers":[{"byteLength":2922596,"uri":"fiveseven.bin"}],"meshes":[{"extras":{},"name":"weapons\\models\\fiveseven\\weapon_pist_fiveseven.vmdl_c.body_legacy","primitives":[{"attributes":{"POSITION":0,"TEXCOORD_0":1,"NORMAL":2,"TANGENT":3,"TEXCOORD_1":4,"JOINTS_0":5,"WEIGHTS_0":6},"indices":7}]},{"extras":{},"name":"weapons\\models\\fiveseven\\weapon_pist_fiveseven.vmdl_c.body_hd","primitives":[{"attributes":{"POSITION":8,"TEXCOORD_0":9,"NORMAL":10,"TANGENT":11,"TEXCOORD_1":12,"JOINTS_0":13,"WEIGHTS_0":14},"indices":15}]}],"nodes":[{"name":"weapons\\models\\fiveseven\\weapon_pist_fiveseven.vmdl_c.body_legacy","matrix":[3.027916E-09,0,0.025399996,0,0.025399996,3.027916E-09,0,0,0,0.025399996,3.027916E-09,0,0,0,0,1],"mesh":0},{"name":"weapons\\models\\fiveseven\\weapon_pist_fiveseven.vmdl_c.body_hd","matrix":[3.027916E-09,0,0.025399996,0,0.025399996,3.027916E-09,0,0,0,0.025399996,3.027916E-09,0,0,0,0,1],"mesh":1}],"samplers":[{"magFilter":9729,"minFilter":9987}],"scenes":[{"name":"weapon_pist_fiveseven.vmdl_c","nodes":[0,1]}]}