{"asset":{"copyright":"","generator":"Source 2 Viewer 19.2.0.0 - https://valveresourceformat.github.io","version":"2.0"},"accessors":[{"bufferView":0,"componentType":5126,"count":114,"max":[43.6326904296875,1.1000001430511475,10.311922073364258],"min":[0.7530364990234375,-1.1000001430511475,-1.017427921295166],"type":"VEC3"},{"bufferView":1,"componentType":5126,"count":114,"max":[0.9007333517074585,1,0.8252072930335999],"min":[-0.8818519711494446,-1,-0.8445007801055908],"type":"VEC3"},{"bufferView":2,"componentType":5126,"count":114,"max":[0.8726537823677063,0.19131088256835938],"min":[0.014265956357121468,-0.02200000174343586],"type":"VEC2"},{"bufferView":3,"componentType":5125,"count":114,"type":"SCALAR"}],"bufferViews":[{"buffer":0,"byteLength":1368,"target":34962},{"buffer":0,"byteLength":1368,"byteOffset":1368,"target":34962},{"buffer":0,"byteLength":912,"byteOffset":2736,"target":34962},{"buffer":0,"byteLength":456,"byteOffset":3648,"target":34963}],"buffers":[{"byteLength":4104,"uri":"weapon_snip_g3sg1_physics.bin"}],"meshes":[{"name":"physics_group_weaponsniper","primitives":[{"attributes":{"POSITION":0,"NORMAL":1,"TEXCOORD_0":2},"indices":3}]}],"nodes":[{"extras":{"SurfaceProperty":"weaponsniper","InteractAs":[]},"name":"physics_group_weaponsniper","matrix":[3.027916E-09,0,0.025399996,0,0.025399996,3.027916E-09,0,0,0,0.025399996,3.027916E-09,0,0,0,0,1],"mesh":0}],"samplers":[{"magFilter":9729,"minFilter":9987}],"scenes":[{"name":"weapon_snip_g3sg1.vmdl_c","nodes":[0]}]}