{"asset":{"copyright":"","generator":"Source 2 Viewer 19.2.0.0 - https://valveresourceformat.github.io","version":"2.0"},"accessors":[{"bufferView":0,"componentType":5126,"count":14679,"max":[43.07837677001953,2.496259927749634,9.953485488891602],"min":[1.1028008460998535,-1.2118405103683472,-0.9942012429237366],"type":"VEC3"},{"bufferView":1,"componentType":5126,"count":14679,"max":[2.994140625,1.0263671875],"min":[-0.335205078125,0.002315521240234375],"type":"VEC2"},{"bufferView":2,"componentType":5126,"count":14679,"max":[0.9999995231628418,0.9999995231628418,0.9999990463256836],"min":[-0.9999995231628418,-0.9999995231628418,-1],"type":"VEC3"},{"bufferView":3,"componentType":5126,"count":14679,"type":"VEC4"},{"bufferView":4,"componentType":5126,"count":14679,"max":[0.97216796875,0.262939453125],"min":[-1.9599609375,0.0196990966796875],"type":"VEC2"},{"bufferView":5,"componentType":5123,"count":14679,"type":"VEC4"},{"bufferView":6,"componentType":5126,"count":14679,"type":"VEC4"},{"bufferView":7,"componentType":5125,"count":40662,"type":"SCALAR"},{"bufferView":8,"componentType":5125,"count":480,"type":"SCALAR"},{"bufferView":9,"componentType":5126,"count":38684,"max":[43.618072509765625,1.203869104385376,10.063026428222656],"min":[0.7798309326171875,-1.2038682699203491,-1.0373132228851318],"type":"VEC3"},{"bufferView":10,"componentType":5126,"count":38684,"max":[0.9975585341453552,0.9975585341453552],"min":[0.0023194067180156708,0.002288888208568096],"type":"VEC2"},{"bufferView":11,"componentType":5126,"count":38684,"max":[0.9999995231628418,0.9999995231628418,0.9999990463256836],"min":[-0.9999995231628418,-0.9999995231628418,-1],"type":"VEC3"},{"bufferView":12,"componentType":5126,"count":38684,"type":"VEC4"},{"bufferView":13,"componentType":5126,"count":38684,"max":[0.9794921875,0.263916015625],"min":[-1.9716796875,0.01727294921875],"type":"VEC2"},{"bufferView":14,"componentType":5123,"count":38684,"type":"VEC4"},{"bufferView":15,"componentType":5126,"count":38684,"type":"VEC4"},{"bufferView":16,"componentType":5125,"count":142908,"type":"SCALAR"}],"bufferViews":[{"buffer":0,"byteLength":176148,"byteOffset":4136080,"target":34962},{"buffer":0,"byteLength":117432,"byteOffset":4651024,"target":34962},{"buffer":0,"byteLength":176148,"byteOffset":4312228,"target":34962},{"buffer":0,"byteLength":234864,"byteOffset":3666352,"target":34962},{"buffer":0,"byteLength":117432,"byteOffset":4768456,"target":34962},{"buffer":0,"byteLength":117432,"byteOffset":4885888,"byteStride":8,"target":34962},{"buffer":0,"byteLength":234864,"byteOffset":3901216,"target":34962},{"buffer":0,"byteLength":162648,"byteOffset":4488376,"target":34963},{"buffer":0,"byteLength":1920,"byteOffset":5003320,"target":34963},{"buffer":0,"byteLength":464208,"byteOffset":1809520,"target":34962},{"buffer":0,"byteLength":309472,"byteOffset":2737936,"target":34962},{"buffer":0,"byteLength":464208,"byteOffset":2273728,"target":34962},{"buffer":0,"byteLength":618944,"target":34962},{"buffer":0,"byteLength":309472,"byteOffset":3047408,"target":34962},{"buffer":0,"byteLength":309472,"byteOffset":3356880,"byteStride":8,"target":34962},{"buffer":0,"byteLength":618944,"byteOffset":618944,"target":34962},{"buffer":0,"byteLength":571632,"byteOffset":1237888,"target":34963}],"buffers":[{"byteLength":5005240,"uri":"g3sg1.bin"}],"meshes":[{"extras":{},"name":"weapons\\models\\g3sg1\\weapon_snip_g3sg1.vmdl_c.body_legacy","primitives":[{"attributes":{"POSITION":0,"TEXCOORD_0":1,"NORMAL":2,"TANGENT":3,"TEXCOORD_1":4,"JOINTS_0":5,"WEIGHTS_0":6},"indices":7},{"attributes":{"POSITION":0,"TEXCOORD_0":1,"NORMAL":2,"TANGENT":3,"TEXCOORD_1":4,"JOINTS_0":5,"WEIGHTS_0":6},"indices":8}]},{"extras":{},"name":"weapons\\models\\g3sg1\\weapon_snip_g3sg1.vmdl_c.body_hd","primitives":[{"attributes":{"POSITION":9,"TEXCOORD_0":10,"NORMAL":11,"TANGENT":12,"TEXCOORD_1":13,"JOINTS_0":14,"WEIGHTS_0":15},"indices":16}]}],"nodes":[{"name":"weapons\\models\\g3sg1\\weapon_snip_g3sg1.vmdl_c.body_legacy","matrix":[3.027916E-09,0,0.025399996,0,0.025399996,3.027916E-09,0,0,0,0.025399996,3.027916E-09,0,0,0,0,1],"mesh":0},{"name":"weapons\\models\\g3sg1\\weapon_snip_g3sg1.vmdl_c.body_hd","matrix":[3.027916E-09,0,0.025399996,0,0.025399996,3.027916E-09,0,0,0,0.025399996,3.027916E-09,0,0,0,0,1],"mesh":1}],"samplers":[{"magFilter":9729,"minFilter":9987}],"scenes":[{"name":"weapon_snip_g3sg1.vmdl_c","nodes":[0,1]}]}