{"asset":{"copyright":"","generator":"Source 2 Viewer 19.2.0.0 - https://valveresourceformat.github.io","version":"2.0"},"accessors":[{"bufferView":0,"componentType":5126,"count":114,"max":[24.60201644897461,1.1000001430511475,5.860620498657227],"min":[-6.231072902679443,-1.1000001430511475,-5.069995403289795],"type":"VEC3"},{"bufferView":1,"componentType":5126,"count":114,"max":[0.9001302123069763,1,0.8344098925590515],"min":[-0.884251594543457,-1,-0.8126469254493713],"type":"VEC3"},{"bufferView":2,"componentType":5126,"count":114,"max":[0.4920403063297272,0.10275720059871674],"min":[-0.12462145835161209,-0.08659769594669342],"type":"VEC2"},{"bufferView":3,"componentType":5125,"count":114,"type":"SCALAR"}],"bufferViews":[{"buffer":0,"byteLength":1368,"target":34962},{"buffer":0,"byteLength":1368,"byteOffset":1368,"target":34962},{"buffer":0,"byteLength":912,"byteOffset":2736,"target":34962},{"buffer":0,"byteLength":456,"byteOffset":3648,"target":34963}],"buffers":[{"byteLength":4104,"uri":"weapon_rif_galilar_physics.bin"}],"meshes":[{"name":"physics_group_weaponrifle","primitives":[{"attributes":{"POSITION":0,"NORMAL":1,"TEXCOORD_0":2},"indices":3}]}],"nodes":[{"extras":{"SurfaceProperty":"weaponrifle","InteractAs":[]},"name":"physics_group_weaponrifle","matrix":[3.027916E-09,0,0.025399996,0,0.025399996,3.027916E-09,0,0,0,0.025399996,3.027916E-09,0,0,0,0,1],"mesh":0}],"samplers":[{"magFilter":9729,"minFilter":9987}],"scenes":[{"name":"weapon_rif_galilar.vmdl_c","nodes":[0]}]}