{"asset":{"copyright":"","generator":"Source 2 Viewer 19.2.0.0 - https://valveresourceformat.github.io","version":"2.0"},"accessors":[{"bufferView":0,"componentType":5126,"count":8907,"max":[26.32267189025879,1.8104525804519653,5.340347766876221],"min":[-6.65103006362915,-1.2259495258331299,-5.50529146194458],"type":"VEC3"},{"bufferView":1,"componentType":5126,"count":8907,"max":[0.9965819120407104,0.9965819120407104],"min":[0.00357066560536623,0.006256294436752796],"type":"VEC2"},{"bufferView":2,"componentType":5126,"count":8907,"max":[0.9999995231628418,0.9998885989189148,0.9999990463256836],"min":[-0.9999995231628418,-0.9999995231628418,-1],"type":"VEC3"},{"bufferView":3,"componentType":5126,"count":8907,"type":"VEC4"},{"bufferView":4,"componentType":5126,"count":8907,"max":[0.994140625,0.4150390625],"min":[-2.03515625,0.0762939453125],"type":"VEC2"},{"bufferView":5,"componentType":5123,"count":8907,"type":"VEC4"},{"bufferView":6,"componentType":5126,"count":8907,"type":"VEC4"},{"bufferView":7,"componentType":5125,"count":20397,"type":"SCALAR"},{"bufferView":8,"componentType":5126,"count":36094,"max":[24.5216064453125,1.6626683473587036,5.71573543548584],"min":[-6.287014007568359,-1.142930507659912,-5.09239387512207],"type":"VEC3"},{"bufferView":9,"componentType":5126,"count":36094,"max":[0.9965819120407104,0.9970701932907104],"min":[0.0028992583975195885,0.002868739888072014],"type":"VEC2"},{"bufferView":10,"componentType":5126,"count":36094,"max":[0.9999995231628418,0.9999995231628418,0.9999990463256836],"min":[-0.9999995231628418,-0.9999995231628418,-1],"type":"VEC3"},{"bufferView":11,"componentType":5126,"count":36094,"type":"VEC4"},{"bufferView":12,"componentType":5126,"count":36094,"max":[0.982421875,0.40234375],"min":[-1.9794921875,0.0645751953125],"type":"VEC2"},{"bufferView":13,"componentType":5123,"count":36094,"type":"VEC4"},{"bufferView":14,"componentType":5126,"count":36094,"type":"VEC4"},{"bufferView":15,"componentType":5125,"count":123216,"type":"SCALAR"}],"bufferViews":[{"buffer":0,"byteLength":106884,"byteOffset":3665408,"target":34962},{"buffer":0,"byteLength":71256,"byteOffset":3960764,"target":34962},{"buffer":0,"byteLength":106884,"byteOffset":3772292,"target":34962},{"buffer":0,"byteLength":142512,"byteOffset":3380384,"target":34962},{"buffer":0,"byteLength":71256,"byteOffset":4032020,"target":34962},{"buffer":0,"byteLength":71256,"byteOffset":4103276,"byteStride":8,"target":34962},{"buffer":0,"byteLength":142512,"byteOffset":3522896,"target":34962},{"buffer":0,"byteLength":81588,"byteOffset":3879176,"target":34963},{"buffer":0,"byteLength":433128,"byteOffset":1647872,"target":34962},{"buffer":0,"byteLength":288752,"byteOffset":2514128,"target":34962},{"buffer":0,"byteLength":433128,"byteOffset":2081000,"target":34962},{"buffer":0,"byteLength":577504,"target":34962},{"buffer":0,"byteLength":288752,"byteOffset":2802880,"target":34962},{"buffer":0,"byteLength":288752,"byteOffset":3091632,"byteStride":8,"target":34962},{"buffer":0,"byteLength":577504,"byteOffset":577504,"target":34962},{"buffer":0,"byteLength":492864,"byteOffset":1155008,"target":34963}],"buffers":[{"byteLength":4174532,"uri":"galilar.bin"}],"meshes":[{"extras":{},"name":"weapons\\models\\galilar\\weapon_rif_galilar.vmdl_c.body_legacy","primitives":[{"attributes":{"POSITION":0,"TEXCOORD_0":1,"NORMAL":2,"TANGENT":3,"TEXCOORD_1":4,"JOINTS_0":5,"WEIGHTS_0":6},"indices":7}]},{"extras":{},"name":"weapons\\models\\galilar\\weapon_rif_galilar.vmdl_c.body_hd","primitives":[{"attributes":{"POSITION":8,"TEXCOORD_0":9,"NORMAL":10,"TANGENT":11,"TEXCOORD_1":12,"JOINTS_0":13,"WEIGHTS_0":14},"indices":15}]}],"nodes":[{"name":"weapons\\models\\galilar\\weapon_rif_galilar.vmdl_c.body_legacy","matrix":[3.027916E-09,0,0.025399996,0,0.025399996,3.027916E-09,0,0,0,0.025399996,3.027916E-09,0,0,0,0,1],"mesh":0},{"name":"weapons\\models\\galilar\\weapon_rif_galilar.vmdl_c.body_hd","matrix":[3.027916E-09,0,0.025399996,0,0.025399996,3.027916E-09,0,0,0,0.025399996,3.027916E-09,0,0,0,0,1],"mesh":1}],"samplers":[{"magFilter":9729,"minFilter":9987}],"scenes":[{"name":"weapon_rif_galilar.vmdl_c","nodes":[0,1]}]}