{"asset":{"copyright":"","generator":"Source 2 Viewer 19.2.0.0 - https://valveresourceformat.github.io","version":"2.0"},"accessors":[{"bufferView":0,"componentType":5126,"count":4383,"max":[6.36797571182251,0.6260021924972534,3.0329880714416504],"min":[-1.6198896169662476,-0.6523397564888,-1.8975085020065308],"type":"VEC3"},{"bufferView":1,"componentType":5126,"count":4383,"max":[0.9760735034942627,0.9975585341453552],"min":[0,0.00357066560536623],"type":"VEC2"},{"bufferView":2,"componentType":5126,"count":4383,"max":[0.9999995231628418,0.9999995231628418,0.9999990463256836],"min":[-0.9999995231628418,-0.9999995231628418,-1],"type":"VEC3"},{"bufferView":3,"componentType":5126,"count":4383,"type":"VEC4"},{"bufferView":4,"componentType":5126,"count":4383,"max":[0.89990234375,0.71630859375],"min":[-1.8955078125,-0.0804443359375],"type":"VEC2"},{"bufferView":5,"componentType":5123,"count":4383,"type":"VEC4"},{"bufferView":6,"componentType":5126,"count":4383,"type":"VEC4"},{"bufferView":7,"componentType":5125,"count":13962,"type":"SCALAR"},{"bufferView":8,"componentType":5126,"count":11688,"max":[6.379244327545166,0.6044564247131348,3.108962297439575],"min":[-1.5589624643325806,-0.5987217426300049,-2.0463922023773193],"type":"VEC3"},{"bufferView":9,"componentType":5126,"count":11688,"max":[0.9970701932907104,0.9970701932907104],"min":[0.0024414807558059692,0.0058290353044867516],"type":"VEC2"},{"bufferView":10,"componentType":5126,"count":11688,"max":[0.9999995231628418,0.9999995231628418,0.9999990463256836],"min":[-0.9999995231628418,-0.9999995231628418,-1],"type":"VEC3"},{"bufferView":11,"componentType":5126,"count":11688,"type":"VEC4"},{"bufferView":12,"componentType":5126,"count":11688,"max":[0.8935546875,0.572265625],"min":[-1.896484375,-0.09405517578125],"type":"VEC2"},{"bufferView":13,"componentType":5123,"count":11688,"type":"VEC4"},{"bufferView":14,"componentType":5126,"count":11688,"type":"VEC4"},{"bufferView":15,"componentType":5125,"count":45789,"type":"SCALAR"}],"bufferViews":[{"buffer":0,"byteLength":52596,"byteOffset":1314300,"target":34962},{"buffer":0,"byteLength":35064,"byteOffset":1419492,"target":34962},{"buffer":0,"byteLength":52596,"byteOffset":1366896,"target":34962},{"buffer":0,"byteLength":70128,"byteOffset":1118196,"target":34962},{"buffer":0,"byteLength":35064,"byteOffset":1454556,"target":34962},{"buffer":0,"byteLength":35064,"byteOffset":1489620,"byteStride":8,"target":34962},{"buffer":0,"byteLength":70128,"byteOffset":1188324,"target":34962},{"buffer":0,"byteLength":55848,"byteOffset":1258452,"target":34963},{"buffer":0,"byteLength":140256,"byteOffset":557172,"target":34962},{"buffer":0,"byteLength":93504,"byteOffset":837684,"target":34962},{"buffer":0,"byteLength":140256,"byteOffset":697428,"target":34962},{"buffer":0,"byteLength":187008,"target":34962},{"buffer":0,"byteLength":93504,"byteOffset":931188,"target":34962},{"buffer":0,"byteLength":93504,"byteOffset":1024692,"byteStride":8,"target":34962},{"buffer":0,"byteLength":187008,"byteOffset":187008,"target":34962},{"buffer":0,"byteLength":183156,"byteOffset":374016,"target":34963}],"buffers":[{"byteLength":1524684,"uri":"glock18.bin"}],"meshes":[{"extras":{},"name":"weapons\\models\\glock18\\weapon_pist_glock18.vmdl_c.body_legacy","primitives":[{"attributes":{"POSITION":0,"TEXCOORD_0":1,"NORMAL":2,"TANGENT":3,"TEXCOORD_1":4,"JOINTS_0":5,"WEIGHTS_0":6},"indices":7}]},{"extras":{},"name":"weapons\\models\\glock18\\weapon_pist_glock18.vmdl_c.body_hd","primitives":[{"attributes":{"POSITION":8,"TEXCOORD_0":9,"NORMAL":10,"TANGENT":11,"TEXCOORD_1":12,"JOINTS_0":13,"WEIGHTS_0":14},"indices":15}]}],"nodes":[{"name":"weapons\\models\\glock18\\weapon_pist_glock18.vmdl_c.body_legacy","matrix":[3.027916E-09,0,0.025399996,0,0.025399996,3.027916E-09,0,0,0,0.025399996,3.027916E-09,0,0,0,0,1],"mesh":0},{"name":"weapons\\models\\glock18\\weapon_pist_glock18.vmdl_c.body_hd","matrix":[3.027916E-09,0,0.025399996,0,0.025399996,3.027916E-09,0,0,0,0.025399996,3.027916E-09,0,0,0,0,1],"mesh":1}],"samplers":[{"magFilter":9729,"minFilter":9987}],"scenes":[{"name":"weapon_pist_glock18.vmdl_c","nodes":[0,1]}]}