{"asset":{"copyright":"","generator":"Source 2 Viewer 19.2.0.0 - https://valveresourceformat.github.io","version":"2.0"},"accessors":[{"bufferView":0,"componentType":5126,"count":78,"max":[6.492283344268799,0.5500001907348633,3.171250343322754],"min":[-1.5588325262069702,-0.5500001311302185,-2.2965238094329834],"type":"VEC3"},{"bufferView":1,"componentType":5126,"count":78,"max":[0.7062397599220276,1,0.7124903202056885],"min":[-0.7161459922790527,-1,-0.573710560798645],"type":"VEC3"},{"bufferView":2,"componentType":5126,"count":78,"max":[0.12984566390514374,0.06342500448226929],"min":[-0.031176649034023285,-0.04593047499656677],"type":"VEC2"},{"bufferView":3,"componentType":5125,"count":78,"type":"SCALAR"}],"bufferViews":[{"buffer":0,"byteLength":936,"target":34962},{"buffer":0,"byteLength":936,"byteOffset":936,"target":34962},{"buffer":0,"byteLength":624,"byteOffset":1872,"target":34962},{"buffer":0,"byteLength":312,"byteOffset":2496,"target":34963}],"buffers":[{"byteLength":2808,"uri":"weapon_pist_glock18_physics.bin"}],"meshes":[{"name":"physics_group_weaponpistol","primitives":[{"attributes":{"POSITION":0,"NORMAL":1,"TEXCOORD_0":2},"indices":3}]}],"nodes":[{"extras":{"SurfaceProperty":"weaponpistol","InteractAs":[]},"name":"physics_group_weaponpistol","matrix":[3.027916E-09,0,0.025399996,0,0.025399996,3.027916E-09,0,0,0,0.025399996,3.027916E-09,0,0,0,0,1],"mesh":0}],"samplers":[{"magFilter":9729,"minFilter":9987}],"scenes":[{"name":"weapon_pist_glock18.vmdl_c","nodes":[0]}]}