{"asset":{"copyright":"","generator":"Source 2 Viewer 19.2.0.0 - https://valveresourceformat.github.io","version":"2.0"},"accessors":[{"bufferView":0,"componentType":5126,"count":4834,"max":[0.9361941814422607,0.7130839824676514,4.906810283660889],"min":[-0.9362190961837769,-0.7130630612373352,-5.625531196594238],"type":"VEC3"},{"bufferView":1,"componentType":5126,"count":4834,"max":[2.005859375,0.9970703125],"min":[0.0031681060791015625,-0.86962890625],"type":"VEC2"},{"bufferView":2,"componentType":5126,"count":4834,"max":[0.9999995231628418,0.9998730421066284,0.9998564720153809],"min":[-0.9998573064804077,-0.9997221231460571,-1],"type":"VEC3"},{"bufferView":3,"componentType":5126,"count":4834,"type":"VEC4"},{"bufferView":4,"componentType":5123,"count":4834,"type":"VEC4"},{"bufferView":5,"componentType":5126,"count":4834,"type":"VEC4"},{"bufferView":6,"componentType":5125,"count":14004,"type":"SCALAR"}],"bufferViews":[{"buffer":0,"byteLength":58008,"byteOffset":154688,"target":34962},{"buffer":0,"byteLength":38672,"byteOffset":326720,"target":34962},{"buffer":0,"byteLength":58008,"byteOffset":212696,"target":34962},{"buffer":0,"byteLength":77344,"target":34962},{"buffer":0,"byteLength":38672,"byteOffset":365392,"byteStride":8,"target":34962},{"buffer":0,"byteLength":77344,"byteOffset":77344,"target":34962},{"buffer":0,"byteLength":56016,"byteOffset":270704,"target":34963}],"buffers":[{"byteLength":404064,"uri":"healthshot.bin"}],"meshes":[{"extras":{},"name":"weapons\\models\\healthshot\\weapon_healthshot.vmdl_c.healthshot_content_src","primitives":[{"attributes":{"POSITION":0,"TEXCOORD_0":1,"NORMAL":2,"TANGENT":3,"JOINTS_0":4,"WEIGHTS_0":5},"indices":6}]}],"nodes":[{"name":"weapons\\models\\healthshot\\weapon_healthshot.vmdl_c.healthshot_content_src","matrix":[3.027916E-09,0,0.025399996,0,0.025399996,3.027916E-09,0,0,0,0.025399996,3.027916E-09,0,0,0,0,1],"mesh":0}],"samplers":[{"magFilter":9729,"minFilter":9987}],"scenes":[{"name":"weapon_healthshot.vmdl_c","nodes":[0]}]}