{"asset":{"copyright":"","generator":"Source 2 Viewer 19.2.0.0 - https://valveresourceformat.github.io","version":"2.0"},"accessors":[{"bufferView":0,"componentType":5126,"count":48,"max":[1.0000030994415283,1,5.20548152923584],"min":[-1.0000040531158447,-1,-6.002182960510254],"type":"VEC3"},{"bufferView":1,"componentType":5126,"count":48,"max":[0.7071068286895752,0.7071068286895752,0.5773503184318542],"min":[-0.7071068286895752,-0.7071068286895752,-0.5773502588272095],"type":"VEC3"},{"bufferView":2,"componentType":5126,"count":48,"max":[0.08410962671041489,0.08410962671041489],"min":[-0.1000436544418335,-0.1000436544418335],"type":"VEC2"},{"bufferView":3,"componentType":5125,"count":48,"type":"SCALAR"}],"bufferViews":[{"buffer":0,"byteLength":576,"target":34962},{"buffer":0,"byteLength":576,"byteOffset":576,"target":34962},{"buffer":0,"byteLength":384,"byteOffset":1152,"target":34962},{"buffer":0,"byteLength":192,"byteOffset":1536,"target":34963}],"buffers":[{"byteLength":1728,"uri":"weapon_healthshot_physics.bin"}],"meshes":[{"name":"physics_group","primitives":[{"attributes":{"POSITION":0,"NORMAL":1,"TEXCOORD_0":2},"indices":3}]}],"nodes":[{"extras":{"SurfaceProperty":"default","InteractAs":[]},"name":"physics_group","matrix":[3.027916E-09,0,0.025399996,0,0.025399996,3.027916E-09,0,0,0,0.025399996,3.027916E-09,0,0,0,0,1],"mesh":0}],"samplers":[{"magFilter":9729,"minFilter":9987}],"scenes":[{"name":"weapon_healthshot.vmdl_c","nodes":[0]}]}