{"asset":{"copyright":"","generator":"Source 2 Viewer 19.2.0.0 - https://valveresourceformat.github.io","version":"2.0"},"accessors":[{"bufferView":0,"componentType":5126,"count":132,"max":[2.306910514831543,2.2877871990203857,3.3099546432495117],"min":[-2.107856273651123,-2.2298433780670166,-2.6654253005981445],"type":"VEC3"},{"bufferView":1,"componentType":5126,"count":132,"max":[0.9554708003997803,0.968664288520813,0.9933791160583496],"min":[-0.9554708003997803,-0.9686642289161682,-0.9933791756629944],"type":"VEC3"},{"bufferView":2,"componentType":5126,"count":132,"max":[0.06619909405708313,0.06619909405708313],"min":[-0.053308505564928055,-0.053308505564928055],"type":"VEC2"},{"bufferView":3,"componentType":5125,"count":132,"type":"SCALAR"}],"bufferViews":[{"buffer":0,"byteLength":1584,"target":34962},{"buffer":0,"byteLength":1584,"byteOffset":1584,"target":34962},{"buffer":0,"byteLength":1056,"byteOffset":3168,"target":34962},{"buffer":0,"byteLength":528,"byteOffset":4224,"target":34963}],"buffers":[{"byteLength":4752,"uri":"weapon_hegrenade_physics.bin"}],"meshes":[{"name":"physics_group_weaponhegrenade","primitives":[{"attributes":{"POSITION":0,"NORMAL":1,"TEXCOORD_0":2},"indices":3}]}],"nodes":[{"extras":{"SurfaceProperty":"weaponhegrenade","InteractAs":[]},"name":"physics_group_weaponhegrenade","matrix":[3.027916E-09,0,0.025399996,0,0.025399996,3.027916E-09,0,0,0,0.025399996,3.027916E-09,0,0,0,0,1],"mesh":0}],"samplers":[{"magFilter":9729,"minFilter":9987}],"scenes":[{"name":"weapon_hegrenade.vmdl_c","nodes":[0]}]}