{"asset":{"copyright":"","generator":"Source 2 Viewer 19.2.0.0 - https://valveresourceformat.github.io","version":"2.0"},"accessors":[{"bufferView":0,"componentType":5126,"count":6793,"max":[1.767261028289795,1.660423994064331,2.8704230785369873],"min":[-2.119152784347534,-1.9830538034439087,-2.1295769214630127],"type":"VEC3"},{"bufferView":1,"componentType":5126,"count":6793,"max":[0.9882808923721313,0.9956053495407104],"min":[0.0040894802659749985,0.004058961756527424],"type":"VEC2"},{"bufferView":2,"componentType":5126,"count":6793,"max":[0.9999995231628418,0.9998885989189148,0.9998564720153809],"min":[-0.9999995231628418,-0.9999995231628418,-1],"type":"VEC3"},{"bufferView":3,"componentType":5126,"count":6793,"type":"VEC4"},{"bufferView":4,"componentType":5126,"count":6793,"max":[0,0],"min":[0,0],"type":"VEC2"},{"bufferView":5,"componentType":5123,"count":6793,"type":"VEC4"},{"bufferView":6,"componentType":5126,"count":6793,"type":"VEC4"},{"bufferView":7,"componentType":5125,"count":31194,"type":"SCALAR"}],"bufferViews":[{"buffer":0,"byteLength":81516,"byteOffset":342152,"target":34962},{"buffer":0,"byteLength":54344,"byteOffset":505184,"target":34962},{"buffer":0,"byteLength":81516,"byteOffset":423668,"target":34962},{"buffer":0,"byteLength":108688,"byteOffset":124776,"target":34962},{"buffer":0,"byteLength":54344,"byteOffset":559528,"target":34962},{"buffer":0,"byteLength":54344,"byteOffset":613872,"byteStride":8,"target":34962},{"buffer":0,"byteLength":108688,"byteOffset":233464,"target":34962},{"buffer":0,"byteLength":124776,"target":34963}],"buffers":[{"byteLength":668216,"uri":"hegrenade.bin"}],"meshes":[{"extras":{},"name":"weapons\\models\\grenade\\hegrenade\\weapon_hegrenade.vmdl_c.body","primitives":[{"attributes":{"POSITION":0,"TEXCOORD_0":1,"NORMAL":2,"TANGENT":3,"TEXCOORD_1":4,"JOINTS_0":5,"WEIGHTS_0":6},"indices":7}]}],"nodes":[{"name":"weapons\\models\\grenade\\hegrenade\\weapon_hegrenade.vmdl_c.body","matrix":[3.027916E-09,0,0.025399996,0,0.025399996,3.027916E-09,0,0,0,0.025399996,3.027916E-09,0,0,0,0,1],"mesh":0}],"samplers":[{"magFilter":9729,"minFilter":9987}],"scenes":[{"name":"weapon_hegrenade.vmdl_c","nodes":[0]}]}