{"asset":{"copyright":"","generator":"Source 2 Viewer 19.2.0.0 - https://valveresourceformat.github.io","version":"2.0"},"accessors":[{"bufferView":0,"componentType":5126,"count":14380,"max":[9.050117492675781,0.6976625919342041,4.113036155700684],"min":[1.8223005533218384,-0.6622104048728943,-1.375526785850525],"type":"VEC3"},{"bufferView":1,"componentType":5126,"count":14380,"max":[2.8203125,0.99609375],"min":[-0.2342529296875,0.003612518310546875],"type":"VEC2"},{"bufferView":2,"componentType":5126,"count":14380,"max":[0.9999995231628418,0.9999995231628418,0.9999990463256836],"min":[-0.9999995231628418,-0.9999995231628418,-1],"type":"VEC3"},{"bufferView":3,"componentType":5126,"count":14380,"type":"VEC4"},{"bufferView":4,"componentType":5126,"count":14380,"max":[0.88720703125,0.6064453125],"min":[-1.8349609375,0.057952880859375],"type":"VEC2"},{"bufferView":5,"componentType":5123,"count":14380,"type":"VEC4"},{"bufferView":6,"componentType":5126,"count":14380,"type":"VEC4"},{"bufferView":7,"componentType":5125,"count":30276,"type":"SCALAR"},{"bufferView":8,"componentType":5126,"count":13644,"max":[9.101564407348633,0.7335243225097656,4.20439338684082],"min":[1.8783856630325317,-0.7335249781608582,-1.3895164728164673],"type":"VEC3"},{"bufferView":9,"componentType":5126,"count":13644,"max":[0.9975585341453552,0.9975585341453552],"min":[0.0018005920574069023,0.0023499252274632454],"type":"VEC2"},{"bufferView":10,"componentType":5126,"count":13644,"max":[0.9999995231628418,0.9999995231628418,0.9999990463256836],"min":[-0.9999995231628418,-0.9999995231628418,-1],"type":"VEC3"},{"bufferView":11,"componentType":5126,"count":13644,"type":"VEC4"},{"bufferView":12,"componentType":5126,"count":13644,"max":[0.88134765625,0.60791015625],"min":[-1.83984375,0.048797607421875],"type":"VEC2"},{"bufferView":13,"componentType":5123,"count":13644,"type":"VEC4"},{"bufferView":14,"componentType":5126,"count":13644,"type":"VEC4"},{"bufferView":15,"componentType":5125,"count":45417,"type":"SCALAR"}],"bufferViews":[{"buffer":0,"byteLength":172560,"byteOffset":1078436,"target":34962},{"buffer":0,"byteLength":115040,"byteOffset":1872116,"target":34962},{"buffer":0,"byteLength":172560,"byteOffset":1250996,"target":34962},{"buffer":0,"byteLength":230080,"target":34962},{"buffer":0,"byteLength":115040,"byteOffset":1987156,"target":34962},{"buffer":0,"byteLength":115040,"byteOffset":2102196,"byteStride":8,"target":34962},{"buffer":0,"byteLength":230080,"byteOffset":230080,"target":34962},{"buffer":0,"byteLength":121104,"byteOffset":1751012,"target":34963},{"buffer":0,"byteLength":163728,"byteOffset":1423556,"target":34962},{"buffer":0,"byteLength":109152,"byteOffset":2217236,"target":34962},{"buffer":0,"byteLength":163728,"byteOffset":1587284,"target":34962},{"buffer":0,"byteLength":218304,"byteOffset":460160,"target":34962},{"buffer":0,"byteLength":109152,"byteOffset":2326388,"target":34962},{"buffer":0,"byteLength":109152,"byteOffset":2435540,"byteStride":8,"target":34962},{"buffer":0,"byteLength":218304,"byteOffset":678464,"target":34962},{"buffer":0,"byteLength":181668,"byteOffset":896768,"target":34963}],"buffers":[{"byteLength":2544692,"uri":"hkp2000.bin"}],"meshes":[{"extras":{},"name":"weapons\\models\\hkp2000\\weapon_pist_hkp2000.vmdl_c.body_legacy","primitives":[{"attributes":{"POSITION":0,"TEXCOORD_0":1,"NORMAL":2,"TANGENT":3,"TEXCOORD_1":4,"JOINTS_0":5,"WEIGHTS_0":6},"indices":7}]},{"extras":{},"name":"weapons\\models\\hkp2000\\weapon_pist_hkp2000.vmdl_c.body_hd","primitives":[{"attributes":{"POSITION":8,"TEXCOORD_0":9,"NORMAL":10,"TANGENT":11,"TEXCOORD_1":12,"JOINTS_0":13,"WEIGHTS_0":14},"indices":15}]}],"nodes":[{"name":"weapons\\models\\hkp2000\\weapon_pist_hkp2000.vmdl_c.body_legacy","matrix":[3.027916E-09,0,0.025399996,0,0.025399996,3.027916E-09,0,0,0,0.025399996,3.027916E-09,0,0,0,0,1],"mesh":0},{"name":"weapons\\models\\hkp2000\\weapon_pist_hkp2000.vmdl_c.body_hd","matrix":[3.027916E-09,0,0.025399996,0,0.025399996,3.027916E-09,0,0,0,0.025399996,3.027916E-09,0,0,0,0,1],"mesh":1}],"samplers":[{"magFilter":9729,"minFilter":9987}],"scenes":[{"name":"weapon_pist_hkp2000.vmdl_c","nodes":[0,1]}]}