{"asset":{"copyright":"","generator":"Source 2 Viewer 19.2.0.0 - https://valveresourceformat.github.io","version":"2.0"},"accessors":[{"bufferView":0,"componentType":5126,"count":96,"max":[9.237476348876953,0.5500001311302185,4.192162036895752],"min":[1.6500473022460938,-0.550000011920929,-1.5753791332244873],"type":"VEC3"},{"bufferView":1,"componentType":5126,"count":96,"max":[0.7129698991775513,1,0.6581919193267822],"min":[-0.6674838662147522,-1,-0.6390191316604614],"type":"VEC3"},{"bufferView":2,"componentType":5126,"count":96,"max":[0.1847495287656784,0.08384323865175247],"min":[0.033000946044921875,-0.03150758147239685],"type":"VEC2"},{"bufferView":3,"componentType":5125,"count":96,"type":"SCALAR"}],"bufferViews":[{"buffer":0,"byteLength":1152,"target":34962},{"buffer":0,"byteLength":1152,"byteOffset":1152,"target":34962},{"buffer":0,"byteLength":768,"byteOffset":2304,"target":34962},{"buffer":0,"byteLength":384,"byteOffset":3072,"target":34963}],"buffers":[{"byteLength":3456,"uri":"weapon_pist_hkp2000_physics.bin"}],"meshes":[{"name":"physics_group_weaponpistol","primitives":[{"attributes":{"POSITION":0,"NORMAL":1,"TEXCOORD_0":2},"indices":3}]}],"nodes":[{"extras":{"SurfaceProperty":"weaponpistol","InteractAs":[]},"name":"physics_group_weaponpistol","matrix":[3.027916E-09,0,0.025399996,0,0.025399996,3.027916E-09,0,0,0,0.025399996,3.027916E-09,0,0,0,0,1],"mesh":0}],"samplers":[{"magFilter":9729,"minFilter":9987}],"scenes":[{"name":"weapon_pist_hkp2000.vmdl_c","nodes":[0]}]}