{"asset":{"copyright":"","generator":"Source 2 Viewer 19.2.0.0 - https://valveresourceformat.github.io","version":"2.0"},"accessors":[{"bufferView":0,"componentType":5126,"count":66,"max":[1.4849241971969604,1.4849241971969604,3.522691249847412],"min":[-1.4849241971969604,-1.4849241971969604,-3.5772948265075684],"type":"VEC3"},{"bufferView":1,"componentType":5126,"count":66,"max":[0.9238795638084412,0.9238795638084412,0.6375187635421753],"min":[-0.9238795638084412,-0.9238795638084412,-0.9999996423721313],"type":"VEC3"},{"bufferView":2,"componentType":5126,"count":66,"max":[0.045075539499521255,0.045075539499521255],"min":[-0.07154589146375656,-0.07154589146375656],"type":"VEC2"},{"bufferView":3,"componentType":5125,"count":66,"type":"SCALAR"}],"bufferViews":[{"buffer":0,"byteLength":792,"target":34962},{"buffer":0,"byteLength":792,"byteOffset":792,"target":34962},{"buffer":0,"byteLength":528,"byteOffset":1584,"target":34962},{"buffer":0,"byteLength":264,"byteOffset":2112,"target":34963}],"buffers":[{"byteLength":2376,"uri":"weapon_incendiarygrenade_physics.bin"}],"meshes":[{"name":"physics_group_weaponincendiary","primitives":[{"attributes":{"POSITION":0,"NORMAL":1,"TEXCOORD_0":2},"indices":3}]}],"nodes":[{"extras":{"SurfaceProperty":"weaponincendiary","InteractAs":[]},"name":"physics_group_weaponincendiary","matrix":[3.027916E-09,0,0.025399996,0,0.025399996,3.027916E-09,0,0,0,0.025399996,3.027916E-09,0,0,0,0,1],"mesh":0}],"samplers":[{"magFilter":9729,"minFilter":9987}],"scenes":[{"name":"weapon_incendiarygrenade.vmdl_c","nodes":[0]}]}