{"asset":{"copyright":"","generator":"Source 2 Viewer 19.2.0.0 - https://valveresourceformat.github.io","version":"2.0"},"accessors":[{"bufferView":0,"componentType":5126,"count":132,"max":[1.9724266529083252,0.776148796081543,8.999120712280273],"min":[-1.7697715759277344,-0.8016679883003235,-5.891974449157715],"type":"VEC3"},{"bufferView":1,"componentType":5126,"count":132,"max":[0.6861562728881836,0.9990813136100769,0.577350914478302],"min":[-0.7026582956314087,-0.9998191595077515,-0.6092565059661865],"type":"VEC3"},{"bufferView":2,"componentType":5126,"count":132,"max":[0.17998240888118744,0.1699824333190918],"min":[-0.03539543226361275,-0.11783948540687561],"type":"VEC2"},{"bufferView":3,"componentType":5125,"count":132,"type":"SCALAR"}],"bufferViews":[{"buffer":0,"byteLength":1584,"target":34962},{"buffer":0,"byteLength":1584,"byteOffset":1584,"target":34962},{"buffer":0,"byteLength":1056,"byteOffset":3168,"target":34962},{"buffer":0,"byteLength":528,"byteOffset":4224,"target":34963}],"buffers":[{"byteLength":4752,"uri":"weapon_knife_gut_physics.bin"}],"meshes":[{"name":"physics_group_weaponknife","primitives":[{"attributes":{"POSITION":0,"NORMAL":1,"TEXCOORD_0":2},"indices":3}]}],"nodes":[{"extras":{"SurfaceProperty":"weaponknife","InteractAs":[]},"name":"physics_group_weaponknife","matrix":[3.027916E-09,0,0.025399996,0,0.025399996,3.027916E-09,0,0,0,0.025399996,3.027916E-09,0,0,0,0,1],"mesh":0}],"samplers":[{"magFilter":9729,"minFilter":9987}],"scenes":[{"name":"weapon_knife_gut.vmdl_c","nodes":[0]}]}