{"asset":{"copyright":"","generator":"Source 2 Viewer 19.2.0.0 - https://valveresourceformat.github.io","version":"2.0"},"accessors":[{"bufferView":0,"componentType":5126,"count":120,"max":[1.1572463512420654,0.76542067527771,9.10317325592041],"min":[-1.0191106796264648,-0.8922863006591797,-5.146583557128906],"type":"VEC3"},{"bufferView":1,"componentType":5126,"count":120,"max":[0.6891116499900818,0.9997865557670593,0.5773518681526184],"min":[-0.6884105205535889,-0.9993069171905518,-0.6092132925987244],"type":"VEC3"},{"bufferView":2,"componentType":5126,"count":120,"max":[0.18206346035003662,0.18206346035003662],"min":[-0.020382212474942207,-0.1029316708445549],"type":"VEC2"},{"bufferView":3,"componentType":5125,"count":120,"type":"SCALAR"}],"bufferViews":[{"buffer":0,"byteLength":1440,"target":34962},{"buffer":0,"byteLength":1440,"byteOffset":1440,"target":34962},{"buffer":0,"byteLength":960,"byteOffset":2880,"target":34962},{"buffer":0,"byteLength":480,"byteOffset":3840,"target":34963}],"buffers":[{"byteLength":4320,"uri":"weapon_knife_stiletto_physics.bin"}],"meshes":[{"name":"physics_group_weaponknife","primitives":[{"attributes":{"POSITION":0,"NORMAL":1,"TEXCOORD_0":2},"indices":3}]}],"nodes":[{"extras":{"SurfaceProperty":"weaponknife","InteractAs":[]},"name":"physics_group_weaponknife","matrix":[3.027916E-09,0,0.025399996,0,0.025399996,3.027916E-09,0,0,0,0.025399996,3.027916E-09,0,0,0,0,1],"mesh":0}],"samplers":[{"magFilter":9729,"minFilter":9987}],"scenes":[{"name":"weapon_knife_stiletto.vmdl_c","nodes":[0]}]}