{"asset":{"copyright":"","generator":"Source 2 Viewer 19.2.0.0 - https://valveresourceformat.github.io","version":"2.0"},"accessors":[{"bufferView":0,"componentType":5126,"count":132,"max":[4.449283123016357,0.7353848814964294,11.552719116210938],"min":[-1.276576280593872,-0.8039268851280212,-5.233417987823486],"type":"VEC3"},{"bufferView":1,"componentType":5126,"count":132,"max":[0.6570278406143188,0.99950110912323,0.5774042010307312],"min":[-0.6826657056808472,-0.999639093875885,-0.6092447638511658],"type":"VEC3"},{"bufferView":2,"componentType":5126,"count":132,"max":[0.2310543805360794,0.2310543805360794],"min":[-0.025531524792313576,-0.0900924950838089],"type":"VEC2"},{"bufferView":3,"componentType":5125,"count":132,"type":"SCALAR"}],"bufferViews":[{"buffer":0,"byteLength":1584,"target":34962},{"buffer":0,"byteLength":1584,"byteOffset":1584,"target":34962},{"buffer":0,"byteLength":1056,"byteOffset":3168,"target":34962},{"buffer":0,"byteLength":528,"byteOffset":4224,"target":34963}],"buffers":[{"byteLength":4752,"uri":"weapon_knife_kukri_physics.bin"}],"meshes":[{"name":"physics_group_weaponknife","primitives":[{"attributes":{"POSITION":0,"NORMAL":1,"TEXCOORD_0":2},"indices":3}]}],"nodes":[{"extras":{"SurfaceProperty":"weaponknife","InteractAs":[]},"name":"physics_group_weaponknife","matrix":[3.027916E-09,0,0.025399996,0,0.025399996,3.027916E-09,0,0,0,0.025399996,3.027916E-09,0,0,0,0,1],"mesh":0}],"samplers":[{"magFilter":9729,"minFilter":9987}],"scenes":[{"name":"weapon_knife_kukri.vmdl_c","nodes":[0]}]}