{"asset":{"copyright":"","generator":"Source 2 Viewer 19.2.0.0 - https://valveresourceformat.github.io","version":"2.0"},"accessors":[{"bufferView":0,"componentType":5126,"count":5417,"max":[1.5000330209732056,0.38007503747940063,7.217353820800781],"min":[-0.9604253768920898,-0.38007503747940063,-4.8411359786987305],"type":"VEC3"},{"bufferView":1,"componentType":5126,"count":5417,"max":[0.9975585341453552,0.9975585341453552],"min":[0.004791405983269215,0.0023194067180156708],"type":"VEC2"},{"bufferView":2,"componentType":5126,"count":5417,"max":[0.9999957084655762,0.9999995231628418,0.9998885989189148],"min":[-0.9999957084655762,-0.9999995231628418,-0.9994165897369385],"type":"VEC3"},{"bufferView":3,"componentType":5126,"count":5417,"type":"VEC4"},{"bufferView":4,"componentType":5123,"count":5417,"type":"VEC4"},{"bufferView":5,"componentType":5126,"count":5417,"type":"VEC4"},{"bufferView":6,"componentType":5125,"count":20874,"type":"SCALAR"}],"bufferViews":[{"buffer":0,"byteLength":65004,"byteOffset":256840,"target":34962},{"buffer":0,"byteLength":43336,"byteOffset":386848,"target":34962},{"buffer":0,"byteLength":65004,"byteOffset":321844,"target":34962},{"buffer":0,"byteLength":86672,"target":34962},{"buffer":0,"byteLength":43336,"byteOffset":430184,"byteStride":8,"target":34962},{"buffer":0,"byteLength":86672,"byteOffset":86672,"target":34962},{"buffer":0,"byteLength":83496,"byteOffset":173344,"target":34963}],"buffers":[{"byteLength":473520,"uri":"knife_navaja.bin"}],"meshes":[{"extras":{},"name":"weapons\\models\\knife\\knife_navaja\\weapon_knife_navaja.vmdl_c.body_legacy","primitives":[{"attributes":{"POSITION":0,"TEXCOORD_0":1,"NORMAL":2,"TANGENT":3,"JOINTS_0":4,"WEIGHTS_0":5},"indices":6}]}],"nodes":[{"name":"weapons\\models\\knife\\knife_navaja\\weapon_knife_navaja.vmdl_c.body_legacy","matrix":[3.027916E-09,0,0.025399996,0,0.025399996,3.027916E-09,0,0,0,0.025399996,3.027916E-09,0,0,0,0,1],"mesh":0}],"samplers":[{"magFilter":9729,"minFilter":9987}],"scenes":[{"name":"weapon_knife_navaja.vmdl_c","nodes":[0]}]}