{"asset":{"copyright":"","generator":"Source 2 Viewer 19.2.0.0 - https://valveresourceformat.github.io","version":"2.0"},"accessors":[{"bufferView":0,"componentType":5126,"count":14085,"max":[2.0873630046844482,0.5540760159492493,12.596973419189453],"min":[-1.7010830640792847,-0.5477859973907471,-5.83759880065918],"type":"VEC3"},{"bufferView":1,"componentType":5126,"count":14085,"max":[0.9941404461860657,0.9956053495407104],"min":[0.014709921553730965,0.0015564439818263054],"type":"VEC2"},{"bufferView":2,"componentType":5126,"count":14085,"max":[0.9999995231628418,0.9999995231628418,0.9999990463256836],"min":[-0.9999995231628418,-0.9999995231628418,-1],"type":"VEC3"},{"bufferView":3,"componentType":5126,"count":14085,"type":"VEC4"},{"bufferView":4,"componentType":5126,"count":14085,"max":[0,0],"min":[0,0],"type":"VEC2"},{"bufferView":5,"componentType":5123,"count":14085,"type":"VEC4"},{"bufferView":6,"componentType":5126,"count":14085,"type":"VEC4"},{"bufferView":7,"componentType":5125,"count":54204,"type":"SCALAR"}],"bufferViews":[{"buffer":0,"byteLength":169020,"byteOffset":667536,"target":34962},{"buffer":0,"byteLength":112680,"byteOffset":1005576,"target":34962},{"buffer":0,"byteLength":169020,"byteOffset":836556,"target":34962},{"buffer":0,"byteLength":225360,"target":34962},{"buffer":0,"byteLength":112680,"byteOffset":1118256,"target":34962},{"buffer":0,"byteLength":112680,"byteOffset":1230936,"byteStride":8,"target":34962},{"buffer":0,"byteLength":225360,"byteOffset":225360,"target":34962},{"buffer":0,"byteLength":216816,"byteOffset":450720,"target":34963}],"buffers":[{"byteLength":1343616,"uri":"knife_bowie.bin"}],"meshes":[{"extras":{},"name":"weapons\\models\\knife\\knife_bowie\\weapon_knife_bowie.vmdl_c.body_legacy","primitives":[{"attributes":{"POSITION":0,"TEXCOORD_0":1,"NORMAL":2,"TANGENT":3,"TEXCOORD_1":4,"JOINTS_0":5,"WEIGHTS_0":6},"indices":7}]}],"nodes":[{"name":"weapons\\models\\knife\\knife_bowie\\weapon_knife_bowie.vmdl_c.body_legacy","matrix":[3.027916E-09,0,0.025399996,0,0.025399996,3.027916E-09,0,0,0,0.025399996,3.027916E-09,0,0,0,0,1],"mesh":0}],"samplers":[{"magFilter":9729,"minFilter":9987}],"scenes":[{"name":"weapon_knife_bowie.vmdl_c","nodes":[0]}]}