{"asset":{"copyright":"","generator":"Source 2 Viewer 19.2.0.0 - https://valveresourceformat.github.io","version":"2.0"},"accessors":[{"bufferView":0,"componentType":5126,"count":120,"max":[2.2694263458251953,0.7570869326591492,12.738810539245605],"min":[-1.9245643615722656,-0.8745647072792053,-6.316401481628418],"type":"VEC3"},{"bufferView":1,"componentType":5126,"count":120,"max":[0.7035470008850098,0.9999532103538513,0.5773501396179199],"min":[-0.7038466334342957,-0.9997246265411377,-0.6092305183410645],"type":"VEC3"},{"bufferView":2,"componentType":5126,"count":120,"max":[0.2547762095928192,0.24477620422840118],"min":[-0.03849128633737564,-0.1263280212879181],"type":"VEC2"},{"bufferView":3,"componentType":5125,"count":120,"type":"SCALAR"}],"bufferViews":[{"buffer":0,"byteLength":1440,"target":34962},{"buffer":0,"byteLength":1440,"byteOffset":1440,"target":34962},{"buffer":0,"byteLength":960,"byteOffset":2880,"target":34962},{"buffer":0,"byteLength":480,"byteOffset":3840,"target":34963}],"buffers":[{"byteLength":4320,"uri":"weapon_knife_bowie_physics.bin"}],"meshes":[{"name":"physics_group_weaponknife","primitives":[{"attributes":{"POSITION":0,"NORMAL":1,"TEXCOORD_0":2},"indices":3}]}],"nodes":[{"extras":{"SurfaceProperty":"weaponknife","InteractAs":[]},"name":"physics_group_weaponknife","matrix":[3.027916E-09,0,0.025399996,0,0.025399996,3.027916E-09,0,0,0,0.025399996,3.027916E-09,0,0,0,0,1],"mesh":0}],"samplers":[{"magFilter":9729,"minFilter":9987}],"scenes":[{"name":"weapon_knife_bowie.vmdl_c","nodes":[0]}]}