{"asset":{"copyright":"","generator":"Source 2 Viewer 19.2.0.0 - https://valveresourceformat.github.io","version":"2.0"},"accessors":[{"bufferView":0,"componentType":5126,"count":132,"max":[1.8953752517700195,0.7693486213684082,8.781636238098145],"min":[-1.1429224014282227,-0.8891769647598267,-4.967546463012695],"type":"VEC3"},{"bufferView":1,"componentType":5126,"count":132,"max":[0.6868537664413452,0.9993520379066467,0.5773526430130005],"min":[-0.7054504752159119,-0.9988992214202881,-0.6092084646224976],"type":"VEC3"},{"bufferView":2,"componentType":5126,"count":132,"max":[0.17563271522521973,0.17563271522521973],"min":[-0.022858448326587677,-0.0993509292602539],"type":"VEC2"},{"bufferView":3,"componentType":5125,"count":132,"type":"SCALAR"}],"bufferViews":[{"buffer":0,"byteLength":1584,"target":34962},{"buffer":0,"byteLength":1584,"byteOffset":1584,"target":34962},{"buffer":0,"byteLength":1056,"byteOffset":3168,"target":34962},{"buffer":0,"byteLength":528,"byteOffset":4224,"target":34963}],"buffers":[{"byteLength":4752,"uri":"weapon_knife_butterfly_physics.bin"}],"meshes":[{"name":"physics_group_weaponknife","primitives":[{"attributes":{"POSITION":0,"NORMAL":1,"TEXCOORD_0":2},"indices":3}]}],"nodes":[{"extras":{"SurfaceProperty":"weaponknife","InteractAs":[]},"name":"physics_group_weaponknife","matrix":[3.027916E-09,0,0.025399996,0,0.025399996,3.027916E-09,0,0,0,0.025399996,3.027916E-09,0,0,0,0,1],"mesh":0}],"samplers":[{"magFilter":9729,"minFilter":9987}],"scenes":[{"name":"weapon_knife_butterfly.vmdl_c","nodes":[0]}]}