{"asset":{"copyright":"","generator":"Source 2 Viewer 19.2.0.0 - https://valveresourceformat.github.io","version":"2.0"},"accessors":[{"bufferView":0,"componentType":5126,"count":3821,"max":[0.8212360143661499,0.359032541513443,10.775104522705078],"min":[-0.943324625492096,-0.35901519656181335,-3.7133772373199463],"type":"VEC3"},{"bufferView":1,"componentType":5126,"count":3821,"max":[0.9877926111221313,0.9941404461860657],"min":[0.021942809224128723,0.0060731833800673485],"type":"VEC2"},{"bufferView":2,"componentType":5126,"count":3821,"max":[0.9999995231628418,0.9999995231628418,0.9999990463256836],"min":[-0.9999995231628418,-0.9999995231628418,-1],"type":"VEC3"},{"bufferView":3,"componentType":5126,"count":3821,"type":"VEC4"},{"bufferView":4,"componentType":5123,"count":3821,"type":"VEC4"},{"bufferView":5,"componentType":5126,"count":3821,"type":"VEC4"},{"bufferView":6,"componentType":5125,"count":17682,"type":"SCALAR"}],"bufferViews":[{"buffer":0,"byteLength":45852,"byteOffset":193000,"target":34962},{"buffer":0,"byteLength":30568,"byteOffset":284704,"target":34962},{"buffer":0,"byteLength":45852,"byteOffset":238852,"target":34962},{"buffer":0,"byteLength":61136,"byteOffset":70728,"target":34962},{"buffer":0,"byteLength":30568,"byteOffset":315272,"byteStride":8,"target":34962},{"buffer":0,"byteLength":61136,"byteOffset":131864,"target":34962},{"buffer":0,"byteLength":70728,"target":34963}],"buffers":[{"byteLength":345840,"uri":"knife_cord.bin"}],"meshes":[{"extras":{},"name":"weapons\\models\\knife\\knife_cord\\weapon_knife_cord.vmdl_c.body_legacy","primitives":[{"attributes":{"POSITION":0,"TEXCOORD_0":1,"NORMAL":2,"TANGENT":3,"JOINTS_0":4,"WEIGHTS_0":5},"indices":6}]}],"nodes":[{"name":"weapons\\models\\knife\\knife_cord\\weapon_knife_cord.vmdl_c.body_legacy","matrix":[3.027916E-09,0,0.025399996,0,0.025399996,3.027916E-09,0,0,0,0.025399996,3.027916E-09,0,0,0,0,1],"mesh":0}],"samplers":[{"magFilter":9729,"minFilter":9987}],"scenes":[{"name":"weapon_knife_cord.vmdl_c","nodes":[0]}]}