{"asset":{"copyright":"","generator":"Source 2 Viewer 19.2.0.0 - https://valveresourceformat.github.io","version":"2.0"},"accessors":[{"bufferView":0,"componentType":5126,"count":132,"max":[1.5437740087509155,0.7609384059906006,8.781635284423828],"min":[-1.6948548555374146,-0.8736352920532227,-5.146584510803223],"type":"VEC3"},{"bufferView":1,"componentType":5126,"count":132,"max":[0.7037929892539978,0.9998673796653748,0.5773507356643677],"min":[-0.7006754279136658,-0.9995850920677185,-0.6092391610145569],"type":"VEC3"},{"bufferView":2,"componentType":5126,"count":132,"max":[0.1656327247619629,0.17563270032405853],"min":[-0.033897098153829575,-0.1029316857457161],"type":"VEC2"},{"bufferView":3,"componentType":5125,"count":132,"type":"SCALAR"}],"bufferViews":[{"buffer":0,"byteLength":1584,"target":34962},{"buffer":0,"byteLength":1584,"byteOffset":1584,"target":34962},{"buffer":0,"byteLength":1056,"byteOffset":3168,"target":34962},{"buffer":0,"byteLength":528,"byteOffset":4224,"target":34963}],"buffers":[{"byteLength":4752,"uri":"weapon_knife_default_t_physics.bin"}],"meshes":[{"name":"physics_group_weaponknife","primitives":[{"attributes":{"POSITION":0,"NORMAL":1,"TEXCOORD_0":2},"indices":3}]}],"nodes":[{"extras":{"SurfaceProperty":"weaponknife","InteractAs":[]},"name":"physics_group_weaponknife","matrix":[3.027916E-09,0,0.025399996,0,0.025399996,3.027916E-09,0,0,0,0.025399996,3.027916E-09,0,0,0,0,1],"mesh":0}],"samplers":[{"magFilter":9729,"minFilter":9987}],"scenes":[{"name":"weapon_knife_default_t.vmdl_c","nodes":[0]}]}