{"asset":{"copyright":"","generator":"Source 2 Viewer 19.2.0.0 - https://valveresourceformat.github.io","version":"2.0"},"accessors":[{"bufferView":0,"componentType":5126,"count":138,"max":[1.4009301662445068,0.7583972215652466,9.24899673461914],"min":[-1.302243947982788,-0.8040095567703247,-4.8380889892578125],"type":"VEC3"},{"bufferView":1,"componentType":5126,"count":138,"max":[0.6924516558647156,0.998406171798706,0.5773499011993408],"min":[-0.7071036100387573,-0.9993559718132019,-0.609429657459259],"type":"VEC3"},{"bufferView":2,"componentType":5126,"count":138,"max":[0.18497993052005768,0.18497993052005768],"min":[-0.027940133586525917,-0.0967617779970169],"type":"VEC2"},{"bufferView":3,"componentType":5125,"count":138,"type":"SCALAR"}],"bufferViews":[{"buffer":0,"byteLength":1656,"target":34962},{"buffer":0,"byteLength":1656,"byteOffset":1656,"target":34962},{"buffer":0,"byteLength":1104,"byteOffset":3312,"target":34962},{"buffer":0,"byteLength":552,"byteOffset":4416,"target":34963}],"buffers":[{"byteLength":4968,"uri":"weapon_knife_flip_physics.bin"}],"meshes":[{"name":"physics_group_weaponknife","primitives":[{"attributes":{"POSITION":0,"NORMAL":1,"TEXCOORD_0":2},"indices":3}]}],"nodes":[{"extras":{"SurfaceProperty":"weaponknife","InteractAs":[]},"name":"physics_group_weaponknife","matrix":[3.027916E-09,0,0.025399996,0,0.025399996,3.027916E-09,0,0,0,0.025399996,3.027916E-09,0,0,0,0,1],"mesh":0}],"samplers":[{"magFilter":9729,"minFilter":9987}],"scenes":[{"name":"weapon_knife_flip.vmdl_c","nodes":[0]}]}