{"asset":{"copyright":"","generator":"Source 2 Viewer 19.2.0.0 - https://valveresourceformat.github.io","version":"2.0"},"accessors":[{"bufferView":0,"componentType":5126,"count":5467,"max":[4.002185344696045,0.5123727917671204,12.313545227050781],"min":[-1.1692439317703247,-0.5061274766921997,-3.7677161693573],"type":"VEC3"},{"bufferView":1,"componentType":5126,"count":5467,"max":[0.9938963055610657,0.9937437176704407],"min":[0.007080294191837311,0.002471999265253544],"type":"VEC2"},{"bufferView":2,"componentType":5126,"count":5467,"max":[0.9999165534973145,0.9999995231628418,0.9999874234199524],"min":[-0.9999402761459351,-0.9999995231628418,-0.9999490976333618],"type":"VEC3"},{"bufferView":3,"componentType":5126,"count":5467,"type":"VEC4"},{"bufferView":4,"componentType":5123,"count":5467,"type":"VEC4"},{"bufferView":5,"componentType":5126,"count":5467,"type":"VEC4"},{"bufferView":6,"componentType":5125,"count":26622,"type":"SCALAR"}],"bufferViews":[{"buffer":0,"byteLength":65604,"byteOffset":281432,"target":34962},{"buffer":0,"byteLength":43736,"byteOffset":412640,"target":34962},{"buffer":0,"byteLength":65604,"byteOffset":347036,"target":34962},{"buffer":0,"byteLength":87472,"byteOffset":106488,"target":34962},{"buffer":0,"byteLength":43736,"byteOffset":456376,"byteStride":8,"target":34962},{"buffer":0,"byteLength":87472,"byteOffset":193960,"target":34962},{"buffer":0,"byteLength":106488,"target":34963}],"buffers":[{"byteLength":500112,"uri":"knife_kukri.bin"}],"meshes":[{"extras":{},"name":"weapons\\models\\knife\\knife_kukri\\weapon_knife_kukri.vmdl_c.body_legacy","primitives":[{"attributes":{"POSITION":0,"TEXCOORD_0":1,"NORMAL":2,"TANGENT":3,"JOINTS_0":4,"WEIGHTS_0":5},"indices":6}]}],"nodes":[{"name":"weapons\\models\\knife\\knife_kukri\\weapon_knife_kukri.vmdl_c.body_legacy","matrix":[3.027916E-09,0,0.025399996,0,0.025399996,3.027916E-09,0,0,0,0.025399996,3.027916E-09,0,0,0,0,1],"mesh":0}],"samplers":[{"magFilter":9729,"minFilter":9987}],"scenes":[{"name":"weapon_knife_kukri.vmdl_c","nodes":[0]}]}