{"asset":{"copyright":"","generator":"Source 2 Viewer 19.2.0.0 - https://valveresourceformat.github.io","version":"2.0"},"accessors":[{"bufferView":0,"componentType":5126,"count":12909,"max":[1.9658020734786987,0.4632800221443176,10.879617691040039],"min":[-1.287680983543396,-0.4193020164966583,-5.193015098571777],"type":"VEC3"},{"bufferView":1,"componentType":5126,"count":12909,"max":[0.9965819120407104,0.9892574548721313],"min":[0.0008239997550845146,0.002288888208568096],"type":"VEC2"},{"bufferView":2,"componentType":5126,"count":12909,"max":[0.9999957084655762,0.9999995231628418,0.9999165534973145],"min":[-0.9999762177467346,-0.9999995231628418,-0.9999980926513672],"type":"VEC3"},{"bufferView":3,"componentType":5126,"count":12909,"type":"VEC4"},{"bufferView":4,"componentType":5126,"count":12909,"max":[0,0],"min":[0,0],"type":"VEC2"},{"bufferView":5,"componentType":5123,"count":12909,"type":"VEC4"},{"bufferView":6,"componentType":5126,"count":12909,"type":"VEC4"},{"bufferView":7,"componentType":5125,"count":48030,"type":"SCALAR"}],"bufferViews":[{"buffer":0,"byteLength":154908,"byteOffset":605208,"target":34962},{"buffer":0,"byteLength":103272,"byteOffset":915024,"target":34962},{"buffer":0,"byteLength":154908,"byteOffset":760116,"target":34962},{"buffer":0,"byteLength":206544,"target":34962},{"buffer":0,"byteLength":103272,"byteOffset":1018296,"target":34962},{"buffer":0,"byteLength":103272,"byteOffset":1121568,"byteStride":8,"target":34962},{"buffer":0,"byteLength":206544,"byteOffset":206544,"target":34962},{"buffer":0,"byteLength":192120,"byteOffset":413088,"target":34963}],"buffers":[{"byteLength":1224840,"uri":"knife_tactical.bin"}],"meshes":[{"extras":{},"name":"weapons\\models\\knife\\knife_tactical\\weapon_knife_tactical.vmdl_c.body_legacy","primitives":[{"attributes":{"POSITION":0,"TEXCOORD_0":1,"NORMAL":2,"TANGENT":3,"TEXCOORD_1":4,"JOINTS_0":5,"WEIGHTS_0":6},"indices":7}]}],"nodes":[{"name":"weapons\\models\\knife\\knife_tactical\\weapon_knife_tactical.vmdl_c.body_legacy","matrix":[3.027916E-09,0,0.025399996,0,0.025399996,3.027916E-09,0,0,0,0.025399996,3.027916E-09,0,0,0,0,1],"mesh":0}],"samplers":[{"magFilter":9729,"minFilter":9987}],"scenes":[{"name":"weapon_knife_tactical.vmdl_c","nodes":[0]}]}