{"asset":{"copyright":"","generator":"Source 2 Viewer 19.2.0.0 - https://valveresourceformat.github.io","version":"2.0"},"accessors":[{"bufferView":0,"componentType":5126,"count":126,"max":[1.8687446117401123,0.7571394443511963,9.961105346679688],"min":[-1.8819618225097656,-0.8733853101730347,-5.506044387817383],"type":"VEC3"},{"bufferView":1,"componentType":5126,"count":126,"max":[0.7029964923858643,0.9998866319656372,0.5773502588272095],"min":[-0.7034754753112793,-0.9996869564056396,-0.6092372536659241],"type":"VEC3"},{"bufferView":2,"componentType":5126,"count":126,"max":[0.19922210276126862,0.19922210276126862],"min":[-0.03763923421502113,-0.11012088507413864],"type":"VEC2"},{"bufferView":3,"componentType":5125,"count":126,"type":"SCALAR"}],"bufferViews":[{"buffer":0,"byteLength":1512,"target":34962},{"buffer":0,"byteLength":1512,"byteOffset":1512,"target":34962},{"buffer":0,"byteLength":1008,"byteOffset":3024,"target":34962},{"buffer":0,"byteLength":504,"byteOffset":4032,"target":34963}],"buffers":[{"byteLength":4536,"uri":"weapon_knife_default_ct_physics.bin"}],"meshes":[{"name":"physics_group_weaponknife","primitives":[{"attributes":{"POSITION":0,"NORMAL":1,"TEXCOORD_0":2},"indices":3}]}],"nodes":[{"extras":{"SurfaceProperty":"weaponknife","InteractAs":[]},"name":"physics_group_weaponknife","matrix":[3.027916E-09,0,0.025399996,0,0.025399996,3.027916E-09,0,0,0,0.025399996,3.027916E-09,0,0,0,0,1],"mesh":0}],"samplers":[{"magFilter":9729,"minFilter":9987}],"scenes":[{"name":"weapon_knife_default_ct.vmdl_c","nodes":[0]}]}