{"asset":{"copyright":"","generator":"Source 2 Viewer 19.2.0.0 - https://valveresourceformat.github.io","version":"2.0"},"accessors":[{"bufferView":0,"componentType":5126,"count":10337,"max":[1.7010937929153442,0.3724946975708008,8.543451309204102],"min":[-0.5768095850944519,-0.4163498282432556,-4.721540451049805],"type":"VEC3"},{"bufferView":1,"componentType":5126,"count":10337,"max":[0.9912106394767761,0.9990233778953552],"min":[0.004791405983269215,0.00012207403779029846],"type":"VEC2"},{"bufferView":2,"componentType":5126,"count":10337,"max":[0.9999995231628418,0.9999995231628418,0.9999757409095764],"min":[-0.9999995231628418,-0.9999995231628418,-0.9999825954437256],"type":"VEC3"},{"bufferView":3,"componentType":5126,"count":10337,"type":"VEC4"},{"bufferView":4,"componentType":5123,"count":10337,"type":"VEC4"},{"bufferView":5,"componentType":5126,"count":10337,"type":"VEC4"},{"bufferView":6,"componentType":5125,"count":35988,"type":"SCALAR"}],"bufferViews":[{"buffer":0,"byteLength":124044,"byteOffset":474736,"target":34962},{"buffer":0,"byteLength":82696,"byteOffset":722824,"target":34962},{"buffer":0,"byteLength":124044,"byteOffset":598780,"target":34962},{"buffer":0,"byteLength":165392,"target":34962},{"buffer":0,"byteLength":82696,"byteOffset":805520,"byteStride":8,"target":34962},{"buffer":0,"byteLength":165392,"byteOffset":165392,"target":34962},{"buffer":0,"byteLength":143952,"byteOffset":330784,"target":34963}],"buffers":[{"byteLength":888216,"uri":"knife_butterfly.bin"}],"meshes":[{"extras":{},"name":"weapons\\models\\knife\\knife_butterfly\\weapon_knife_butterfly.vmdl_c.body_legacy","primitives":[{"attributes":{"POSITION":0,"TEXCOORD_0":1,"NORMAL":2,"TANGENT":3,"JOINTS_0":4,"WEIGHTS_0":5},"indices":6}]}],"nodes":[{"name":"weapons\\models\\knife\\knife_butterfly\\weapon_knife_butterfly.vmdl_c.body_legacy","matrix":[3.027916E-09,0,0.025399996,0,0.025399996,3.027916E-09,0,0,0,0.025399996,3.027916E-09,0,0,0,0,1],"mesh":0}],"samplers":[{"magFilter":9729,"minFilter":9987}],"scenes":[{"name":"weapon_knife_butterfly.vmdl_c","nodes":[0]}]}