{"asset":{"copyright":"","generator":"Source 2 Viewer 19.2.0.0 - https://valveresourceformat.github.io","version":"2.0"},"accessors":[{"bufferView":0,"componentType":5126,"count":180,"max":[2.032714366912842,0.7530222535133362,11.20104694366455],"min":[-1.5049433708190918,-0.7989373803138733,-5.419356346130371],"type":"VEC3"},{"bufferView":1,"componentType":5126,"count":180,"max":[0.6896246075630188,0.9992245435714722,0.5773503184318542],"min":[-0.7067058086395264,-0.9993186593055725,-0.6991857290267944],"type":"VEC3"},{"bufferView":2,"componentType":5126,"count":180,"max":[0.22402092814445496,0.22402092814445496],"min":[-0.08265815675258636,-0.10288095474243164],"type":"VEC2"},{"bufferView":3,"componentType":5125,"count":180,"type":"SCALAR"}],"bufferViews":[{"buffer":0,"byteLength":2160,"target":34962},{"buffer":0,"byteLength":2160,"byteOffset":2160,"target":34962},{"buffer":0,"byteLength":1440,"byteOffset":4320,"target":34962},{"buffer":0,"byteLength":720,"byteOffset":5760,"target":34963}],"buffers":[{"byteLength":6480,"uri":"weapon_knife_tactical_physics.bin"}],"meshes":[{"name":"physics_group_weaponknife","primitives":[{"attributes":{"POSITION":0,"NORMAL":1,"TEXCOORD_0":2},"indices":3}]}],"nodes":[{"extras":{"SurfaceProperty":"weaponknife","InteractAs":[]},"name":"physics_group_weaponknife","matrix":[3.027916E-09,0,0.025399996,0,0.025399996,3.027916E-09,0,0,0,0.025399996,3.027916E-09,0,0,0,0,1],"mesh":0}],"samplers":[{"magFilter":9729,"minFilter":9987}],"scenes":[{"name":"weapon_knife_tactical.vmdl_c","nodes":[0]}]}