{"asset":{"copyright":"","generator":"Source 2 Viewer 19.2.0.0 - https://valveresourceformat.github.io","version":"2.0"},"accessors":[{"bufferView":0,"componentType":5126,"count":132,"max":[1.9640568494796753,0.8123911619186401,5.4357709884643555],"min":[-3.8099470138549805,-0.8169307708740234,-1.8075953722000122],"type":"VEC3"},{"bufferView":1,"componentType":5126,"count":132,"max":[0.6911473274230957,0.9998494386672974,0.7066840529441833],"min":[-0.6944858431816101,-0.9998493790626526,-0.7071041464805603],"type":"VEC3"},{"bufferView":2,"componentType":5126,"count":132,"max":[0.10871541500091553,0.10871541500091553],"min":[-0.07619893550872803,-0.036151908338069916],"type":"VEC2"},{"bufferView":3,"componentType":5125,"count":132,"type":"SCALAR"}],"bufferViews":[{"buffer":0,"byteLength":1584,"target":34962},{"buffer":0,"byteLength":1584,"byteOffset":1584,"target":34962},{"buffer":0,"byteLength":1056,"byteOffset":3168,"target":34962},{"buffer":0,"byteLength":528,"byteOffset":4224,"target":34963}],"buffers":[{"byteLength":4752,"uri":"weapon_knife_push_physics.bin"}],"meshes":[{"name":"physics_group_weaponknife","primitives":[{"attributes":{"POSITION":0,"NORMAL":1,"TEXCOORD_0":2},"indices":3}]}],"nodes":[{"extras":{"SurfaceProperty":"weaponknife","InteractAs":[]},"name":"physics_group_weaponknife","matrix":[3.027916E-09,0,0.025399996,0,0.025399996,3.027916E-09,0,0,0,0.025399996,3.027916E-09,0,0,0,0,1],"mesh":0}],"samplers":[{"magFilter":9729,"minFilter":9987}],"scenes":[{"name":"weapon_knife_push.vmdl_c","nodes":[0]}]}