{"asset":{"copyright":"","generator":"Source 2 Viewer 19.2.0.0 - https://valveresourceformat.github.io","version":"2.0"},"accessors":[{"bufferView":0,"componentType":5126,"count":126,"max":[1.9579561948776245,0.7526993155479431,10.873960494995117],"min":[-1.5978766679763794,-0.8641906976699829,-4.380603790283203],"type":"VEC3"},{"bufferView":1,"componentType":5126,"count":126,"max":[0.7044683694839478,0.9998945593833923,0.5773513317108154],"min":[-0.7039415836334229,-0.9996482133865356,-0.6092398762702942],"type":"VEC3"},{"bufferView":2,"componentType":5126,"count":126,"max":[0.20747923851013184,0.20747922360897064],"min":[-0.031957533210515976,-0.08761207014322281],"type":"VEC2"},{"bufferView":3,"componentType":5125,"count":126,"type":"SCALAR"}],"bufferViews":[{"buffer":0,"byteLength":1512,"target":34962},{"buffer":0,"byteLength":1512,"byteOffset":1512,"target":34962},{"buffer":0,"byteLength":1008,"byteOffset":3024,"target":34962},{"buffer":0,"byteLength":504,"byteOffset":4032,"target":34963}],"buffers":[{"byteLength":4536,"uri":"weapon_knife_bayonet_physics.bin"}],"meshes":[{"name":"physics_group_weaponknife","primitives":[{"attributes":{"POSITION":0,"NORMAL":1,"TEXCOORD_0":2},"indices":3}]}],"nodes":[{"extras":{"SurfaceProperty":"weaponknife","InteractAs":[]},"name":"physics_group_weaponknife","matrix":[3.027916E-09,0,0.025399996,0,0.025399996,3.027916E-09,0,0,0,0.025399996,3.027916E-09,0,0,0,0,1],"mesh":0}],"samplers":[{"magFilter":9729,"minFilter":9987}],"scenes":[{"name":"weapon_knife_bayonet.vmdl_c","nodes":[0]}]}