{"asset":{"copyright":"","generator":"Source 2 Viewer 19.2.0.0 - https://valveresourceformat.github.io","version":"2.0"},"accessors":[{"bufferView":0,"componentType":5126,"count":12228,"max":[6.242770671844482,0.6499847769737244,5.369630813598633],"min":[-1.4447928667068481,-0.076352559030056,-4.443668842315674],"type":"VEC3"},{"bufferView":1,"componentType":5126,"count":12228,"max":[0.9941404461860657,0.9975585341453552],"min":[0.002136295661330223,0.022522659972310066],"type":"VEC2"},{"bufferView":2,"componentType":5126,"count":12228,"max":[0.9998210072517395,0.9999995231628418,0.9998564720153809],"min":[-0.9997345805168152,-0.9999995231628418,-0.999968945980072],"type":"VEC3"},{"bufferView":3,"componentType":5126,"count":12228,"type":"VEC4"},{"bufferView":4,"componentType":5123,"count":12228,"type":"VEC4"},{"bufferView":5,"componentType":5126,"count":12228,"type":"VEC4"},{"bufferView":6,"componentType":5125,"count":41814,"type":"SCALAR"}],"bufferViews":[{"buffer":0,"byteLength":146736,"byteOffset":558552,"target":34962},{"buffer":0,"byteLength":97824,"byteOffset":852024,"target":34962},{"buffer":0,"byteLength":146736,"byteOffset":705288,"target":34962},{"buffer":0,"byteLength":195648,"target":34962},{"buffer":0,"byteLength":97824,"byteOffset":949848,"byteStride":8,"target":34962},{"buffer":0,"byteLength":195648,"byteOffset":195648,"target":34962},{"buffer":0,"byteLength":167256,"byteOffset":391296,"target":34963}],"buffers":[{"byteLength":1047672,"uri":"knife_karambit.bin"}],"meshes":[{"extras":{},"name":"weapons\\models\\knife\\knife_karambit\\weapon_knife_karambit.vmdl_c.body_legacy","primitives":[{"attributes":{"POSITION":0,"TEXCOORD_0":1,"NORMAL":2,"TANGENT":3,"JOINTS_0":4,"WEIGHTS_0":5},"indices":6}]}],"nodes":[{"name":"weapons\\models\\knife\\knife_karambit\\weapon_knife_karambit.vmdl_c.body_legacy","matrix":[3.027916E-09,0,0.025399996,0,0.025399996,3.027916E-09,0,0,0,0.025399996,3.027916E-09,0,0,0,0,1],"mesh":0}],"samplers":[{"magFilter":9729,"minFilter":9987}],"scenes":[{"name":"weapon_knife_karambit.vmdl_c","nodes":[0]}]}