{"asset":{"copyright":"","generator":"Source 2 Viewer 19.2.0.0 - https://valveresourceformat.github.io","version":"2.0"},"accessors":[{"bufferView":0,"componentType":5126,"count":126,"max":[1.9615325927734375,0.7383627891540527,7.446504592895508],"min":[-0.9746377468109131,-0.8609284162521362,-5.291492462158203],"type":"VEC3"},{"bufferView":1,"componentType":5126,"count":126,"max":[0.664879322052002,0.999608039855957,0.5773643255233765],"min":[-0.7069231867790222,-0.9865407347679138,-0.6092255115509033],"type":"VEC3"},{"bufferView":2,"componentType":5126,"count":126,"max":[0.14893008768558502,0.14893008768558502],"min":[-0.06834681332111359,-0.10582984983921051],"type":"VEC2"},{"bufferView":3,"componentType":5125,"count":126,"type":"SCALAR"}],"bufferViews":[{"buffer":0,"byteLength":1512,"target":34962},{"buffer":0,"byteLength":1512,"byteOffset":1512,"target":34962},{"buffer":0,"byteLength":1008,"byteOffset":3024,"target":34962},{"buffer":0,"byteLength":504,"byteOffset":4032,"target":34963}],"buffers":[{"byteLength":4536,"uri":"weapon_knife_navaja_physics.bin"}],"meshes":[{"name":"physics_group_weaponknife","primitives":[{"attributes":{"POSITION":0,"NORMAL":1,"TEXCOORD_0":2},"indices":3}]}],"nodes":[{"extras":{"SurfaceProperty":"weaponknife","InteractAs":[]},"name":"physics_group_weaponknife","matrix":[3.027916E-09,0,0.025399996,0,0.025399996,3.027916E-09,0,0,0,0.025399996,3.027916E-09,0,0,0,0,1],"mesh":0}],"samplers":[{"magFilter":9729,"minFilter":9987}],"scenes":[{"name":"weapon_knife_navaja.vmdl_c","nodes":[0]}]}