{"asset":{"copyright":"","generator":"Source 2 Viewer 19.2.0.0 - https://valveresourceformat.github.io","version":"2.0"},"accessors":[{"bufferView":0,"componentType":5126,"count":132,"max":[6.340238094329834,0.7342715859413147,5.939180374145508],"min":[-1.4204440116882324,-0.8391843438148499,-4.493258476257324],"type":"VEC3"},{"bufferView":1,"componentType":5126,"count":132,"max":[0.6184471845626831,0.99982088804245,0.7044637203216553],"min":[-0.6734634637832642,-0.996353030204773,-0.6094422340393066],"type":"VEC3"},{"bufferView":2,"componentType":5126,"count":132,"max":[0.12680475413799286,0.1187836080789566],"min":[-0.028408879414200783,-0.08986517041921616],"type":"VEC2"},{"bufferView":3,"componentType":5125,"count":132,"type":"SCALAR"}],"bufferViews":[{"buffer":0,"byteLength":1584,"target":34962},{"buffer":0,"byteLength":1584,"byteOffset":1584,"target":34962},{"buffer":0,"byteLength":1056,"byteOffset":3168,"target":34962},{"buffer":0,"byteLength":528,"byteOffset":4224,"target":34963}],"buffers":[{"byteLength":4752,"uri":"weapon_knife_talon_physics.bin"}],"meshes":[{"name":"physics_group_weaponknife","primitives":[{"attributes":{"POSITION":0,"NORMAL":1,"TEXCOORD_0":2},"indices":3}]}],"nodes":[{"extras":{"SurfaceProperty":"weaponknife","InteractAs":[]},"name":"physics_group_weaponknife","matrix":[3.027916E-09,0,0.025399996,0,0.025399996,3.027916E-09,0,0,0,0.025399996,3.027916E-09,0,0,0,0,1],"mesh":0}],"samplers":[{"magFilter":9729,"minFilter":9987}],"scenes":[{"name":"weapon_knife_talon.vmdl_c","nodes":[0]}]}