{"asset":{"copyright":"","generator":"Source 2 Viewer 19.2.0.0 - https://valveresourceformat.github.io","version":"2.0"},"accessors":[{"bufferView":0,"componentType":5126,"count":156,"max":[6.399291038513184,0.7556804418563843,5.609565734863281],"min":[-1.8873785734176636,-0.8076865673065186,-4.754459381103516],"type":"VEC3"},{"bufferView":1,"componentType":5126,"count":156,"max":[0.613457441329956,0.9998732805252075,0.7010388374328613],"min":[-0.7004601955413818,-0.9980482459068298,-0.6094607710838318],"type":"VEC3"},{"bufferView":2,"componentType":5126,"count":156,"max":[0.12798582017421722,0.11219131201505661],"min":[-0.05119597166776657,-0.09508918225765228],"type":"VEC2"},{"bufferView":3,"componentType":5125,"count":156,"type":"SCALAR"}],"bufferViews":[{"buffer":0,"byteLength":1872,"target":34962},{"buffer":0,"byteLength":1872,"byteOffset":1872,"target":34962},{"buffer":0,"byteLength":1248,"byteOffset":3744,"target":34962},{"buffer":0,"byteLength":624,"byteOffset":4992,"target":34963}],"buffers":[{"byteLength":5616,"uri":"weapon_knife_karambit_physics.bin"}],"meshes":[{"name":"physics_group_weaponknife","primitives":[{"attributes":{"POSITION":0,"NORMAL":1,"TEXCOORD_0":2},"indices":3}]}],"nodes":[{"extras":{"SurfaceProperty":"weaponknife","InteractAs":[]},"name":"physics_group_weaponknife","matrix":[3.027916E-09,0,0.025399996,0,0.025399996,3.027916E-09,0,0,0,0.025399996,3.027916E-09,0,0,0,0,1],"mesh":0}],"samplers":[{"magFilter":9729,"minFilter":9987}],"scenes":[{"name":"weapon_knife_karambit.vmdl_c","nodes":[0]}]}