{"asset":{"copyright":"","generator":"Source 2 Viewer 19.2.0.0 - https://valveresourceformat.github.io","version":"2.0"},"accessors":[{"bufferView":0,"componentType":5126,"count":6335,"max":[6.20955228805542,0.6927531957626343,5.677004337310791],"min":[-1.1073291301727295,-0.12237527966499329,-3.902524709701538],"type":"VEC3"},{"bufferView":1,"componentType":5126,"count":6335,"max":[0.9897457957267761,0.9907223582267761],"min":[0.010956144891679287,0.008056886494159698],"type":"VEC2"},{"bufferView":2,"componentType":5126,"count":6335,"max":[0.9998519420623779,0.9999995231628418,0.9999874234199524],"min":[-0.9999912977218628,-0.9999995231628418,-0.9998846650123596],"type":"VEC3"},{"bufferView":3,"componentType":5126,"count":6335,"type":"VEC4"},{"bufferView":4,"componentType":5123,"count":6335,"type":"VEC4"},{"bufferView":5,"componentType":5126,"count":6335,"type":"VEC4"},{"bufferView":6,"componentType":5125,"count":20472,"type":"SCALAR"}],"bufferViews":[{"buffer":0,"byteLength":76020,"byteOffset":284608,"target":34962},{"buffer":0,"byteLength":50680,"byteOffset":436648,"target":34962},{"buffer":0,"byteLength":76020,"byteOffset":360628,"target":34962},{"buffer":0,"byteLength":101360,"target":34962},{"buffer":0,"byteLength":50680,"byteOffset":487328,"byteStride":8,"target":34962},{"buffer":0,"byteLength":101360,"byteOffset":101360,"target":34962},{"buffer":0,"byteLength":81888,"byteOffset":202720,"target":34963}],"buffers":[{"byteLength":538008,"uri":"knife_talon.bin"}],"meshes":[{"extras":{},"name":"weapons\\models\\knife\\knife_talon\\weapon_knife_talon.vmdl_c.body_legacy","primitives":[{"attributes":{"POSITION":0,"TEXCOORD_0":1,"NORMAL":2,"TANGENT":3,"JOINTS_0":4,"WEIGHTS_0":5},"indices":6}]}],"nodes":[{"name":"weapons\\models\\knife\\knife_talon\\weapon_knife_talon.vmdl_c.body_legacy","matrix":[3.027916E-09,0,0.025399996,0,0.025399996,3.027916E-09,0,0,0,0.025399996,3.027916E-09,0,0,0,0,1],"mesh":0}],"samplers":[{"magFilter":9729,"minFilter":9987}],"scenes":[{"name":"weapon_knife_talon.vmdl_c","nodes":[0]}]}