{"asset":{"copyright":"","generator":"Source 2 Viewer 19.2.0.0 - https://valveresourceformat.github.io","version":"2.0"},"accessors":[{"bufferView":0,"componentType":5126,"count":138,"max":[1.2304506301879883,0.7736444473266602,9.78468132019043],"min":[-1.484987735748291,-0.7986345887184143,-4.5479936599731445],"type":"VEC3"},{"bufferView":1,"componentType":5126,"count":138,"max":[0.6838046908378601,0.9989399909973145,0.5773518681526184],"min":[-0.6891735792160034,-0.9996686577796936,-0.6092161536216736],"type":"VEC3"},{"bufferView":2,"componentType":5126,"count":138,"max":[0.19569362699985504,0.185693621635437],"min":[-0.02969975396990776,-0.09095986932516098],"type":"VEC2"},{"bufferView":3,"componentType":5125,"count":138,"type":"SCALAR"}],"bufferViews":[{"buffer":0,"byteLength":1656,"target":34962},{"buffer":0,"byteLength":1656,"byteOffset":1656,"target":34962},{"buffer":0,"byteLength":1104,"byteOffset":3312,"target":34962},{"buffer":0,"byteLength":552,"byteOffset":4416,"target":34963}],"buffers":[{"byteLength":4968,"uri":"weapon_knife_canis_physics.bin"}],"meshes":[{"name":"physics_group_weaponknife","primitives":[{"attributes":{"POSITION":0,"NORMAL":1,"TEXCOORD_0":2},"indices":3}]}],"nodes":[{"extras":{"SurfaceProperty":"weaponknife","InteractAs":[]},"name":"physics_group_weaponknife","matrix":[3.027916E-09,0,0.025399996,0,0.025399996,3.027916E-09,0,0,0,0.025399996,3.027916E-09,0,0,0,0,1],"mesh":0}],"samplers":[{"magFilter":9729,"minFilter":9987}],"scenes":[{"name":"weapon_knife_canis.vmdl_c","nodes":[0]}]}