{"asset":{"copyright":"","generator":"Source 2 Viewer 19.2.0.0 - https://valveresourceformat.github.io","version":"2.0"},"accessors":[{"bufferView":0,"componentType":5126,"count":120,"max":[1.632665991783142,0.7546610236167908,11.096229553222656],"min":[-2.6167149543762207,-0.8653480410575867,-4.919040203094482],"type":"VEC3"},{"bufferView":1,"componentType":5126,"count":120,"max":[0.7045443654060364,0.9999244213104248,0.5773507356643677],"min":[-0.7001332640647888,-0.9996916651725769,-0.6092407703399658],"type":"VEC3"},{"bufferView":2,"componentType":5126,"count":120,"max":[0.2219245880842209,0.21192461252212524],"min":[-0.05233429744839668,-0.09838080406188965],"type":"VEC2"},{"bufferView":3,"componentType":5125,"count":120,"type":"SCALAR"}],"bufferViews":[{"buffer":0,"byteLength":1440,"target":34962},{"buffer":0,"byteLength":1440,"byteOffset":1440,"target":34962},{"buffer":0,"byteLength":960,"byteOffset":2880,"target":34962},{"buffer":0,"byteLength":480,"byteOffset":3840,"target":34963}],"buffers":[{"byteLength":4320,"uri":"weapon_knife_m9_physics.bin"}],"meshes":[{"name":"physics_group_weaponknife","primitives":[{"attributes":{"POSITION":0,"NORMAL":1,"TEXCOORD_0":2},"indices":3}]}],"nodes":[{"extras":{"SurfaceProperty":"weaponknife","InteractAs":[]},"name":"physics_group_weaponknife","matrix":[3.027916E-09,0,0.025399996,0,0.025399996,3.027916E-09,0,0,0,0.025399996,3.027916E-09,0,0,0,0,1],"mesh":0}],"samplers":[{"magFilter":9729,"minFilter":9987}],"scenes":[{"name":"weapon_knife_m9.vmdl_c","nodes":[0]}]}