{"asset":{"copyright":"","generator":"Source 2 Viewer 19.2.0.0 - https://valveresourceformat.github.io","version":"2.0"},"accessors":[{"bufferView":0,"componentType":5126,"count":3736,"max":[1.2866506576538086,0.45890527963638306,9.758506774902344],"min":[-1.597839117050171,-0.4664729833602905,-5.041885852813721],"type":"VEC3"},{"bufferView":1,"componentType":5126,"count":3736,"max":[0.9960936307907104,0.9902340769767761],"min":[0.008362071588635445,0.008117923513054848],"type":"VEC2"},{"bufferView":2,"componentType":5126,"count":3736,"max":[0.9994449615478516,0.9999995231628418,0.9999402761459351],"min":[-0.9999995231628418,-0.9999995231628418,-0.999927282333374],"type":"VEC3"},{"bufferView":3,"componentType":5126,"count":3736,"type":"VEC4"},{"bufferView":4,"componentType":5123,"count":3736,"type":"VEC4"},{"bufferView":5,"componentType":5126,"count":3736,"type":"VEC4"},{"bufferView":6,"componentType":5125,"count":15351,"type":"SCALAR"}],"bufferViews":[{"buffer":0,"byteLength":44832,"byteOffset":180956,"target":34962},{"buffer":0,"byteLength":29888,"byteOffset":270620,"target":34962},{"buffer":0,"byteLength":44832,"byteOffset":225788,"target":34962},{"buffer":0,"byteLength":59776,"byteOffset":61404,"target":34962},{"buffer":0,"byteLength":29888,"byteOffset":300508,"byteStride":8,"target":34962},{"buffer":0,"byteLength":59776,"byteOffset":121180,"target":34962},{"buffer":0,"byteLength":61404,"target":34963}],"buffers":[{"byteLength":330396,"uri":"knife_ursus.bin"}],"meshes":[{"extras":{},"name":"weapons\\models\\knife\\knife_ursus\\weapon_knife_ursus.vmdl_c.body_legacy","primitives":[{"attributes":{"POSITION":0,"TEXCOORD_0":1,"NORMAL":2,"TANGENT":3,"JOINTS_0":4,"WEIGHTS_0":5},"indices":6}]}],"nodes":[{"name":"weapons\\models\\knife\\knife_ursus\\weapon_knife_ursus.vmdl_c.body_legacy","matrix":[3.027916E-09,0,0.025399996,0,0.025399996,3.027916E-09,0,0,0,0.025399996,3.027916E-09,0,0,0,0,1],"mesh":0}],"samplers":[{"magFilter":9729,"minFilter":9987}],"scenes":[{"name":"weapon_knife_ursus.vmdl_c","nodes":[0]}]}