{"asset":{"copyright":"","generator":"Source 2 Viewer 19.2.0.0 - https://valveresourceformat.github.io","version":"2.0"},"accessors":[{"bufferView":0,"componentType":5126,"count":132,"max":[1.2281091213226318,0.7625088095664978,9.067976951599121],"min":[-1.3071022033691406,-0.8723708987236023,-4.420574188232422],"type":"VEC3"},{"bufferView":1,"componentType":5126,"count":132,"max":[0.7030537724494934,0.9998164772987366,0.5773500800132751],"min":[-0.7027089595794678,-0.9994783997535706,-0.609208345413208],"type":"VEC3"},{"bufferView":2,"componentType":5126,"count":132,"max":[0.18135952949523926,0.17135950922966003],"min":[-0.026142043992877007,-0.08841148018836975],"type":"VEC2"},{"bufferView":3,"componentType":5125,"count":132,"type":"SCALAR"}],"bufferViews":[{"buffer":0,"byteLength":1584,"target":34962},{"buffer":0,"byteLength":1584,"byteOffset":1584,"target":34962},{"buffer":0,"byteLength":1056,"byteOffset":3168,"target":34962},{"buffer":0,"byteLength":528,"byteOffset":4224,"target":34963}],"buffers":[{"byteLength":4752,"uri":"weapon_knife_skeleton_physics.bin"}],"meshes":[{"name":"physics_group_weaponknife","primitives":[{"attributes":{"POSITION":0,"NORMAL":1,"TEXCOORD_0":2},"indices":3}]}],"nodes":[{"extras":{"SurfaceProperty":"weaponknife","InteractAs":[]},"name":"physics_group_weaponknife","matrix":[3.027916E-09,0,0.025399996,0,0.025399996,3.027916E-09,0,0,0,0.025399996,3.027916E-09,0,0,0,0,1],"mesh":0}],"samplers":[{"magFilter":9729,"minFilter":9987}],"scenes":[{"name":"weapon_knife_skeleton.vmdl_c","nodes":[0]}]}