{"asset":{"copyright":"","generator":"Source 2 Viewer 19.2.0.0 - https://valveresourceformat.github.io","version":"2.0"},"accessors":[{"bufferView":0,"componentType":5126,"count":1180,"max":[1.275534749031067,0.41181907057762146,11.663399696350098],"min":[-1.2755357027053833,-0.41181907057762146,-3.6953916549682617],"type":"VEC3"},{"bufferView":1,"componentType":5126,"count":1180,"max":[0.9975585341453552,0.9946287274360657],"min":[0.010223700664937496,0.005493331700563431],"type":"VEC2"},{"bufferView":2,"componentType":5126,"count":1180,"max":[0.9992947578430176,0.9999995231628418,0.9991272687911987],"min":[-0.9994449615478516,-0.9999995231628418,-0.9992567300796509],"type":"VEC3"},{"bufferView":3,"componentType":5126,"count":1180,"type":"VEC4"},{"bufferView":4,"componentType":5123,"count":1180,"type":"VEC4"},{"bufferView":5,"componentType":5126,"count":1180,"type":"VEC4"},{"bufferView":6,"componentType":5125,"count":3678,"type":"SCALAR"}],"bufferViews":[{"buffer":0,"byteLength":14160,"byteOffset":52472,"target":34962},{"buffer":0,"byteLength":9440,"byteOffset":80792,"target":34962},{"buffer":0,"byteLength":14160,"byteOffset":66632,"target":34962},{"buffer":0,"byteLength":18880,"target":34962},{"buffer":0,"byteLength":9440,"byteOffset":90232,"byteStride":8,"target":34962},{"buffer":0,"byteLength":18880,"byteOffset":18880,"target":34962},{"buffer":0,"byteLength":14712,"byteOffset":37760,"target":34963}],"buffers":[{"byteLength":99672,"uri":"knife_css.bin"}],"meshes":[{"extras":{},"name":"weapons\\models\\knife\\knife_css\\weapon_knife_css.vmdl_c.body_legacy","primitives":[{"attributes":{"POSITION":0,"TEXCOORD_0":1,"NORMAL":2,"TANGENT":3,"JOINTS_0":4,"WEIGHTS_0":5},"indices":6}]}],"nodes":[{"name":"weapons\\models\\knife\\knife_css\\weapon_knife_css.vmdl_c.body_legacy","matrix":[3.027916E-09,0,0.025399996,0,0.025399996,3.027916E-09,0,0,0,0.025399996,3.027916E-09,0,0,0,0,1],"mesh":0}],"samplers":[{"magFilter":9729,"minFilter":9987}],"scenes":[{"name":"weapon_knife_css.vmdl_c","nodes":[0]}]}