{"asset":{"copyright":"","generator":"Source 2 Viewer 19.2.0.0 - https://valveresourceformat.github.io","version":"2.0"},"accessors":[{"bufferView":0,"componentType":5126,"count":6540,"max":[1.003990650177002,0.6346241235733032,8.943187713623047],"min":[-0.6746033430099487,-0.5271530747413635,-4.4590654373168945],"type":"VEC3"},{"bufferView":1,"componentType":5126,"count":6540,"max":[3.861328125,1.943359375],"min":[0.0022945404052734375,0.005115509033203125],"type":"VEC2"},{"bufferView":2,"componentType":5126,"count":6540,"max":[0.9999995231628418,0.9999995231628418,0.9999990463256836],"min":[-0.9999995231628418,-0.9999995231628418,-1],"type":"VEC3"},{"bufferView":3,"componentType":5126,"count":6540,"type":"VEC4"},{"bufferView":4,"componentType":5123,"count":6540,"type":"VEC4"},{"bufferView":5,"componentType":5126,"count":6540,"type":"VEC4"},{"bufferView":6,"componentType":5125,"count":24009,"type":"SCALAR"}],"bufferViews":[{"buffer":0,"byteLength":78480,"byteOffset":305316,"target":34962},{"buffer":0,"byteLength":52320,"byteOffset":462276,"target":34962},{"buffer":0,"byteLength":78480,"byteOffset":383796,"target":34962},{"buffer":0,"byteLength":104640,"target":34962},{"buffer":0,"byteLength":52320,"byteOffset":514596,"byteStride":8,"target":34962},{"buffer":0,"byteLength":104640,"byteOffset":104640,"target":34962},{"buffer":0,"byteLength":96036,"byteOffset":209280,"target":34963}],"buffers":[{"byteLength":566916,"uri":"knife_stiletto.bin"}],"meshes":[{"extras":{},"name":"weapons\\models\\knife\\knife_stiletto\\weapon_knife_stiletto.vmdl_c.body_legacy","primitives":[{"attributes":{"POSITION":0,"TEXCOORD_0":1,"NORMAL":2,"TANGENT":3,"JOINTS_0":4,"WEIGHTS_0":5},"indices":6}]}],"nodes":[{"name":"weapons\\models\\knife\\knife_stiletto\\weapon_knife_stiletto.vmdl_c.body_legacy","matrix":[3.027916E-09,0,0.025399996,0,0.025399996,3.027916E-09,0,0,0,0.025399996,3.027916E-09,0,0,0,0,1],"mesh":0}],"samplers":[{"magFilter":9729,"minFilter":9987}],"scenes":[{"name":"weapon_knife_stiletto.vmdl_c","nodes":[0]}]}