{"asset":{"copyright":"","generator":"Source 2 Viewer 19.2.0.0 - https://valveresourceformat.github.io","version":"2.0"},"accessors":[{"bufferView":0,"componentType":5126,"count":2154,"max":[1.2553119659423828,0.6565589308738708,10.844738006591797],"min":[-1.8485110998153687,-0.640656054019928,-3.6728756427764893],"type":"VEC3"},{"bufferView":1,"componentType":5126,"count":2154,"max":[1,0.9980468153953552],"min":[0,0.00030518509447574615],"type":"VEC2"},{"bufferView":2,"componentType":5126,"count":2154,"max":[0.9999995231628418,0.9999995231628418,0.9999990463256836],"min":[-0.9999995231628418,-0.9999995231628418,-1],"type":"VEC3"},{"bufferView":3,"componentType":5126,"count":2154,"type":"VEC4"},{"bufferView":4,"componentType":5123,"count":2154,"type":"VEC4"},{"bufferView":5,"componentType":5126,"count":2154,"type":"VEC4"},{"bufferView":6,"componentType":5125,"count":6606,"type":"SCALAR"}],"bufferViews":[{"buffer":0,"byteLength":25848,"byteOffset":95352,"target":34962},{"buffer":0,"byteLength":17232,"byteOffset":147048,"target":34962},{"buffer":0,"byteLength":25848,"byteOffset":121200,"target":34962},{"buffer":0,"byteLength":34464,"target":34962},{"buffer":0,"byteLength":17232,"byteOffset":164280,"byteStride":8,"target":34962},{"buffer":0,"byteLength":34464,"byteOffset":34464,"target":34962},{"buffer":0,"byteLength":26424,"byteOffset":68928,"target":34963}],"buffers":[{"byteLength":181512,"uri":"knife_bayonet.bin"}],"meshes":[{"extras":{},"name":"weapons\\models\\knife\\knife_bayonet\\weapon_knife_bayonet.vmdl_c.body_legacy","primitives":[{"attributes":{"POSITION":0,"TEXCOORD_0":1,"NORMAL":2,"TANGENT":3,"JOINTS_0":4,"WEIGHTS_0":5},"indices":6}]}],"nodes":[{"name":"weapons\\models\\knife\\knife_bayonet\\weapon_knife_bayonet.vmdl_c.body_legacy","matrix":[3.027916E-09,0,0.025399996,0,0.025399996,3.027916E-09,0,0,0,0.025399996,3.027916E-09,0,0,0,0,1],"mesh":0}],"samplers":[{"magFilter":9729,"minFilter":9987}],"scenes":[{"name":"weapon_knife_bayonet.vmdl_c","nodes":[0]}]}