{"asset":{"copyright":"","generator":"Source 2 Viewer 19.2.0.0 - https://valveresourceformat.github.io","version":"2.0"},"accessors":[{"bufferView":0,"componentType":5126,"count":132,"max":[1.55526864528656,0.7509629726409912,11.78874397277832],"min":[-1.5421611070632935,-0.8610008358955383,-4.312431335449219],"type":"VEC3"},{"bufferView":1,"componentType":5126,"count":132,"max":[0.7053875923156738,0.9998357892036438,0.5773520469665527],"min":[-0.7037497758865356,-0.999717116355896,-0.6092246770858765],"type":"VEC3"},{"bufferView":2,"componentType":5126,"count":132,"max":[0.23577487468719482,0.22577489912509918],"min":[-0.03084322065114975,-0.08624862134456635],"type":"VEC2"},{"bufferView":3,"componentType":5125,"count":132,"type":"SCALAR"}],"bufferViews":[{"buffer":0,"byteLength":1584,"target":34962},{"buffer":0,"byteLength":1584,"byteOffset":1584,"target":34962},{"buffer":0,"byteLength":1056,"byteOffset":3168,"target":34962},{"buffer":0,"byteLength":528,"byteOffset":4224,"target":34963}],"buffers":[{"byteLength":4752,"uri":"weapon_knife_css_physics.bin"}],"meshes":[{"name":"physics_group_weaponknife","primitives":[{"attributes":{"POSITION":0,"NORMAL":1,"TEXCOORD_0":2},"indices":3}]}],"nodes":[{"extras":{"SurfaceProperty":"weaponknife","InteractAs":[]},"name":"physics_group_weaponknife","matrix":[3.027916E-09,0,0.025399996,0,0.025399996,3.027916E-09,0,0,0,0.025399996,3.027916E-09,0,0,0,0,1],"mesh":0}],"samplers":[{"magFilter":9729,"minFilter":9987}],"scenes":[{"name":"weapon_knife_css.vmdl_c","nodes":[0]}]}