{"asset":{"copyright":"","generator":"Source 2 Viewer 19.2.0.0 - https://valveresourceformat.github.io","version":"2.0"},"accessors":[{"bufferView":0,"componentType":5126,"count":108,"max":[2.4003520011901855,0.7454150319099426,9.284137725830078],"min":[-1.2251425981521606,-0.8683299422264099,-5.385209083557129],"type":"VEC3"},{"bufferView":1,"componentType":5126,"count":108,"max":[0.7067243456840515,0.9997147917747498,0.5773522853851318],"min":[-0.6891829967498779,-0.9966749548912048,-0.6508572101593018],"type":"VEC3"},{"bufferView":2,"componentType":5126,"count":108,"max":[0.1856827437877655,0.1754968911409378],"min":[-0.0921444520354271,-0.10770417749881744],"type":"VEC2"},{"bufferView":3,"componentType":5125,"count":108,"type":"SCALAR"}],"bufferViews":[{"buffer":0,"byteLength":1296,"target":34962},{"buffer":0,"byteLength":1296,"byteOffset":1296,"target":34962},{"buffer":0,"byteLength":864,"byteOffset":2592,"target":34962},{"buffer":0,"byteLength":432,"byteOffset":3456,"target":34963}],"buffers":[{"byteLength":3888,"uri":"weapon_knife_falchion_physics.bin"}],"meshes":[{"name":"physics_group_weaponknife","primitives":[{"attributes":{"POSITION":0,"NORMAL":1,"TEXCOORD_0":2},"indices":3}]}],"nodes":[{"extras":{"SurfaceProperty":"weaponknife","InteractAs":[]},"name":"physics_group_weaponknife","matrix":[3.027916E-09,0,0.025399996,0,0.025399996,3.027916E-09,0,0,0,0.025399996,3.027916E-09,0,0,0,0,1],"mesh":0}],"samplers":[{"magFilter":9729,"minFilter":9987}],"scenes":[{"name":"weapon_knife_falchion.vmdl_c","nodes":[0]}]}