{"asset":{"copyright":"","generator":"Source 2 Viewer 19.2.0.0 - https://valveresourceformat.github.io","version":"2.0"},"accessors":[{"bufferView":0,"componentType":5126,"count":6766,"max":[1.8236709833145142,0.13275229930877686,5.433358192443848],"min":[-3.595188617706299,-0.40388330817222595,-1.7237544059753418],"type":"VEC3"},{"bufferView":1,"componentType":5126,"count":6766,"max":[0.9990233778953552,0.9916989803314209],"min":[0,0.00027466658502817154],"type":"VEC2"},{"bufferView":2,"componentType":5126,"count":6766,"max":[0.9999762177467346,0.9999995231628418,0.9999990463256836],"min":[-0.9999762177467346,-0.9999995231628418,-1],"type":"VEC3"},{"bufferView":3,"componentType":5126,"count":6766,"type":"VEC4"},{"bufferView":4,"componentType":5123,"count":6766,"type":"VEC4"},{"bufferView":5,"componentType":5126,"count":6766,"type":"VEC4"},{"bufferView":6,"componentType":5125,"count":32400,"type":"SCALAR"}],"bufferViews":[{"buffer":0,"byteLength":81192,"byteOffset":346112,"target":34962},{"buffer":0,"byteLength":54128,"byteOffset":508496,"target":34962},{"buffer":0,"byteLength":81192,"byteOffset":427304,"target":34962},{"buffer":0,"byteLength":108256,"byteOffset":129600,"target":34962},{"buffer":0,"byteLength":54128,"byteOffset":562624,"byteStride":8,"target":34962},{"buffer":0,"byteLength":108256,"byteOffset":237856,"target":34962},{"buffer":0,"byteLength":129600,"target":34963}],"buffers":[{"byteLength":616752,"uri":"knife_push.bin"}],"meshes":[{"extras":{},"name":"weapons\\models\\knife\\knife_push\\weapon_knife_push.vmdl_c.body_legacy","primitives":[{"attributes":{"POSITION":0,"TEXCOORD_0":1,"NORMAL":2,"TANGENT":3,"JOINTS_0":4,"WEIGHTS_0":5},"indices":6}]}],"nodes":[{"name":"weapons\\models\\knife\\knife_push\\weapon_knife_push.vmdl_c.body_legacy","matrix":[3.027916E-09,0,0.025399996,0,0.025399996,3.027916E-09,0,0,0,0.025399996,3.027916E-09,0,0,0,0,1],"mesh":0}],"samplers":[{"magFilter":9729,"minFilter":9987}],"scenes":[{"name":"weapon_knife_push.vmdl_c","nodes":[0]}]}