{"asset":{"copyright":"","generator":"Source 2 Viewer 19.2.0.0 - https://valveresourceformat.github.io","version":"2.0"},"accessors":[{"bufferView":0,"componentType":5126,"count":228,"max":[32.47816848754883,4.538618087768555,7.760707855224609],"min":[-15.62579345703125,-4.178245544433594,-4.61905574798584],"type":"VEC3"},{"bufferView":1,"componentType":5126,"count":228,"max":[0.33811771869659424,0.9999895691871643,0.7254888415336609],"min":[-0.993637204170227,-0.9922491908073425,-1],"type":"VEC3"},{"bufferView":2,"componentType":5126,"count":228,"max":[0.6495633721351624,0.15521416068077087],"min":[-0.31251585483551025,-0.09238111227750778],"type":"VEC2"},{"bufferView":3,"componentType":5125,"count":228,"type":"SCALAR"}],"bufferViews":[{"buffer":0,"byteLength":2736,"target":34962},{"buffer":0,"byteLength":2736,"byteOffset":2736,"target":34962},{"buffer":0,"byteLength":1824,"byteOffset":5472,"target":34962},{"buffer":0,"byteLength":912,"byteOffset":7296,"target":34963}],"buffers":[{"byteLength":8208,"uri":"weapon_mach_m249_physics.bin"}],"meshes":[{"name":"physics_group_weaponheavy","primitives":[{"attributes":{"POSITION":0,"NORMAL":1,"TEXCOORD_0":2},"indices":3}]}],"nodes":[{"extras":{"SurfaceProperty":"weaponheavy","InteractAs":[]},"name":"physics_group_weaponheavy","matrix":[3.027916E-09,0,0.025399996,0,0.025399996,3.027916E-09,0,0,0,0.025399996,3.027916E-09,0,0,0,0,1],"mesh":0}],"samplers":[{"magFilter":9729,"minFilter":9987}],"scenes":[{"name":"weapon_mach_m249.vmdl_c","nodes":[0]}]}