{"asset":{"copyright":"","generator":"Source 2 Viewer 19.2.0.0 - https://valveresourceformat.github.io","version":"2.0"},"accessors":[{"bufferView":0,"componentType":5126,"count":21062,"max":[32.13093566894531,4.346320629119873,15.393630981445312],"min":[-15.587601661682129,-3.663984775543213,-3.74393630027771],"type":"VEC3"},{"bufferView":1,"componentType":5126,"count":21062,"max":[1.97265625,0.9970703125],"min":[-1.2431640625,-0.9677734375],"type":"VEC2"},{"bufferView":2,"componentType":5126,"count":21062,"max":[0.9999995231628418,0.9999995231628418,0.9999990463256836],"min":[-0.9999995231628418,-0.9999995231628418,-1],"type":"VEC3"},{"bufferView":3,"componentType":5126,"count":21062,"type":"VEC4"},{"bufferView":4,"componentType":5126,"count":21062,"max":[0.97998046875,0.32861328125],"min":[-1.9931640625,-0.1385498046875],"type":"VEC2"},{"bufferView":5,"componentType":5123,"count":21062,"type":"VEC4"},{"bufferView":6,"componentType":5126,"count":21062,"type":"VEC4"},{"bufferView":7,"componentType":5125,"count":37605,"type":"SCALAR"},{"bufferView":8,"componentType":5125,"count":25698,"type":"SCALAR"},{"bufferView":9,"componentType":5126,"count":54973,"max":[32.144596099853516,4.472528457641602,6.7852044105529785],"min":[-15.660917282104492,-4.076963901519775,-4.753574848175049],"type":"VEC3"},{"bufferView":10,"componentType":5126,"count":54973,"max":[0.9975585341453552,0.9980468153953552],"min":[0.0023194067180156708,0.002288888208568096],"type":"VEC2"},{"bufferView":11,"componentType":5126,"count":54973,"max":[0.9999995231628418,0.9999995231628418,0.9999990463256836],"min":[-0.9999995231628418,-0.9999995231628418,-1],"type":"VEC3"},{"bufferView":12,"componentType":5126,"count":54973,"type":"VEC4"},{"bufferView":13,"componentType":5126,"count":54973,"max":[0.98046875,0.31982421875],"min":[-1.9931640625,0.037109375],"type":"VEC2"},{"bufferView":14,"componentType":5123,"count":54973,"type":"VEC4"},{"bufferView":15,"componentType":5126,"count":54973,"type":"VEC4"},{"bufferView":16,"componentType":5125,"count":176880,"type":"SCALAR"}],"bufferViews":[{"buffer":0,"byteLength":252744,"byteOffset":5779344,"target":34962},{"buffer":0,"byteLength":168496,"byteOffset":6284832,"target":34962},{"buffer":0,"byteLength":252744,"byteOffset":6032088,"target":34962},{"buffer":0,"byteLength":336992,"byteOffset":5105360,"target":34962},{"buffer":0,"byteLength":168496,"byteOffset":6453328,"target":34962},{"buffer":0,"byteLength":168496,"byteOffset":6621824,"byteStride":8,"target":34962},{"buffer":0,"byteLength":336992,"byteOffset":5442352,"target":34962},{"buffer":0,"byteLength":150420,"byteOffset":6790320,"target":34963},{"buffer":0,"byteLength":102792,"byteOffset":6940740,"target":34963},{"buffer":0,"byteLength":659676,"byteOffset":2466656,"target":34962},{"buffer":0,"byteLength":439784,"byteOffset":3786008,"target":34962},{"buffer":0,"byteLength":659676,"byteOffset":3126332,"target":34962},{"buffer":0,"byteLength":879568,"target":34962},{"buffer":0,"byteLength":439784,"byteOffset":4225792,"target":34962},{"buffer":0,"byteLength":439784,"byteOffset":4665576,"byteStride":8,"target":34962},{"buffer":0,"byteLength":879568,"byteOffset":879568,"target":34962},{"buffer":0,"byteLength":707520,"byteOffset":1759136,"target":34963}],"buffers":[{"byteLength":7043532,"uri":"m249.bin"}],"meshes":[{"extras":{},"name":"weapons\\models\\m249\\weapon_mach_m249.vmdl_c.body_legacy","primitives":[{"attributes":{"POSITION":0,"TEXCOORD_0":1,"NORMAL":2,"TANGENT":3,"TEXCOORD_1":4,"JOINTS_0":5,"WEIGHTS_0":6},"indices":7},{"attributes":{"POSITION":0,"TEXCOORD_0":1,"NORMAL":2,"TANGENT":3,"TEXCOORD_1":4,"JOINTS_0":5,"WEIGHTS_0":6},"indices":8}]},{"extras":{},"name":"weapons\\models\\m249\\weapon_mach_m249.vmdl_c.body_hd","primitives":[{"attributes":{"POSITION":9,"TEXCOORD_0":10,"NORMAL":11,"TANGENT":12,"TEXCOORD_1":13,"JOINTS_0":14,"WEIGHTS_0":15},"indices":16}]}],"nodes":[{"name":"weapons\\models\\m249\\weapon_mach_m249.vmdl_c.body_legacy","matrix":[3.027916E-09,0,0.025399996,0,0.025399996,3.027916E-09,0,0,0,0.025399996,3.027916E-09,0,0,0,0,1],"mesh":0},{"name":"weapons\\models\\m249\\weapon_mach_m249.vmdl_c.body_hd","matrix":[3.027916E-09,0,0.025399996,0,0.025399996,3.027916E-09,0,0,0,0.025399996,3.027916E-09,0,0,0,0,1],"mesh":1}],"samplers":[{"magFilter":9729,"minFilter":9987}],"scenes":[{"name":"weapon_mach_m249.vmdl_c","nodes":[0,1]}]}