{"asset":{"copyright":"","generator":"Source 2 Viewer 19.2.0.0 - https://valveresourceformat.github.io","version":"2.0"},"accessors":[{"bufferView":0,"componentType":5126,"count":27709,"max":[33.77775192260742,1.5199013948440552,8.025096893310547],"min":[-13.682831764221191,-2.0651416778564453,-3.6540915966033936],"type":"VEC3"},{"bufferView":1,"componentType":5126,"count":27709,"max":[2.46484375,1.7255859375],"min":[0,0.00799560546875],"type":"VEC2"},{"bufferView":2,"componentType":5126,"count":27709,"max":[0.9999995231628418,0.9999995231628418,0.9999990463256836],"min":[-0.9999995231628418,-0.9999995231628418,-1],"type":"VEC3"},{"bufferView":3,"componentType":5126,"count":27709,"type":"VEC4"},{"bufferView":4,"componentType":5126,"count":27709,"max":[0.97998046875,0.253662109375],"min":[-1.96875,0.020263671875],"type":"VEC2"},{"bufferView":5,"componentType":5123,"count":27709,"type":"VEC4"},{"bufferView":6,"componentType":5126,"count":27709,"type":"VEC4"},{"bufferView":7,"componentType":5125,"count":71100,"type":"SCALAR"},{"bufferView":8,"componentType":5126,"count":37010,"max":[32.919227600097656,1.3754361867904663,8.066024780273438],"min":[-13.412891387939453,-1.6985877752304077,-3.721778154373169],"type":"VEC3"},{"bufferView":9,"componentType":5126,"count":37010,"max":[0.9970701932907104,0.9970701932907104],"min":[0.002685628831386566,0.0037537766620516777],"type":"VEC2"},{"bufferView":10,"componentType":5126,"count":37010,"max":[0.9999995231628418,0.9999995231628418,0.9999990463256836],"min":[-0.9999995231628418,-0.9999995231628418,-1],"type":"VEC3"},{"bufferView":11,"componentType":5126,"count":37010,"type":"VEC4"},{"bufferView":12,"componentType":5126,"count":37010,"max":[0.974609375,0.255126953125],"min":[-1.951171875,0.0194549560546875],"type":"VEC2"},{"bufferView":13,"componentType":5123,"count":37010,"type":"VEC4"},{"bufferView":14,"componentType":5126,"count":37010,"type":"VEC4"},{"bufferView":15,"componentType":5125,"count":136116,"type":"SCALAR"}],"bufferViews":[{"buffer":0,"byteLength":332508,"byteOffset":3503712,"target":34962},{"buffer":0,"byteLength":221672,"byteOffset":5341368,"target":34962},{"buffer":0,"byteLength":332508,"byteOffset":3836220,"target":34962},{"buffer":0,"byteLength":443344,"byteOffset":2617024,"target":34962},{"buffer":0,"byteLength":221672,"byteOffset":5563040,"target":34962},{"buffer":0,"byteLength":221672,"byteOffset":5784712,"byteStride":8,"target":34962},{"buffer":0,"byteLength":443344,"byteOffset":3060368,"target":34962},{"buffer":0,"byteLength":284400,"byteOffset":5056968,"target":34963},{"buffer":0,"byteLength":444120,"byteOffset":1728784,"target":34962},{"buffer":0,"byteLength":296080,"byteOffset":4168728,"target":34962},{"buffer":0,"byteLength":444120,"byteOffset":2172904,"target":34962},{"buffer":0,"byteLength":592160,"target":34962},{"buffer":0,"byteLength":296080,"byteOffset":4464808,"target":34962},{"buffer":0,"byteLength":296080,"byteOffset":4760888,"byteStride":8,"target":34962},{"buffer":0,"byteLength":592160,"byteOffset":592160,"target":34962},{"buffer":0,"byteLength":544464,"byteOffset":1184320,"target":34963}],"buffers":[{"byteLength":6006384,"uri":"m4a1_silencer.bin"}],"meshes":[{"extras":{},"name":"weapons\\models\\m4a1_silencer\\weapon_rif_m4a1_silencer.vmdl_c.body_legacy","primitives":[{"attributes":{"POSITION":0,"TEXCOORD_0":1,"NORMAL":2,"TANGENT":3,"TEXCOORD_1":4,"JOINTS_0":5,"WEIGHTS_0":6},"indices":7}]},{"extras":{},"name":"weapons\\models\\m4a1_silencer\\weapon_rif_m4a1_silencer.vmdl_c.body_hd","primitives":[{"attributes":{"POSITION":8,"TEXCOORD_0":9,"NORMAL":10,"TANGENT":11,"TEXCOORD_1":12,"JOINTS_0":13,"WEIGHTS_0":14},"indices":15}]}],"nodes":[{"name":"weapons\\models\\m4a1_silencer\\weapon_rif_m4a1_silencer.vmdl_c.body_legacy","matrix":[3.027916E-09,0,0.025399996,0,0.025399996,3.027916E-09,0,0,0,0.025399996,3.027916E-09,0,0,0,0,1],"mesh":0},{"name":"weapons\\models\\m4a1_silencer\\weapon_rif_m4a1_silencer.vmdl_c.body_hd","matrix":[3.027916E-09,0,0.025399996,0,0.025399996,3.027916E-09,0,0,0,0.025399996,3.027916E-09,0,0,0,0,1],"mesh":1}],"samplers":[{"magFilter":9729,"minFilter":9987}],"scenes":[{"name":"weapon_rif_m4a1_silencer.vmdl_c","nodes":[0,1]}]}