{"asset":{"copyright":"","generator":"Source 2 Viewer 19.2.0.0 - https://valveresourceformat.github.io","version":"2.0"},"accessors":[{"bufferView":0,"componentType":5126,"count":96,"max":[32.82741165161133,1.100000262260437,8.381935119628906],"min":[-13.687381744384766,-1.100000262260437,-4.255241394042969],"type":"VEC3"},{"bufferView":1,"componentType":5126,"count":96,"max":[0.9007635116577148,1,0.866336464881897],"min":[-0.8759298920631409,-1,-0.8338801860809326],"type":"VEC3"},{"bufferView":2,"componentType":5126,"count":96,"max":[0.6565482020378113,0.1543460488319397],"min":[-0.27374762296676636,-0.07186185568571091],"type":"VEC2"},{"bufferView":3,"componentType":5125,"count":96,"type":"SCALAR"}],"bufferViews":[{"buffer":0,"byteLength":1152,"target":34962},{"buffer":0,"byteLength":1152,"byteOffset":1152,"target":34962},{"buffer":0,"byteLength":768,"byteOffset":2304,"target":34962},{"buffer":0,"byteLength":384,"byteOffset":3072,"target":34963}],"buffers":[{"byteLength":3456,"uri":"weapon_rif_m4a1_silencer_physics.bin"}],"meshes":[{"name":"physics_group_weaponrifle","primitives":[{"attributes":{"POSITION":0,"NORMAL":1,"TEXCOORD_0":2},"indices":3}]}],"nodes":[{"extras":{"SurfaceProperty":"weaponrifle","InteractAs":[]},"name":"physics_group_weaponrifle","matrix":[3.027916E-09,0,0.025399996,0,0.025399996,3.027916E-09,0,0,0,0.025399996,3.027916E-09,0,0,0,0,1],"mesh":0}],"samplers":[{"magFilter":9729,"minFilter":9987}],"scenes":[{"name":"weapon_rif_m4a1_silencer.vmdl_c","nodes":[0]}]}