{"asset":{"copyright":"","generator":"Source 2 Viewer 19.2.0.0 - https://valveresourceformat.github.io","version":"2.0"},"accessors":[{"bufferView":0,"componentType":5126,"count":108,"max":[36.78300476074219,1.1007001399993896,15.84007740020752],"min":[1.3851680755615234,-1.100687026977539,3.757974624633789],"type":"VEC3"},{"bufferView":1,"componentType":5126,"count":108,"max":[0.9007357954978943,0.9999999403953552,0.8471682071685791],"min":[-0.8884126543998718,-0.9999999403953552,-0.8714538216590881],"type":"VEC3"},{"bufferView":2,"componentType":5126,"count":108,"max":[0.7356600761413574,0.3027370870113373],"min":[0.027703361585736275,-0.02201400138437748],"type":"VEC2"},{"bufferView":3,"componentType":5125,"count":108,"type":"SCALAR"}],"bufferViews":[{"buffer":0,"byteLength":1296,"target":34962},{"buffer":0,"byteLength":1296,"byteOffset":1296,"target":34962},{"buffer":0,"byteLength":864,"byteOffset":2592,"target":34962},{"buffer":0,"byteLength":432,"byteOffset":3456,"target":34963}],"buffers":[{"byteLength":3888,"uri":"weapon_rif_m4a4_physics.bin"}],"meshes":[{"name":"physics_group_weaponrifle","primitives":[{"attributes":{"POSITION":0,"NORMAL":1,"TEXCOORD_0":2},"indices":3}]}],"nodes":[{"extras":{"SurfaceProperty":"weaponrifle","InteractAs":[]},"name":"physics_group_weaponrifle","matrix":[3.027916E-09,0,0.025399996,0,0.025399996,3.027916E-09,0,0,0,0.025399996,3.027916E-09,0,0,0,0,1],"mesh":0}],"samplers":[{"magFilter":9729,"minFilter":9987}],"scenes":[{"name":"weapon_rif_m4a4.vmdl_c","nodes":[0]}]}