{"asset":{"copyright":"","generator":"Source 2 Viewer 19.2.0.0 - https://valveresourceformat.github.io","version":"2.0"},"accessors":[{"bufferView":0,"componentType":5126,"count":19214,"max":[36.77436447143555,1.456302285194397,15.341837882995605],"min":[1.451826810836792,-1.6057980060577393,4.015088081359863],"type":"VEC3"},{"bufferView":1,"componentType":5126,"count":19214,"max":[0.9990233778953552,0.9980468153953552],"min":[0.0008850367739796638,0.0010986663401126862],"type":"VEC2"},{"bufferView":2,"componentType":5126,"count":19214,"max":[0.9999995231628418,0.9998885989189148,0.9999990463256836],"min":[-0.9999995231628418,-0.9999995231628418,-1],"type":"VEC3"},{"bufferView":3,"componentType":5126,"count":19214,"type":"VEC4"},{"bufferView":4,"componentType":5126,"count":19214,"max":[0.966796875,0.318603515625],"min":[-1.9619140625,0.0207061767578125],"type":"VEC2"},{"bufferView":5,"componentType":5123,"count":19214,"type":"VEC4"},{"bufferView":6,"componentType":5126,"count":19214,"type":"VEC4"},{"bufferView":7,"componentType":5125,"count":54468,"type":"SCALAR"},{"bufferView":8,"componentType":5126,"count":39558,"max":[36.680091857910156,1.8666257858276367,15.520095825195312],"min":[1.3901392221450806,-1.7278529405593872,4.023914813995361],"type":"VEC3"},{"bufferView":9,"componentType":5126,"count":39558,"max":[0.9985350966453552,0.9985350966453552],"min":[0.0009765923023223877,0.004028443247079849],"type":"VEC2"},{"bufferView":10,"componentType":5126,"count":39558,"max":[0.9999995231628418,0.9999995231628418,0.9999990463256836],"min":[-0.9999995231628418,-0.9999995231628418,-1],"type":"VEC3"},{"bufferView":11,"componentType":5126,"count":39558,"type":"VEC4"},{"bufferView":12,"componentType":5126,"count":39558,"max":[0.96826171875,0.318359375],"min":[-1.9599609375,0.0160064697265625],"type":"VEC2"},{"bufferView":13,"componentType":5123,"count":39558,"type":"VEC4"},{"bufferView":14,"componentType":5126,"count":39558,"type":"VEC4"},{"bufferView":15,"componentType":5125,"count":136266,"type":"SCALAR"}],"bufferViews":[{"buffer":0,"byteLength":230568,"byteOffset":4324552,"target":34962},{"buffer":0,"byteLength":153712,"byteOffset":5003560,"target":34962},{"buffer":0,"byteLength":230568,"byteOffset":4555120,"target":34962},{"buffer":0,"byteLength":307424,"byteOffset":3709704,"target":34962},{"buffer":0,"byteLength":153712,"byteOffset":5157272,"target":34962},{"buffer":0,"byteLength":153712,"byteOffset":5310984,"byteStride":8,"target":34962},{"buffer":0,"byteLength":307424,"byteOffset":4017128,"target":34962},{"buffer":0,"byteLength":217872,"byteOffset":4785688,"target":34963},{"buffer":0,"byteLength":474696,"byteOffset":1810920,"target":34962},{"buffer":0,"byteLength":316464,"byteOffset":2760312,"target":34962},{"buffer":0,"byteLength":474696,"byteOffset":2285616,"target":34962},{"buffer":0,"byteLength":632928,"target":34962},{"buffer":0,"byteLength":316464,"byteOffset":3076776,"target":34962},{"buffer":0,"byteLength":316464,"byteOffset":3393240,"byteStride":8,"target":34962},{"buffer":0,"byteLength":632928,"byteOffset":632928,"target":34962},{"buffer":0,"byteLength":545064,"byteOffset":1265856,"target":34963}],"buffers":[{"byteLength":5464696,"uri":"m4a4.bin"}],"meshes":[{"extras":{},"name":"weapons\\models\\m4a4\\weapon_rif_m4a4.vmdl_c.body_legacy","primitives":[{"attributes":{"POSITION":0,"TEXCOORD_0":1,"NORMAL":2,"TANGENT":3,"TEXCOORD_1":4,"JOINTS_0":5,"WEIGHTS_0":6},"indices":7}]},{"extras":{},"name":"weapons\\models\\m4a4\\weapon_rif_m4a4.vmdl_c.body_hd","primitives":[{"attributes":{"POSITION":8,"TEXCOORD_0":9,"NORMAL":10,"TANGENT":11,"TEXCOORD_1":12,"JOINTS_0":13,"WEIGHTS_0":14},"indices":15}]}],"nodes":[{"name":"weapons\\models\\m4a4\\weapon_rif_m4a4.vmdl_c.body_legacy","matrix":[3.027916E-09,0,0.025399996,0,0.025399996,3.027916E-09,0,0,0,0.025399996,3.027916E-09,0,0,0,0,1],"mesh":0},{"name":"weapons\\models\\m4a4\\weapon_rif_m4a4.vmdl_c.body_hd","matrix":[3.027916E-09,0,0.025399996,0,0.025399996,3.027916E-09,0,0,0,0.025399996,3.027916E-09,0,0,0,0,1],"mesh":1}],"samplers":[{"magFilter":9729,"minFilter":9987}],"scenes":[{"name":"weapon_rif_m4a4.vmdl_c","nodes":[0,1]}]}