{"asset":{"copyright":"","generator":"Source 2 Viewer 19.2.0.0 - https://valveresourceformat.github.io","version":"2.0"},"accessors":[{"bufferView":0,"componentType":5126,"count":102,"max":[13.263219833374023,1.000000238418579,5.358156204223633],"min":[0.04196357727050781,-1.0000001192092896,-7.046901226043701],"type":"VEC3"},{"bufferView":1,"componentType":5126,"count":102,"max":[0.7170494794845581,1,0.76217120885849],"min":[-0.8023509979248047,-1,-0.8164520859718323],"type":"VEC3"},{"bufferView":2,"componentType":5126,"count":102,"max":[0.2652643918991089,0.08994930982589722],"min":[-0.08057961612939835,-0.14093802869319916],"type":"VEC2"},{"bufferView":3,"componentType":5125,"count":102,"type":"SCALAR"}],"bufferViews":[{"buffer":0,"byteLength":1224,"target":34962},{"buffer":0,"byteLength":1224,"byteOffset":1224,"target":34962},{"buffer":0,"byteLength":816,"byteOffset":2448,"target":34962},{"buffer":0,"byteLength":408,"byteOffset":3264,"target":34963}],"buffers":[{"byteLength":3672,"uri":"weapon_smg_mac10_physics.bin"}],"meshes":[{"name":"physics_group_weaponsmg","primitives":[{"attributes":{"POSITION":0,"NORMAL":1,"TEXCOORD_0":2},"indices":3}]}],"nodes":[{"extras":{"SurfaceProperty":"weaponsmg","InteractAs":[]},"name":"physics_group_weaponsmg","matrix":[3.027916E-09,0,0.025399996,0,0.025399996,3.027916E-09,0,0,0,0.025399996,3.027916E-09,0,0,0,0,1],"mesh":0}],"samplers":[{"magFilter":9729,"minFilter":9987}],"scenes":[{"name":"weapon_smg_mac10.vmdl_c","nodes":[0]}]}