{"asset":{"copyright":"","generator":"Source 2 Viewer 19.2.0.0 - https://valveresourceformat.github.io","version":"2.0"},"accessors":[{"bufferView":0,"componentType":5126,"count":8096,"max":[13.466194152832031,1.1117483377456665,5.127778053283691],"min":[0.25094902515411377,-1.1859419345855713,-6.172554016113281],"type":"VEC3"},{"bufferView":1,"componentType":5126,"count":8096,"max":[0.9990233778953552,1],"min":[-0.0008239997550845146,-0.00030518509447574615],"type":"VEC2"},{"bufferView":2,"componentType":5126,"count":8096,"max":[0.9999995231628418,0.9999995231628418,0.9999990463256836],"min":[-0.9999995231628418,-0.9999995231628418,-1],"type":"VEC3"},{"bufferView":3,"componentType":5126,"count":8096,"type":"VEC4"},{"bufferView":4,"componentType":5126,"count":8096,"max":[0.9208984375,0.82958984375],"min":[-1.9638671875,0.0728759765625],"type":"VEC2"},{"bufferView":5,"componentType":5123,"count":8096,"type":"VEC4"},{"bufferView":6,"componentType":5126,"count":8096,"type":"VEC4"},{"bufferView":7,"componentType":5125,"count":26277,"type":"SCALAR"},{"bufferView":8,"componentType":5126,"count":20200,"max":[13.168858528137207,1.3491685390472412,5.219151496887207],"min":[0.16928742825984955,-1.140093445777893,-6.970808982849121],"type":"VEC3"},{"bufferView":9,"componentType":5126,"count":20200,"max":[1.5810546875,0.9970703125],"min":[0.0024547576904296875,0.00567626953125],"type":"VEC2"},{"bufferView":10,"componentType":5126,"count":20200,"max":[0.9999995231628418,0.9999995231628418,0.9999990463256836],"min":[-0.9999995231628418,-0.9999995231628418,-1],"type":"VEC3"},{"bufferView":11,"componentType":5126,"count":20200,"type":"VEC4"},{"bufferView":12,"componentType":5126,"count":20200,"max":[0.95556640625,0.8837890625],"min":[-1.9404296875,0.0435791015625],"type":"VEC2"},{"bufferView":13,"componentType":5123,"count":20200,"type":"VEC4"},{"bufferView":14,"componentType":5126,"count":20200,"type":"VEC4"},{"bufferView":15,"componentType":5125,"count":76164,"type":"SCALAR"}],"bufferViews":[{"buffer":0,"byteLength":97152,"byteOffset":2284836,"target":34962},{"buffer":0,"byteLength":64768,"byteOffset":2479140,"target":34962},{"buffer":0,"byteLength":97152,"byteOffset":2381988,"target":34962},{"buffer":0,"byteLength":129536,"byteOffset":1920656,"target":34962},{"buffer":0,"byteLength":64768,"byteOffset":2543908,"target":34962},{"buffer":0,"byteLength":64768,"byteOffset":2608676,"byteStride":8,"target":34962},{"buffer":0,"byteLength":129536,"byteOffset":2050192,"target":34962},{"buffer":0,"byteLength":105108,"byteOffset":2179728,"target":34963},{"buffer":0,"byteLength":242400,"byteOffset":951056,"target":34962},{"buffer":0,"byteLength":161600,"byteOffset":1435856,"target":34962},{"buffer":0,"byteLength":242400,"byteOffset":1193456,"target":34962},{"buffer":0,"byteLength":323200,"target":34962},{"buffer":0,"byteLength":161600,"byteOffset":1597456,"target":34962},{"buffer":0,"byteLength":161600,"byteOffset":1759056,"byteStride":8,"target":34962},{"buffer":0,"byteLength":323200,"byteOffset":323200,"target":34962},{"buffer":0,"byteLength":304656,"byteOffset":646400,"target":34963}],"buffers":[{"byteLength":2673444,"uri":"mac10.bin"}],"meshes":[{"extras":{},"name":"weapons\\models\\mac10\\weapon_smg_mac10.vmdl_c.body_legacy","primitives":[{"attributes":{"POSITION":0,"TEXCOORD_0":1,"NORMAL":2,"TANGENT":3,"TEXCOORD_1":4,"JOINTS_0":5,"WEIGHTS_0":6},"indices":7}]},{"extras":{},"name":"weapons\\models\\mac10\\weapon_smg_mac10.vmdl_c.body_hd","primitives":[{"attributes":{"POSITION":8,"TEXCOORD_0":9,"NORMAL":10,"TANGENT":11,"TEXCOORD_1":12,"JOINTS_0":13,"WEIGHTS_0":14},"indices":15}]}],"nodes":[{"name":"weapons\\models\\mac10\\weapon_smg_mac10.vmdl_c.body_legacy","matrix":[3.027916E-09,0,0.025399996,0,0.025399996,3.027916E-09,0,0,0,0.025399996,3.027916E-09,0,0,0,0,1],"mesh":0},{"name":"weapons\\models\\mac10\\weapon_smg_mac10.vmdl_c.body_hd","matrix":[3.027916E-09,0,0.025399996,0,0.025399996,3.027916E-09,0,0,0,0.025399996,3.027916E-09,0,0,0,0,1],"mesh":1}],"samplers":[{"magFilter":9729,"minFilter":9987}],"scenes":[{"name":"weapon_smg_mac10.vmdl_c","nodes":[0,1]}]}