{"asset":{"copyright":"","generator":"Source 2 Viewer 19.2.0.0 - https://valveresourceformat.github.io","version":"2.0"},"accessors":[{"bufferView":0,"componentType":5126,"count":114,"max":[18.994001388549805,1.0000001192092896,11.019699096679688],"min":[-7.134785175323486,-1.0000001192092896,0.2309722900390625],"type":"VEC3"},{"bufferView":1,"componentType":5126,"count":114,"max":[0.8159437775611877,1,0.7639241814613342],"min":[-0.7068411707878113,-1,-0.7944629788398743],"type":"VEC3"},{"bufferView":2,"componentType":5126,"count":114,"max":[0.37988001108169556,0.22039397060871124],"min":[-0.14269569516181946,-0.020000001415610313],"type":"VEC2"},{"bufferView":3,"componentType":5125,"count":114,"type":"SCALAR"}],"bufferViews":[{"buffer":0,"byteLength":1368,"target":34962},{"buffer":0,"byteLength":1368,"byteOffset":1368,"target":34962},{"buffer":0,"byteLength":912,"byteOffset":2736,"target":34962},{"buffer":0,"byteLength":456,"byteOffset":3648,"target":34963}],"buffers":[{"byteLength":4104,"uri":"weapon_shot_mag7_physics.bin"}],"meshes":[{"name":"physics_group_weaponshotgun","primitives":[{"attributes":{"POSITION":0,"NORMAL":1,"TEXCOORD_0":2},"indices":3}]}],"nodes":[{"extras":{"SurfaceProperty":"weaponshotgun","InteractAs":[]},"name":"physics_group_weaponshotgun","matrix":[3.027916E-09,0,0.025399996,0,0.025399996,3.027916E-09,0,0,0,0.025399996,3.027916E-09,0,0,0,0,1],"mesh":0}],"samplers":[{"magFilter":9729,"minFilter":9987}],"scenes":[{"name":"weapon_shot_mag7.vmdl_c","nodes":[0]}]}