{"asset":{"copyright":"","generator":"Source 2 Viewer 19.2.0.0 - https://valveresourceformat.github.io","version":"2.0"},"accessors":[{"bufferView":0,"componentType":5126,"count":10890,"max":[18.82429313659668,1.297093391418457,10.642595291137695],"min":[-7.532492160797119,-1.2970991134643555,-0.00350002758204937],"type":"VEC3"},{"bufferView":1,"componentType":5126,"count":10890,"max":[0.9960936307907104,0.9921872615814209],"min":[-0.9545884728431702,-0.6928617358207703],"type":"VEC2"},{"bufferView":2,"componentType":5126,"count":10890,"max":[0.9999995231628418,0.9999995231628418,0.9999990463256836],"min":[-0.9999995231628418,-0.9999995231628418,-1],"type":"VEC3"},{"bufferView":3,"componentType":5126,"count":10890,"type":"VEC4"},{"bufferView":4,"componentType":5126,"count":10890,"max":[1.009765625,0.410888671875],"min":[-1.9658203125,0.0167999267578125],"type":"VEC2"},{"bufferView":5,"componentType":5123,"count":10890,"type":"VEC4"},{"bufferView":6,"componentType":5126,"count":10890,"type":"VEC4"},{"bufferView":7,"componentType":5125,"count":28395,"type":"SCALAR"},{"bufferView":8,"componentType":5126,"count":16086,"max":[18.6739501953125,1.4111422300338745,10.56737995147705],"min":[-6.845245361328125,-1.223921298980713,0.37963634729385376],"type":"VEC3"},{"bufferView":9,"componentType":5126,"count":16086,"max":[0.9970701932907104,0.9975585341453552],"min":[0.0021973326802253723,0.0021668141707777977],"type":"VEC2"},{"bufferView":10,"componentType":5126,"count":16086,"max":[0.9999995231628418,0.9999995231628418,0.9999990463256836],"min":[-0.9999995231628418,-0.9999995231628418,-1],"type":"VEC3"},{"bufferView":11,"componentType":5126,"count":16086,"type":"VEC4"},{"bufferView":12,"componentType":5126,"count":16086,"max":[0.98388671875,0.396728515625],"min":[-1.9599609375,0.0195770263671875],"type":"VEC2"},{"bufferView":13,"componentType":5123,"count":16086,"type":"VEC4"},{"bufferView":14,"componentType":5126,"count":16086,"type":"VEC4"},{"bufferView":15,"componentType":5125,"count":59904,"type":"SCALAR"}],"bufferViews":[{"buffer":0,"byteLength":130680,"byteOffset":1488912,"target":34962},{"buffer":0,"byteLength":87120,"byteOffset":2249916,"target":34962},{"buffer":0,"byteLength":130680,"byteOffset":1619592,"target":34962},{"buffer":0,"byteLength":174240,"byteOffset":1140432,"target":34962},{"buffer":0,"byteLength":87120,"byteOffset":2337036,"target":34962},{"buffer":0,"byteLength":87120,"byteOffset":2424156,"byteStride":8,"target":34962},{"buffer":0,"byteLength":174240,"byteOffset":1314672,"target":34962},{"buffer":0,"byteLength":113580,"byteOffset":2136336,"target":34963},{"buffer":0,"byteLength":193032,"byteOffset":754368,"target":34962},{"buffer":0,"byteLength":128688,"byteOffset":1750272,"target":34962},{"buffer":0,"byteLength":193032,"byteOffset":947400,"target":34962},{"buffer":0,"byteLength":257376,"target":34962},{"buffer":0,"byteLength":128688,"byteOffset":1878960,"target":34962},{"buffer":0,"byteLength":128688,"byteOffset":2007648,"byteStride":8,"target":34962},{"buffer":0,"byteLength":257376,"byteOffset":257376,"target":34962},{"buffer":0,"byteLength":239616,"byteOffset":514752,"target":34963}],"buffers":[{"byteLength":2511276,"uri":"mag7.bin"}],"meshes":[{"extras":{},"name":"weapons\\models\\mag7\\weapon_shot_mag7.vmdl_c.body_legacy","primitives":[{"attributes":{"POSITION":0,"TEXCOORD_0":1,"NORMAL":2,"TANGENT":3,"TEXCOORD_1":4,"JOINTS_0":5,"WEIGHTS_0":6},"indices":7}]},{"extras":{},"name":"weapons\\models\\mag7\\weapon_shot_mag7.vmdl_c.body_hd","primitives":[{"attributes":{"POSITION":8,"TEXCOORD_0":9,"NORMAL":10,"TANGENT":11,"TEXCOORD_1":12,"JOINTS_0":13,"WEIGHTS_0":14},"indices":15}]}],"nodes":[{"name":"weapons\\models\\mag7\\weapon_shot_mag7.vmdl_c.body_legacy","matrix":[3.027916E-09,0,0.025399996,0,0.025399996,3.027916E-09,0,0,0,0.025399996,3.027916E-09,0,0,0,0,1],"mesh":0},{"name":"weapons\\models\\mag7\\weapon_shot_mag7.vmdl_c.body_hd","matrix":[3.027916E-09,0,0.025399996,0,0.025399996,3.027916E-09,0,0,0,0.025399996,3.027916E-09,0,0,0,0,1],"mesh":1}],"samplers":[{"magFilter":9729,"minFilter":9987}],"scenes":[{"name":"weapon_shot_mag7.vmdl_c","nodes":[0,1]}]}