{"asset":{"copyright":"","generator":"Source 2 Viewer 19.2.0.0 - https://valveresourceformat.github.io","version":"2.0"},"accessors":[{"bufferView":0,"componentType":5126,"count":90,"max":[1.9091883897781372,1.9091883897781372,8.835367202758789],"min":[-1.9091883897781372,-1.9091883897781372,-4.873748779296875],"type":"VEC3"},{"bufferView":1,"componentType":5126,"count":90,"max":[0.9238795638084412,0.9238795042037964,0.295187771320343],"min":[-0.9238795638084412,-0.9238795638084412,-1],"type":"VEC3"},{"bufferView":2,"componentType":5126,"count":90,"max":[0.17670734226703644,0.17670734226703644],"min":[-0.09747496992349625,-0.09747496992349625],"type":"VEC2"},{"bufferView":3,"componentType":5125,"count":90,"type":"SCALAR"}],"bufferViews":[{"buffer":0,"byteLength":1080,"target":34962},{"buffer":0,"byteLength":1080,"byteOffset":1080,"target":34962},{"buffer":0,"byteLength":720,"byteOffset":2160,"target":34962},{"buffer":0,"byteLength":360,"byteOffset":2880,"target":34963}],"buffers":[{"byteLength":3240,"uri":"weapon_molotov_physics.bin"}],"meshes":[{"name":"physics_group_weaponmolotov","primitives":[{"attributes":{"POSITION":0,"NORMAL":1,"TEXCOORD_0":2},"indices":3}]}],"nodes":[{"extras":{"SurfaceProperty":"weaponmolotov","InteractAs":[]},"name":"physics_group_weaponmolotov","matrix":[3.027916E-09,0,0.025399996,0,0.025399996,3.027916E-09,0,0,0,0.025399996,3.027916E-09,0,0,0,0,1],"mesh":0}],"samplers":[{"magFilter":9729,"minFilter":9987}],"scenes":[{"name":"weapon_molotov.vmdl_c","nodes":[0]}]}