{"asset":{"copyright":"","generator":"Source 2 Viewer 19.2.0.0 - https://valveresourceformat.github.io","version":"2.0"},"accessors":[{"bufferView":0,"componentType":5126,"count":18726,"max":[25.44342613220215,1.4030858278274536,6.594202995300293],"min":[-5.173305511474609,-1.403087854385376,-5.829895973205566],"type":"VEC3"},{"bufferView":1,"componentType":5126,"count":18726,"max":[0.9990233778953552,0.9970701932907104],"min":[0.0019531846046447754,0.0016479995101690292],"type":"VEC2"},{"bufferView":2,"componentType":5126,"count":18726,"max":[0.9999995231628418,0.9999995231628418,0.9999990463256836],"min":[-0.9999995231628418,-0.9999995231628418,-1],"type":"VEC3"},{"bufferView":3,"componentType":5126,"count":18726,"type":"VEC4"},{"bufferView":4,"componentType":5126,"count":18726,"max":[0.9775390625,0.42041015625],"min":[-2.041015625,0.006298065185546875],"type":"VEC2"},{"bufferView":5,"componentType":5123,"count":18726,"type":"VEC4"},{"bufferView":6,"componentType":5126,"count":18726,"type":"VEC4"},{"bufferView":7,"componentType":5125,"count":66510,"type":"SCALAR"},{"bufferView":8,"componentType":5126,"count":28721,"max":[23.043306350708008,1.4217867851257324,6.57073974609375],"min":[-5.0487871170043945,-1.2173702716827393,-5.352596759796143],"type":"VEC3"},{"bufferView":9,"componentType":5126,"count":28721,"max":[0.9970701932907104,0.9975585341453552],"min":[0.0024109622463583946,0.002624591812491417],"type":"VEC2"},{"bufferView":10,"componentType":5126,"count":28721,"max":[0.9999995231628418,0.9999995231628418,0.9999990463256836],"min":[-0.9999995231628418,-0.9999995231628418,-1],"type":"VEC3"},{"bufferView":11,"componentType":5126,"count":28721,"type":"VEC4"},{"bufferView":12,"componentType":5126,"count":28721,"max":[0.9736328125,0.404296875],"min":[-1.9619140625,0.007080078125],"type":"VEC2"},{"bufferView":13,"componentType":5123,"count":28721,"type":"VEC4"},{"bufferView":14,"componentType":5126,"count":28721,"type":"VEC4"},{"bufferView":15,"componentType":5125,"count":113394,"type":"SCALAR"}],"bufferViews":[{"buffer":0,"byteLength":224712,"byteOffset":3616528,"target":34962},{"buffer":0,"byteLength":149808,"byteOffset":4065952,"target":34962},{"buffer":0,"byteLength":224712,"byteOffset":3841240,"target":34962},{"buffer":0,"byteLength":299616,"byteOffset":2061952,"target":34962},{"buffer":0,"byteLength":149808,"byteOffset":4215760,"target":34962},{"buffer":0,"byteLength":149808,"byteOffset":4365568,"byteStride":8,"target":34962},{"buffer":0,"byteLength":299616,"byteOffset":2361568,"target":34962},{"buffer":0,"byteLength":266040,"byteOffset":2661184,"target":34963},{"buffer":0,"byteLength":344652,"byteOffset":1372648,"target":34962},{"buffer":0,"byteLength":229768,"byteOffset":2927224,"target":34962},{"buffer":0,"byteLength":344652,"byteOffset":1717300,"target":34962},{"buffer":0,"byteLength":459536,"target":34962},{"buffer":0,"byteLength":229768,"byteOffset":3156992,"target":34962},{"buffer":0,"byteLength":229768,"byteOffset":3386760,"byteStride":8,"target":34962},{"buffer":0,"byteLength":459536,"byteOffset":459536,"target":34962},{"buffer":0,"byteLength":453576,"byteOffset":919072,"target":34963}],"buffers":[{"byteLength":4515376,"uri":"mp5sd.bin"}],"meshes":[{"extras":{},"name":"weapons\\models\\mp5sd\\weapon_smg_mp5sd.vmdl_c.body_legacy","primitives":[{"attributes":{"POSITION":0,"TEXCOORD_0":1,"NORMAL":2,"TANGENT":3,"TEXCOORD_1":4,"JOINTS_0":5,"WEIGHTS_0":6},"indices":7}]},{"extras":{},"name":"weapons\\models\\mp5sd\\weapon_smg_mp5sd.vmdl_c.body_hd","primitives":[{"attributes":{"POSITION":8,"TEXCOORD_0":9,"NORMAL":10,"TANGENT":11,"TEXCOORD_1":12,"JOINTS_0":13,"WEIGHTS_0":14},"indices":15}]}],"nodes":[{"name":"weapons\\models\\mp5sd\\weapon_smg_mp5sd.vmdl_c.body_legacy","matrix":[3.027916E-09,0,0.025399996,0,0.025399996,3.027916E-09,0,0,0,0.025399996,3.027916E-09,0,0,0,0,1],"mesh":0},{"name":"weapons\\models\\mp5sd\\weapon_smg_mp5sd.vmdl_c.body_hd","matrix":[3.027916E-09,0,0.025399996,0,0.025399996,3.027916E-09,0,0,0,0.025399996,3.027916E-09,0,0,0,0,1],"mesh":1}],"samplers":[{"magFilter":9729,"minFilter":9987}],"scenes":[{"name":"weapon_smg_mp5sd.vmdl_c","nodes":[0,1]}]}