{"asset":{"copyright":"","generator":"Source 2 Viewer 19.2.0.0 - https://valveresourceformat.github.io","version":"2.0"},"accessors":[{"bufferView":0,"componentType":5126,"count":102,"max":[23.066978454589844,1.000000238418579,6.9438934326171875],"min":[-5.054412841796875,-1.000000238418579,-5.437894821166992],"type":"VEC3"},{"bufferView":1,"componentType":5126,"count":102,"max":[0.6859939098358154,1,0.5708476901054382],"min":[-0.6637399196624756,-1,-0.5684177279472351],"type":"VEC3"},{"bufferView":2,"componentType":5126,"count":102,"max":[0.4613395631313324,0.13887786865234375],"min":[-0.1010882556438446,-0.10875789076089859],"type":"VEC2"},{"bufferView":3,"componentType":5125,"count":102,"type":"SCALAR"}],"bufferViews":[{"buffer":0,"byteLength":1224,"target":34962},{"buffer":0,"byteLength":1224,"byteOffset":1224,"target":34962},{"buffer":0,"byteLength":816,"byteOffset":2448,"target":34962},{"buffer":0,"byteLength":408,"byteOffset":3264,"target":34963}],"buffers":[{"byteLength":3672,"uri":"weapon_smg_mp5sd_physics.bin"}],"meshes":[{"name":"physics_group_weaponsmg","primitives":[{"attributes":{"POSITION":0,"NORMAL":1,"TEXCOORD_0":2},"indices":3}]}],"nodes":[{"extras":{"SurfaceProperty":"weaponsmg","InteractAs":[]},"name":"physics_group_weaponsmg","matrix":[3.027916E-09,0,0.025399996,0,0.025399996,3.027916E-09,0,0,0,0.025399996,3.027916E-09,0,0,0,0,1],"mesh":0}],"samplers":[{"magFilter":9729,"minFilter":9987}],"scenes":[{"name":"weapon_smg_mp5sd.vmdl_c","nodes":[0]}]}