{"asset":{"copyright":"","generator":"Source 2 Viewer 19.2.0.0 - https://valveresourceformat.github.io","version":"2.0"},"accessors":[{"bufferView":0,"componentType":5126,"count":19133,"max":[8.109761238098145,0.8603021502494812,4.355626583099365],"min":[-7.567023277282715,-0.8600847125053406,-7.041537761688232],"type":"VEC3"},{"bufferView":1,"componentType":5126,"count":19133,"max":[1.5810546875,0.998046875],"min":[-0.998046875,-0.84033203125],"type":"VEC2"},{"bufferView":2,"componentType":5126,"count":19133,"max":[0.9999995231628418,0.9998885989189148,0.9999990463256836],"min":[-0.9999995231628418,-0.9999995231628418,-1],"type":"VEC3"},{"bufferView":3,"componentType":5126,"count":19133,"type":"VEC4"},{"bufferView":4,"componentType":5126,"count":19133,"max":[0.974609375,0.71142578125],"min":[-1.9462890625,0.041259765625],"type":"VEC2"},{"bufferView":5,"componentType":5123,"count":19133,"type":"VEC4"},{"bufferView":6,"componentType":5126,"count":19133,"type":"VEC4"},{"bufferView":7,"componentType":5125,"count":49644,"type":"SCALAR"},{"bufferView":8,"componentType":5126,"count":26520,"max":[8.390425682067871,1.146855115890503,4.707212448120117],"min":[-7.538614749908447,-1.146848440170288,-6.730315208435059],"type":"VEC3"},{"bufferView":9,"componentType":5126,"count":26520,"max":[0.9970701932907104,0.9970701932907104],"min":[0.002685628831386566,0.001739555038511753],"type":"VEC2"},{"bufferView":10,"componentType":5126,"count":26520,"max":[0.9999995231628418,0.9999995231628418,0.9999990463256836],"min":[-0.9999995231628418,-0.9999995231628418,-1],"type":"VEC3"},{"bufferView":11,"componentType":5126,"count":26520,"type":"VEC4"},{"bufferView":12,"componentType":5126,"count":26520,"max":[0.97314453125,0.693359375],"min":[-1.962890625,0.020599365234375],"type":"VEC2"},{"bufferView":13,"componentType":5123,"count":26520,"type":"VEC4"},{"bufferView":14,"componentType":5126,"count":26520,"type":"VEC4"},{"bufferView":15,"componentType":5125,"count":88740,"type":"SCALAR"}],"bufferViews":[{"buffer":0,"byteLength":229596,"byteOffset":2452336,"target":34962},{"buffer":0,"byteLength":153064,"byteOffset":3746584,"target":34962},{"buffer":0,"byteLength":229596,"byteOffset":2681932,"target":34962},{"buffer":0,"byteLength":306128,"byteOffset":1840080,"target":34962},{"buffer":0,"byteLength":153064,"byteOffset":3899648,"target":34962},{"buffer":0,"byteLength":153064,"byteOffset":4052712,"byteStride":8,"target":34962},{"buffer":0,"byteLength":306128,"byteOffset":2146208,"target":34962},{"buffer":0,"byteLength":198576,"byteOffset":3548008,"target":34963},{"buffer":0,"byteLength":318240,"byteOffset":1203600,"target":34962},{"buffer":0,"byteLength":212160,"byteOffset":2911528,"target":34962},{"buffer":0,"byteLength":318240,"byteOffset":1521840,"target":34962},{"buffer":0,"byteLength":424320,"target":34962},{"buffer":0,"byteLength":212160,"byteOffset":3123688,"target":34962},{"buffer":0,"byteLength":212160,"byteOffset":3335848,"byteStride":8,"target":34962},{"buffer":0,"byteLength":424320,"byteOffset":424320,"target":34962},{"buffer":0,"byteLength":354960,"byteOffset":848640,"target":34963}],"buffers":[{"byteLength":4205776,"uri":"mp7.bin"}],"meshes":[{"extras":{},"name":"weapons\\models\\mp7\\weapon_smg_mp7.vmdl_c.body_legacy","primitives":[{"attributes":{"POSITION":0,"TEXCOORD_0":1,"NORMAL":2,"TANGENT":3,"TEXCOORD_1":4,"JOINTS_0":5,"WEIGHTS_0":6},"indices":7}]},{"extras":{},"name":"weapons\\models\\mp7\\weapon_smg_mp7.vmdl_c.body_hd","primitives":[{"attributes":{"POSITION":8,"TEXCOORD_0":9,"NORMAL":10,"TANGENT":11,"TEXCOORD_1":12,"JOINTS_0":13,"WEIGHTS_0":14},"indices":15}]}],"nodes":[{"name":"weapons\\models\\mp7\\weapon_smg_mp7.vmdl_c.body_legacy","matrix":[3.027916E-09,0,0.025399996,0,0.025399996,3.027916E-09,0,0,0,0.025399996,3.027916E-09,0,0,0,0,1],"mesh":0},{"name":"weapons\\models\\mp7\\weapon_smg_mp7.vmdl_c.body_hd","matrix":[3.027916E-09,0,0.025399996,0,0.025399996,3.027916E-09,0,0,0,0.025399996,3.027916E-09,0,0,0,0,1],"mesh":1}],"samplers":[{"magFilter":9729,"minFilter":9987}],"scenes":[{"name":"weapon_smg_mp7.vmdl_c","nodes":[0,1]}]}