{"asset":{"copyright":"","generator":"Source 2 Viewer 19.2.0.0 - https://valveresourceformat.github.io","version":"2.0"},"accessors":[{"bufferView":0,"componentType":5126,"count":132,"max":[8.717355728149414,1.0000001192092896,4.6833038330078125],"min":[-7.649686813354492,-1.0000003576278687,-6.790658473968506],"type":"VEC3"},{"bufferView":1,"componentType":5126,"count":132,"max":[0.6045197248458862,1,0.7071073651313782],"min":[-0.7241275310516357,-1,-0.8034307956695557],"type":"VEC3"},{"bufferView":2,"componentType":5126,"count":132,"max":[0.17434711754322052,0.07366611063480377],"min":[-0.15299373865127563,-0.1358131617307663],"type":"VEC2"},{"bufferView":3,"componentType":5125,"count":132,"type":"SCALAR"}],"bufferViews":[{"buffer":0,"byteLength":1584,"target":34962},{"buffer":0,"byteLength":1584,"byteOffset":1584,"target":34962},{"buffer":0,"byteLength":1056,"byteOffset":3168,"target":34962},{"buffer":0,"byteLength":528,"byteOffset":4224,"target":34963}],"buffers":[{"byteLength":4752,"uri":"weapon_smg_mp7_physics.bin"}],"meshes":[{"name":"physics_group_weaponsmg","primitives":[{"attributes":{"POSITION":0,"NORMAL":1,"TEXCOORD_0":2},"indices":3}]}],"nodes":[{"extras":{"SurfaceProperty":"weaponsmg","InteractAs":[]},"name":"physics_group_weaponsmg","matrix":[3.027916E-09,0,0.025399996,0,0.025399996,3.027916E-09,0,0,0,0.025399996,3.027916E-09,0,0,0,0,1],"mesh":0}],"samplers":[{"magFilter":9729,"minFilter":9987}],"scenes":[{"name":"weapon_smg_mp7.vmdl_c","nodes":[0]}]}