{"asset":{"copyright":"","generator":"Source 2 Viewer 19.2.0.0 - https://valveresourceformat.github.io","version":"2.0"},"accessors":[{"bufferView":0,"componentType":5126,"count":16809,"max":[12.863739967346191,1.0135254859924316,6.939323902130127],"min":[-9.262383460998535,-1.0111091136932373,-3.585883617401123],"type":"VEC3"},{"bufferView":1,"componentType":5126,"count":16809,"max":[0.99755859375,1.0771484375],"min":[-0.9951171875,-0.172119140625],"type":"VEC2"},{"bufferView":2,"componentType":5126,"count":16809,"max":[0.9999995231628418,0.9999995231628418,0.9999990463256836],"min":[-0.9999995231628418,-0.9999995231628418,-1],"type":"VEC3"},{"bufferView":3,"componentType":5126,"count":16809,"type":"VEC4"},{"bufferView":4,"componentType":5126,"count":16809,"max":[0.97265625,0.453125],"min":[-1.9482421875,0.01462554931640625],"type":"VEC2"},{"bufferView":5,"componentType":5123,"count":16809,"type":"VEC4"},{"bufferView":6,"componentType":5126,"count":16809,"type":"VEC4"},{"bufferView":7,"componentType":5125,"count":41553,"type":"SCALAR"},{"bufferView":8,"componentType":5126,"count":24393,"max":[12.952030181884766,0.9548720717430115,6.850708961486816],"min":[-9.21649169921875,-1.0627241134643555,-3.577120304107666],"type":"VEC3"},{"bufferView":9,"componentType":5126,"count":24393,"max":[0.9965819120407104,0.9965819120407104],"min":[0.00317392498254776,0.0032349620014429092],"type":"VEC2"},{"bufferView":10,"componentType":5126,"count":24393,"max":[0.9999995231628418,0.9999995231628418,0.9999990463256836],"min":[-0.9999995231628418,-0.9999995231628418,-1],"type":"VEC3"},{"bufferView":11,"componentType":5126,"count":24393,"type":"VEC4"},{"bufferView":12,"componentType":5126,"count":24393,"max":[0.970703125,0.45263671875],"min":[-1.9521484375,0.018310546875],"type":"VEC2"},{"bufferView":13,"componentType":5123,"count":24393,"type":"VEC4"},{"bufferView":14,"componentType":5126,"count":24393,"type":"VEC4"},{"bufferView":15,"componentType":5125,"count":93012,"type":"SCALAR"}],"bufferViews":[{"buffer":0,"byteLength":201708,"byteOffset":2275944,"target":34962},{"buffer":0,"byteLength":134472,"byteOffset":3431004,"target":34962},{"buffer":0,"byteLength":201708,"byteOffset":2477652,"target":34962},{"buffer":0,"byteLength":268944,"byteOffset":1738056,"target":34962},{"buffer":0,"byteLength":134472,"byteOffset":3565476,"target":34962},{"buffer":0,"byteLength":134472,"byteOffset":3699948,"byteStride":8,"target":34962},{"buffer":0,"byteLength":268944,"byteOffset":2007000,"target":34962},{"buffer":0,"byteLength":166212,"byteOffset":3264792,"target":34963},{"buffer":0,"byteLength":292716,"byteOffset":1152624,"target":34962},{"buffer":0,"byteLength":195144,"byteOffset":2679360,"target":34962},{"buffer":0,"byteLength":292716,"byteOffset":1445340,"target":34962},{"buffer":0,"byteLength":390288,"target":34962},{"buffer":0,"byteLength":195144,"byteOffset":2874504,"target":34962},{"buffer":0,"byteLength":195144,"byteOffset":3069648,"byteStride":8,"target":34962},{"buffer":0,"byteLength":390288,"byteOffset":390288,"target":34962},{"buffer":0,"byteLength":372048,"byteOffset":780576,"target":34963}],"buffers":[{"byteLength":3834420,"uri":"mp9.bin"}],"meshes":[{"extras":{},"name":"weapons\\models\\mp9\\weapon_smg_mp9.vmdl_c.body_legacy","primitives":[{"attributes":{"POSITION":0,"TEXCOORD_0":1,"NORMAL":2,"TANGENT":3,"TEXCOORD_1":4,"JOINTS_0":5,"WEIGHTS_0":6},"indices":7}]},{"extras":{},"name":"weapons\\models\\mp9\\weapon_smg_mp9.vmdl_c.body_hd","primitives":[{"attributes":{"POSITION":8,"TEXCOORD_0":9,"NORMAL":10,"TANGENT":11,"TEXCOORD_1":12,"JOINTS_0":13,"WEIGHTS_0":14},"indices":15}]}],"nodes":[{"name":"weapons\\models\\mp9\\weapon_smg_mp9.vmdl_c.body_legacy","matrix":[3.027916E-09,0,0.025399996,0,0.025399996,3.027916E-09,0,0,0,0.025399996,3.027916E-09,0,0,0,0,1],"mesh":0},{"name":"weapons\\models\\mp9\\weapon_smg_mp9.vmdl_c.body_hd","matrix":[3.027916E-09,0,0.025399996,0,0.025399996,3.027916E-09,0,0,0,0.025399996,3.027916E-09,0,0,0,0,1],"mesh":1}],"samplers":[{"magFilter":9729,"minFilter":9987}],"scenes":[{"name":"weapon_smg_mp9.vmdl_c","nodes":[0,1]}]}