{"asset":{"copyright":"","generator":"Source 2 Viewer 19.2.0.0 - https://valveresourceformat.github.io","version":"2.0"},"accessors":[{"bufferView":0,"componentType":5126,"count":120,"max":[13.037591934204102,1.000000238418579,6.879472255706787],"min":[-9.282453536987305,-1.0000001192092896,-3.5683560371398926],"type":"VEC3"},{"bufferView":1,"componentType":5126,"count":120,"max":[0.8145992755889893,1,0.7185283899307251],"min":[-0.8068937659263611,-1,-0.8164973258972168],"type":"VEC3"},{"bufferView":2,"componentType":5126,"count":120,"max":[0.26072871685028076,0.11830435693264008],"min":[-0.1856490671634674,-0.07134505361318588],"type":"VEC2"},{"bufferView":3,"componentType":5125,"count":120,"type":"SCALAR"}],"bufferViews":[{"buffer":0,"byteLength":1440,"target":34962},{"buffer":0,"byteLength":1440,"byteOffset":1440,"target":34962},{"buffer":0,"byteLength":960,"byteOffset":2880,"target":34962},{"buffer":0,"byteLength":480,"byteOffset":3840,"target":34963}],"buffers":[{"byteLength":4320,"uri":"weapon_smg_mp9_physics.bin"}],"meshes":[{"name":"physics_group_weaponsmg","primitives":[{"attributes":{"POSITION":0,"NORMAL":1,"TEXCOORD_0":2},"indices":3}]}],"nodes":[{"extras":{"SurfaceProperty":"weaponsmg","InteractAs":[]},"name":"physics_group_weaponsmg","matrix":[3.027916E-09,0,0.025399996,0,0.025399996,3.027916E-09,0,0,0,0.025399996,3.027916E-09,0,0,0,0,1],"mesh":0}],"samplers":[{"magFilter":9729,"minFilter":9987}],"scenes":[{"name":"weapon_smg_mp9.vmdl_c","nodes":[0]}]}