{"asset":{"copyright":"","generator":"Source 2 Viewer 19.2.0.0 - https://valveresourceformat.github.io","version":"2.0"},"accessors":[{"bufferView":0,"componentType":5126,"count":180,"max":[24.200363159179688,4.120977878570557,7.50669002532959],"min":[-15.392003059387207,-4.067961692810059,-4.210813999176025],"type":"VEC3"},{"bufferView":1,"componentType":5126,"count":180,"max":[0.7200807929039001,0.9942049980163574,0.9823163747787476],"min":[-0.9962072968482971,-0.986051619052887,-0.9999765753746033],"type":"VEC3"},{"bufferView":2,"componentType":5126,"count":180,"max":[0.48400723934173584,0.15013380348682404],"min":[-0.3078400492668152,-0.08421628177165985],"type":"VEC2"},{"bufferView":3,"componentType":5125,"count":180,"type":"SCALAR"}],"bufferViews":[{"buffer":0,"byteLength":2160,"target":34962},{"buffer":0,"byteLength":2160,"byteOffset":2160,"target":34962},{"buffer":0,"byteLength":1440,"byteOffset":4320,"target":34962},{"buffer":0,"byteLength":720,"byteOffset":5760,"target":34963}],"buffers":[{"byteLength":6480,"uri":"weapon_mach_negev_physics.bin"}],"meshes":[{"name":"physics_group_weaponheavy","primitives":[{"attributes":{"POSITION":0,"NORMAL":1,"TEXCOORD_0":2},"indices":3}]}],"nodes":[{"extras":{"SurfaceProperty":"weaponheavy","InteractAs":[]},"name":"physics_group_weaponheavy","matrix":[3.027916E-09,0,0.025399996,0,0.025399996,3.027916E-09,0,0,0,0.025399996,3.027916E-09,0,0,0,0,1],"mesh":0}],"samplers":[{"magFilter":9729,"minFilter":9987}],"scenes":[{"name":"weapon_mach_negev.vmdl_c","nodes":[0]}]}