{"asset":{"copyright":"","generator":"Source 2 Viewer 19.2.0.0 - https://valveresourceformat.github.io","version":"2.0"},"accessors":[{"bufferView":0,"componentType":5126,"count":29974,"max":[26.25004005432129,3.5198771953582764,7.249423980712891],"min":[-16.104053497314453,-4.128220558166504,-2.735318660736084],"type":"VEC3"},{"bufferView":1,"componentType":5126,"count":29974,"max":[50.15250015258789,1.890733003616333],"min":[-1.9438999891281128,-44.572898864746094],"type":"VEC2"},{"bufferView":2,"componentType":5126,"count":29974,"max":[0.9999995231628418,0.9999995231628418,0.9999990463256836],"min":[-0.9999995231628418,-0.9999995231628418,-1],"type":"VEC3"},{"bufferView":3,"componentType":5126,"count":29974,"type":"VEC4"},{"bufferView":4,"componentType":5126,"count":29974,"max":[0.9931640625,0.266357421875],"min":[-2.037109375,0.0229034423828125],"type":"VEC2"},{"bufferView":5,"componentType":5123,"count":29974,"type":"VEC4"},{"bufferView":6,"componentType":5126,"count":29974,"type":"VEC4"},{"bufferView":7,"componentType":5125,"count":36501,"type":"SCALAR"},{"bufferView":8,"componentType":5125,"count":51612,"type":"SCALAR"},{"bufferView":9,"componentType":5126,"count":53752,"max":[24.07035255432129,4.535986423492432,7.544509410858154],"min":[-15.594855308532715,-4.316744327545166,-4.318961143493652],"type":"VEC3"},{"bufferView":10,"componentType":5126,"count":53752,"max":[0.9975585341453552,0.9975585341453552],"min":[0.002288888208568096,0.0032044434919953346],"type":"VEC2"},{"bufferView":11,"componentType":5126,"count":53752,"max":[0.9999995231628418,0.9999995231628418,0.9999990463256836],"min":[-0.9999995231628418,-0.9999995231628418,-1],"type":"VEC3"},{"bufferView":12,"componentType":5126,"count":53752,"type":"VEC4"},{"bufferView":13,"componentType":5126,"count":53752,"max":[0.9814453125,0.304931640625],"min":[-1.9853515625,0.0157012939453125],"type":"VEC2"},{"bufferView":14,"componentType":5123,"count":53752,"type":"VEC4"},{"bufferView":15,"componentType":5126,"count":53752,"type":"VEC4"},{"bufferView":16,"componentType":5125,"count":171267,"type":"SCALAR"}],"bufferViews":[{"buffer":0,"byteLength":359688,"byteOffset":5944396,"target":34962},{"buffer":0,"byteLength":239792,"byteOffset":6663772,"target":34962},{"buffer":0,"byteLength":359688,"byteOffset":6304084,"target":34962},{"buffer":0,"byteLength":479584,"byteOffset":3695180,"target":34962},{"buffer":0,"byteLength":239792,"byteOffset":6903564,"target":34962},{"buffer":0,"byteLength":239792,"byteOffset":7143356,"byteStride":8,"target":34962},{"buffer":0,"byteLength":479584,"byteOffset":4174764,"target":34962},{"buffer":0,"byteLength":146004,"byteOffset":7589596,"target":34963},{"buffer":0,"byteLength":206448,"byteOffset":7383148,"target":34963},{"buffer":0,"byteLength":645024,"byteOffset":2405132,"target":34962},{"buffer":0,"byteLength":430016,"byteOffset":4654348,"target":34962},{"buffer":0,"byteLength":645024,"byteOffset":3050156,"target":34962},{"buffer":0,"byteLength":860032,"target":34962},{"buffer":0,"byteLength":430016,"byteOffset":5084364,"target":34962},{"buffer":0,"byteLength":430016,"byteOffset":5514380,"byteStride":8,"target":34962},{"buffer":0,"byteLength":860032,"byteOffset":860032,"target":34962},{"buffer":0,"byteLength":685068,"byteOffset":1720064,"target":34963}],"buffers":[{"byteLength":7735600,"uri":"negev.bin"}],"meshes":[{"extras":{},"name":"weapons\\models\\negev\\weapon_mach_negev.vmdl_c.body_legacy","primitives":[{"attributes":{"POSITION":0,"TEXCOORD_0":1,"NORMAL":2,"TANGENT":3,"TEXCOORD_1":4,"JOINTS_0":5,"WEIGHTS_0":6},"indices":7},{"attributes":{"POSITION":0,"TEXCOORD_0":1,"NORMAL":2,"TANGENT":3,"TEXCOORD_1":4,"JOINTS_0":5,"WEIGHTS_0":6},"indices":8}]},{"extras":{},"name":"weapons\\models\\negev\\weapon_mach_negev.vmdl_c.body_hd","primitives":[{"attributes":{"POSITION":9,"TEXCOORD_0":10,"NORMAL":11,"TANGENT":12,"TEXCOORD_1":13,"JOINTS_0":14,"WEIGHTS_0":15},"indices":16}]}],"nodes":[{"name":"weapons\\models\\negev\\weapon_mach_negev.vmdl_c.body_legacy","matrix":[3.027916E-09,0,0.025399996,0,0.025399996,3.027916E-09,0,0,0,0.025399996,3.027916E-09,0,0,0,0,1],"mesh":0},{"name":"weapons\\models\\negev\\weapon_mach_negev.vmdl_c.body_hd","matrix":[3.027916E-09,0,0.025399996,0,0.025399996,3.027916E-09,0,0,0,0.025399996,3.027916E-09,0,0,0,0,1],"mesh":1}],"samplers":[{"magFilter":9729,"minFilter":9987}],"scenes":[{"name":"weapon_mach_negev.vmdl_c","nodes":[0,1]}]}