{"asset":{"copyright":"","generator":"Source 2 Viewer 19.2.0.0 - https://valveresourceformat.github.io","version":"2.0"},"accessors":[{"bufferView":0,"componentType":5126,"count":96,"max":[21.2801513671875,0.7500000596046448,5.267341136932373],"min":[-19.097671508789062,-0.7499999403953552,-2.8138904571533203],"type":"VEC3"},{"bufferView":1,"componentType":5126,"count":96,"max":[0.7913170456886292,1,0.7381541728973389],"min":[-0.7907271385192871,-1,-0.7903285622596741],"type":"VEC3"},{"bufferView":2,"componentType":5126,"count":96,"max":[0.4256030321121216,0.09137651324272156],"min":[-0.3819534182548523,-0.04334070160984993],"type":"VEC2"},{"bufferView":3,"componentType":5125,"count":96,"type":"SCALAR"}],"bufferViews":[{"buffer":0,"byteLength":1152,"target":34962},{"buffer":0,"byteLength":1152,"byteOffset":1152,"target":34962},{"buffer":0,"byteLength":768,"byteOffset":2304,"target":34962},{"buffer":0,"byteLength":384,"byteOffset":3072,"target":34963}],"buffers":[{"byteLength":3456,"uri":"weapon_shot_nova_physics.bin"}],"meshes":[{"name":"physics_group_weaponshotgun","primitives":[{"attributes":{"POSITION":0,"NORMAL":1,"TEXCOORD_0":2},"indices":3}]}],"nodes":[{"extras":{"SurfaceProperty":"weaponshotgun","InteractAs":[]},"name":"physics_group_weaponshotgun","matrix":[3.027916E-09,0,0.025399996,0,0.025399996,3.027916E-09,0,0,0,0.025399996,3.027916E-09,0,0,0,0,1],"mesh":0}],"samplers":[{"magFilter":9729,"minFilter":9987}],"scenes":[{"name":"weapon_shot_nova.vmdl_c","nodes":[0]}]}