{"asset":{"copyright":"","generator":"Source 2 Viewer 19.2.0.0 - https://valveresourceformat.github.io","version":"2.0"},"accessors":[{"bufferView":0,"componentType":5126,"count":17221,"max":[29.051902770996094,1.012074589729309,5.778802394866943],"min":[-10.643036842346191,-1.0057369470596313,-2.4364590644836426],"type":"VEC3"},{"bufferView":1,"componentType":5126,"count":17221,"max":[1.9970703125,0.99560546875],"min":[0.0018777847290039062,0.00258636474609375],"type":"VEC2"},{"bufferView":2,"componentType":5126,"count":17221,"max":[0.9999995231628418,0.9999995231628418,0.9999990463256836],"min":[-0.9999995231628418,-0.9999995231628418,-1],"type":"VEC3"},{"bufferView":3,"componentType":5126,"count":17221,"type":"VEC4"},{"bufferView":4,"componentType":5126,"count":17221,"max":[0.9765625,0.2281494140625],"min":[-1.9677734375,0.028594970703125],"type":"VEC2"},{"bufferView":5,"componentType":5123,"count":17221,"type":"VEC4"},{"bufferView":6,"componentType":5126,"count":17221,"type":"VEC4"},{"bufferView":7,"componentType":5126,"count":611,"max":[-6.259099960327148,0.38774245977401733,2.4092488288879395],"min":[-8.87440299987793,-0.3839626908302307,1.641325831413269],"type":"VEC3"},{"bufferView":8,"componentType":5126,"count":611,"max":[0.9797967672348022,0.9899594187736511],"min":[0.012207403779029846,0.01821955107152462],"type":"VEC2"},{"bufferView":9,"componentType":5126,"count":611,"max":[0.9999995231628418,0.9999995231628418,0.9999990463256836],"min":[-0.9999995231628418,-0.9999995231628418,-1],"type":"VEC3"},{"bufferView":10,"componentType":5126,"count":611,"type":"VEC4"},{"bufferView":11,"componentType":5123,"count":611,"type":"VEC4"},{"bufferView":12,"componentType":5126,"count":611,"type":"VEC4"},{"bufferView":13,"componentType":5125,"count":57780,"type":"SCALAR"},{"bufferView":14,"componentType":5125,"count":2886,"type":"SCALAR"},{"bufferView":15,"componentType":5126,"count":16981,"max":[29.471586227416992,1.0482163429260254,5.903814792633057],"min":[-10.708759307861328,-1.048072338104248,-2.2765870094299316],"type":"VEC3"},{"bufferView":16,"componentType":5126,"count":16981,"max":[0.9971618056297302,0.9971618056297302],"min":[0.0028077028691768646,0.0027466658502817154],"type":"VEC2"},{"bufferView":17,"componentType":5126,"count":16981,"max":[0.9999995231628418,0.9999995231628418,0.9999990463256836],"min":[-0.9999995231628418,-0.9999995231628418,-1],"type":"VEC3"},{"bufferView":18,"componentType":5126,"count":16981,"type":"VEC4"},{"bufferView":19,"componentType":5126,"count":16981,"max":[0.97802734375,0.2242431640625],"min":[-1.9775390625,0.0221710205078125],"type":"VEC2"},{"bufferView":20,"componentType":5123,"count":16981,"type":"VEC4"},{"bufferView":21,"componentType":5126,"count":16981,"type":"VEC4"},{"bufferView":22,"componentType":5126,"count":611,"max":[-6.259099960327148,0.38774245977401733,2.4092488288879395],"min":[-8.87440299987793,-0.3839626908302307,1.641325831413269],"type":"VEC3"},{"bufferView":23,"componentType":5126,"count":611,"max":[0.9797967672348022,0.9899594187736511],"min":[0.012207403779029846,0.01821955107152462],"type":"VEC2"},{"bufferView":24,"componentType":5126,"count":611,"max":[0.9999995231628418,0.9999995231628418,0.9999990463256836],"min":[-0.9999995231628418,-0.9999995231628418,-1],"type":"VEC3"},{"bufferView":25,"componentType":5126,"count":611,"type":"VEC4"},{"bufferView":26,"componentType":5123,"count":611,"type":"VEC4"},{"bufferView":27,"componentType":5126,"count":611,"type":"VEC4"},{"bufferView":28,"componentType":5125,"count":74994,"type":"SCALAR"},{"bufferView":29,"componentType":5125,"count":2886,"type":"SCALAR"}],"bufferViews":[{"buffer":0,"byteLength":206652,"byteOffset":1625560,"target":34962},{"buffer":0,"byteLength":137768,"byteOffset":2446408,"target":34962},{"buffer":0,"byteLength":206652,"byteOffset":1832212,"target":34962},{"buffer":0,"byteLength":275536,"byteOffset":299976,"target":34962},{"buffer":0,"byteLength":137768,"byteOffset":2584176,"target":34962},{"buffer":0,"byteLength":137768,"byteOffset":2721944,"byteStride":8,"target":34962},{"buffer":0,"byteLength":275536,"byteOffset":575512,"target":34962},{"buffer":0,"byteLength":7332,"byteOffset":3329448,"target":34962},{"buffer":0,"byteLength":4888,"byteOffset":3358776,"target":34962},{"buffer":0,"byteLength":7332,"byteOffset":3336780,"target":34962},{"buffer":0,"byteLength":9776,"byteOffset":3290344,"target":34962},{"buffer":0,"byteLength":4888,"byteOffset":3363664,"byteStride":8,"target":34962},{"buffer":0,"byteLength":9776,"byteOffset":3300120,"target":34962},{"buffer":0,"byteLength":231120,"byteOffset":1394440,"target":34963},{"buffer":0,"byteLength":11544,"byteOffset":3267256,"target":34963},{"buffer":0,"byteLength":203772,"byteOffset":2038864,"target":34962},{"buffer":0,"byteLength":135848,"byteOffset":2859712,"target":34962},{"buffer":0,"byteLength":203772,"byteOffset":2242636,"target":34962},{"buffer":0,"byteLength":271696,"byteOffset":851048,"target":34962},{"buffer":0,"byteLength":135848,"byteOffset":2995560,"target":34962},{"buffer":0,"byteLength":135848,"byteOffset":3131408,"byteStride":8,"target":34962},{"buffer":0,"byteLength":271696,"byteOffset":1122744,"target":34962},{"buffer":0,"byteLength":7332,"byteOffset":3344112,"target":34962},{"buffer":0,"byteLength":4888,"byteOffset":3368552,"target":34962},{"buffer":0,"byteLength":7332,"byteOffset":3351444,"target":34962},{"buffer":0,"byteLength":9776,"byteOffset":3309896,"target":34962},{"buffer":0,"byteLength":4888,"byteOffset":3373440,"byteStride":8,"target":34962},{"buffer":0,"byteLength":9776,"byteOffset":3319672,"target":34962},{"buffer":0,"byteLength":299976,"target":34963},{"buffer":0,"byteLength":11544,"byteOffset":3278800,"target":34963}],"buffers":[{"byteLength":3378328,"uri":"nova.bin"}],"meshes":[{"extras":{},"name":"weapons\\models\\nova\\weapon_shot_nova.vmdl_c.body_legacy","primitives":[{"attributes":{"POSITION":0,"TEXCOORD_0":1,"NORMAL":2,"TANGENT":3,"TEXCOORD_1":4,"JOINTS_0":5,"WEIGHTS_0":6},"indices":13},{"attributes":{"POSITION":7,"TEXCOORD_0":8,"NORMAL":9,"TANGENT":10,"JOINTS_0":11,"WEIGHTS_0":12},"indices":14}]},{"extras":{},"name":"weapons\\models\\nova\\weapon_shot_nova.vmdl_c.body_hd","primitives":[{"attributes":{"POSITION":15,"TEXCOORD_0":16,"NORMAL":17,"TANGENT":18,"TEXCOORD_1":19,"JOINTS_0":20,"WEIGHTS_0":21},"indices":28},{"attributes":{"POSITION":22,"TEXCOORD_0":23,"NORMAL":24,"TANGENT":25,"JOINTS_0":26,"WEIGHTS_0":27},"indices":29}]}],"nodes":[{"name":"weapons\\models\\nova\\weapon_shot_nova.vmdl_c.body_legacy","matrix":[3.027916E-09,0,0.025399996,0,0.025399996,3.027916E-09,0,0,0,0.025399996,3.027916E-09,0,0,0,0,1],"mesh":0},{"name":"weapons\\models\\nova\\weapon_shot_nova.vmdl_c.body_hd","matrix":[3.027916E-09,0,0.025399996,0,0.025399996,3.027916E-09,0,0,0,0.025399996,3.027916E-09,0,0,0,0,1],"mesh":1}],"samplers":[{"magFilter":9729,"minFilter":9987}],"scenes":[{"name":"weapon_shot_nova.vmdl_c","nodes":[0,1]}]}