{"asset":{"copyright":"","generator":"Source 2 Viewer 19.2.0.0 - https://valveresourceformat.github.io","version":"2.0"},"accessors":[{"bufferView":0,"componentType":5126,"count":10979,"max":[8.329667091369629,0.623948872089386,5.77089786529541],"min":[0.36317333579063416,-0.6239502429962158,0.27946996688842773],"type":"VEC3"},{"bufferView":1,"componentType":5126,"count":10979,"max":[1.9970703125,0.99853515625],"min":[0.0019989013671875,0.002498626708984375],"type":"VEC2"},{"bufferView":2,"componentType":5126,"count":10979,"max":[0.9999995231628418,0.9999995231628418,0.9999990463256836],"min":[-0.9999995231628418,-0.9999995231628418,-1],"type":"VEC3"},{"bufferView":3,"componentType":5126,"count":10979,"type":"VEC4"},{"bufferView":4,"componentType":5126,"count":10979,"max":[0.90576171875,0.59326171875],"min":[-1.8896484375,0.0445556640625],"type":"VEC2"},{"bufferView":5,"componentType":5123,"count":10979,"type":"VEC4"},{"bufferView":6,"componentType":5126,"count":10979,"type":"VEC4"},{"bufferView":7,"componentType":5125,"count":29121,"type":"SCALAR"},{"bufferView":8,"componentType":5126,"count":13187,"max":[8.361595153808594,0.7017138004302979,5.742297172546387],"min":[0.3948427438735962,-0.7017174959182739,0.24045944213867188],"type":"VEC3"},{"bufferView":9,"componentType":5126,"count":13187,"max":[0.9960936307907104,0.9960936307907104],"min":[0.003418073058128357,0.003418073058128357],"type":"VEC2"},{"bufferView":10,"componentType":5126,"count":13187,"max":[0.9999995231628418,0.9999995231628418,0.9999990463256836],"min":[-0.9999995231628418,-0.9999995231628418,-1],"type":"VEC3"},{"bufferView":11,"componentType":5126,"count":13187,"type":"VEC4"},{"bufferView":12,"componentType":5126,"count":13187,"max":[0.90234375,0.59716796875],"min":[-1.892578125,0.04742431640625],"type":"VEC2"},{"bufferView":13,"componentType":5123,"count":13187,"type":"VEC4"},{"bufferView":14,"componentType":5126,"count":13187,"type":"VEC4"},{"bufferView":15,"componentType":5125,"count":47220,"type":"SCALAR"}],"bufferViews":[{"buffer":0,"byteLength":131748,"byteOffset":1278680,"target":34962},{"buffer":0,"byteLength":87832,"byteOffset":1975148,"target":34962},{"buffer":0,"byteLength":131748,"byteOffset":1410428,"target":34962},{"buffer":0,"byteLength":175664,"byteOffset":610864,"target":34962},{"buffer":0,"byteLength":87832,"byteOffset":2062980,"target":34962},{"buffer":0,"byteLength":87832,"byteOffset":2150812,"byteStride":8,"target":34962},{"buffer":0,"byteLength":175664,"byteOffset":786528,"target":34962},{"buffer":0,"byteLength":116484,"byteOffset":1542176,"target":34963},{"buffer":0,"byteLength":158244,"byteOffset":962192,"target":34962},{"buffer":0,"byteLength":105496,"byteOffset":1658660,"target":34962},{"buffer":0,"byteLength":158244,"byteOffset":1120436,"target":34962},{"buffer":0,"byteLength":210992,"target":34962},{"buffer":0,"byteLength":105496,"byteOffset":1764156,"target":34962},{"buffer":0,"byteLength":105496,"byteOffset":1869652,"byteStride":8,"target":34962},{"buffer":0,"byteLength":210992,"byteOffset":210992,"target":34962},{"buffer":0,"byteLength":188880,"byteOffset":421984,"target":34963}],"buffers":[{"byteLength":2238644,"uri":"p250.bin"}],"meshes":[{"extras":{},"name":"weapons\\models\\p250\\weapon_pist_p250.vmdl_c.body_legacy","primitives":[{"attributes":{"POSITION":0,"TEXCOORD_0":1,"NORMAL":2,"TANGENT":3,"TEXCOORD_1":4,"JOINTS_0":5,"WEIGHTS_0":6},"indices":7}]},{"extras":{},"name":"weapons\\models\\p250\\weapon_pist_p250.vmdl_c.body_hd","primitives":[{"attributes":{"POSITION":8,"TEXCOORD_0":9,"NORMAL":10,"TANGENT":11,"TEXCOORD_1":12,"JOINTS_0":13,"WEIGHTS_0":14},"indices":15}]}],"nodes":[{"name":"weapons\\models\\p250\\weapon_pist_p250.vmdl_c.body_legacy","matrix":[3.027916E-09,0,0.025399996,0,0.025399996,3.027916E-09,0,0,0,0.025399996,3.027916E-09,0,0,0,0,1],"mesh":0},{"name":"weapons\\models\\p250\\weapon_pist_p250.vmdl_c.body_hd","matrix":[3.027916E-09,0,0.025399996,0,0.025399996,3.027916E-09,0,0,0,0.025399996,3.027916E-09,0,0,0,0,1],"mesh":1}],"samplers":[{"magFilter":9729,"minFilter":9987}],"scenes":[{"name":"weapon_pist_p250.vmdl_c","nodes":[0,1]}]}