{"asset":{"copyright":"","generator":"Source 2 Viewer 19.2.0.0 - https://valveresourceformat.github.io","version":"2.0"},"accessors":[{"bufferView":0,"componentType":5126,"count":96,"max":[8.380966186523438,0.5500000715255737,5.771446228027344],"min":[0.425260066986084,-0.5500001907348633,0.2023615837097168],"type":"VEC3"},{"bufferView":1,"componentType":5126,"count":96,"max":[0.7072243690490723,1,0.6595671772956848],"min":[-0.6580461263656616,-1,-0.6627628207206726],"type":"VEC3"},{"bufferView":2,"componentType":5126,"count":96,"max":[0.16761931777000427,0.11542892456054688],"min":[0.00850520096719265,-0.010999999940395355],"type":"VEC2"},{"bufferView":3,"componentType":5125,"count":96,"type":"SCALAR"}],"bufferViews":[{"buffer":0,"byteLength":1152,"target":34962},{"buffer":0,"byteLength":1152,"byteOffset":1152,"target":34962},{"buffer":0,"byteLength":768,"byteOffset":2304,"target":34962},{"buffer":0,"byteLength":384,"byteOffset":3072,"target":34963}],"buffers":[{"byteLength":3456,"uri":"weapon_pist_p250_physics.bin"}],"meshes":[{"name":"physics_group_weaponpistol","primitives":[{"attributes":{"POSITION":0,"NORMAL":1,"TEXCOORD_0":2},"indices":3}]}],"nodes":[{"extras":{"SurfaceProperty":"weaponpistol","InteractAs":[]},"name":"physics_group_weaponpistol","matrix":[3.027916E-09,0,0.025399996,0,0.025399996,3.027916E-09,0,0,0,0.025399996,3.027916E-09,0,0,0,0,1],"mesh":0}],"samplers":[{"magFilter":9729,"minFilter":9987}],"scenes":[{"name":"weapon_pist_p250.vmdl_c","nodes":[0]}]}