{"asset":{"copyright":"","generator":"Source 2 Viewer 19.2.0.0 - https://valveresourceformat.github.io","version":"2.0"},"accessors":[{"bufferView":0,"componentType":5126,"count":14013,"max":[16.41796112060547,1.175503134727478,8.183979034423828],"min":[-3.2191667556762695,-1.1732676029205322,0.1974034309387207],"type":"VEC3"},{"bufferView":1,"componentType":5126,"count":14013,"max":[1.998046875,0.99609375],"min":[0.00047397613525390625,0.004436492919921875],"type":"VEC2"},{"bufferView":2,"componentType":5126,"count":14013,"max":[0.9999995231628418,0.9999995231628418,0.9999990463256836],"min":[-0.9999995231628418,-0.9999995231628418,-1],"type":"VEC3"},{"bufferView":3,"componentType":5126,"count":14013,"type":"VEC4"},{"bufferView":4,"componentType":5126,"count":14013,"max":[0.939453125,0.423095703125],"min":[-1.9521484375,0.06024169921875],"type":"VEC2"},{"bufferView":5,"componentType":5123,"count":14013,"type":"VEC4"},{"bufferView":6,"componentType":5126,"count":14013,"type":"VEC4"},{"bufferView":7,"componentType":5125,"count":47715,"type":"SCALAR"},{"bufferView":8,"componentType":5126,"count":22086,"max":[16.684850692749023,1.1359546184539795,8.980372428894043],"min":[-3.696317434310913,-1.1359525918960571,0.2821855843067169],"type":"VEC3"},{"bufferView":9,"componentType":5126,"count":22086,"max":[0.9975585341453552,0.9975585341453552],"min":[0.0019531846046447754,0.0020447401329874992],"type":"VEC2"},{"bufferView":10,"componentType":5126,"count":22086,"max":[0.9999995231628418,0.9999995231628418,0.9999990463256836],"min":[-0.9999995231628418,-0.9999995231628418,-1],"type":"VEC3"},{"bufferView":11,"componentType":5126,"count":22086,"type":"VEC4"},{"bufferView":12,"componentType":5126,"count":22086,"max":[0.96044921875,0.419189453125],"min":[-1.96484375,0.0240478515625],"type":"VEC2"},{"bufferView":13,"componentType":5123,"count":22086,"type":"VEC4"},{"bufferView":14,"componentType":5126,"count":22086,"type":"VEC4"},{"bufferView":15,"componentType":5125,"count":74352,"type":"SCALAR"}],"bufferViews":[{"buffer":0,"byteLength":168156,"byteOffset":2703564,"target":34962},{"buffer":0,"byteLength":112104,"byteOffset":3039876,"target":34962},{"buffer":0,"byteLength":168156,"byteOffset":2871720,"target":34962},{"buffer":0,"byteLength":224208,"byteOffset":1534224,"target":34962},{"buffer":0,"byteLength":112104,"byteOffset":3151980,"target":34962},{"buffer":0,"byteLength":112104,"byteOffset":3264084,"byteStride":8,"target":34962},{"buffer":0,"byteLength":224208,"byteOffset":1758432,"target":34962},{"buffer":0,"byteLength":190860,"byteOffset":1982640,"target":34963},{"buffer":0,"byteLength":265032,"byteOffset":1004160,"target":34962},{"buffer":0,"byteLength":176688,"byteOffset":2173500,"target":34962},{"buffer":0,"byteLength":265032,"byteOffset":1269192,"target":34962},{"buffer":0,"byteLength":353376,"target":34962},{"buffer":0,"byteLength":176688,"byteOffset":2350188,"target":34962},{"buffer":0,"byteLength":176688,"byteOffset":2526876,"byteStride":8,"target":34962},{"buffer":0,"byteLength":353376,"byteOffset":353376,"target":34962},{"buffer":0,"byteLength":297408,"byteOffset":706752,"target":34963}],"buffers":[{"byteLength":3376188,"uri":"p90.bin"}],"meshes":[{"extras":{},"name":"weapons\\models\\p90\\weapon_smg_p90.vmdl_c.body_legacy","primitives":[{"attributes":{"POSITION":0,"TEXCOORD_0":1,"NORMAL":2,"TANGENT":3,"TEXCOORD_1":4,"JOINTS_0":5,"WEIGHTS_0":6},"indices":7}]},{"extras":{},"name":"weapons\\models\\p90\\weapon_smg_p90.vmdl_c.body_hd","primitives":[{"attributes":{"POSITION":8,"TEXCOORD_0":9,"NORMAL":10,"TANGENT":11,"TEXCOORD_1":12,"JOINTS_0":13,"WEIGHTS_0":14},"indices":15}]}],"nodes":[{"name":"weapons\\models\\p90\\weapon_smg_p90.vmdl_c.body_legacy","matrix":[3.027916E-09,0,0.025399996,0,0.025399996,3.027916E-09,0,0,0,0.025399996,3.027916E-09,0,0,0,0,1],"mesh":0},{"name":"weapons\\models\\p90\\weapon_smg_p90.vmdl_c.body_hd","matrix":[3.027916E-09,0,0.025399996,0,0.025399996,3.027916E-09,0,0,0,0.025399996,3.027916E-09,0,0,0,0,1],"mesh":1}],"samplers":[{"magFilter":9729,"minFilter":9987}],"scenes":[{"name":"weapon_smg_p90.vmdl_c","nodes":[0,1]}]}