{"asset":{"copyright":"","generator":"Source 2 Viewer 19.2.0.0 - https://valveresourceformat.github.io","version":"2.0"},"accessors":[{"bufferView":0,"componentType":5126,"count":96,"max":[16.88248634338379,1.0000001192092896,8.990602493286133],"min":[-3.9421768188476562,-1.0000001192092896,0.06821107864379883],"type":"VEC3"},{"bufferView":1,"componentType":5126,"count":96,"max":[0.6593671441078186,1,0.7215710878372192],"min":[-0.8073899745941162,-1,-0.7947139143943787],"type":"VEC3"},{"bufferView":2,"componentType":5126,"count":96,"max":[0.33764973282814026,0.15989387035369873],"min":[-0.07884353399276733,-0.020000001415610313],"type":"VEC2"},{"bufferView":3,"componentType":5125,"count":96,"type":"SCALAR"}],"bufferViews":[{"buffer":0,"byteLength":1152,"target":34962},{"buffer":0,"byteLength":1152,"byteOffset":1152,"target":34962},{"buffer":0,"byteLength":768,"byteOffset":2304,"target":34962},{"buffer":0,"byteLength":384,"byteOffset":3072,"target":34963}],"buffers":[{"byteLength":3456,"uri":"weapon_smg_p90_physics.bin"}],"meshes":[{"name":"physics_group_weaponsmg","primitives":[{"attributes":{"POSITION":0,"NORMAL":1,"TEXCOORD_0":2},"indices":3}]}],"nodes":[{"extras":{"SurfaceProperty":"weaponsmg","InteractAs":[]},"name":"physics_group_weaponsmg","matrix":[3.027916E-09,0,0.025399996,0,0.025399996,3.027916E-09,0,0,0,0.025399996,3.027916E-09,0,0,0,0,1],"mesh":0}],"samplers":[{"magFilter":9729,"minFilter":9987}],"scenes":[{"name":"weapon_smg_p90.vmdl_c","nodes":[0]}]}