{"asset":{"copyright":"","generator":"Source 2 Viewer 19.2.0.0 - https://valveresourceformat.github.io","version":"2.0"},"accessors":[{"bufferView":0,"componentType":5126,"count":120,"max":[10.305920600891113,0.9000001549720764,5.264164924621582],"min":[-1.6440153121948242,-0.9000001549720764,-2.3549842834472656],"type":"VEC3"},{"bufferView":1,"componentType":5126,"count":120,"max":[0.8162527680397034,1,0.7624114155769348],"min":[-0.8162533640861511,-1,-0.7774912118911743],"type":"VEC3"},{"bufferView":2,"componentType":5126,"count":120,"max":[0.2061184048652649,0.10528329759836197],"min":[-0.04709968343377113,-0.04195662587881088],"type":"VEC2"},{"bufferView":3,"componentType":5125,"count":120,"type":"SCALAR"}],"bufferViews":[{"buffer":0,"byteLength":1440,"target":34962},{"buffer":0,"byteLength":1440,"byteOffset":1440,"target":34962},{"buffer":0,"byteLength":960,"byteOffset":2880,"target":34962},{"buffer":0,"byteLength":480,"byteOffset":3840,"target":34963}],"buffers":[{"byteLength":4320,"uri":"weapon_pist_revolver_physics.bin"}],"meshes":[{"name":"physics_group_weaponpistol","primitives":[{"attributes":{"POSITION":0,"NORMAL":1,"TEXCOORD_0":2},"indices":3}]}],"nodes":[{"extras":{"SurfaceProperty":"weaponpistol","InteractAs":[]},"name":"physics_group_weaponpistol","matrix":[3.027916E-09,0,0.025399996,0,0.025399996,3.027916E-09,0,0,0,0.025399996,3.027916E-09,0,0,0,0,1],"mesh":0}],"samplers":[{"magFilter":9729,"minFilter":9987}],"scenes":[{"name":"weapon_pist_revolver.vmdl_c","nodes":[0]}]}