{"asset":{"copyright":"","generator":"Source 2 Viewer 19.2.0.0 - https://valveresourceformat.github.io","version":"2.0"},"accessors":[{"bufferView":0,"componentType":5126,"count":17730,"max":[14.665926933288574,0.960907518863678,5.041165351867676],"min":[-1.9637519121170044,-0.9609087109565735,-2.0421571731567383],"type":"VEC3"},{"bufferView":1,"componentType":5126,"count":17730,"max":[1,0.9967650175094604],"min":[0.0032044434919953346,0.0025940733030438423],"type":"VEC2"},{"bufferView":2,"componentType":5126,"count":17730,"max":[0.9999995231628418,0.9999995231628418,0.9999990463256836],"min":[-0.9999995231628418,-0.9999995231628418,-1],"type":"VEC3"},{"bufferView":3,"componentType":5126,"count":17730,"type":"VEC4"},{"bufferView":4,"componentType":5126,"count":17730,"max":[0.9375,0.78564453125],"min":[-1.9296875,0.0513916015625],"type":"VEC2"},{"bufferView":5,"componentType":5123,"count":17730,"type":"VEC4"},{"bufferView":6,"componentType":5126,"count":17730,"type":"VEC4"},{"bufferView":7,"componentType":5125,"count":36285,"type":"SCALAR"},{"bufferView":8,"componentType":5125,"count":21960,"type":"SCALAR"},{"bufferView":9,"componentType":5126,"count":21687,"max":[14.665926933288574,0.9824056029319763,5.117220878601074],"min":[-1.7530653476715088,-0.9758942723274231,-2.0506672859191895],"type":"VEC3"},{"bufferView":10,"componentType":5126,"count":21687,"max":[0.9967039823532104,0.9967650175094604],"min":[0.0032044434919953346,0.0032044434919953346],"type":"VEC2"},{"bufferView":11,"componentType":5126,"count":21687,"max":[0.9999995231628418,0.9999995231628418,0.9999990463256836],"min":[-0.9999995231628418,-0.9999995231628418,-1],"type":"VEC3"},{"bufferView":12,"componentType":5126,"count":21687,"type":"VEC4"},{"bufferView":13,"componentType":5126,"count":21687,"max":[0.9248046875,0.86669921875],"min":[-1.9287109375,0.041046142578125],"type":"VEC2"},{"bufferView":14,"componentType":5123,"count":21687,"type":"VEC4"},{"bufferView":15,"componentType":5126,"count":21687,"type":"VEC4"},{"bufferView":16,"componentType":5125,"count":75108,"type":"SCALAR"}],"bufferViews":[{"buffer":0,"byteLength":212760,"byteOffset":2082264,"target":34962},{"buffer":0,"byteLength":141840,"byteOffset":3173412,"target":34962},{"buffer":0,"byteLength":212760,"byteOffset":2295024,"target":34962},{"buffer":0,"byteLength":283680,"byteOffset":994416,"target":34962},{"buffer":0,"byteLength":141840,"byteOffset":3315252,"target":34962},{"buffer":0,"byteLength":141840,"byteOffset":3457092,"byteStride":8,"target":34962},{"buffer":0,"byteLength":283680,"byteOffset":1278096,"target":34962},{"buffer":0,"byteLength":145140,"byteOffset":3028272,"target":34963},{"buffer":0,"byteLength":87840,"byteOffset":3598932,"target":34963},{"buffer":0,"byteLength":260244,"byteOffset":1561776,"target":34962},{"buffer":0,"byteLength":173496,"byteOffset":2507784,"target":34962},{"buffer":0,"byteLength":260244,"byteOffset":1822020,"target":34962},{"buffer":0,"byteLength":346992,"target":34962},{"buffer":0,"byteLength":173496,"byteOffset":2681280,"target":34962},{"buffer":0,"byteLength":173496,"byteOffset":2854776,"byteStride":8,"target":34962},{"buffer":0,"byteLength":346992,"byteOffset":346992,"target":34962},{"buffer":0,"byteLength":300432,"byteOffset":693984,"target":34963}],"buffers":[{"byteLength":3686772,"uri":"revolver.bin"}],"meshes":[{"extras":{},"name":"weapons\\models\\revolver\\weapon_pist_revolver.vmdl_c.body_legacy","primitives":[{"attributes":{"POSITION":0,"TEXCOORD_0":1,"NORMAL":2,"TANGENT":3,"TEXCOORD_1":4,"JOINTS_0":5,"WEIGHTS_0":6},"indices":7},{"attributes":{"POSITION":0,"TEXCOORD_0":1,"NORMAL":2,"TANGENT":3,"TEXCOORD_1":4,"JOINTS_0":5,"WEIGHTS_0":6},"indices":8}]},{"extras":{},"name":"weapons\\models\\revolver\\weapon_pist_revolver.vmdl_c.body_hd","primitives":[{"attributes":{"POSITION":9,"TEXCOORD_0":10,"NORMAL":11,"TANGENT":12,"TEXCOORD_1":13,"JOINTS_0":14,"WEIGHTS_0":15},"indices":16}]}],"nodes":[{"name":"weapons\\models\\revolver\\weapon_pist_revolver.vmdl_c.body_legacy","matrix":[3.027916E-09,0,0.025399996,0,0.025399996,3.027916E-09,0,0,0,0.025399996,3.027916E-09,0,0,0,0,1],"mesh":0},{"name":"weapons\\models\\revolver\\weapon_pist_revolver.vmdl_c.body_hd","matrix":[3.027916E-09,0,0.025399996,0,0.025399996,3.027916E-09,0,0,0,0.025399996,3.027916E-09,0,0,0,0,1],"mesh":1}],"samplers":[{"magFilter":9729,"minFilter":9987}],"scenes":[{"name":"weapon_pist_revolver.vmdl_c","nodes":[0,1]}]}