{"asset":{"copyright":"","generator":"Source 2 Viewer 19.2.0.0 - https://valveresourceformat.github.io","version":"2.0"},"accessors":[{"bufferView":0,"componentType":5126,"count":108,"max":[22.86217498779297,0.7500036954879761,2.363234043121338],"min":[-3.658263683319092,-0.750003457069397,-3.1436586380004883],"type":"VEC3"},{"bufferView":1,"componentType":5126,"count":108,"max":[0.8104480504989624,1,0.7573354840278625],"min":[-0.7820032835006714,-1,-0.7801709175109863],"type":"VEC3"},{"bufferView":2,"componentType":5126,"count":108,"max":[0.45724350214004517,0.04726468026638031],"min":[-0.07316527515649796,-0.056639134883880615],"type":"VEC2"},{"bufferView":3,"componentType":5125,"count":108,"type":"SCALAR"}],"bufferViews":[{"buffer":0,"byteLength":1296,"target":34962},{"buffer":0,"byteLength":1296,"byteOffset":1296,"target":34962},{"buffer":0,"byteLength":864,"byteOffset":2592,"target":34962},{"buffer":0,"byteLength":432,"byteOffset":3456,"target":34963}],"buffers":[{"byteLength":3888,"uri":"weapon_shot_sawedoff_physics.bin"}],"meshes":[{"name":"physics_group_weaponshotgun","primitives":[{"attributes":{"POSITION":0,"NORMAL":1,"TEXCOORD_0":2},"indices":3}]}],"nodes":[{"extras":{"SurfaceProperty":"weaponshotgun","InteractAs":[]},"name":"physics_group_weaponshotgun","matrix":[3.027916E-09,0,0.025399996,0,0.025399996,3.027916E-09,0,0,0,0.025399996,3.027916E-09,0,0,0,0,1],"mesh":0}],"samplers":[{"magFilter":9729,"minFilter":9987}],"scenes":[{"name":"weapon_shot_sawedoff.vmdl_c","nodes":[0]}]}