{"asset":{"copyright":"","generator":"Source 2 Viewer 19.2.0.0 - https://valveresourceformat.github.io","version":"2.0"},"accessors":[{"bufferView":0,"componentType":5126,"count":3584,"max":[21.788700103759766,0.8521711826324463,2.2141942977905273],"min":[-3.3075952529907227,-0.8553659915924072,-2.9329280853271484],"type":"VEC3"},{"bufferView":1,"componentType":5126,"count":3584,"max":[0.9956053495407104,0.9931638240814209],"min":[0.0039674062281847,9.155552834272385E-05],"type":"VEC2"},{"bufferView":2,"componentType":5126,"count":3584,"max":[0.9999995231628418,0.9998885989189148,0.9999990463256836],"min":[-0.9999995231628418,-0.9999995231628418,-1],"type":"VEC3"},{"bufferView":3,"componentType":5126,"count":3584,"type":"VEC4"},{"bufferView":4,"componentType":5126,"count":3584,"max":[0.96240234375,0.22314453125],"min":[-1.9326171875,0.039398193359375],"type":"VEC2"},{"bufferView":5,"componentType":5123,"count":3584,"type":"VEC4"},{"bufferView":6,"componentType":5126,"count":3584,"type":"VEC4"},{"bufferView":7,"componentType":5126,"count":690,"max":[4.999992370605469,0.34880343079566956,1.9300493001937866],"min":[2.9775338172912598,-0.34880074858665466,1.2324451208114624],"type":"VEC3"},{"bufferView":8,"componentType":5126,"count":690,"max":[0.9797967672348022,0.9896237254142761],"min":[0.012207403779029846,0.01821955107152462],"type":"VEC2"},{"bufferView":9,"componentType":5126,"count":690,"max":[0.9999995231628418,0.9999995231628418,0.9999990463256836],"min":[-0.9999995231628418,-0.9999995231628418,-1],"type":"VEC3"},{"bufferView":10,"componentType":5126,"count":690,"type":"VEC4"},{"bufferView":11,"componentType":5123,"count":690,"type":"VEC4"},{"bufferView":12,"componentType":5126,"count":690,"type":"VEC4"},{"bufferView":13,"componentType":5125,"count":12894,"type":"SCALAR"},{"bufferView":14,"componentType":5125,"count":2724,"type":"SCALAR"},{"bufferView":15,"componentType":5126,"count":10596,"max":[22.76495361328125,0.9685009717941284,2.2245213985443115],"min":[-3.5012145042419434,-0.9684964418411255,-3.0902833938598633],"type":"VEC3"},{"bufferView":16,"componentType":5126,"count":10596,"max":[0.9956053495407104,0.9956053495407104],"min":[0.003936887718737125,0.006439405493438244],"type":"VEC2"},{"bufferView":17,"componentType":5126,"count":10596,"max":[0.9999995231628418,0.9999995231628418,0.9999990463256836],"min":[-0.9999995231628418,-0.9999995231628418,-1],"type":"VEC3"},{"bufferView":18,"componentType":5126,"count":10596,"type":"VEC4"},{"bufferView":19,"componentType":5126,"count":10596,"max":[0.9697265625,0.228759765625],"min":[-1.9677734375,0.039031982421875],"type":"VEC2"},{"bufferView":20,"componentType":5123,"count":10596,"type":"VEC4"},{"bufferView":21,"componentType":5126,"count":10596,"type":"VEC4"},{"bufferView":22,"componentType":5125,"count":41964,"type":"SCALAR"}],"bufferViews":[{"buffer":0,"byteLength":43008,"byteOffset":1181800,"target":34962},{"buffer":0,"byteLength":28672,"byteOffset":1267816,"target":34962},{"buffer":0,"byteLength":43008,"byteOffset":1224808,"target":34962},{"buffer":0,"byteLength":57344,"byteOffset":1015536,"target":34962},{"buffer":0,"byteLength":28672,"byteOffset":1296488,"target":34962},{"buffer":0,"byteLength":28672,"byteOffset":1325160,"byteStride":8,"target":34962},{"buffer":0,"byteLength":57344,"byteOffset":1072880,"target":34962},{"buffer":0,"byteLength":8280,"byteOffset":1386808,"target":34962},{"buffer":0,"byteLength":5520,"byteOffset":1403368,"target":34962},{"buffer":0,"byteLength":8280,"byteOffset":1395088,"target":34962},{"buffer":0,"byteLength":11040,"byteOffset":1353832,"target":34962},{"buffer":0,"byteLength":5520,"byteOffset":1408888,"byteStride":8,"target":34962},{"buffer":0,"byteLength":11040,"byteOffset":1364872,"target":34962},{"buffer":0,"byteLength":51576,"byteOffset":1130224,"target":34963},{"buffer":0,"byteLength":10896,"byteOffset":1375912,"target":34963},{"buffer":0,"byteLength":127152,"byteOffset":506928,"target":34962},{"buffer":0,"byteLength":84768,"byteOffset":761232,"target":34962},{"buffer":0,"byteLength":127152,"byteOffset":634080,"target":34962},{"buffer":0,"byteLength":169536,"target":34962},{"buffer":0,"byteLength":84768,"byteOffset":846000,"target":34962},{"buffer":0,"byteLength":84768,"byteOffset":930768,"byteStride":8,"target":34962},{"buffer":0,"byteLength":169536,"byteOffset":169536,"target":34962},{"buffer":0,"byteLength":167856,"byteOffset":339072,"target":34963}],"buffers":[{"byteLength":1414408,"uri":"sawedoff.bin"}],"meshes":[{"extras":{},"name":"weapons\\models\\sawedoff\\weapon_shot_sawedoff.vmdl_c.body_legacy","primitives":[{"attributes":{"POSITION":0,"TEXCOORD_0":1,"NORMAL":2,"TANGENT":3,"TEXCOORD_1":4,"JOINTS_0":5,"WEIGHTS_0":6},"indices":13},{"attributes":{"POSITION":7,"TEXCOORD_0":8,"NORMAL":9,"TANGENT":10,"JOINTS_0":11,"WEIGHTS_0":12},"indices":14}]},{"extras":{},"name":"weapons\\models\\sawedoff\\weapon_shot_sawedoff.vmdl_c.body_hd","primitives":[{"attributes":{"POSITION":15,"TEXCOORD_0":16,"NORMAL":17,"TANGENT":18,"TEXCOORD_1":19,"JOINTS_0":20,"WEIGHTS_0":21},"indices":22}]}],"nodes":[{"name":"weapons\\models\\sawedoff\\weapon_shot_sawedoff.vmdl_c.body_legacy","matrix":[3.027916E-09,0,0.025399996,0,0.025399996,3.027916E-09,0,0,0,0.025399996,3.027916E-09,0,0,0,0,1],"mesh":0},{"name":"weapons\\models\\sawedoff\\weapon_shot_sawedoff.vmdl_c.body_hd","matrix":[3.027916E-09,0,0.025399996,0,0.025399996,3.027916E-09,0,0,0,0.025399996,3.027916E-09,0,0,0,0,1],"mesh":1}],"samplers":[{"magFilter":9729,"minFilter":9987}],"scenes":[{"name":"weapon_shot_sawedoff.vmdl_c","nodes":[0,1]}]}