{"asset":{"copyright":"","generator":"Source 2 Viewer 19.2.0.0 - https://valveresourceformat.github.io","version":"2.0"},"accessors":[{"bufferView":0,"componentType":5126,"count":132,"max":[44.58763122558594,1.1000001430511475,16.57433319091797],"min":[2.0162582397460938,-1.1000001430511475,5.770510196685791],"type":"VEC3"},{"bufferView":1,"componentType":5126,"count":132,"max":[0.9007783532142639,1,0.8810580968856812],"min":[-0.8946267366409302,-1,-0.8533352017402649],"type":"VEC3"},{"bufferView":2,"componentType":5126,"count":132,"max":[0.8917526006698608,0.3195131719112396],"min":[0.040325164794921875,-0.02200000174343586],"type":"VEC2"},{"bufferView":3,"componentType":5125,"count":132,"type":"SCALAR"}],"bufferViews":[{"buffer":0,"byteLength":1584,"target":34962},{"buffer":0,"byteLength":1584,"byteOffset":1584,"target":34962},{"buffer":0,"byteLength":1056,"byteOffset":3168,"target":34962},{"buffer":0,"byteLength":528,"byteOffset":4224,"target":34963}],"buffers":[{"byteLength":4752,"uri":"weapon_snip_scar20_physics.bin"}],"meshes":[{"name":"physics_group_weaponsniper","primitives":[{"attributes":{"POSITION":0,"NORMAL":1,"TEXCOORD_0":2},"indices":3}]}],"nodes":[{"extras":{"SurfaceProperty":"weaponsniper","InteractAs":[]},"name":"physics_group_weaponsniper","matrix":[3.027916E-09,0,0.025399996,0,0.025399996,3.027916E-09,0,0,0,0.025399996,3.027916E-09,0,0,0,0,1],"mesh":0}],"samplers":[{"magFilter":9729,"minFilter":9987}],"scenes":[{"name":"weapon_snip_scar20.vmdl_c","nodes":[0]}]}