{"asset":{"copyright":"","generator":"Source 2 Viewer 19.2.0.0 - https://valveresourceformat.github.io","version":"2.0"},"accessors":[{"bufferView":0,"componentType":5126,"count":14446,"max":[45.53297424316406,1.3457015752792358,17.076318740844727],"min":[1.481400489807129,-1.2997751235961914,5.853125095367432],"type":"VEC3"},{"bufferView":1,"componentType":5126,"count":14446,"max":[2.00390625,1.5419921875],"min":[-0.00499725341796875,-0.58203125],"type":"VEC2"},{"bufferView":2,"componentType":5126,"count":14446,"max":[0.9999995231628418,0.9999995231628418,0.9999990463256836],"min":[-0.9999995231628418,-0.9999995231628418,-1],"type":"VEC3"},{"bufferView":3,"componentType":5126,"count":14446,"type":"VEC4"},{"bufferView":4,"componentType":5126,"count":14446,"max":[0.9912109375,0.2607421875],"min":[-1.998046875,0.0085601806640625],"type":"VEC2"},{"bufferView":5,"componentType":5123,"count":14446,"type":"VEC4"},{"bufferView":6,"componentType":5126,"count":14446,"type":"VEC4"},{"bufferView":7,"componentType":5125,"count":36636,"type":"SCALAR"},{"bufferView":8,"componentType":5125,"count":216,"type":"SCALAR"},{"bufferView":9,"componentType":5126,"count":48263,"max":[44.57282257080078,1.576358675956726,16.669828414916992],"min":[2.0243725776672363,-1.4273405075073242,5.856568813323975],"type":"VEC3"},{"bufferView":10,"componentType":5126,"count":48263,"max":[0.9980468153953552,0.9980468153953552],"min":[0.0016785180196166039,0.0021668141707777977],"type":"VEC2"},{"bufferView":11,"componentType":5126,"count":48263,"max":[0.9999995231628418,0.9999995231628418,0.9999990463256836],"min":[-0.9999995231628418,-0.9999995231628418,-1],"type":"VEC3"},{"bufferView":12,"componentType":5126,"count":48263,"type":"VEC4"},{"bufferView":13,"componentType":5126,"count":48263,"max":[0.97900390625,0.260498046875],"min":[-1.9765625,0.0176849365234375],"type":"VEC2"},{"bufferView":14,"componentType":5123,"count":48263,"type":"VEC4"},{"bufferView":15,"componentType":5126,"count":48263,"type":"VEC4"},{"bufferView":16,"componentType":5125,"count":165228,"type":"SCALAR"}],"bufferViews":[{"buffer":0,"byteLength":173352,"byteOffset":4984224,"target":34962},{"buffer":0,"byteLength":115568,"byteOffset":5477472,"target":34962},{"buffer":0,"byteLength":173352,"byteOffset":5157576,"target":34962},{"buffer":0,"byteLength":231136,"byteOffset":4521952,"target":34962},{"buffer":0,"byteLength":115568,"byteOffset":5593040,"target":34962},{"buffer":0,"byteLength":115568,"byteOffset":5708608,"byteStride":8,"target":34962},{"buffer":0,"byteLength":231136,"byteOffset":4753088,"target":34962},{"buffer":0,"byteLength":146544,"byteOffset":5330928,"target":34963},{"buffer":0,"byteLength":864,"byteOffset":5824176,"target":34963},{"buffer":0,"byteLength":579156,"byteOffset":2205328,"target":34962},{"buffer":0,"byteLength":386104,"byteOffset":3363640,"target":34962},{"buffer":0,"byteLength":579156,"byteOffset":2784484,"target":34962},{"buffer":0,"byteLength":772208,"target":34962},{"buffer":0,"byteLength":386104,"byteOffset":3749744,"target":34962},{"buffer":0,"byteLength":386104,"byteOffset":4135848,"byteStride":8,"target":34962},{"buffer":0,"byteLength":772208,"byteOffset":772208,"target":34962},{"buffer":0,"byteLength":660912,"byteOffset":1544416,"target":34963}],"buffers":[{"byteLength":5825040,"uri":"scar20.bin"}],"meshes":[{"extras":{},"name":"weapons\\models\\scar20\\weapon_snip_scar20.vmdl_c.body_legacy","primitives":[{"attributes":{"POSITION":0,"TEXCOORD_0":1,"NORMAL":2,"TANGENT":3,"TEXCOORD_1":4,"JOINTS_0":5,"WEIGHTS_0":6},"indices":7},{"attributes":{"POSITION":0,"TEXCOORD_0":1,"NORMAL":2,"TANGENT":3,"TEXCOORD_1":4,"JOINTS_0":5,"WEIGHTS_0":6},"indices":8}]},{"extras":{},"name":"weapons\\models\\scar20\\weapon_snip_scar20.vmdl_c.body_hd","primitives":[{"attributes":{"POSITION":9,"TEXCOORD_0":10,"NORMAL":11,"TANGENT":12,"TEXCOORD_1":13,"JOINTS_0":14,"WEIGHTS_0":15},"indices":16}]}],"nodes":[{"name":"weapons\\models\\scar20\\weapon_snip_scar20.vmdl_c.body_legacy","matrix":[3.027916E-09,0,0.025399996,0,0.025399996,3.027916E-09,0,0,0,0.025399996,3.027916E-09,0,0,0,0,1],"mesh":0},{"name":"weapons\\models\\scar20\\weapon_snip_scar20.vmdl_c.body_hd","matrix":[3.027916E-09,0,0.025399996,0,0.025399996,3.027916E-09,0,0,0,0.025399996,3.027916E-09,0,0,0,0,1],"mesh":1}],"samplers":[{"magFilter":9729,"minFilter":9987}],"scenes":[{"name":"weapon_snip_scar20.vmdl_c","nodes":[0,1]}]}