{"asset":{"copyright":"","generator":"Source 2 Viewer 19.2.0.0 - https://valveresourceformat.github.io","version":"2.0"},"accessors":[{"bufferView":0,"componentType":5126,"count":15713,"max":[29.94872283935547,1.1883472204208374,7.640044689178467],"min":[-6.393036842346191,-2.152264356613159,-5.0148515701293945],"type":"VEC3"},{"bufferView":1,"componentType":5126,"count":15713,"max":[2,1],"min":[0.0015993118286132812,0],"type":"VEC2"},{"bufferView":2,"componentType":5126,"count":15713,"max":[0.9999995231628418,0.9999995231628418,0.9999990463256836],"min":[-0.9999995231628418,-0.9999995231628418,-1],"type":"VEC3"},{"bufferView":3,"componentType":5126,"count":15713,"type":"VEC4"},{"bufferView":4,"componentType":5126,"count":15713,"max":[0.99853515625,0.350341796875],"min":[-1.99609375,0.003810882568359375],"type":"VEC2"},{"bufferView":5,"componentType":5123,"count":15713,"type":"VEC4"},{"bufferView":6,"componentType":5126,"count":15713,"type":"VEC4"},{"bufferView":7,"componentType":5125,"count":39690,"type":"SCALAR"},{"bufferView":8,"componentType":5125,"count":1632,"type":"SCALAR"},{"bufferView":9,"componentType":5126,"count":46424,"max":[29.308713912963867,1.0689431428909302,7.4736175537109375],"min":[-5.764542102813721,-1.9215209484100342,-4.950641632080078],"type":"VEC3"},{"bufferView":10,"componentType":5126,"count":46424,"max":[0.9980468153953552,0.9980468153953552],"min":[0.00119022186845541,0.00555436871945858],"type":"VEC2"},{"bufferView":11,"componentType":5126,"count":46424,"max":[0.9999995231628418,0.9999995231628418,0.9999990463256836],"min":[-0.9999995231628418,-0.9999995231628418,-1],"type":"VEC3"},{"bufferView":12,"componentType":5126,"count":46424,"type":"VEC4"},{"bufferView":13,"componentType":5126,"count":46424,"max":[0.9814453125,0.3486328125],"min":[-1.978515625,0.00836944580078125],"type":"VEC2"},{"bufferView":14,"componentType":5123,"count":46424,"type":"VEC4"},{"bufferView":15,"componentType":5126,"count":46424,"type":"VEC4"},{"bufferView":16,"componentType":5125,"count":156903,"type":"SCALAR"},{"bufferView":17,"componentType":5125,"count":174,"type":"SCALAR"}],"bufferViews":[{"buffer":0,"byteLength":188556,"byteOffset":4844348,"target":34962},{"buffer":0,"byteLength":125704,"byteOffset":5380220,"target":34962},{"buffer":0,"byteLength":188556,"byteOffset":5032904,"target":34962},{"buffer":0,"byteLength":251408,"byteOffset":4341532,"target":34962},{"buffer":0,"byteLength":125704,"byteOffset":5505924,"target":34962},{"buffer":0,"byteLength":125704,"byteOffset":5631628,"byteStride":8,"target":34962},{"buffer":0,"byteLength":251408,"byteOffset":4592940,"target":34962},{"buffer":0,"byteLength":158760,"byteOffset":5221460,"target":34963},{"buffer":0,"byteLength":6528,"byteOffset":5757332,"target":34963},{"buffer":0,"byteLength":557088,"byteOffset":2113180,"target":34962},{"buffer":0,"byteLength":371392,"byteOffset":3227356,"target":34962},{"buffer":0,"byteLength":557088,"byteOffset":2670268,"target":34962},{"buffer":0,"byteLength":742784,"target":34962},{"buffer":0,"byteLength":371392,"byteOffset":3598748,"target":34962},{"buffer":0,"byteLength":371392,"byteOffset":3970140,"byteStride":8,"target":34962},{"buffer":0,"byteLength":742784,"byteOffset":742784,"target":34962},{"buffer":0,"byteLength":627612,"byteOffset":1485568,"target":34963},{"buffer":0,"byteLength":696,"byteOffset":5763860,"target":34963}],"buffers":[{"byteLength":5764556,"uri":"sg556.bin"}],"meshes":[{"extras":{},"name":"weapons\\models\\sg556\\weapon_rif_sg556.vmdl_c.body_legacy","primitives":[{"attributes":{"POSITION":0,"TEXCOORD_0":1,"NORMAL":2,"TANGENT":3,"TEXCOORD_1":4,"JOINTS_0":5,"WEIGHTS_0":6},"indices":7},{"attributes":{"POSITION":0,"TEXCOORD_0":1,"NORMAL":2,"TANGENT":3,"TEXCOORD_1":4,"JOINTS_0":5,"WEIGHTS_0":6},"indices":8}]},{"extras":{},"name":"weapons\\models\\sg556\\weapon_rif_sg556.vmdl_c.body_hd","primitives":[{"attributes":{"POSITION":9,"TEXCOORD_0":10,"NORMAL":11,"TANGENT":12,"TEXCOORD_1":13,"JOINTS_0":14,"WEIGHTS_0":15},"indices":16},{"attributes":{"POSITION":9,"TEXCOORD_0":10,"NORMAL":11,"TANGENT":12,"TEXCOORD_1":13,"JOINTS_0":14,"WEIGHTS_0":15},"indices":17}]}],"nodes":[{"name":"weapons\\models\\sg556\\weapon_rif_sg556.vmdl_c.body_legacy","matrix":[3.027916E-09,0,0.025399996,0,0.025399996,3.027916E-09,0,0,0,0.025399996,3.027916E-09,0,0,0,0,1],"mesh":0},{"name":"weapons\\models\\sg556\\weapon_rif_sg556.vmdl_c.body_hd","matrix":[3.027916E-09,0,0.025399996,0,0.025399996,3.027916E-09,0,0,0,0.025399996,3.027916E-09,0,0,0,0,1],"mesh":1}],"samplers":[{"magFilter":9729,"minFilter":9987}],"scenes":[{"name":"weapon_rif_sg556.vmdl_c","nodes":[0,1]}]}