{"asset":{"copyright":"","generator":"Source 2 Viewer 19.2.0.0 - https://valveresourceformat.github.io","version":"2.0"},"accessors":[{"bufferView":0,"componentType":5126,"count":108,"max":[21.458511352539062,0.7815799713134766,6.337403297424316],"min":[-14.164007186889648,-1.218420147895813,-6.158308982849121],"type":"VEC3"},{"bufferView":1,"componentType":5126,"count":108,"max":[0.6106668710708618,1,0.707064688205719],"min":[-0.797862708568573,-1,-0.7174879908561707],"type":"VEC3"},{"bufferView":2,"componentType":5126,"count":108,"max":[0.4291702210903168,0.12674807012081146],"min":[-0.2832801342010498,-0.10405082255601883],"type":"VEC2"},{"bufferView":3,"componentType":5125,"count":108,"type":"SCALAR"}],"bufferViews":[{"buffer":0,"byteLength":1296,"target":34962},{"buffer":0,"byteLength":1296,"byteOffset":1296,"target":34962},{"buffer":0,"byteLength":864,"byteOffset":2592,"target":34962},{"buffer":0,"byteLength":432,"byteOffset":3456,"target":34963}],"buffers":[{"byteLength":3888,"uri":"weapon_rif_sg556_physics.bin"}],"meshes":[{"name":"physics_group_weaponrifle","primitives":[{"attributes":{"POSITION":0,"NORMAL":1,"TEXCOORD_0":2},"indices":3}]}],"nodes":[{"extras":{"SurfaceProperty":"weaponrifle","InteractAs":[]},"name":"physics_group_weaponrifle","matrix":[3.027916E-09,0,0.025399996,0,0.025399996,3.027916E-09,0,0,0,0.025399996,3.027916E-09,0,0,0,0,1],"mesh":0}],"samplers":[{"magFilter":9729,"minFilter":9987}],"scenes":[{"name":"weapon_rif_sg556.vmdl_c","nodes":[0]}]}