{"asset":{"copyright":"","generator":"Source 2 Viewer 19.2.0.0 - https://valveresourceformat.github.io","version":"2.0"},"accessors":[{"bufferView":0,"componentType":5126,"count":7773,"max":[0.9413970112800598,0.9408979415893555,2.282804489135742],"min":[-1.395362138748169,-1.1338196992874146,-2.365541934967041],"type":"VEC3"},{"bufferView":1,"componentType":5126,"count":7773,"max":[0.9956053495407104,0.9960936307907104],"min":[0.00436414685100317,0.004333628341555595],"type":"VEC2"},{"bufferView":2,"componentType":5126,"count":7773,"max":[0.9999995231628418,0.9999995231628418,0.9999990463256836],"min":[-0.9999995231628418,-0.9999995231628418,-1],"type":"VEC3"},{"bufferView":3,"componentType":5126,"count":7773,"type":"VEC4"},{"bufferView":4,"componentType":5126,"count":7773,"max":[0,0],"min":[0,0],"type":"VEC2"},{"bufferView":5,"componentType":5123,"count":7773,"type":"VEC4"},{"bufferView":6,"componentType":5126,"count":7773,"type":"VEC4"},{"bufferView":7,"componentType":5125,"count":33363,"type":"SCALAR"}],"bufferViews":[{"buffer":0,"byteLength":93276,"byteOffset":382188,"target":34962},{"buffer":0,"byteLength":62184,"byteOffset":568740,"target":34962},{"buffer":0,"byteLength":93276,"byteOffset":475464,"target":34962},{"buffer":0,"byteLength":124368,"byteOffset":133452,"target":34962},{"buffer":0,"byteLength":62184,"byteOffset":630924,"target":34962},{"buffer":0,"byteLength":62184,"byteOffset":693108,"byteStride":8,"target":34962},{"buffer":0,"byteLength":124368,"byteOffset":257820,"target":34962},{"buffer":0,"byteLength":133452,"target":34963}],"buffers":[{"byteLength":755292,"uri":"smokegrenade.bin"}],"meshes":[{"extras":{},"name":"weapons\\models\\grenade\\smokegrenade\\weapon_smokegrenade.vmdl_c.body","primitives":[{"attributes":{"POSITION":0,"TEXCOORD_0":1,"NORMAL":2,"TANGENT":3,"TEXCOORD_1":4,"JOINTS_0":5,"WEIGHTS_0":6},"indices":7}]}],"nodes":[{"name":"weapons\\models\\grenade\\smokegrenade\\weapon_smokegrenade.vmdl_c.body","matrix":[3.027916E-09,0,0.025399996,0,0.025399996,3.027916E-09,0,0,0,0.025399996,3.027916E-09,0,0,0,0,1],"mesh":0}],"samplers":[{"magFilter":9729,"minFilter":9987}],"scenes":[{"name":"weapon_smokegrenade.vmdl_c","nodes":[0]}]}