{"asset":{"copyright":"","generator":"Source 2 Viewer 19.2.0.0 - https://valveresourceformat.github.io","version":"2.0"},"accessors":[{"bufferView":0,"componentType":5126,"count":174,"max":[36.74803161621094,1,8.785213470458984],"min":[-14.350458145141602,-2.9488558769226074,-3.150144577026367],"type":"VEC3"},{"bufferView":1,"componentType":5126,"count":174,"max":[0.6552990674972534,1,0.7153882384300232],"min":[-0.7621392011642456,-0.9927975535392761,-0.7553713917732239],"type":"VEC3"},{"bufferView":2,"componentType":5126,"count":174,"max":[0.7349606156349182,0.15619656443595886],"min":[-0.2870091497898102,-0.04522371292114258],"type":"VEC2"},{"bufferView":3,"componentType":5125,"count":174,"type":"SCALAR"}],"bufferViews":[{"buffer":0,"byteLength":2088,"target":34962},{"buffer":0,"byteLength":2088,"byteOffset":2088,"target":34962},{"buffer":0,"byteLength":1392,"byteOffset":4176,"target":34962},{"buffer":0,"byteLength":696,"byteOffset":5568,"target":34963}],"buffers":[{"byteLength":6264,"uri":"weapon_snip_ssg08_physics.bin"}],"meshes":[{"name":"physics_group_weaponsniper","primitives":[{"attributes":{"POSITION":0,"NORMAL":1,"TEXCOORD_0":2},"indices":3}]}],"nodes":[{"extras":{"SurfaceProperty":"weaponsniper","InteractAs":[]},"name":"physics_group_weaponsniper","matrix":[3.027916E-09,0,0.025399996,0,0.025399996,3.027916E-09,0,0,0,0.025399996,3.027916E-09,0,0,0,0,1],"mesh":0}],"samplers":[{"magFilter":9729,"minFilter":9987}],"scenes":[{"name":"weapon_snip_ssg08.vmdl_c","nodes":[0]}]}