{"asset":{"copyright":"","generator":"Source 2 Viewer 19.2.0.0 - https://valveresourceformat.github.io","version":"2.0"},"accessors":[{"bufferView":0,"componentType":5126,"count":41459,"max":[36.432342529296875,1.5957090854644775,8.665303230285645],"min":[-12.749637603759766,-2.2260818481445312,-3.1727640628814697],"type":"VEC3"},{"bufferView":1,"componentType":5126,"count":41459,"max":[1.99609375,0.9970703125],"min":[-1.560546875,-4.69921875],"type":"VEC2"},{"bufferView":2,"componentType":5126,"count":41459,"max":[0.9999995231628418,0.9998885989189148,0.9999990463256836],"min":[-0.9999995231628418,-0.9999995231628418,-1],"type":"VEC3"},{"bufferView":3,"componentType":5126,"count":41459,"type":"VEC4"},{"bufferView":4,"componentType":5126,"count":41459,"max":[0.955078125,0.2052001953125],"min":[-1.8369140625,0.0142974853515625],"type":"VEC2"},{"bufferView":5,"componentType":5123,"count":41459,"type":"VEC4"},{"bufferView":6,"componentType":5126,"count":41459,"type":"VEC4"},{"bufferView":7,"componentType":5125,"count":20553,"type":"SCALAR"},{"bufferView":8,"componentType":5125,"count":94788,"type":"SCALAR"},{"bufferView":9,"componentType":5125,"count":432,"type":"SCALAR"},{"bufferView":10,"componentType":5126,"count":41658,"max":[36.41292190551758,1.7143088579177856,8.557046890258789],"min":[-14.730504989624023,-3.302609443664551,-3.948261260986328],"type":"VEC3"},{"bufferView":11,"componentType":5126,"count":41658,"max":[1.96875,0.9970703125],"min":[0.0026950836181640625,0.00269317626953125],"type":"VEC2"},{"bufferView":12,"componentType":5126,"count":41658,"max":[0.9999995231628418,0.9999995231628418,0.9999990463256836],"min":[-0.9999995231628418,-0.9999995231628418,-1],"type":"VEC3"},{"bufferView":13,"componentType":5126,"count":41658,"type":"VEC4"},{"bufferView":14,"componentType":5126,"count":41658,"max":[0.98681640625,0.2176513671875],"min":[-1.8369140625,0.0160369873046875],"type":"VEC2"},{"bufferView":15,"componentType":5123,"count":41658,"type":"VEC4"},{"bufferView":16,"componentType":5126,"count":41658,"type":"VEC4"},{"bufferView":17,"componentType":5125,"count":147696,"type":"SCALAR"}],"bufferViews":[{"buffer":0,"byteLength":497508,"byteOffset":4250320,"target":34962},{"buffer":0,"byteLength":331672,"byteOffset":6624280,"target":34962},{"buffer":0,"byteLength":497508,"byteOffset":4747828,"target":34962},{"buffer":0,"byteLength":663344,"byteOffset":1333056,"target":34962},{"buffer":0,"byteLength":331672,"byteOffset":6955952,"target":34962},{"buffer":0,"byteLength":331672,"byteOffset":7287624,"byteStride":8,"target":34962},{"buffer":0,"byteLength":663344,"byteOffset":1996400,"target":34962},{"buffer":0,"byteLength":82212,"byteOffset":7619296,"target":34963},{"buffer":0,"byteLength":379152,"byteOffset":5245336,"target":34963},{"buffer":0,"byteLength":1728,"byteOffset":7701508,"target":34963},{"buffer":0,"byteLength":499896,"byteOffset":3250528,"target":34962},{"buffer":0,"byteLength":333264,"byteOffset":5624488,"target":34962},{"buffer":0,"byteLength":499896,"byteOffset":3750424,"target":34962},{"buffer":0,"byteLength":666528,"target":34962},{"buffer":0,"byteLength":333264,"byteOffset":5957752,"target":34962},{"buffer":0,"byteLength":333264,"byteOffset":6291016,"byteStride":8,"target":34962},{"buffer":0,"byteLength":666528,"byteOffset":666528,"target":34962},{"buffer":0,"byteLength":590784,"byteOffset":2659744,"target":34963}],"buffers":[{"byteLength":7703236,"uri":"ssg08.bin"}],"meshes":[{"extras":{},"name":"weapons\\models\\ssg08\\weapon_snip_ssg08.vmdl_c.body_legacy","primitives":[{"attributes":{"POSITION":0,"TEXCOORD_0":1,"NORMAL":2,"TANGENT":3,"TEXCOORD_1":4,"JOINTS_0":5,"WEIGHTS_0":6},"indices":7},{"attributes":{"POSITION":0,"TEXCOORD_0":1,"NORMAL":2,"TANGENT":3,"TEXCOORD_1":4,"JOINTS_0":5,"WEIGHTS_0":6},"indices":8},{"attributes":{"POSITION":0,"TEXCOORD_0":1,"NORMAL":2,"TANGENT":3,"TEXCOORD_1":4,"JOINTS_0":5,"WEIGHTS_0":6},"indices":9}]},{"extras":{},"name":"weapons\\models\\ssg08\\weapon_snip_ssg08.vmdl_c.body_hd","primitives":[{"attributes":{"POSITION":10,"TEXCOORD_0":11,"NORMAL":12,"TANGENT":13,"TEXCOORD_1":14,"JOINTS_0":15,"WEIGHTS_0":16},"indices":17}]}],"nodes":[{"name":"weapons\\models\\ssg08\\weapon_snip_ssg08.vmdl_c.body_legacy","matrix":[3.027916E-09,0,0.025399996,0,0.025399996,3.027916E-09,0,0,0,0.025399996,3.027916E-09,0,0,0,0,1],"mesh":0},{"name":"weapons\\models\\ssg08\\weapon_snip_ssg08.vmdl_c.body_hd","matrix":[3.027916E-09,0,0.025399996,0,0.025399996,3.027916E-09,0,0,0,0.025399996,3.027916E-09,0,0,0,0,1],"mesh":1}],"samplers":[{"magFilter":9729,"minFilter":9987}],"scenes":[{"name":"weapon_snip_ssg08.vmdl_c","nodes":[0,1]}]}