{"asset":{"copyright":"","generator":"Source 2 Viewer 19.2.0.0 - https://valveresourceformat.github.io","version":"2.0"},"accessors":[{"bufferView":0,"componentType":5126,"count":6549,"max":[7.355217456817627,0.940837025642395,6.68124532699585],"min":[-2.365720272064209,-0.9408371448516846,-0.246428444981575],"type":"VEC3"},{"bufferView":1,"componentType":5126,"count":6549,"max":[0.9907223582267761,0.9614245891571045],"min":[0.007385479286313057,0.0070192571729421616],"type":"VEC2"},{"bufferView":2,"componentType":5126,"count":6549,"max":[0.9999995231628418,0.9999995231628418,0.9999990463256836],"min":[-0.9999995231628418,-0.9999995231628418,-1],"type":"VEC3"},{"bufferView":3,"componentType":5126,"count":6549,"type":"VEC4"},{"bufferView":4,"componentType":5126,"count":6549,"max":[1.0126953125,0.705078125],"min":[-1.9580078125,0.01247406005859375],"type":"VEC2"},{"bufferView":5,"componentType":5123,"count":6549,"type":"VEC4"},{"bufferView":6,"componentType":5126,"count":6549,"type":"VEC4"},{"bufferView":7,"componentType":5126,"count":232,"max":[-1.5911219120025635,0.4129573106765747,6.153168201446533],"min":[-1.6228065490722656,-0.4160572290420532,5.835318088531494],"type":"VEC3"},{"bufferView":8,"componentType":5126,"count":232,"max":[0.0042420728132128716,0.9843745231628418],"min":[0.003875850699841976,0.015594958327710629],"type":"VEC2"},{"bufferView":9,"componentType":5126,"count":232,"max":[-0.9952564239501953,0.0010690176859498024,0.09728074818849564],"min":[-0.9952564239501953,0.0010690176859498024,0.09728074818849564],"type":"VEC3"},{"bufferView":10,"componentType":5126,"count":232,"type":"VEC4"},{"bufferView":11,"componentType":5123,"count":232,"type":"VEC4"},{"bufferView":12,"componentType":5126,"count":232,"type":"VEC4"},{"bufferView":13,"componentType":5125,"count":24270,"type":"SCALAR"},{"bufferView":14,"componentType":5125,"count":462,"type":"SCALAR"}],"bufferViews":[{"buffer":0,"byteLength":78588,"byteOffset":306648,"target":34962},{"buffer":0,"byteLength":52392,"byteOffset":463824,"target":34962},{"buffer":0,"byteLength":78588,"byteOffset":385236,"target":34962},{"buffer":0,"byteLength":104784,"target":34962},{"buffer":0,"byteLength":52392,"byteOffset":516216,"target":34962},{"buffer":0,"byteLength":52392,"byteOffset":568608,"byteStride":8,"target":34962},{"buffer":0,"byteLength":104784,"byteOffset":104784,"target":34962},{"buffer":0,"byteLength":2784,"byteOffset":628424,"target":34962},{"buffer":0,"byteLength":1856,"byteOffset":633992,"target":34962},{"buffer":0,"byteLength":2784,"byteOffset":631208,"target":34962},{"buffer":0,"byteLength":3712,"byteOffset":621000,"target":34962},{"buffer":0,"byteLength":1856,"byteOffset":635848,"byteStride":8,"target":34962},{"buffer":0,"byteLength":3712,"byteOffset":624712,"target":34962},{"buffer":0,"byteLength":97080,"byteOffset":209568,"target":34963},{"buffer":0,"byteLength":1848,"byteOffset":637704,"target":34963}],"buffers":[{"byteLength":639552,"uri":"taser.bin"}],"meshes":[{"extras":{},"name":"weapons\\models\\taser\\weapon_pist_taser.vmdl_c.body_hd","primitives":[{"attributes":{"POSITION":0,"TEXCOORD_0":1,"NORMAL":2,"TANGENT":3,"TEXCOORD_1":4,"JOINTS_0":5,"WEIGHTS_0":6},"indices":13},{"attributes":{"POSITION":7,"TEXCOORD_0":8,"NORMAL":9,"TANGENT":10,"JOINTS_0":11,"WEIGHTS_0":12},"indices":14}]}],"nodes":[{"name":"weapons\\models\\taser\\weapon_pist_taser.vmdl_c.body_hd","matrix":[3.027916E-09,0,0.025399996,0,0.025399996,3.027916E-09,0,0,0,0.025399996,3.027916E-09,0,0,0,0,1],"mesh":0}],"samplers":[{"magFilter":9729,"minFilter":9987}],"scenes":[{"name":"weapon_pist_taser.vmdl_c","nodes":[0]}]}