{"asset":{"copyright":"","generator":"Source 2 Viewer 19.2.0.0 - https://valveresourceformat.github.io","version":"2.0"},"accessors":[{"bufferView":0,"componentType":5126,"count":96,"max":[7.695767879486084,1.000000238418579,6.801914691925049],"min":[-2.502199172973633,-1.0000001192092896,-0.4394240379333496],"type":"VEC3"},{"bufferView":1,"componentType":5126,"count":96,"max":[0.803421676158905,1,0.7791840434074402],"min":[-0.7695284485816956,-1,-0.7800883054733276],"type":"VEC3"},{"bufferView":2,"componentType":5126,"count":96,"max":[0.15391536056995392,0.11684694141149521],"min":[-0.0500439815223217,-0.020000005140900612],"type":"VEC2"},{"bufferView":3,"componentType":5125,"count":96,"type":"SCALAR"}],"bufferViews":[{"buffer":0,"byteLength":1152,"target":34962},{"buffer":0,"byteLength":1152,"byteOffset":1152,"target":34962},{"buffer":0,"byteLength":768,"byteOffset":2304,"target":34962},{"buffer":0,"byteLength":384,"byteOffset":3072,"target":34963}],"buffers":[{"byteLength":3456,"uri":"weapon_pist_taser_physics.bin"}],"meshes":[{"name":"physics_group_weaponpistol","primitives":[{"attributes":{"POSITION":0,"NORMAL":1,"TEXCOORD_0":2},"indices":3}]}],"nodes":[{"extras":{"SurfaceProperty":"weaponpistol","InteractAs":[]},"name":"physics_group_weaponpistol","matrix":[3.027916E-09,0,0.025399996,0,0.025399996,3.027916E-09,0,0,0,0.025399996,3.027916E-09,0,0,0,0,1],"mesh":0}],"samplers":[{"magFilter":9729,"minFilter":9987}],"scenes":[{"name":"weapon_pist_taser.vmdl_c","nodes":[0]}]}