{"asset":{"copyright":"","generator":"Source 2 Viewer 19.2.0.0 - https://valveresourceformat.github.io","version":"2.0"},"accessors":[{"bufferView":0,"componentType":5126,"count":8089,"max":[16.740005493164062,1.3844069242477417,6.8195576667785645],"min":[3.404344320297241,-0.9776219725608826,-3.3122177124023438],"type":"VEC3"},{"bufferView":1,"componentType":5126,"count":8089,"max":[1.9921875,0.99560546875],"min":[0.00438690185546875,0.0048980712890625],"type":"VEC2"},{"bufferView":2,"componentType":5126,"count":8089,"max":[0.9999995231628418,0.9998885989189148,0.9999990463256836],"min":[-0.9998885989189148,-0.9999995231628418,-1],"type":"VEC3"},{"bufferView":3,"componentType":5126,"count":8089,"type":"VEC4"},{"bufferView":4,"componentType":5126,"count":8089,"max":[1.037109375,0.69189453125],"min":[-1.9482421875,-0.08978271484375],"type":"VEC2"},{"bufferView":5,"componentType":5123,"count":8089,"type":"VEC4"},{"bufferView":6,"componentType":5126,"count":8089,"type":"VEC4"},{"bufferView":7,"componentType":5125,"count":26835,"type":"SCALAR"},{"bufferView":8,"componentType":5126,"count":16518,"max":[16.778657913208008,1.469151496887207,6.733808994293213],"min":[3.4190785884857178,-0.9174522757530212,-3.3625237941741943],"type":"VEC3"},{"bufferView":9,"componentType":5126,"count":16518,"max":[0.9970701932907104,0.9970701932907104],"min":[0.0023194067180156708,0.008911404758691788],"type":"VEC2"},{"bufferView":10,"componentType":5126,"count":16518,"max":[0.9999995231628418,0.9999995231628418,0.9999990463256836],"min":[-0.9999995231628418,-0.9999995231628418,-1],"type":"VEC3"},{"bufferView":11,"componentType":5126,"count":16518,"type":"VEC4"},{"bufferView":12,"componentType":5126,"count":16518,"max":[1.0478515625,0.69482421875],"min":[-1.9501953125,-0.06915283203125],"type":"VEC2"},{"bufferView":13,"componentType":5123,"count":16518,"type":"VEC4"},{"bufferView":14,"componentType":5126,"count":16518,"type":"VEC4"},{"bufferView":15,"componentType":5125,"count":65430,"type":"SCALAR"}],"bufferViews":[{"buffer":0,"byteLength":97068,"byteOffset":1949348,"target":34962},{"buffer":0,"byteLength":64712,"byteOffset":2143484,"target":34962},{"buffer":0,"byteLength":97068,"byteOffset":2046416,"target":34962},{"buffer":0,"byteLength":129424,"byteOffset":1583160,"target":34962},{"buffer":0,"byteLength":64712,"byteOffset":2208196,"target":34962},{"buffer":0,"byteLength":64712,"byteOffset":2272908,"byteStride":8,"target":34962},{"buffer":0,"byteLength":129424,"byteOffset":1712584,"target":34962},{"buffer":0,"byteLength":107340,"byteOffset":1842008,"target":34963},{"buffer":0,"byteLength":198216,"byteOffset":790296,"target":34962},{"buffer":0,"byteLength":132144,"byteOffset":1186728,"target":34962},{"buffer":0,"byteLength":198216,"byteOffset":988512,"target":34962},{"buffer":0,"byteLength":264288,"target":34962},{"buffer":0,"byteLength":132144,"byteOffset":1318872,"target":34962},{"buffer":0,"byteLength":132144,"byteOffset":1451016,"byteStride":8,"target":34962},{"buffer":0,"byteLength":264288,"byteOffset":264288,"target":34962},{"buffer":0,"byteLength":261720,"byteOffset":528576,"target":34963}],"buffers":[{"byteLength":2337620,"uri":"tec9.bin"}],"meshes":[{"extras":{},"name":"weapons\\models\\tec9\\weapon_pist_tec9.vmdl_c.body_legacy","primitives":[{"attributes":{"POSITION":0,"TEXCOORD_0":1,"NORMAL":2,"TANGENT":3,"TEXCOORD_1":4,"JOINTS_0":5,"WEIGHTS_0":6},"indices":7}]},{"extras":{},"name":"weapons\\models\\tec9\\weapon_pist_tec9.vmdl_c.body_hd","primitives":[{"attributes":{"POSITION":8,"TEXCOORD_0":9,"NORMAL":10,"TANGENT":11,"TEXCOORD_1":12,"JOINTS_0":13,"WEIGHTS_0":14},"indices":15}]}],"nodes":[{"name":"weapons\\models\\tec9\\weapon_pist_tec9.vmdl_c.body_legacy","matrix":[3.027916E-09,0,0.025399996,0,0.025399996,3.027916E-09,0,0,0,0.025399996,3.027916E-09,0,0,0,0,1],"mesh":0},{"name":"weapons\\models\\tec9\\weapon_pist_tec9.vmdl_c.body_hd","matrix":[3.027916E-09,0,0.025399996,0,0.025399996,3.027916E-09,0,0,0,0.025399996,3.027916E-09,0,0,0,0,1],"mesh":1}],"samplers":[{"magFilter":9729,"minFilter":9987}],"scenes":[{"name":"weapon_pist_tec9.vmdl_c","nodes":[0,1]}]}