{"asset":{"copyright":"","generator":"Source 2 Viewer 19.2.0.0 - https://valveresourceformat.github.io","version":"2.0"},"accessors":[{"bufferView":0,"componentType":5126,"count":150,"max":[16.786598205566406,1.3260149955749512,6.715480804443359],"min":[3.3489999771118164,-0.550000011920929,-3.3536300659179688],"type":"VEC3"},{"bufferView":1,"componentType":5126,"count":150,"max":[0.7198565006256104,0.9952501654624939,0.9901713728904724],"min":[-0.6052082777023315,-1,-0.714448094367981],"type":"VEC3"},{"bufferView":2,"componentType":5126,"count":150,"max":[0.33573195338249207,0.13430961966514587],"min":[0.06697999686002731,-0.06707260012626648],"type":"VEC2"},{"bufferView":3,"componentType":5125,"count":150,"type":"SCALAR"}],"bufferViews":[{"buffer":0,"byteLength":1800,"target":34962},{"buffer":0,"byteLength":1800,"byteOffset":1800,"target":34962},{"buffer":0,"byteLength":1200,"byteOffset":3600,"target":34962},{"buffer":0,"byteLength":600,"byteOffset":4800,"target":34963}],"buffers":[{"byteLength":5400,"uri":"weapon_pist_tec9_physics.bin"}],"meshes":[{"name":"physics_group_weaponpistol","primitives":[{"attributes":{"POSITION":0,"NORMAL":1,"TEXCOORD_0":2},"indices":3}]}],"nodes":[{"extras":{"SurfaceProperty":"weaponpistol","InteractAs":[]},"name":"physics_group_weaponpistol","matrix":[3.027916E-09,0,0.025399996,0,0.025399996,3.027916E-09,0,0,0,0.025399996,3.027916E-09,0,0,0,0,1],"mesh":0}],"samplers":[{"magFilter":9729,"minFilter":9987}],"scenes":[{"name":"weapon_pist_tec9.vmdl_c","nodes":[0]}]}