{"asset":{"copyright":"","generator":"Source 2 Viewer 19.2.0.0 - https://valveresourceformat.github.io","version":"2.0"},"accessors":[{"bufferView":0,"componentType":5126,"count":114,"max":[19.322940826416016,1.0000001192092896,6.470691204071045],"min":[-9.502185821533203,-1.0000001192092896,-6.913382530212402],"type":"VEC3"},{"bufferView":1,"componentType":5126,"count":114,"max":[0.6191319227218628,1,0.7206067442893982],"min":[-0.7961223125457764,-1,-0.794904351234436],"type":"VEC3"},{"bufferView":2,"componentType":5126,"count":114,"max":[0.3864588141441345,0.12941382825374603],"min":[-0.19004371762275696,-0.13221339881420135],"type":"VEC2"},{"bufferView":3,"componentType":5125,"count":114,"type":"SCALAR"}],"bufferViews":[{"buffer":0,"byteLength":1368,"target":34962},{"buffer":0,"byteLength":1368,"byteOffset":1368,"target":34962},{"buffer":0,"byteLength":912,"byteOffset":2736,"target":34962},{"buffer":0,"byteLength":456,"byteOffset":3648,"target":34963}],"buffers":[{"byteLength":4104,"uri":"weapon_smg_ump45_physics.bin"}],"meshes":[{"name":"physics_group_weaponsmg","primitives":[{"attributes":{"POSITION":0,"NORMAL":1,"TEXCOORD_0":2},"indices":3}]}],"nodes":[{"extras":{"SurfaceProperty":"weaponsmg","InteractAs":[]},"name":"physics_group_weaponsmg","matrix":[3.027916E-09,0,0.025399996,0,0.025399996,3.027916E-09,0,0,0,0.025399996,3.027916E-09,0,0,0,0,1],"mesh":0}],"samplers":[{"magFilter":9729,"minFilter":9987}],"scenes":[{"name":"weapon_smg_ump45.vmdl_c","nodes":[0]}]}