{"asset":{"copyright":"","generator":"Source 2 Viewer 19.2.0.0 - https://valveresourceformat.github.io","version":"2.0"},"accessors":[{"bufferView":0,"componentType":5126,"count":12791,"max":[18.904756546020508,1.5098427534103394,6.6719160079956055],"min":[-10.31081485748291,-1.255454182624817,-7.970494747161865],"type":"VEC3"},{"bufferView":1,"componentType":5126,"count":12791,"max":[0.9960936307907104,0.9965819120407104],"min":[0.0040894802659749985,0.003875850699841976],"type":"VEC2"},{"bufferView":2,"componentType":5126,"count":12791,"max":[0.9999995231628418,0.9999995231628418,0.9999990463256836],"min":[-0.9999995231628418,-0.9999995231628418,-1],"type":"VEC3"},{"bufferView":3,"componentType":5126,"count":12791,"type":"VEC4"},{"bufferView":4,"componentType":5126,"count":12791,"max":[0.998046875,0.49560546875],"min":[-1.958984375,0.0157470703125],"type":"VEC2"},{"bufferView":5,"componentType":5123,"count":12791,"type":"VEC4"},{"bufferView":6,"componentType":5126,"count":12791,"type":"VEC4"},{"bufferView":7,"componentType":5125,"count":31263,"type":"SCALAR"},{"bufferView":8,"componentType":5126,"count":27672,"max":[19.188085556030273,1.3722894191741943,6.698586940765381],"min":[-9.477975845336914,-1.2347244024276733,-6.847622394561768],"type":"VEC3"},{"bufferView":9,"componentType":5126,"count":27672,"max":[0.9975585341453552,0.9975585341453552],"min":[0.0021973326802253723,0.002685628831386566],"type":"VEC2"},{"bufferView":10,"componentType":5126,"count":27672,"max":[0.9999995231628418,0.9999995231628418,0.9999990463256836],"min":[-0.9999995231628418,-0.9999995231628418,-1],"type":"VEC3"},{"bufferView":11,"componentType":5126,"count":27672,"type":"VEC4"},{"bufferView":12,"componentType":5126,"count":27672,"max":[0.970703125,0.458984375],"min":[-1.96875,0.01486968994140625],"type":"VEC2"},{"bufferView":13,"componentType":5123,"count":27672,"type":"VEC4"},{"bufferView":14,"componentType":5126,"count":27672,"type":"VEC4"},{"bufferView":15,"componentType":5125,"count":98379,"type":"SCALAR"}],"bufferViews":[{"buffer":0,"byteLength":153492,"byteOffset":3016588,"target":34962},{"buffer":0,"byteLength":102328,"byteOffset":3448624,"target":34962},{"buffer":0,"byteLength":153492,"byteOffset":3170080,"target":34962},{"buffer":0,"byteLength":204656,"byteOffset":2607276,"target":34962},{"buffer":0,"byteLength":102328,"byteOffset":3550952,"target":34962},{"buffer":0,"byteLength":102328,"byteOffset":3653280,"byteStride":8,"target":34962},{"buffer":0,"byteLength":204656,"byteOffset":2811932,"target":34962},{"buffer":0,"byteLength":125052,"byteOffset":3323572,"target":34963},{"buffer":0,"byteLength":332064,"byteOffset":1279020,"target":34962},{"buffer":0,"byteLength":221376,"byteOffset":1943148,"target":34962},{"buffer":0,"byteLength":332064,"byteOffset":1611084,"target":34962},{"buffer":0,"byteLength":442752,"target":34962},{"buffer":0,"byteLength":221376,"byteOffset":2164524,"target":34962},{"buffer":0,"byteLength":221376,"byteOffset":2385900,"byteStride":8,"target":34962},{"buffer":0,"byteLength":442752,"byteOffset":442752,"target":34962},{"buffer":0,"byteLength":393516,"byteOffset":885504,"target":34963}],"buffers":[{"byteLength":3755608,"uri":"ump45.bin"}],"meshes":[{"extras":{},"name":"weapons\\models\\ump45\\weapon_smg_ump45.vmdl_c.body_legacy","primitives":[{"attributes":{"POSITION":0,"TEXCOORD_0":1,"NORMAL":2,"TANGENT":3,"TEXCOORD_1":4,"JOINTS_0":5,"WEIGHTS_0":6},"indices":7}]},{"extras":{},"name":"weapons\\models\\ump45\\weapon_smg_ump45.vmdl_c.body_hd","primitives":[{"attributes":{"POSITION":8,"TEXCOORD_0":9,"NORMAL":10,"TANGENT":11,"TEXCOORD_1":12,"JOINTS_0":13,"WEIGHTS_0":14},"indices":15}]}],"nodes":[{"name":"weapons\\models\\ump45\\weapon_smg_ump45.vmdl_c.body_legacy","matrix":[3.027916E-09,0,0.025399996,0,0.025399996,3.027916E-09,0,0,0,0.025399996,3.027916E-09,0,0,0,0,1],"mesh":0},{"name":"weapons\\models\\ump45\\weapon_smg_ump45.vmdl_c.body_hd","matrix":[3.027916E-09,0,0.025399996,0,0.025399996,3.027916E-09,0,0,0,0.025399996,3.027916E-09,0,0,0,0,1],"mesh":1}],"samplers":[{"magFilter":9729,"minFilter":9987}],"scenes":[{"name":"weapon_smg_ump45.vmdl_c","nodes":[0,1]}]}