{"asset":{"copyright":"","generator":"Source 2 Viewer 19.2.0.0 - https://valveresourceformat.github.io","version":"2.0"},"accessors":[{"bufferView":0,"componentType":5126,"count":156,"max":[19.7808895111084,0.9672080278396606,5.140056133270264],"min":[1.310678482055664,-0.9672080278396606,-2.308488607406616],"type":"VEC3"},{"bufferView":1,"componentType":5126,"count":156,"max":[0.9092378616333008,1,0.9281307458877563],"min":[-0.9963598847389221,-1,-0.8810727596282959],"type":"VEC3"},{"bufferView":2,"componentType":5126,"count":156,"max":[0.3956177830696106,0.10252606123685837],"min":[-0.040571969002485275,-0.04616977274417877],"type":"VEC2"},{"bufferView":3,"componentType":5125,"count":156,"type":"SCALAR"}],"bufferViews":[{"buffer":0,"byteLength":1872,"target":34962},{"buffer":0,"byteLength":1872,"byteOffset":1872,"target":34962},{"buffer":0,"byteLength":1248,"byteOffset":3744,"target":34962},{"buffer":0,"byteLength":624,"byteOffset":4992,"target":34963}],"buffers":[{"byteLength":5616,"uri":"weapon_pist_usp_silencer_physics.bin"}],"meshes":[{"name":"physics_group_weaponpistol","primitives":[{"attributes":{"POSITION":0,"NORMAL":1,"TEXCOORD_0":2},"indices":3}]}],"nodes":[{"extras":{"SurfaceProperty":"weaponpistol","InteractAs":[]},"name":"physics_group_weaponpistol","matrix":[3.027916E-09,0,0.025399996,0,0.025399996,3.027916E-09,0,0,0,0.025399996,3.027916E-09,0,0,0,0,1],"mesh":0}],"samplers":[{"magFilter":9729,"minFilter":9987}],"scenes":[{"name":"weapon_pist_usp_silencer.vmdl_c","nodes":[0]}]}