{"asset":{"copyright":"","generator":"Source 2 Viewer 19.2.0.0 - https://valveresourceformat.github.io","version":"2.0"},"accessors":[{"bufferView":0,"componentType":5126,"count":12482,"max":[19.28331756591797,0.8338925838470459,4.957400798797607],"min":[1.4568997621536255,-0.8745046257972717,-1.8800047636032104],"type":"VEC3"},{"bufferView":1,"componentType":5126,"count":12482,"max":[0.9975585341453552,0.9980468153953552],"min":[0.008209479041397572,0.0014954069629311562],"type":"VEC2"},{"bufferView":2,"componentType":5126,"count":12482,"max":[0.9999995231628418,0.9999995231628418,0.9999990463256836],"min":[-0.9999995231628418,-0.9999995231628418,-1],"type":"VEC3"},{"bufferView":3,"componentType":5126,"count":12482,"type":"VEC4"},{"bufferView":4,"componentType":5126,"count":12482,"max":[0.9541015625,0.37158203125],"min":[-1.93359375,-0.04046630859375],"type":"VEC2"},{"bufferView":5,"componentType":5123,"count":12482,"type":"VEC4"},{"bufferView":6,"componentType":5126,"count":12482,"type":"VEC4"},{"bufferView":7,"componentType":5125,"count":35994,"type":"SCALAR"},{"bufferView":8,"componentType":5126,"count":15830,"max":[18.268863677978516,0.9921116232872009,5.032080173492432],"min":[1.436550498008728,-0.8194472193717957,-1.7576642036437988],"type":"VEC3"},{"bufferView":9,"componentType":5126,"count":15830,"max":[0.9965819120407104,0.9965819120407104],"min":[0.00317392498254776,0.004303109832108021],"type":"VEC2"},{"bufferView":10,"componentType":5126,"count":15830,"max":[0.9999995231628418,0.9999995231628418,0.9999990463256836],"min":[-0.9999995231628418,-0.9999995231628418,-1],"type":"VEC3"},{"bufferView":11,"componentType":5126,"count":15830,"type":"VEC4"},{"bufferView":12,"componentType":5126,"count":15830,"max":[0.96044921875,0.390625],"min":[-1.953125,-0.04425048828125],"type":"VEC2"},{"bufferView":13,"componentType":5123,"count":15830,"type":"VEC4"},{"bufferView":14,"componentType":5126,"count":15830,"type":"VEC4"},{"bufferView":15,"componentType":5125,"count":56754,"type":"SCALAR"}],"bufferViews":[{"buffer":0,"byteLength":149784,"byteOffset":1512920,"target":34962},{"buffer":0,"byteLength":99856,"byteOffset":2336384,"target":34962},{"buffer":0,"byteLength":149784,"byteOffset":1662704,"target":34962},{"buffer":0,"byteLength":199712,"byteOffset":733576,"target":34962},{"buffer":0,"byteLength":99856,"byteOffset":2436240,"target":34962},{"buffer":0,"byteLength":99856,"byteOffset":2536096,"byteStride":8,"target":34962},{"buffer":0,"byteLength":199712,"byteOffset":933288,"target":34962},{"buffer":0,"byteLength":143976,"byteOffset":1812488,"target":34963},{"buffer":0,"byteLength":189960,"byteOffset":1133000,"target":34962},{"buffer":0,"byteLength":126640,"byteOffset":1956464,"target":34962},{"buffer":0,"byteLength":189960,"byteOffset":1322960,"target":34962},{"buffer":0,"byteLength":253280,"target":34962},{"buffer":0,"byteLength":126640,"byteOffset":2083104,"target":34962},{"buffer":0,"byteLength":126640,"byteOffset":2209744,"byteStride":8,"target":34962},{"buffer":0,"byteLength":253280,"byteOffset":253280,"target":34962},{"buffer":0,"byteLength":227016,"byteOffset":506560,"target":34963}],"buffers":[{"byteLength":2635952,"uri":"usp_silencer.bin"}],"meshes":[{"extras":{},"name":"weapons\\models\\usp_silencer\\weapon_pist_usp_silencer.vmdl_c.body_legacy","primitives":[{"attributes":{"POSITION":0,"TEXCOORD_0":1,"NORMAL":2,"TANGENT":3,"TEXCOORD_1":4,"JOINTS_0":5,"WEIGHTS_0":6},"indices":7}]},{"extras":{},"name":"weapons\\models\\usp_silencer\\weapon_pist_usp_silencer.vmdl_c.body_hd","primitives":[{"attributes":{"POSITION":8,"TEXCOORD_0":9,"NORMAL":10,"TANGENT":11,"TEXCOORD_1":12,"JOINTS_0":13,"WEIGHTS_0":14},"indices":15}]}],"nodes":[{"name":"weapons\\models\\usp_silencer\\weapon_pist_usp_silencer.vmdl_c.body_legacy","matrix":[3.027916E-09,0,0.025399996,0,0.025399996,3.027916E-09,0,0,0,0.025399996,3.027916E-09,0,0,0,0,1],"mesh":0},{"name":"weapons\\models\\usp_silencer\\weapon_pist_usp_silencer.vmdl_c.body_hd","matrix":[3.027916E-09,0,0.025399996,0,0.025399996,3.027916E-09,0,0,0,0.025399996,3.027916E-09,0,0,0,0,1],"mesh":1}],"samplers":[{"magFilter":9729,"minFilter":9987}],"scenes":[{"name":"weapon_pist_usp_silencer.vmdl_c","nodes":[0,1]}]}