{"asset":{"copyright":"","generator":"Source 2 Viewer 19.2.0.0 - https://valveresourceformat.github.io","version":"2.0"},"accessors":[{"bufferView":0,"componentType":5126,"count":114,"max":[22.724451065063477,0.7500001192092896,4.859804153442383],"min":[-12.850218772888184,-0.7500000596046448,-2.1362900733947754],"type":"VEC3"},{"bufferView":1,"componentType":5126,"count":114,"max":[0.787372350692749,1,0.7518444657325745],"min":[-0.8050200343132019,-1,-0.745577335357666],"type":"VEC3"},{"bufferView":2,"componentType":5126,"count":114,"max":[0.4544890224933624,0.09512565284967422],"min":[-0.25700438022613525,-0.029306067153811455],"type":"VEC2"},{"bufferView":3,"componentType":5125,"count":114,"type":"SCALAR"}],"bufferViews":[{"buffer":0,"byteLength":1368,"target":34962},{"buffer":0,"byteLength":1368,"byteOffset":1368,"target":34962},{"buffer":0,"byteLength":912,"byteOffset":2736,"target":34962},{"buffer":0,"byteLength":456,"byteOffset":3648,"target":34963}],"buffers":[{"byteLength":4104,"uri":"weapon_shot_xm1014_physics.bin"}],"meshes":[{"name":"physics_group_weaponshotgun","primitives":[{"attributes":{"POSITION":0,"NORMAL":1,"TEXCOORD_0":2},"indices":3}]}],"nodes":[{"extras":{"SurfaceProperty":"weaponshotgun","InteractAs":[]},"name":"physics_group_weaponshotgun","matrix":[3.027916E-09,0,0.025399996,0,0.025399996,3.027916E-09,0,0,0,0.025399996,3.027916E-09,0,0,0,0,1],"mesh":0}],"samplers":[{"magFilter":9729,"minFilter":9987}],"scenes":[{"name":"weapon_shot_xm1014.vmdl_c","nodes":[0]}]}