{"asset":{"copyright":"","generator":"Source 2 Viewer 19.2.0.0 - https://valveresourceformat.github.io","version":"2.0"},"accessors":[{"bufferView":0,"componentType":5126,"count":25863,"max":[23.66305923461914,4.97505521774292,5.004809856414795],"min":[-13.516322135925293,-1.7008432149887085,-5.681916236877441],"type":"VEC3"},{"bufferView":1,"componentType":5126,"count":25863,"max":[2.9140625,1.98046875],"min":[-1.9892578125,-0.62744140625],"type":"VEC2"},{"bufferView":2,"componentType":5126,"count":25863,"max":[0.9999995231628418,0.9999995231628418,0.9999990463256836],"min":[-0.9999995231628418,-0.9999995231628418,-1],"type":"VEC3"},{"bufferView":3,"componentType":5126,"count":25863,"type":"VEC4"},{"bufferView":4,"componentType":5126,"count":25863,"max":[1.0009765625,0.30126953125],"min":[-2.001953125,0.012542724609375],"type":"VEC2"},{"bufferView":5,"componentType":5123,"count":25863,"type":"VEC4"},{"bufferView":6,"componentType":5126,"count":25863,"type":"VEC4"},{"bufferView":7,"componentType":5125,"count":58488,"type":"SCALAR"},{"bufferView":8,"componentType":5125,"count":10896,"type":"SCALAR"},{"bufferView":9,"componentType":5126,"count":25009,"max":[22.527421951293945,4.97505521774292,4.796514511108398],"min":[-12.812499046325684,-1.5250153541564941,-5.681916236877441],"type":"VEC3"},{"bufferView":10,"componentType":5126,"count":25009,"max":[0.9975585341453552,0.9985350966453552],"min":[0.002075258642435074,0.0023194067180156708],"type":"VEC2"},{"bufferView":11,"componentType":5126,"count":25009,"max":[0.9999995231628418,0.9999995231628418,0.9999990463256836],"min":[-0.9999995231628418,-0.9999995231628418,-1],"type":"VEC3"},{"bufferView":12,"componentType":5126,"count":25009,"type":"VEC4"},{"bufferView":13,"componentType":5126,"count":25009,"max":[0.98193359375,0.30126953125],"min":[-1.97265625,0.0181732177734375],"type":"VEC2"},{"bufferView":14,"componentType":5123,"count":25009,"type":"VEC4"},{"bufferView":15,"componentType":5126,"count":25009,"type":"VEC4"},{"bufferView":16,"componentType":5125,"count":89937,"type":"SCALAR"}],"bufferViews":[{"buffer":0,"byteLength":310356,"byteOffset":1987652,"target":34962},{"buffer":0,"byteLength":206904,"byteOffset":3442532,"target":34962},{"buffer":0,"byteLength":310356,"byteOffset":2298008,"target":34962},{"buffer":0,"byteLength":413808,"target":34962},{"buffer":0,"byteLength":206904,"byteOffset":3649436,"target":34962},{"buffer":0,"byteLength":206904,"byteOffset":3856340,"byteStride":8,"target":34962},{"buffer":0,"byteLength":413808,"byteOffset":413808,"target":34962},{"buffer":0,"byteLength":233952,"byteOffset":3208580,"target":34963},{"buffer":0,"byteLength":43584,"byteOffset":4663460,"target":34963},{"buffer":0,"byteLength":300108,"byteOffset":2608364,"target":34962},{"buffer":0,"byteLength":200072,"byteOffset":4063244,"target":34962},{"buffer":0,"byteLength":300108,"byteOffset":2908472,"target":34962},{"buffer":0,"byteLength":400144,"byteOffset":827616,"target":34962},{"buffer":0,"byteLength":200072,"byteOffset":4263316,"target":34962},{"buffer":0,"byteLength":200072,"byteOffset":4463388,"byteStride":8,"target":34962},{"buffer":0,"byteLength":400144,"byteOffset":1227760,"target":34962},{"buffer":0,"byteLength":359748,"byteOffset":1627904,"target":34963}],"buffers":[{"byteLength":4707044,"uri":"xm1014.bin"}],"meshes":[{"extras":{},"name":"weapons\\models\\xm1014\\weapon_shot_xm1014.vmdl_c.body_legacy","primitives":[{"attributes":{"POSITION":0,"TEXCOORD_0":1,"NORMAL":2,"TANGENT":3,"TEXCOORD_1":4,"JOINTS_0":5,"WEIGHTS_0":6},"indices":7},{"attributes":{"POSITION":0,"TEXCOORD_0":1,"NORMAL":2,"TANGENT":3,"TEXCOORD_1":4,"JOINTS_0":5,"WEIGHTS_0":6},"indices":8}]},{"extras":{},"name":"weapons\\models\\xm1014\\weapon_shot_xm1014.vmdl_c.body_hd","primitives":[{"attributes":{"POSITION":9,"TEXCOORD_0":10,"NORMAL":11,"TANGENT":12,"TEXCOORD_1":13,"JOINTS_0":14,"WEIGHTS_0":15},"indices":16}]}],"nodes":[{"name":"weapons\\models\\xm1014\\weapon_shot_xm1014.vmdl_c.body_legacy","matrix":[3.027916E-09,0,0.025399996,0,0.025399996,3.027916E-09,0,0,0,0.025399996,3.027916E-09,0,0,0,0,1],"mesh":0},{"name":"weapons\\models\\xm1014\\weapon_shot_xm1014.vmdl_c.body_hd","matrix":[3.027916E-09,0,0.025399996,0,0.025399996,3.027916E-09,0,0,0,0.025399996,3.027916E-09,0,0,0,0,1],"mesh":1}],"samplers":[{"magFilter":9729,"minFilter":9987}],"scenes":[{"name":"weapon_shot_xm1014.vmdl_c","nodes":[0,1]}]}