{
  "asset": {
    "copyright": "",
    "generator": "Source 2 Viewer 19.2.0.0 - https://valveresourceformat.github.io",
    "version": "2.0"
  },
  "accessors": [
    {
      "bufferView": 0,
      "componentType": 5126,
      "count": 22528,
      "max": [
        43.56620407104492,
        1.7107820510864258,
        12.729227066040039
      ],
      "min": [
        -10.23768138885498,
        -2.844208240509033,
        2.627065896987915
      ],
      "type": "VEC3"
    },
    {
      "bufferView": 1,
      "componentType": 5126,
      "count": 22528,
      "max": [
        1.9716796875,
        0.99560546875
      ],
      "min": [
        0.003173828125,
        0.00384521484375
      ],
      "type": "VEC2"
    },
    {
      "bufferView": 2,
      "componentType": 5126,
      "count": 22528,
      "max": [
        0.9999995231628418,
        0.9998885989189148,
        0.9999990463256836
      ],
      "min": [
        -0.9999995231628418,
        -0.9999995231628418,
        -1
      ],
      "type": "VEC3"
    },
    {
      "bufferView": 3,
      "componentType": 5126,
      "count": 22528,
      "type": "VEC4"
    },
    {
      "bufferView": 4,
      "componentType": 5126,
      "count": 22528,
      "max": [
        0.9736328125,
        0.2017822265625
      ],
      "min": [
        -2.00390625,
        0.018096923828125
      ],
      "type": "VEC2"
    },
    {
      "bufferView": 5,
      "componentType": 5123,
      "count": 22528,
      "type": "VEC4"
    },
    {
      "bufferView": 6,
      "componentType": 5126,
      "count": 22528,
      "type": "VEC4"
    },
    {
      "bufferView": 7,
      "componentType": 5125,
      "count": 65604,
      "type": "SCALAR"
    },
    {
      "bufferView": 8,
      "componentType": 5125,
      "count": 144,
      "type": "SCALAR"
    },
    {
      "bufferView": 9,
      "componentType": 5126,
      "count": 33783,
      "max": [
        42.64473342895508,
        1.6683465242385864,
        13.426980972290039
      ],
      "min": [
        -11.010603904724121,
        -2.7823214530944824,
        2.929696798324585
      ],
      "type": "VEC3"
    },
    {
      "bufferView": 10,
      "componentType": 5126,
      "count": 33783,
      "max": [
        0.9975585341453552,
        0.9975585341453552
      ],
      "min": [
        0.0021973326802253723,
        0.0015564439818263054
      ],
      "type": "VEC2"
    },
    {
      "bufferView": 11,
      "componentType": 5126,
      "count": 33783,
      "max": [
        0.9999995231628418,
        0.9999995231628418,
        0.9999990463256836
      ],
      "min": [
        -0.9999995231628418,
        -0.9999995231628418,
        -1
      ],
      "type": "VEC3"
    },
    {
      "bufferView": 12,
      "componentType": 5126,
      "count": 33783,
      "type": "VEC4"
    },
    {
      "bufferView": 13,
      "componentType": 5126,
      "count": 33783,
      "max": [
        0.9873046875,
        0.20263671875
      ],
      "min": [
        -1.9873046875,
        0.01184844970703125
      ],
      "type": "VEC2"
    },
    {
      "bufferView": 14,
      "componentType": 5123,
      "count": 33783,
      "type": "VEC4"
    },
    {
      "bufferView": 15,
      "componentType": 5126,
      "count": 33783,
      "type": "VEC4"
    },
    {
      "bufferView": 16,
      "componentType": 5125,
      "count": 119292,
      "type": "SCALAR"
    }
  ],
  "bufferViews": [
    {
      "buffer": 0,
      "byteLength": 270336,
      "byteOffset": 3089912,
      "target": 34962
    },
    {
      "buffer": 0,
      "byteLength": 180224,
      "byteOffset": 4703792,
      "target": 34962
    },
    {
      "buffer": 0,
      "byteLength": 270336,
      "byteOffset": 3360248,
      "target": 34962
    },
    {
      "buffer": 0,
      "byteLength": 360448,
      "byteOffset": 2369016,
      "target": 34962
    },
    {
      "buffer": 0,
      "byteLength": 180224,
      "byteOffset": 4884016,
      "target": 34962
    },
    {
      "buffer": 0,
      "byteLength": 180224,
      "byteOffset": 5064240,
      "byteStride": 8,
      "target": 34962
    },
    {
      "buffer": 0,
      "byteLength": 360448,
      "byteOffset": 2729464,
      "target": 34962
    },
    {
      "buffer": 0,
      "byteLength": 262416,
      "byteOffset": 4441376,
      "target": 34963
    },
    {
      "buffer": 0,
      "byteLength": 576,
      "byteOffset": 5244464,
      "target": 34963
    },
    {
      "buffer": 0,
      "byteLength": 405396,
      "byteOffset": 1558224,
      "target": 34962
    },
    {
      "buffer": 0,
      "byteLength": 270264,
      "byteOffset": 3630584,
      "target": 34962
    },
    {
      "buffer": 0,
      "byteLength": 405396,
      "byteOffset": 1963620,
      "target": 34962
    },
    {
      "buffer": 0,
      "byteLength": 540528,
      "target": 34962
    },
    {
      "buffer": 0,
      "byteLength": 270264,
      "byteOffset": 3900848,
      "target": 34962
    },
    {
      "buffer": 0,
      "byteLength": 270264,
      "byteOffset": 4171112,
      "byteStride": 8,
      "target": 34962
    },
    {
      "buffer": 0,
      "byteLength": 540528,
      "byteOffset": 540528,
      "target": 34962
    },
    {
      "buffer": 0,
      "byteLength": 477168,
      "byteOffset": 1081056,
      "target": 34963
    }
  ],
  "buffers": [
    {
      "byteLength": 5245040,
      "uri": "weapon_snip_awp.bin"
    }
  ],
  "materials": [
    {
      "extras": {
        "vmat": {
          "Name": "materials/models/weapons/v_models/snip_awp/awp.vmat",
          "ShaderName": "csgo_weapon.vfx",
          "IntParams": {
            "F_STICKERS": 1,
            "g_bEnableSticker0": 0,
            "g_bEnableSticker1": 0,
            "g_bEnableSticker2": 0,
            "g_bEnableSticker3": 0,
            "g_bEnableSticker4": 0,
            "g_bFogEnabled": 1,
            "g_nScaleTexCoordUByModelScaleAxis": 0,
            "g_nScaleTexCoordVByModelScaleAxis": 0,
            "g_nTextureAddressModeU": 0,
            "g_nTextureAddressModeV": 0
          },
          "FloatParams": {
            "g_flMetalnessTransitionBias": 2,
            "g_flModelTintAmount": 1,
            "g_flSticker0Rotation": 0,
            "g_flSticker0Wear": 0,
            "g_flSticker1Rotation": 0,
            "g_flSticker1Wear": 0,
            "g_flSticker2Rotation": 0,
            "g_flSticker2Wear": 0,
            "g_flSticker3Rotation": 0,
            "g_flSticker3Wear": 0,
            "g_flSticker4Rotation": 0,
            "g_flSticker4Wear": 0,
            "g_flTexCoordRotation": 0,
            "g_fWearScratchesSticker0": 1,
            "g_fWearScratchesSticker1": 1,
            "g_fWearScratchesSticker2": 1,
            "g_fWearScratchesSticker3": 1,
            "g_fWearScratchesSticker4": 1
          },
          "VectorParams": {
            "g_vColorTint": [
              1,
              1,
              1,
              0
            ],
            "g_vMetalnessRemapRange": [
              0,
              1,
              0,
              0
            ],
            "g_vSticker0Offset": [
              0.336,
              -0.372,
              0,
              0
            ],
            "g_vSticker0Scale": [
              22,
              22,
              0,
              0
            ],
            "g_vSticker1Offset": [
              0.168,
              -0.395,
              0,
              0
            ],
            "g_vSticker1Scale": [
              20,
              20,
              0,
              0
            ],
            "g_vSticker2Offset": [
              0.105,
              -0.385,
              0,
              0
            ],
            "g_vSticker2Scale": [
              22.8,
              22.8,
              0,
              0
            ],
            "g_vSticker3Offset": [
              0.041,
              -0.454,
              0,
              0
            ],
            "g_vSticker3Scale": [
              23.5,
              23.5,
              0,
              0
            ],
            "g_vSticker4Offset": [
              0,
              0,
              0,
              0
            ],
            "g_vSticker4Scale": [
              0,
              0,
              0,
              0
            ],
            "g_vTexCoordCenter": [
              0.5,
              0.5,
              0,
              0
            ],
            "g_vTexCoordOffset": [
              0,
              0,
              0,
              0
            ],
            "g_vTexCoordScale": [
              1,
              1,
              0,
              0
            ],
            "g_vTexCoordScrollSpeed": [
              0,
              0,
              0,
              0
            ],
            "g_vWearBiasSticker0": [
              1,
              1,
              0,
              0
            ],
            "g_vWearBiasSticker1": [
              1,
              1,
              0,
              0
            ],
            "g_vWearBiasSticker2": [
              1,
              1,
              0,
              0
            ],
            "g_vWearBiasSticker3": [
              1,
              1,
              0,
              0
            ],
            "g_vWearBiasSticker4": [
              1,
              1,
              0,
              0
            ]
          },
          "TextureParams": {
            "g_tAmbientOcclusion": "materials/models/weapons/v_models/snip_awp/awp_ao_psd_66d40823.vtex",
            "g_tColor": "materials/models/weapons/v_models/snip_awp/awp_substrate_color_psd_5f931239.vtex",
            "g_tGlitterNormalSticker0": "materials/default/stickers/squares_glitter_normal_tga_25145674.vtex",
            "g_tGlitterNormalSticker1": "materials/default/stickers/squares_glitter_normal_tga_25145674.vtex",
            "g_tGlitterNormalSticker2": "materials/default/stickers/squares_glitter_normal_tga_25145674.vtex",
            "g_tGlitterNormalSticker3": "materials/default/stickers/squares_glitter_normal_tga_25145674.vtex",
            "g_tGlitterNormalSticker4": "materials/default/stickers/squares_glitter_normal_tga_25145674.vtex",
            "g_tHoloSpectrumSticker0": "materials/default/stickers/default_holospectrum_tga_e12c79bd.vtex",
            "g_tHoloSpectrumSticker1": "materials/default/stickers/default_holospectrum_tga_e12c79bd.vtex",
            "g_tHoloSpectrumSticker2": "materials/default/stickers/default_holospectrum_tga_e12c79bd.vtex",
            "g_tHoloSpectrumSticker3": "materials/default/stickers/default_holospectrum_tga_e12c79bd.vtex",
            "g_tHoloSpectrumSticker4": "materials/default/stickers/default_holospectrum_tga_e12c79bd.vtex",
            "g_tMetalness": "materials/models/weapons/v_models/snip_awp/awp_rough_psd_f317ee9.vtex",
            "g_tNormal": "materials/default/default_normal_tga_4fc2d3dd.vtex",
            "g_tNormalRoughnessSticker0": "materials/default/default_normal_tga_4c6e7391.vtex",
            "g_tNormalRoughnessSticker1": "materials/default/default_normal_tga_4c6e7391.vtex",
            "g_tNormalRoughnessSticker2": "materials/default/default_normal_tga_4c6e7391.vtex",
            "g_tNormalRoughnessSticker3": "materials/default/default_normal_tga_4c6e7391.vtex",
            "g_tNormalRoughnessSticker4": "materials/default/default_normal_tga_4c6e7391.vtex",
            "g_tSfxMaskSticker0": "materials/default/stickers/default_holomask_tga_daef1ed1.vtex",
            "g_tSfxMaskSticker1": "materials/default/stickers/default_holomask_tga_daef1ed1.vtex",
            "g_tSfxMaskSticker2": "materials/default/stickers/default_holomask_tga_daef1ed1.vtex",
            "g_tSfxMaskSticker3": "materials/default/stickers/default_holomask_tga_daef1ed1.vtex",
            "g_tSfxMaskSticker4": "materials/default/stickers/default_holomask_tga_daef1ed1.vtex",
            "g_tSticker0": "materials/default/stickers/sticker_default_psd_7f7731d3.vtex",
            "g_tSticker1": "materials/default/stickers/sticker_default_psd_7f7731d3.vtex",
            "g_tSticker2": "materials/default/stickers/sticker_default_psd_7f7731d3.vtex",
            "g_tSticker3": "materials/default/stickers/sticker_default_psd_7f7731d3.vtex",
            "g_tSticker4": "materials/default/stickers/sticker_default_psd_7f7731d3.vtex",
            "g_tStickerScratches": "materials/default/stickers/sticker_default_scratches_psd_a9ad199b.vtex",
            "g_tStickerWepInputs": "weapons/models/awp/materials/stickers/weapon_snip_awp_sticker_mask_legacy_tga_77f1a5d1.vtex"
          }
        }
      },
      "name": "awp"
    },
    {
      "extras": {
        "vmat": {
          "Name": "weapons/models/shared/materials/scope/shared_scope.vmat",
          "ShaderName": "csgo_weapon.vfx",
          "IntParams": {
            "g_bFogEnabled": 1,
            "g_nScaleTexCoordUByModelScaleAxis": 0,
            "g_nScaleTexCoordVByModelScaleAxis": 0,
            "g_nTextureAddressModeU": 0,
            "g_nTextureAddressModeV": 0
          },
          "FloatParams": {
            "g_flMetalnessTransitionBias": 2,
            "g_flModelTintAmount": 1,
            "g_flTexCoordRotation": 0
          },
          "VectorParams": {
            "g_vColorTint": [
              1,
              1,
              1,
              0
            ],
            "g_vMetalnessRemapRange": [
              0,
              1,
              0,
              0
            ],
            "g_vTexCoordCenter": [
              0.5,
              0.5,
              0,
              0
            ],
            "g_vTexCoordOffset": [
              0,
              0,
              0,
              0
            ],
            "g_vTexCoordScale": [
              1,
              1,
              0,
              0
            ],
            "g_vTexCoordScrollSpeed": [
              0,
              0,
              0,
              0
            ],
            "TextureColor1": [
              0.290196,
              0.290196,
              0.290196,
              1
            ],
            "TextureMetalness1": [
              1,
              1,
              1,
              0
            ],
            "TextureRoughness1": [
              0.27451,
              0.27451,
              0.27451,
              1
            ]
          },
          "TextureParams": {
            "g_tAmbientOcclusion": "weapons/models/shared/materials/scope/shared_scope_ao_psd_60406729.vtex",
            "g_tColor": "weapons/models/shared/materials/scope/shared_scope_vmat_g_tcolor_b1605615.vtex",
            "g_tMetalness": "weapons/models/shared/materials/scope/shared_scope_vmat_g_tmetalness_b51739c.vtex",
            "g_tNormal": "weapons/models/shared/materials/scope/shared_scope_normal_psd_85f00f27.vtex"
          }
        }
      },
      "name": "shared_scope"
    },
    {
      "extras": {
        "vmat": {
          "Name": "weapons/models/awp/materials/weapon_snip_awp.vmat",
          "ShaderName": "csgo_weapon.vfx",
          "IntParams": {
            "F_STICKERS": 1,
            "g_bEnableSticker0": 0,
            "g_bEnableSticker1": 0,
            "g_bEnableSticker2": 0,
            "g_bEnableSticker3": 0,
            "g_bEnableSticker4": 0,
            "g_bFogEnabled": 1,
            "g_nScaleTexCoordUByModelScaleAxis": 0,
            "g_nScaleTexCoordVByModelScaleAxis": 0,
            "g_nTextureAddressModeU": 0,
            "g_nTextureAddressModeV": 0
          },
          "FloatParams": {
            "g_flMetalnessTransitionBias": 2,
            "g_flModelTintAmount": 1,
            "g_flSticker0Rotation": 0,
            "g_flSticker0Wear": 0,
            "g_flSticker1Rotation": 0,
            "g_flSticker1Wear": 0,
            "g_flSticker2Rotation": 0,
            "g_flSticker2Wear": 0,
            "g_flSticker3Rotation": 0,
            "g_flSticker3Wear": 0,
            "g_flSticker4Rotation": 0,
            "g_flSticker4Wear": 0,
            "g_flTexCoordRotation": 0
          },
          "VectorParams": {
            "g_vColorTint": [
              1,
              1,
              1,
              0
            ],
            "g_vMetalnessRemapRange": [
              0,
              1,
              0,
              0
            ],
            "g_vSticker0Offset": [
              0.337,
              -0.368,
              0,
              0
            ],
            "g_vSticker0Scale": [
              19.643,
              19.643,
              0,
              0
            ],
            "g_vSticker1Offset": [
              0.176,
              -0.394,
              0,
              0
            ],
            "g_vSticker1Scale": [
              19.643,
              19.643,
              0,
              0
            ],
            "g_vSticker2Offset": [
              0.106,
              -0.387,
              0,
              0
            ],
            "g_vSticker2Scale": [
              19.643,
              19.643,
              0,
              0
            ],
            "g_vSticker3Offset": [
              0.035,
              -0.454,
              0,
              0
            ],
            "g_vSticker3Scale": [
              20,
              20,
              0,
              0
            ],
            "g_vSticker4Offset": [
              0,
              0,
              0,
              0
            ],
            "g_vSticker4Scale": [
              0,
              0,
              0,
              0
            ],
            "g_vTexCoordCenter": [
              0.5,
              0.5,
              0,
              0
            ],
            "g_vTexCoordOffset": [
              0,
              0,
              0,
              0
            ],
            "g_vTexCoordScale": [
              1,
              1,
              0,
              0
            ],
            "g_vTexCoordScrollSpeed": [
              0,
              0,
              0,
              0
            ]
          },
          "TextureParams": {
            "g_tAmbientOcclusion": "weapons/models/awp/materials/awp_default_ao_png_38865673.vtex",
            "g_tColor": "weapons/models/awp/materials/awp_default_color_psd_2bf6ba1e.vtex",
            "g_tGlitterNormalSticker0": "materials/default/stickers/squares_glitter_normal_tga_25145674.vtex",
            "g_tGlitterNormalSticker1": "materials/default/stickers/squares_glitter_normal_tga_25145674.vtex",
            "g_tGlitterNormalSticker2": "materials/default/stickers/squares_glitter_normal_tga_25145674.vtex",
            "g_tGlitterNormalSticker3": "materials/default/stickers/squares_glitter_normal_tga_25145674.vtex",
            "g_tGlitterNormalSticker4": "materials/default/stickers/squares_glitter_normal_tga_25145674.vtex",
            "g_tHoloSpectrumSticker0": "materials/default/stickers/default_holospectrum_tga_e12c79bd.vtex",
            "g_tHoloSpectrumSticker1": "materials/default/stickers/default_holospectrum_tga_e12c79bd.vtex",
            "g_tHoloSpectrumSticker2": "materials/default/stickers/default_holospectrum_tga_e12c79bd.vtex",
            "g_tHoloSpectrumSticker3": "materials/default/stickers/default_holospectrum_tga_e12c79bd.vtex",
            "g_tHoloSpectrumSticker4": "materials/default/stickers/default_holospectrum_tga_e12c79bd.vtex",
            "g_tMetalness": "weapons/models/awp/materials/awp_default_rough_psd_4e233c92.vtex",
            "g_tNormal": "weapons/models/awp/materials/awp_default_normal_png_e882fc00.vtex",
            "g_tNormalRoughnessSticker0": "materials/default/default_normal_tga_b59982b.vtex",
            "g_tNormalRoughnessSticker1": "materials/default/default_normal_tga_b59982b.vtex",
            "g_tNormalRoughnessSticker2": "materials/default/default_normal_tga_b59982b.vtex",
            "g_tNormalRoughnessSticker3": "materials/default/default_normal_tga_b59982b.vtex",
            "g_tNormalRoughnessSticker4": "materials/default/default_normal_tga_b59982b.vtex",
            "g_tSfxMaskSticker0": "materials/default/stickers/default_holomask_tga_daef1ed1.vtex",
            "g_tSfxMaskSticker1": "materials/default/stickers/default_holomask_tga_daef1ed1.vtex",
            "g_tSfxMaskSticker2": "materials/default/stickers/default_holomask_tga_daef1ed1.vtex",
            "g_tSfxMaskSticker3": "materials/default/stickers/default_holomask_tga_daef1ed1.vtex",
            "g_tSfxMaskSticker4": "materials/default/stickers/default_holomask_tga_daef1ed1.vtex",
            "g_tSticker0": "materials/default/stickers/sticker_default_psd_7f7731d3.vtex",
            "g_tSticker1": "materials/default/stickers/sticker_default_psd_7f7731d3.vtex",
            "g_tSticker2": "materials/default/stickers/sticker_default_psd_7f7731d3.vtex",
            "g_tSticker3": "materials/default/stickers/sticker_default_psd_7f7731d3.vtex",
            "g_tSticker4": "materials/default/stickers/sticker_default_psd_7f7731d3.vtex",
            "g_tStickerScratches": "materials/default/stickers/sticker_default_scratches_psd_a9ad199b.vtex",
            "g_tStickerWepInputs": "weapons/models/awp/materials/stickers/weapon_snip_awp_sticker_mask_hd_tga_c4b549a5.vtex"
          }
        }
      },
      "name": "weapon_snip_awp"
    }
  ],
  "meshes": [
    {
      "extras": {},
      "name": "weapons\\models\\awp\\weapon_snip_awp.vmdl_c.body_legacy",
      "primitives": [
        {
          "attributes": {
            "POSITION": 0,
            "TEXCOORD_0": 1,
            "NORMAL": 2,
            "TANGENT": 3,
            "TEXCOORD_1": 4,
            "JOINTS_0": 5,
            "WEIGHTS_0": 6
          },
          "indices": 7,
          "material": 0
        },
        {
          "attributes": {
            "POSITION": 0,
            "TEXCOORD_0": 1,
            "NORMAL": 2,
            "TANGENT": 3,
            "TEXCOORD_1": 4,
            "JOINTS_0": 5,
            "WEIGHTS_0": 6
          },
          "indices": 8,
          "material": 1
        }
      ]
    },
    {
      "extras": {},
      "name": "weapons\\models\\awp\\weapon_snip_awp.vmdl_c.body_hd",
      "primitives": [
        {
          "attributes": {
            "POSITION": 9,
            "TEXCOORD_0": 10,
            "NORMAL": 11,
            "TANGENT": 12,
            "TEXCOORD_1": 13,
            "JOINTS_0": 14,
            "WEIGHTS_0": 15
          },
          "indices": 16,
          "material": 2
        }
      ]
    }
  ],
  "nodes": [
    {
      "name": "weapons\\models\\awp\\weapon_snip_awp.vmdl_c.body_legacy",
      "matrix": [
        3.027916e-09,
        0,
        0.025399996,
        0,
        0.025399996,
        3.027916e-09,
        0,
        0,
        0,
        0.025399996,
        3.027916e-09,
        0,
        0,
        0,
        0,
        1
      ],
      "mesh": 0
    },
    {
      "name": "weapons\\models\\awp\\weapon_snip_awp.vmdl_c.body_hd",
      "matrix": [
        3.027916e-09,
        0,
        0.025399996,
        0,
        0.025399996,
        3.027916e-09,
        0,
        0,
        0,
        0.025399996,
        3.027916e-09,
        0,
        0,
        0,
        0,
        1
      ],
      "mesh": 1
    }
  ],
  "scenes": [
    {
      "name": "weapon_snip_awp.vmdl_c",
      "nodes": [
        0,
        1
      ]
    }
  ],
  "extensionsUsed": [],
  "images": [],
  "textures": []
}