{
  "asset": {
    "copyright": "",
    "generator": "Source 2 Viewer 19.2.0.0 - https://valveresourceformat.github.io",
    "version": "2.0"
  },
  "accessors": [
    {
      "bufferView": 0,
      "componentType": 5126,
      "count": 14356,
      "max": [
        5.017763614654541,
        3.7241337299346924,
        1.7036700248718262
      ],
      "min": [
        -5.524259567260742,
        -3.728909492492676,
        -1.570572018623352
      ],
      "type": "VEC3"
    },
    {
      "bufferView": 1,
      "componentType": 5126,
      "count": 14356,
      "max": [
        0.9956053495407104,
        0.9956053495407104
      ],
      "min": [
        0.003479110077023506,
        0.0033570360392332077
      ],
      "type": "VEC2"
    },
    {
      "bufferView": 2,
      "componentType": 5126,
      "count": 14356,
      "max": [
        0.9999995231628418,
        0.9999995231628418,
        0.9999990463256836
      ],
      "min": [
        -0.9999995231628418,
        -0.9999995231628418,
        -1
      ],
      "type": "VEC3"
    },
    {
      "bufferView": 3,
      "componentType": 5126,
      "count": 14356,
      "type": "VEC4"
    },
    {
      "bufferView": 4,
      "componentType": 5126,
      "count": 14356,
      "max": [
        0,
        0
      ],
      "min": [
        0,
        0
      ],
      "type": "VEC2"
    },
    {
      "bufferView": 5,
      "componentType": 5123,
      "count": 14356,
      "type": "VEC4"
    },
    {
      "bufferView": 6,
      "componentType": 5126,
      "count": 14356,
      "type": "VEC4"
    },
    {
      "bufferView": 7,
      "componentType": 5125,
      "count": 53805,
      "type": "SCALAR"
    },
    {
      "bufferView": 8,
      "componentType": 5126,
      "count": 12,
      "max": [
        2.710073232650757,
        1.2748922109603882,
        1.075779914855957
      ],
      "min": [
        1.9656635522842407,
        -2.2335762977600098,
        1.0757795572280884
      ],
      "type": "VEC3"
    },
    {
      "bufferView": 9,
      "componentType": 5126,
      "count": 12,
      "max": [
        0.3152562081813812,
        1
      ],
      "min": [
        0,
        0.0038453321903944016
      ],
      "type": "VEC2"
    },
    {
      "bufferView": 10,
      "componentType": 5126,
      "count": 12,
      "max": [
        0.000979430042207241,
        0.000979430042207241,
        0.9999990463256836
      ],
      "min": [
        -0.000979430042207241,
        -0.000979430042207241,
        0.9999990463256836
      ],
      "type": "VEC3"
    },
    {
      "bufferView": 11,
      "componentType": 5126,
      "count": 12,
      "type": "VEC4"
    },
    {
      "bufferView": 12,
      "componentType": 5123,
      "count": 12,
      "type": "VEC4"
    },
    {
      "bufferView": 13,
      "componentType": 5126,
      "count": 12,
      "type": "VEC4"
    },
    {
      "bufferView": 14,
      "componentType": 5125,
      "count": 30,
      "type": "SCALAR"
    }
  ],
  "bufferViews": [
    {
      "buffer": 0,
      "byteLength": 172272,
      "byteOffset": 674612,
      "target": 34962
    },
    {
      "buffer": 0,
      "byteLength": 114848,
      "byteOffset": 1019156,
      "target": 34962
    },
    {
      "buffer": 0,
      "byteLength": 172272,
      "byteOffset": 846884,
      "target": 34962
    },
    {
      "buffer": 0,
      "byteLength": 229696,
      "target": 34962
    },
    {
      "buffer": 0,
      "byteLength": 114848,
      "byteOffset": 1134004,
      "target": 34962
    },
    {
      "buffer": 0,
      "byteLength": 114848,
      "byteOffset": 1248852,
      "byteStride": 8,
      "target": 34962
    },
    {
      "buffer": 0,
      "byteLength": 229696,
      "byteOffset": 229696,
      "target": 34962
    },
    {
      "buffer": 0,
      "byteLength": 215220,
      "byteOffset": 459392,
      "target": 34963
    },
    {
      "buffer": 0,
      "byteLength": 144,
      "byteOffset": 1364084,
      "target": 34962
    },
    {
      "buffer": 0,
      "byteLength": 96,
      "byteOffset": 1364492,
      "target": 34962
    },
    {
      "buffer": 0,
      "byteLength": 144,
      "byteOffset": 1364228,
      "target": 34962
    },
    {
      "buffer": 0,
      "byteLength": 192,
      "byteOffset": 1363700,
      "target": 34962
    },
    {
      "buffer": 0,
      "byteLength": 96,
      "byteOffset": 1364588,
      "byteStride": 8,
      "target": 34962
    },
    {
      "buffer": 0,
      "byteLength": 192,
      "byteOffset": 1363892,
      "target": 34962
    },
    {
      "buffer": 0,
      "byteLength": 120,
      "byteOffset": 1364372,
      "target": 34963
    }
  ],
  "buffers": [
    {
      "byteLength": 1364684,
      "uri": "weapon_c4.bin"
    }
  ],
  "materials": [
    {
      "extras": {
        "vmat": {
          "Name": "weapons/models/c4/materials/weapon_c4.vmat",
          "ShaderName": "csgo_weapon.vfx",
          "IntParams": {
            "F_SELF_ILLUM": 1,
            "g_bFogEnabled": 1,
            "g_nScaleTexCoordUByModelScaleAxis": 0,
            "g_nScaleTexCoordVByModelScaleAxis": 0,
            "g_nTextureAddressModeU": 0,
            "g_nTextureAddressModeV": 0
          },
          "FloatParams": {
            "g_flMetalnessTransitionBias": 2,
            "g_flModelTintAmount": 1,
            "g_flSelfIllumAlbedoFactor": 1,
            "g_flSelfIllumBrightness": 0,
            "g_flSelfIllumScale": 0,
            "g_flTexCoordRotation": 0
          },
          "VectorParams": {
            "g_vColorTint": [
              1,
              1,
              1,
              0
            ],
            "g_vMetalnessRemapRange": [
              0,
              1,
              0,
              0
            ],
            "g_vSelfIllumScrollSpeed": [
              0,
              0,
              0,
              0
            ],
            "g_vSelfIllumTint": [
              1,
              1,
              1,
              0
            ],
            "g_vTexCoordCenter": [
              0.5,
              0.5,
              0,
              0
            ],
            "g_vTexCoordOffset": [
              0,
              0,
              0,
              0
            ],
            "g_vTexCoordScale": [
              1,
              1,
              0,
              0
            ],
            "g_vTexCoordScrollSpeed": [
              0,
              0,
              0,
              0
            ]
          },
          "TextureParams": {
            "g_tAmbientOcclusion": "weapons/models/c4/materials/c4_ao_tga_bb64a00d.vtex",
            "g_tColor": "weapons/models/c4/materials/c4_color_psd_75da6dec.vtex",
            "g_tMetalness": "weapons/models/c4/materials/c4_rough_tga_53c5f087.vtex",
            "g_tNormal": "weapons/models/c4/materials/c4_normal_tga_4e48d437.vtex",
            "g_tSelfIllumMask": "weapons/models/c4/materials/c4_led_selfillum_psd_d8363a2a.vtex"
          }
        }
      },
      "name": "weapon_c4"
    },
    {
      "extras": {
        "vmat": {
          "Name": "weapons/models/c4/materials/weapon_c4_digits.vmat",
          "ShaderName": "csgo_weapon.vfx",
          "IntParams": {
            "g_bFogEnabled": 1,
            "g_nScaleTexCoordUByModelScaleAxis": 0,
            "g_nScaleTexCoordVByModelScaleAxis": 0,
            "g_nTextureAddressModeU": 0,
            "g_nTextureAddressModeV": 0
          },
          "FloatParams": {
            "g_flMetalnessTransitionBias": 2,
            "g_flModelTintAmount": 1,
            "g_flTexCoordRotation": 0
          },
          "VectorParams": {
            "g_vColorTint": [
              1,
              1,
              1,
              0
            ],
            "g_vMetalnessRemapRange": [
              0,
              1,
              0,
              0
            ],
            "g_vTexCoordCenter": [
              0.5,
              0.5,
              0,
              0
            ],
            "g_vTexCoordOffset": [
              0,
              0,
              0,
              0
            ],
            "g_vTexCoordScale": [
              1,
              1,
              0,
              0
            ],
            "g_vTexCoordScrollSpeed": [
              0,
              0,
              0,
              0
            ],
            "TextureRoughness1": [
              0.12549,
              0.12549,
              0.12549,
              0
            ]
          },
          "TextureParams": {
            "g_tAmbientOcclusion": "materials/default/default_ao_tga_559f1ac6.vtex",
            "g_tColor": "weapons/models/c4/materials/c4_digits_psd_52746c2d.vtex",
            "g_tMetalness": "weapons/models/c4/materials/weapon_c4_digits_vmat_g_tmetalness_5818ca09.vtex",
            "g_tNormal": "materials/default/default_normal_tga_4fc2d3dd.vtex"
          }
        }
      },
      "name": "weapon_c4_digits"
    }
  ],
  "meshes": [
    {
      "extras": {},
      "name": "weapons\\models\\c4\\weapon_c4.vmdl_c.body_hd",
      "primitives": [
        {
          "attributes": {
            "POSITION": 0,
            "TEXCOORD_0": 1,
            "NORMAL": 2,
            "TANGENT": 3,
            "TEXCOORD_1": 4,
            "JOINTS_0": 5,
            "WEIGHTS_0": 6
          },
          "indices": 7,
          "material": 0
        }
      ]
    },
    {
      "extras": {},
      "name": "weapons\\models\\c4\\weapon_c4.vmdl_c.c4_screen",
      "primitives": [
        {
          "attributes": {
            "POSITION": 8,
            "TEXCOORD_0": 9,
            "NORMAL": 10,
            "TANGENT": 11,
            "JOINTS_0": 12,
            "WEIGHTS_0": 13
          },
          "indices": 14,
          "material": 1
        }
      ]
    }
  ],
  "nodes": [
    {
      "name": "weapons\\models\\c4\\weapon_c4.vmdl_c.body_hd",
      "matrix": [
        3.027916e-09,
        0,
        0.025399996,
        0,
        0.025399996,
        3.027916e-09,
        0,
        0,
        0,
        0.025399996,
        3.027916e-09,
        0,
        0,
        0,
        0,
        1
      ],
      "mesh": 0
    },
    {
      "name": "weapons\\models\\c4\\weapon_c4.vmdl_c.c4_screen",
      "matrix": [
        3.027916e-09,
        0,
        0.025399996,
        0,
        0.025399996,
        3.027916e-09,
        0,
        0,
        0,
        0.025399996,
        3.027916e-09,
        0,
        0,
        0,
        0,
        1
      ],
      "mesh": 1
    }
  ],
  "scenes": [
    {
      "name": "weapon_c4.vmdl_c",
      "nodes": [
        0,
        1
      ]
    }
  ],
  "extensionsUsed": [],
  "images": [],
  "textures": []
}