{
  "asset": {
    "copyright": "",
    "generator": "Source 2 Viewer 19.2.0.0 - https://valveresourceformat.github.io",
    "version": "2.0"
  },
  "accessors": [
    {
      "bufferView": 0,
      "componentType": 5126,
      "count": 17730,
      "max": [
        14.665926933288574,
        0.960907518863678,
        5.041165351867676
      ],
      "min": [
        -1.9637519121170044,
        -0.9609087109565735,
        -2.0421571731567383
      ],
      "type": "VEC3"
    },
    {
      "bufferView": 1,
      "componentType": 5126,
      "count": 17730,
      "max": [
        1,
        0.9967650175094604
      ],
      "min": [
        0.0032044434919953346,
        0.0025940733030438423
      ],
      "type": "VEC2"
    },
    {
      "bufferView": 2,
      "componentType": 5126,
      "count": 17730,
      "max": [
        0.9999995231628418,
        0.9999995231628418,
        0.9999990463256836
      ],
      "min": [
        -0.9999995231628418,
        -0.9999995231628418,
        -1
      ],
      "type": "VEC3"
    },
    {
      "bufferView": 3,
      "componentType": 5126,
      "count": 17730,
      "type": "VEC4"
    },
    {
      "bufferView": 4,
      "componentType": 5126,
      "count": 17730,
      "max": [
        0.9375,
        0.78564453125
      ],
      "min": [
        -1.9296875,
        0.0513916015625
      ],
      "type": "VEC2"
    },
    {
      "bufferView": 5,
      "componentType": 5123,
      "count": 17730,
      "type": "VEC4"
    },
    {
      "bufferView": 6,
      "componentType": 5126,
      "count": 17730,
      "type": "VEC4"
    },
    {
      "bufferView": 7,
      "componentType": 5125,
      "count": 36285,
      "type": "SCALAR"
    },
    {
      "bufferView": 8,
      "componentType": 5125,
      "count": 21960,
      "type": "SCALAR"
    },
    {
      "bufferView": 9,
      "componentType": 5126,
      "count": 21687,
      "max": [
        14.665926933288574,
        0.9824056029319763,
        5.117220878601074
      ],
      "min": [
        -1.7530653476715088,
        -0.9758942723274231,
        -2.0506672859191895
      ],
      "type": "VEC3"
    },
    {
      "bufferView": 10,
      "componentType": 5126,
      "count": 21687,
      "max": [
        0.9967039823532104,
        0.9967650175094604
      ],
      "min": [
        0.0032044434919953346,
        0.0032044434919953346
      ],
      "type": "VEC2"
    },
    {
      "bufferView": 11,
      "componentType": 5126,
      "count": 21687,
      "max": [
        0.9999995231628418,
        0.9999995231628418,
        0.9999990463256836
      ],
      "min": [
        -0.9999995231628418,
        -0.9999995231628418,
        -1
      ],
      "type": "VEC3"
    },
    {
      "bufferView": 12,
      "componentType": 5126,
      "count": 21687,
      "type": "VEC4"
    },
    {
      "bufferView": 13,
      "componentType": 5126,
      "count": 21687,
      "max": [
        0.9248046875,
        0.86669921875
      ],
      "min": [
        -1.9287109375,
        0.041046142578125
      ],
      "type": "VEC2"
    },
    {
      "bufferView": 14,
      "componentType": 5123,
      "count": 21687,
      "type": "VEC4"
    },
    {
      "bufferView": 15,
      "componentType": 5126,
      "count": 21687,
      "type": "VEC4"
    },
    {
      "bufferView": 16,
      "componentType": 5125,
      "count": 75108,
      "type": "SCALAR"
    }
  ],
  "bufferViews": [
    {
      "buffer": 0,
      "byteLength": 212760,
      "byteOffset": 2082264,
      "target": 34962
    },
    {
      "buffer": 0,
      "byteLength": 141840,
      "byteOffset": 3173412,
      "target": 34962
    },
    {
      "buffer": 0,
      "byteLength": 212760,
      "byteOffset": 2295024,
      "target": 34962
    },
    {
      "buffer": 0,
      "byteLength": 283680,
      "byteOffset": 994416,
      "target": 34962
    },
    {
      "buffer": 0,
      "byteLength": 141840,
      "byteOffset": 3315252,
      "target": 34962
    },
    {
      "buffer": 0,
      "byteLength": 141840,
      "byteOffset": 3457092,
      "byteStride": 8,
      "target": 34962
    },
    {
      "buffer": 0,
      "byteLength": 283680,
      "byteOffset": 1278096,
      "target": 34962
    },
    {
      "buffer": 0,
      "byteLength": 145140,
      "byteOffset": 3028272,
      "target": 34963
    },
    {
      "buffer": 0,
      "byteLength": 87840,
      "byteOffset": 3598932,
      "target": 34963
    },
    {
      "buffer": 0,
      "byteLength": 260244,
      "byteOffset": 1561776,
      "target": 34962
    },
    {
      "buffer": 0,
      "byteLength": 173496,
      "byteOffset": 2507784,
      "target": 34962
    },
    {
      "buffer": 0,
      "byteLength": 260244,
      "byteOffset": 1822020,
      "target": 34962
    },
    {
      "buffer": 0,
      "byteLength": 346992,
      "target": 34962
    },
    {
      "buffer": 0,
      "byteLength": 173496,
      "byteOffset": 2681280,
      "target": 34962
    },
    {
      "buffer": 0,
      "byteLength": 173496,
      "byteOffset": 2854776,
      "byteStride": 8,
      "target": 34962
    },
    {
      "buffer": 0,
      "byteLength": 346992,
      "byteOffset": 346992,
      "target": 34962
    },
    {
      "buffer": 0,
      "byteLength": 300432,
      "byteOffset": 693984,
      "target": 34963
    }
  ],
  "buffers": [
    {
      "byteLength": 3686772,
      "uri": "weapon_pist_revolver.bin"
    }
  ],
  "materials": [
    {
      "extras": {
        "vmat": {
          "Name": "materials/models/weapons/v_models/pist_revolver/pist_revolver.vmat",
          "ShaderName": "csgo_weapon.vfx",
          "IntParams": {
            "F_STICKERS": 1,
            "g_bEnableSticker0": 0,
            "g_bEnableSticker1": 0,
            "g_bEnableSticker2": 0,
            "g_bEnableSticker3": 0,
            "g_bEnableSticker4": 0,
            "g_bFogEnabled": 1,
            "g_nScaleTexCoordUByModelScaleAxis": 0,
            "g_nScaleTexCoordVByModelScaleAxis": 0,
            "g_nTextureAddressModeU": 0,
            "g_nTextureAddressModeV": 0
          },
          "FloatParams": {
            "g_flMetalnessTransitionBias": 2,
            "g_flModelTintAmount": 1,
            "g_flSticker0Rotation": 0,
            "g_flSticker0Wear": 0,
            "g_flSticker1Rotation": 0,
            "g_flSticker1Wear": 0,
            "g_flSticker2Rotation": 0,
            "g_flSticker2Wear": 0,
            "g_flSticker3Rotation": 0,
            "g_flSticker3Wear": 0,
            "g_flSticker4Rotation": 0,
            "g_flSticker4Wear": 0,
            "g_flTexCoordRotation": 0,
            "g_fWearScratchesSticker0": 1,
            "g_fWearScratchesSticker1": 1,
            "g_fWearScratchesSticker2": 1,
            "g_fWearScratchesSticker3": 1,
            "g_fWearScratchesSticker4": 1
          },
          "VectorParams": {
            "g_vColorTint": [
              1,
              1,
              1,
              0
            ],
            "g_vMetalnessRemapRange": [
              0,
              1,
              0,
              0
            ],
            "g_vSticker0Offset": [
              -0.359,
              -0.336,
              0,
              0
            ],
            "g_vSticker0Scale": [
              10.3,
              10.3,
              0,
              0
            ],
            "g_vSticker1Offset": [
              -0.179,
              -0.351,
              0,
              0
            ],
            "g_vSticker1Scale": [
              7.3,
              7.3,
              0,
              0
            ],
            "g_vSticker2Offset": [
              0.042,
              -0.318,
              0,
              0
            ],
            "g_vSticker2Scale": [
              7.9,
              7.9,
              0,
              0
            ],
            "g_vSticker3Offset": [
              0.22,
              -0.198,
              0,
              0
            ],
            "g_vSticker3Scale": [
              7.778,
              7.778,
              0,
              0
            ],
            "g_vSticker4Offset": [
              0.377,
              -0.397,
              0,
              0
            ],
            "g_vSticker4Scale": [
              7.778,
              7.778,
              0,
              0
            ],
            "g_vTexCoordCenter": [
              0.5,
              0.5,
              0,
              0
            ],
            "g_vTexCoordOffset": [
              0,
              0,
              0,
              0
            ],
            "g_vTexCoordScale": [
              1,
              1,
              0,
              0
            ],
            "g_vTexCoordScrollSpeed": [
              0,
              0,
              0,
              0
            ],
            "g_vWearBiasSticker0": [
              1,
              1,
              0,
              0
            ],
            "g_vWearBiasSticker1": [
              1,
              1,
              0,
              0
            ],
            "g_vWearBiasSticker2": [
              1,
              1,
              0,
              0
            ],
            "g_vWearBiasSticker3": [
              1,
              1,
              0,
              0
            ],
            "g_vWearBiasSticker4": [
              1,
              1,
              0,
              0
            ]
          },
          "TextureParams": {
            "g_tAmbientOcclusion": "materials/models/weapons/v_models/pist_revolver/pist_revolver_ao_psd_cb85fdca.vtex",
            "g_tColor": "materials/models/weapons/v_models/pist_revolver/pist_revolver_color_psd_8ca51642.vtex",
            "g_tGlitterNormalSticker0": "materials/default/stickers/squares_glitter_normal_tga_25145674.vtex",
            "g_tGlitterNormalSticker1": "materials/default/stickers/squares_glitter_normal_tga_25145674.vtex",
            "g_tGlitterNormalSticker2": "materials/default/stickers/squares_glitter_normal_tga_25145674.vtex",
            "g_tGlitterNormalSticker3": "materials/default/stickers/squares_glitter_normal_tga_25145674.vtex",
            "g_tGlitterNormalSticker4": "materials/default/stickers/squares_glitter_normal_tga_25145674.vtex",
            "g_tHoloSpectrumSticker0": "materials/default/stickers/default_holospectrum_tga_e12c79bd.vtex",
            "g_tHoloSpectrumSticker1": "materials/default/stickers/default_holospectrum_tga_e12c79bd.vtex",
            "g_tHoloSpectrumSticker2": "materials/default/stickers/default_holospectrum_tga_e12c79bd.vtex",
            "g_tHoloSpectrumSticker3": "materials/default/stickers/default_holospectrum_tga_e12c79bd.vtex",
            "g_tHoloSpectrumSticker4": "materials/default/stickers/default_holospectrum_tga_e12c79bd.vtex",
            "g_tMetalness": "materials/models/weapons/v_models/pist_revolver/pist_revolver_rough_psd_6cc61eee.vtex",
            "g_tNormal": "materials/models/weapons/v_models/pist_revolver/pist_revolver_normal_psd_1e72ebc8.vtex",
            "g_tNormalRoughnessSticker0": "materials/default/default_normal_tga_4c6e7391.vtex",
            "g_tNormalRoughnessSticker1": "materials/default/default_normal_tga_4c6e7391.vtex",
            "g_tNormalRoughnessSticker2": "materials/default/default_normal_tga_4c6e7391.vtex",
            "g_tNormalRoughnessSticker3": "materials/default/default_normal_tga_4c6e7391.vtex",
            "g_tNormalRoughnessSticker4": "materials/default/default_normal_tga_4c6e7391.vtex",
            "g_tSfxMaskSticker0": "materials/default/stickers/default_holomask_tga_daef1ed1.vtex",
            "g_tSfxMaskSticker1": "materials/default/stickers/default_holomask_tga_daef1ed1.vtex",
            "g_tSfxMaskSticker2": "materials/default/stickers/default_holomask_tga_daef1ed1.vtex",
            "g_tSfxMaskSticker3": "materials/default/stickers/default_holomask_tga_daef1ed1.vtex",
            "g_tSfxMaskSticker4": "materials/default/stickers/default_holomask_tga_daef1ed1.vtex",
            "g_tSticker0": "materials/default/stickers/sticker_default_psd_7f7731d3.vtex",
            "g_tSticker1": "materials/default/stickers/sticker_default_psd_7f7731d3.vtex",
            "g_tSticker2": "materials/default/stickers/sticker_default_psd_7f7731d3.vtex",
            "g_tSticker3": "materials/default/stickers/sticker_default_psd_7f7731d3.vtex",
            "g_tSticker4": "materials/default/stickers/sticker_default_psd_7f7731d3.vtex",
            "g_tStickerScratches": "materials/default/stickers/sticker_default_scratches_psd_a9ad199b.vtex",
            "g_tStickerWepInputs": "weapons/models/revolver/materials/stickers/weapon_pist_revolver_sticker_mask_legacy_tga_675d9be8.vtex"
          }
        }
      },
      "name": "pist_revolver"
    },
    {
      "extras": {
        "vmat": {
          "Name": "weapons/models/revolver/materials/weapon_pist_revolver.vmat",
          "ShaderName": "csgo_weapon.vfx",
          "IntParams": {
            "F_STICKERS": 1,
            "g_bEnableSticker0": 0,
            "g_bEnableSticker1": 0,
            "g_bEnableSticker2": 0,
            "g_bEnableSticker3": 0,
            "g_bEnableSticker4": 0,
            "g_bFogEnabled": 1,
            "g_nScaleTexCoordUByModelScaleAxis": 0,
            "g_nScaleTexCoordVByModelScaleAxis": 0,
            "g_nTextureAddressModeU": 0,
            "g_nTextureAddressModeV": 0
          },
          "FloatParams": {
            "g_flMetalnessTransitionBias": 2,
            "g_flModelTintAmount": 1,
            "g_flSticker0Rotation": 0,
            "g_flSticker0Wear": 0,
            "g_flSticker1Rotation": 0,
            "g_flSticker1Wear": 0,
            "g_flSticker2Rotation": 0,
            "g_flSticker2Wear": 0,
            "g_flSticker3Rotation": 0,
            "g_flSticker3Wear": 0,
            "g_flSticker4Rotation": 0,
            "g_flSticker4Wear": 0,
            "g_flTexCoordRotation": 0,
            "g_fWearScratchesSticker0": 1,
            "g_fWearScratchesSticker1": 1,
            "g_fWearScratchesSticker2": 1,
            "g_fWearScratchesSticker3": 1,
            "g_fWearScratchesSticker4": 1
          },
          "VectorParams": {
            "g_vColorTint": [
              1,
              1,
              1,
              0
            ],
            "g_vMetalnessRemapRange": [
              0,
              1,
              0,
              0
            ],
            "g_vSticker0Offset": [
              -0.35,
              -0.345,
              0,
              0
            ],
            "g_vSticker0Scale": [
              7.778,
              7.778,
              0,
              0
            ],
            "g_vSticker1Offset": [
              -0.168,
              -0.361,
              0,
              0
            ],
            "g_vSticker1Scale": [
              7.778,
              7.778,
              0,
              0
            ],
            "g_vSticker2Offset": [
              0.046,
              -0.318,
              0,
              0
            ],
            "g_vSticker2Scale": [
              7.778,
              7.778,
              0,
              0
            ],
            "g_vSticker3Offset": [
              0.219,
              -0.21,
              0,
              0
            ],
            "g_vSticker3Scale": [
              7.778,
              7.778,
              0,
              0
            ],
            "g_vSticker4Offset": [
              0.387,
              -0.399,
              0,
              0
            ],
            "g_vSticker4Scale": [
              7.778,
              7.778,
              0,
              0
            ],
            "g_vTexCoordCenter": [
              0.5,
              0.5,
              0,
              0
            ],
            "g_vTexCoordOffset": [
              0,
              0,
              0,
              0
            ],
            "g_vTexCoordScale": [
              1,
              1,
              0,
              0
            ],
            "g_vTexCoordScrollSpeed": [
              0,
              0,
              0,
              0
            ],
            "g_vWearBiasSticker0": [
              1,
              1,
              0,
              0
            ],
            "g_vWearBiasSticker1": [
              1,
              1,
              0,
              0
            ],
            "g_vWearBiasSticker2": [
              1,
              1,
              0,
              0
            ],
            "g_vWearBiasSticker3": [
              1,
              1,
              0,
              0
            ],
            "g_vWearBiasSticker4": [
              1,
              1,
              0,
              0
            ]
          },
          "TextureParams": {
            "g_tAmbientOcclusion": "weapons/models/revolver/materials/revolver_default_ao_tga_e0095109.vtex",
            "g_tColor": "weapons/models/revolver/materials/revolver_default_color_psd_78d0a6cf.vtex",
            "g_tGlitterNormalSticker0": "materials/default/stickers/squares_glitter_normal_tga_25145674.vtex",
            "g_tGlitterNormalSticker1": "materials/default/stickers/squares_glitter_normal_tga_25145674.vtex",
            "g_tGlitterNormalSticker2": "materials/default/stickers/squares_glitter_normal_tga_25145674.vtex",
            "g_tGlitterNormalSticker3": "materials/default/stickers/squares_glitter_normal_tga_25145674.vtex",
            "g_tGlitterNormalSticker4": "materials/default/stickers/squares_glitter_normal_tga_25145674.vtex",
            "g_tHoloSpectrumSticker0": "materials/default/stickers/default_holospectrum_tga_e12c79bd.vtex",
            "g_tHoloSpectrumSticker1": "materials/default/stickers/default_holospectrum_tga_e12c79bd.vtex",
            "g_tHoloSpectrumSticker2": "materials/default/stickers/default_holospectrum_tga_e12c79bd.vtex",
            "g_tHoloSpectrumSticker3": "materials/default/stickers/default_holospectrum_tga_e12c79bd.vtex",
            "g_tHoloSpectrumSticker4": "materials/default/stickers/default_holospectrum_tga_e12c79bd.vtex",
            "g_tMetalness": "weapons/models/revolver/materials/revolver_default_rough_tga_d4c668b8.vtex",
            "g_tNormal": "weapons/models/revolver/materials/revolver_default_normal_tga_c23bd52e.vtex",
            "g_tNormalRoughnessSticker0": "materials/default/default_normal_tga_4c6e7391.vtex",
            "g_tNormalRoughnessSticker1": "materials/default/default_normal_tga_4c6e7391.vtex",
            "g_tNormalRoughnessSticker2": "materials/default/default_normal_tga_4c6e7391.vtex",
            "g_tNormalRoughnessSticker3": "materials/default/default_normal_tga_4c6e7391.vtex",
            "g_tNormalRoughnessSticker4": "materials/default/default_normal_tga_4c6e7391.vtex",
            "g_tSfxMaskSticker0": "materials/default/stickers/default_holomask_tga_daef1ed1.vtex",
            "g_tSfxMaskSticker1": "materials/default/stickers/default_holomask_tga_daef1ed1.vtex",
            "g_tSfxMaskSticker2": "materials/default/stickers/default_holomask_tga_daef1ed1.vtex",
            "g_tSfxMaskSticker3": "materials/default/stickers/default_holomask_tga_daef1ed1.vtex",
            "g_tSfxMaskSticker4": "materials/default/stickers/default_holomask_tga_daef1ed1.vtex",
            "g_tSticker0": "materials/default/stickers/sticker_default_psd_7f7731d3.vtex",
            "g_tSticker1": "materials/default/stickers/sticker_default_psd_7f7731d3.vtex",
            "g_tSticker2": "materials/default/stickers/sticker_default_psd_7f7731d3.vtex",
            "g_tSticker3": "materials/default/stickers/sticker_default_psd_7f7731d3.vtex",
            "g_tSticker4": "materials/default/stickers/sticker_default_psd_7f7731d3.vtex",
            "g_tStickerScratches": "materials/default/stickers/sticker_default_scratches_psd_a9ad199b.vtex",
            "g_tStickerWepInputs": "weapons/models/revolver/materials/stickers/weapon_pist_revolver_sticker_mask_hd_tga_de9c85de.vtex"
          }
        }
      },
      "name": "weapon_pist_revolver"
    }
  ],
  "meshes": [
    {
      "extras": {},
      "name": "weapons\\models\\revolver\\weapon_pist_revolver.vmdl_c.body_legacy",
      "primitives": [
        {
          "attributes": {
            "POSITION": 0,
            "TEXCOORD_0": 1,
            "NORMAL": 2,
            "TANGENT": 3,
            "TEXCOORD_1": 4,
            "JOINTS_0": 5,
            "WEIGHTS_0": 6
          },
          "indices": 7,
          "material": 0
        },
        {
          "attributes": {
            "POSITION": 0,
            "TEXCOORD_0": 1,
            "NORMAL": 2,
            "TANGENT": 3,
            "TEXCOORD_1": 4,
            "JOINTS_0": 5,
            "WEIGHTS_0": 6
          },
          "indices": 8,
          "material": 1
        }
      ]
    },
    {
      "extras": {},
      "name": "weapons\\models\\revolver\\weapon_pist_revolver.vmdl_c.body_hd",
      "primitives": [
        {
          "attributes": {
            "POSITION": 9,
            "TEXCOORD_0": 10,
            "NORMAL": 11,
            "TANGENT": 12,
            "TEXCOORD_1": 13,
            "JOINTS_0": 14,
            "WEIGHTS_0": 15
          },
          "indices": 16,
          "material": 1
        }
      ]
    }
  ],
  "nodes": [
    {
      "name": "weapons\\models\\revolver\\weapon_pist_revolver.vmdl_c.body_legacy",
      "matrix": [
        3.027916e-09,
        0,
        0.025399996,
        0,
        0.025399996,
        3.027916e-09,
        0,
        0,
        0,
        0.025399996,
        3.027916e-09,
        0,
        0,
        0,
        0,
        1
      ],
      "mesh": 0
    },
    {
      "name": "weapons\\models\\revolver\\weapon_pist_revolver.vmdl_c.body_hd",
      "matrix": [
        3.027916e-09,
        0,
        0.025399996,
        0,
        0.025399996,
        3.027916e-09,
        0,
        0,
        0,
        0.025399996,
        3.027916e-09,
        0,
        0,
        0,
        0,
        1
      ],
      "mesh": 1
    }
  ],
  "scenes": [
    {
      "name": "weapon_pist_revolver.vmdl_c",
      "nodes": [
        0,
        1
      ]
    }
  ],
  "extensionsUsed": [],
  "images": [],
  "textures": []
}