{
  "asset": {
    "copyright": "",
    "generator": "Source 2 Viewer 19.2.0.0 - https://valveresourceformat.github.io",
    "version": "2.0"
  },
  "accessors": [
    {
      "bufferView": 0,
      "componentType": 5126,
      "count": 5275,
      "max": [
        7.366672515869141,
        2.9303197860717773,
        8.775856971740723
      ],
      "min": [
        -0.8893358707427979,
        -0.6451835036277771,
        -1.046840786933899
      ],
      "type": "VEC3"
    },
    {
      "bufferView": 1,
      "componentType": 5126,
      "count": 5275,
      "max": [
        0.9936521649360657,
        0.9804681539535522
      ],
      "min": [
        0.22482985258102417,
        0.0018005920574069023
      ],
      "type": "VEC2"
    },
    {
      "bufferView": 2,
      "componentType": 5126,
      "count": 5275,
      "max": [
        0.9999995231628418,
        0.9999995231628418,
        0.9999990463256836
      ],
      "min": [
        -0.9999995231628418,
        -0.9999995231628418,
        -1
      ],
      "type": "VEC3"
    },
    {
      "bufferView": 3,
      "componentType": 5126,
      "count": 5275,
      "type": "VEC4"
    },
    {
      "bufferView": 4,
      "componentType": 5126,
      "count": 5275,
      "max": [
        0,
        0
      ],
      "min": [
        0,
        0
      ],
      "type": "VEC2"
    },
    {
      "bufferView": 5,
      "componentType": 5123,
      "count": 5275,
      "type": "VEC4"
    },
    {
      "bufferView": 6,
      "componentType": 5126,
      "count": 5275,
      "type": "VEC4"
    },
    {
      "bufferView": 7,
      "componentType": 5126,
      "count": 4,
      "max": [
        5.231606960296631,
        -0.026386350393295288,
        3.7120094299316406
      ],
      "min": [
        2.814683437347412,
        -0.02638765051960945,
        1.5476564168930054
      ],
      "type": "VEC3"
    },
    {
      "bufferView": 8,
      "componentType": 5126,
      "count": 4,
      "max": [
        1,
        1
      ],
      "min": [
        0,
        0
      ],
      "type": "VEC2"
    },
    {
      "bufferView": 9,
      "componentType": 5126,
      "count": 4,
      "max": [
        0,
        0.9999995231628418,
        -0.000978472176939249
      ],
      "min": [
        0,
        0.9999995231628418,
        -0.000978472176939249
      ],
      "type": "VEC3"
    },
    {
      "bufferView": 10,
      "componentType": 5126,
      "count": 4,
      "type": "VEC4"
    },
    {
      "bufferView": 11,
      "componentType": 5123,
      "count": 4,
      "type": "VEC4"
    },
    {
      "bufferView": 12,
      "componentType": 5126,
      "count": 4,
      "type": "VEC4"
    },
    {
      "bufferView": 13,
      "componentType": 5126,
      "count": 1111,
      "max": [
        1.7651373147964478,
        1.765137791633606,
        7.787993907928467
      ],
      "min": [
        -1.7651387453079224,
        -1.7651381492614746,
        -5.0257039070129395
      ],
      "type": "VEC3"
    },
    {
      "bufferView": 14,
      "componentType": 5126,
      "count": 1111,
      "max": [
        0.6494033336639404,
        0.964842677116394
      ],
      "min": [
        0.018005920574069023,
        0.012543107382953167
      ],
      "type": "VEC2"
    },
    {
      "bufferView": 15,
      "componentType": 5126,
      "count": 1111,
      "max": [
        0.9968780279159546,
        0.9999995231628418,
        0.9999990463256836
      ],
      "min": [
        -0.9999995231628418,
        -0.9999995231628418,
        -0.9999922513961792
      ],
      "type": "VEC3"
    },
    {
      "bufferView": 16,
      "componentType": 5126,
      "count": 1111,
      "type": "VEC4"
    },
    {
      "bufferView": 17,
      "componentType": 5123,
      "count": 1111,
      "type": "VEC4"
    },
    {
      "bufferView": 18,
      "componentType": 5126,
      "count": 1111,
      "type": "VEC4"
    },
    {
      "bufferView": 19,
      "componentType": 5125,
      "count": 20769,
      "type": "SCALAR"
    },
    {
      "bufferView": 20,
      "componentType": 5125,
      "count": 6,
      "type": "SCALAR"
    },
    {
      "bufferView": 21,
      "componentType": 5125,
      "count": 5964,
      "type": "SCALAR"
    }
  ],
  "bufferViews": [
    {
      "buffer": 0,
      "byteLength": 63300,
      "byteOffset": 251876,
      "target": 34962
    },
    {
      "buffer": 0,
      "byteLength": 42200,
      "byteOffset": 378476,
      "target": 34962
    },
    {
      "buffer": 0,
      "byteLength": 63300,
      "byteOffset": 315176,
      "target": 34962
    },
    {
      "buffer": 0,
      "byteLength": 84400,
      "target": 34962
    },
    {
      "buffer": 0,
      "byteLength": 42200,
      "byteOffset": 420676,
      "target": 34962
    },
    {
      "buffer": 0,
      "byteLength": 42200,
      "byteOffset": 462876,
      "byteStride": 8,
      "target": 34962
    },
    {
      "buffer": 0,
      "byteLength": 84400,
      "byteOffset": 84400,
      "target": 34962
    },
    {
      "buffer": 0,
      "byteLength": 48,
      "byteOffset": 609052,
      "target": 34962
    },
    {
      "buffer": 0,
      "byteLength": 32,
      "byteOffset": 609148,
      "target": 34962
    },
    {
      "buffer": 0,
      "byteLength": 48,
      "byteOffset": 609100,
      "target": 34962
    },
    {
      "buffer": 0,
      "byteLength": 64,
      "byteOffset": 608924,
      "target": 34962
    },
    {
      "buffer": 0,
      "byteLength": 32,
      "byteOffset": 609180,
      "byteStride": 8,
      "target": 34962
    },
    {
      "buffer": 0,
      "byteLength": 64,
      "byteOffset": 608988,
      "target": 34962
    },
    {
      "buffer": 0,
      "byteLength": 13332,
      "byteOffset": 564484,
      "target": 34962
    },
    {
      "buffer": 0,
      "byteLength": 8888,
      "byteOffset": 591148,
      "target": 34962
    },
    {
      "buffer": 0,
      "byteLength": 13332,
      "byteOffset": 577816,
      "target": 34962
    },
    {
      "buffer": 0,
      "byteLength": 17776,
      "byteOffset": 528932,
      "target": 34962
    },
    {
      "buffer": 0,
      "byteLength": 8888,
      "byteOffset": 600036,
      "byteStride": 8,
      "target": 34962
    },
    {
      "buffer": 0,
      "byteLength": 17776,
      "byteOffset": 546708,
      "target": 34962
    },
    {
      "buffer": 0,
      "byteLength": 83076,
      "byteOffset": 168800,
      "target": 34963
    },
    {
      "buffer": 0,
      "byteLength": 24,
      "byteOffset": 609212,
      "target": 34963
    },
    {
      "buffer": 0,
      "byteLength": 23856,
      "byteOffset": 505076,
      "target": 34963
    }
  ],
  "buffers": [
    {
      "byteLength": 609236,
      "uri": "weapon_molotov.bin"
    }
  ],
  "materials": [
    {
      "extras": {
        "vmat": {
          "Name": "weapons/models/grenade/molotov/materials/weapon_molotov.vmat",
          "ShaderName": "csgo_weapon.vfx",
          "IntParams": {
            "F_TINT_MASK": 1,
            "g_bFogEnabled": 1,
            "g_nScaleTexCoordUByModelScaleAxis": 0,
            "g_nScaleTexCoordVByModelScaleAxis": 0,
            "g_nTextureAddressModeU": 0,
            "g_nTextureAddressModeV": 0
          },
          "FloatParams": {
            "g_flMetalnessTransitionBias": 1.5,
            "g_flModelTintAmount": 1,
            "g_flTexCoordRotation": 0
          },
          "VectorParams": {
            "g_vColorTint": [
              1,
              1,
              1,
              0
            ],
            "g_vMetalnessRemapRange": [
              0,
              1,
              0,
              0
            ],
            "g_vRoughnessAdjustBrightnessContrast": [
              0.08,
              1,
              0,
              0
            ],
            "g_vTexCoordCenter": [
              0.5,
              0.5,
              0,
              0
            ],
            "g_vTexCoordOffset": [
              0,
              0,
              0,
              0
            ],
            "g_vTexCoordScale": [
              1,
              1,
              0,
              0
            ],
            "g_vTexCoordScrollSpeed": [
              0,
              0,
              0,
              0
            ]
          },
          "TextureParams": {
            "g_tAmbientOcclusion": "weapons/models/grenade/molotov/materials/molotov_ao_tga_e9ab63da.vtex",
            "g_tColor": "weapons/models/grenade/molotov/materials/molotov_color_tga_799db119.vtex",
            "g_tMetalness": "weapons/models/grenade/molotov/materials/molotov_rough_tga_733f549c.vtex",
            "g_tNormal": "weapons/models/grenade/molotov/materials/molotov_normal_tga_f176d626.vtex",
            "g_tTintMask": "weapons/models/grenade/molotov/materials/molotov_fire_mask_psd_246bf6bc.vtex"
          }
        }
      },
      "name": "weapon_molotov"
    },
    {
      "extras": {
        "vmat": {
          "Name": "weapons/models/grenade/molotov/materials/weapon_molotov_flame.vmat",
          "ShaderName": "csgo_vertexlitgeneric.vfx",
          "IntParams": {
            "F_ADDITIVE_BLEND": 1,
            "F_RENDER_BACKFACES": 1,
            "F_SELF_ILLUM": 1,
            "F_TRANSLUCENT": 1,
            "g_bFogEnabled": 1,
            "g_nScaleTexCoordUByModelScaleAxis": 0,
            "g_nScaleTexCoordVByModelScaleAxis": 0,
            "g_nTextureAddressModeU": 1,
            "g_nTextureAddressModeV": 2
          },
          "FloatParams": {
            "g_flAmbientOcclusionScale": 0,
            "g_flModelTintAmount": 1,
            "g_flNormalTexCoordRotation": 0,
            "g_flOpacityScale": 0.025,
            "g_flSelfIllumAlbedoFactor": 1,
            "g_flSelfIllumBrightness": 7,
            "g_flSelfIllumScale": 1,
            "g_flTexCoordRotation": 0
          },
          "VectorParams": {
            "g_vColorTint": [
              1,
              1,
              1,
              0
            ],
            "g_vNormalTexCoordCenter": [
              0.5,
              0.5,
              0,
              0
            ],
            "g_vNormalTexCoordOffset": [
              0,
              0,
              0,
              0
            ],
            "g_vNormalTexCoordScale": [
              1,
              1,
              0,
              0
            ],
            "g_vSelfIllumScrollSpeed": [
              0.25,
              -7,
              0,
              0
            ],
            "g_vSelfIllumTint": [
              1,
              0.905882,
              0.694118,
              0
            ],
            "g_vTexCoordCenter": [
              0.5,
              0,
              0,
              0
            ],
            "g_vTexCoordOffset": [
              0,
              0,
              0,
              0
            ],
            "g_vTexCoordScale": [
              1,
              1,
              0,
              0
            ],
            "g_vTexCoordScrollSpeed": [
              0,
              0,
              0,
              0
            ],
            "TextureMetalness": [
              1,
              1,
              1,
              0
            ],
            "TextureRoughness": [
              1,
              1,
              1,
              0
            ]
          },
          "TextureParams": {
            "g_tAmbientOcclusion": "materials/default/default_ao_tga_559f1ac6.vtex",
            "g_tColor": "weapons/models/grenade/molotov/materials/molotov_flame_psd_c860af6a.vtex",
            "g_tMetalness": "weapons/models/grenade/molotov/materials/weapon_molotov_flame_vmat_g_tmetalness_44b7d68b.vtex",
            "g_tNormal": "weapons/models/grenade/molotov/materials/weapon_molotov_flame_vmat_g_tnormal_53b47c48.vtex",
            "g_tSelfIllumMask": "materials/models/weapons/pedestals/rarity_gradient_bg_color_tga_a4e43bf6.vtex"
          }
        }
      },
      "name": "weapon_molotov_flame",
      "alphaMode": "BLEND",
      "doubleSided": true
    },
    {
      "extras": {
        "vmat": {
          "Name": "weapons/models/grenade/molotov/materials/weapon_molotov_liquid.vmat",
          "ShaderName": "csgo_simple_liquid.vfx",
          "IntParams": {
            "F_USE_TEST_VALUES": 1,
            "g_nScaleTexCoordUByModelScaleAxis": 0,
            "g_nScaleTexCoordVByModelScaleAxis": 0,
            "g_nTextureAddressModeU": 0,
            "g_nTextureAddressModeV": 0
          },
          "FloatParams": {
            "g_flBrightenEmptyArea": 0,
            "g_flBubbleDepthFalloff": 0.868,
            "g_flBubbleOpacity": 0,
            "g_flBubbleScale": 0.642,
            "g_flBubblesMaximum": 1.35,
            "g_flBubblesMinimum": 0.15,
            "g_flBubbleSpaceScale": 0.75,
            "g_flBubbleSpeed": 1,
            "g_flBubbleStrength": 1.992,
            "g_flCubeRefractBrightness": 4,
            "g_flCubeRefractLiquidTransparency": 0.75,
            "g_flCubeRefractTransparency": 1,
            "g_flFresnelGlassThickness": 0.1,
            "g_flLiquidBackFade": 0.1,
            "g_flLiquidBackOffset": 6,
            "g_flLiquidBrightness": 1.3,
            "g_flLiquidEmissiveStrength": 0,
            "g_flLiquidInnerGlow": 0,
            "g_flLiquidLevelHeight": 0.581,
            "g_flLiquidLevelHeightDelta": 0.1,
            "g_flLiquidRoughness": 0.195,
            "g_flLiquidSharpness": 20.785,
            "g_flLiquidSpecularStrength": 15.202,
            "g_flLiquidSurfaceSpecularStrength": 13.269,
            "g_flLiquidWobbleScale": 0.01,
            "g_flLiquidWobbleSpeed": 1,
            "g_flLiquidWobbleWavelength": 1.5,
            "g_flMaskMaximum": 1,
            "g_flMaskMinimum": 0,
            "g_flModelTintAmount": 1,
            "g_flRefractRoughnessMultiplier": 0.25,
            "g_flSurfaceTension": 0.1,
            "g_flTestAgitation": 0,
            "g_flTexCoordRotation": 0,
            "g_flTransmissiveStrength": 4,
            "g_flWaterLineStrength": 0.598
          },
          "VectorParams": {
            "g_vBubbleColorInner": [
              0,
              0,
              0,
              0
            ],
            "g_vBubbleColorOuter": [
              1,
              1,
              1,
              0
            ],
            "g_vColorTint": [
              1,
              1,
              1,
              0
            ],
            "g_vLiquidColor": [
              0.67451,
              0.533333,
              0.411765,
              0
            ],
            "g_vLiquidLevelDownwardsMinMidMax": [
              -9,
              0,
              5,
              0
            ],
            "g_vLiquidLevelSidewardsMinMidMax": [
              -2,
              0,
              1.5,
              0
            ],
            "g_vLiquidLevelUpwardsMinMidMax": [
              -7,
              2,
              6.5,
              0
            ],
            "g_vTestGravityDir": [
              0,
              0.041,
              -1,
              0
            ],
            "g_vTexCoordCenter": [
              0.5,
              0.5,
              0,
              0
            ],
            "g_vTexCoordOffset": [
              0,
              0,
              0,
              0
            ],
            "g_vTexCoordScale": [
              1,
              1,
              0,
              0
            ],
            "g_vTexCoordScrollSpeed": [
              0,
              0,
              0,
              0
            ]
          },
          "TextureParams": {
            "g_tColorA": "weapons/models/grenade/molotov/materials/molotov_color_tga_2cf3f23f.vtex",
            "g_tLiquidMask": "weapons/models/grenade/molotov/materials/molotov_liquid_mask_tga_c1335fba.vtex",
            "g_tNormalA": "weapons/models/grenade/molotov/materials/molotov_normal_tga_a916361b.vtex"
          }
        }
      },
      "name": "weapon_molotov_liquid"
    }
  ],
  "meshes": [
    {
      "extras": {},
      "name": "weapons\\models\\grenade\\molotov\\weapon_molotov.vmdl_c.body",
      "primitives": [
        {
          "attributes": {
            "POSITION": 0,
            "TEXCOORD_0": 1,
            "NORMAL": 2,
            "TANGENT": 3,
            "TEXCOORD_1": 4,
            "JOINTS_0": 5,
            "WEIGHTS_0": 6
          },
          "indices": 19,
          "material": 0
        },
        {
          "attributes": {
            "POSITION": 7,
            "TEXCOORD_0": 8,
            "NORMAL": 9,
            "TANGENT": 10,
            "JOINTS_0": 11,
            "WEIGHTS_0": 12
          },
          "indices": 20,
          "material": 1
        },
        {
          "attributes": {
            "POSITION": 13,
            "TEXCOORD_0": 14,
            "NORMAL": 15,
            "TANGENT": 16,
            "JOINTS_0": 17,
            "WEIGHTS_0": 18
          },
          "indices": 21,
          "material": 2
        }
      ]
    }
  ],
  "nodes": [
    {
      "name": "weapons\\models\\grenade\\molotov\\weapon_molotov.vmdl_c.body",
      "matrix": [
        3.027916e-09,
        0,
        0.025399996,
        0,
        0.025399996,
        3.027916e-09,
        0,
        0,
        0,
        0.025399996,
        3.027916e-09,
        0,
        0,
        0,
        0,
        1
      ],
      "mesh": 0
    }
  ],
  "scenes": [
    {
      "name": "weapon_molotov.vmdl_c",
      "nodes": [
        0
      ]
    }
  ],
  "extensionsUsed": [],
  "images": [],
  "textures": []
}