{
  "asset": {
    "copyright": "",
    "generator": "Source 2 Viewer 19.2.0.0 - https://valveresourceformat.github.io",
    "version": "2.0"
  },
  "accessors": [
    {
      "bufferView": 0,
      "componentType": 5126,
      "count": 14679,
      "max": [
        43.07837677001953,
        2.496259927749634,
        9.953485488891602
      ],
      "min": [
        1.1028008460998535,
        -1.2118405103683472,
        -0.9942012429237366
      ],
      "type": "VEC3"
    },
    {
      "bufferView": 1,
      "componentType": 5126,
      "count": 14679,
      "max": [
        2.994140625,
        1.0263671875
      ],
      "min": [
        -0.335205078125,
        0.002315521240234375
      ],
      "type": "VEC2"
    },
    {
      "bufferView": 2,
      "componentType": 5126,
      "count": 14679,
      "max": [
        0.9999995231628418,
        0.9999995231628418,
        0.9999990463256836
      ],
      "min": [
        -0.9999995231628418,
        -0.9999995231628418,
        -1
      ],
      "type": "VEC3"
    },
    {
      "bufferView": 3,
      "componentType": 5126,
      "count": 14679,
      "type": "VEC4"
    },
    {
      "bufferView": 4,
      "componentType": 5126,
      "count": 14679,
      "max": [
        0.97216796875,
        0.262939453125
      ],
      "min": [
        -1.9599609375,
        0.0196990966796875
      ],
      "type": "VEC2"
    },
    {
      "bufferView": 5,
      "componentType": 5123,
      "count": 14679,
      "type": "VEC4"
    },
    {
      "bufferView": 6,
      "componentType": 5126,
      "count": 14679,
      "type": "VEC4"
    },
    {
      "bufferView": 7,
      "componentType": 5125,
      "count": 40662,
      "type": "SCALAR"
    },
    {
      "bufferView": 8,
      "componentType": 5125,
      "count": 480,
      "type": "SCALAR"
    },
    {
      "bufferView": 9,
      "componentType": 5126,
      "count": 38684,
      "max": [
        43.618072509765625,
        1.203869104385376,
        10.063026428222656
      ],
      "min": [
        0.7798309326171875,
        -1.2038682699203491,
        -1.0373132228851318
      ],
      "type": "VEC3"
    },
    {
      "bufferView": 10,
      "componentType": 5126,
      "count": 38684,
      "max": [
        0.9975585341453552,
        0.9975585341453552
      ],
      "min": [
        0.0023194067180156708,
        0.002288888208568096
      ],
      "type": "VEC2"
    },
    {
      "bufferView": 11,
      "componentType": 5126,
      "count": 38684,
      "max": [
        0.9999995231628418,
        0.9999995231628418,
        0.9999990463256836
      ],
      "min": [
        -0.9999995231628418,
        -0.9999995231628418,
        -1
      ],
      "type": "VEC3"
    },
    {
      "bufferView": 12,
      "componentType": 5126,
      "count": 38684,
      "type": "VEC4"
    },
    {
      "bufferView": 13,
      "componentType": 5126,
      "count": 38684,
      "max": [
        0.9794921875,
        0.263916015625
      ],
      "min": [
        -1.9716796875,
        0.01727294921875
      ],
      "type": "VEC2"
    },
    {
      "bufferView": 14,
      "componentType": 5123,
      "count": 38684,
      "type": "VEC4"
    },
    {
      "bufferView": 15,
      "componentType": 5126,
      "count": 38684,
      "type": "VEC4"
    },
    {
      "bufferView": 16,
      "componentType": 5125,
      "count": 142908,
      "type": "SCALAR"
    }
  ],
  "bufferViews": [
    {
      "buffer": 0,
      "byteLength": 176148,
      "byteOffset": 4136080,
      "target": 34962
    },
    {
      "buffer": 0,
      "byteLength": 117432,
      "byteOffset": 4651024,
      "target": 34962
    },
    {
      "buffer": 0,
      "byteLength": 176148,
      "byteOffset": 4312228,
      "target": 34962
    },
    {
      "buffer": 0,
      "byteLength": 234864,
      "byteOffset": 3666352,
      "target": 34962
    },
    {
      "buffer": 0,
      "byteLength": 117432,
      "byteOffset": 4768456,
      "target": 34962
    },
    {
      "buffer": 0,
      "byteLength": 117432,
      "byteOffset": 4885888,
      "byteStride": 8,
      "target": 34962
    },
    {
      "buffer": 0,
      "byteLength": 234864,
      "byteOffset": 3901216,
      "target": 34962
    },
    {
      "buffer": 0,
      "byteLength": 162648,
      "byteOffset": 4488376,
      "target": 34963
    },
    {
      "buffer": 0,
      "byteLength": 1920,
      "byteOffset": 5003320,
      "target": 34963
    },
    {
      "buffer": 0,
      "byteLength": 464208,
      "byteOffset": 1809520,
      "target": 34962
    },
    {
      "buffer": 0,
      "byteLength": 309472,
      "byteOffset": 2737936,
      "target": 34962
    },
    {
      "buffer": 0,
      "byteLength": 464208,
      "byteOffset": 2273728,
      "target": 34962
    },
    {
      "buffer": 0,
      "byteLength": 618944,
      "target": 34962
    },
    {
      "buffer": 0,
      "byteLength": 309472,
      "byteOffset": 3047408,
      "target": 34962
    },
    {
      "buffer": 0,
      "byteLength": 309472,
      "byteOffset": 3356880,
      "byteStride": 8,
      "target": 34962
    },
    {
      "buffer": 0,
      "byteLength": 618944,
      "byteOffset": 618944,
      "target": 34962
    },
    {
      "buffer": 0,
      "byteLength": 571632,
      "byteOffset": 1237888,
      "target": 34963
    }
  ],
  "buffers": [
    {
      "byteLength": 5005240,
      "uri": "weapon_snip_g3sg1.bin"
    }
  ],
  "materials": [
    {
      "extras": {
        "vmat": {
          "Name": "materials/models/weapons/v_models/snip_g3sg1/snip_g3sg1.vmat",
          "ShaderName": "csgo_weapon.vfx",
          "IntParams": {
            "F_STICKERS": 1,
            "g_bEnableSticker0": 0,
            "g_bEnableSticker1": 0,
            "g_bEnableSticker2": 0,
            "g_bEnableSticker3": 0,
            "g_bEnableSticker4": 0,
            "g_bFogEnabled": 1,
            "g_nScaleTexCoordUByModelScaleAxis": 0,
            "g_nScaleTexCoordVByModelScaleAxis": 0,
            "g_nTextureAddressModeU": 0,
            "g_nTextureAddressModeV": 0
          },
          "FloatParams": {
            "g_flMetalnessTransitionBias": 2,
            "g_flModelTintAmount": 1,
            "g_flSticker0Rotation": 0,
            "g_flSticker0Wear": 0,
            "g_flSticker1Rotation": 0,
            "g_flSticker1Wear": 0,
            "g_flSticker2Rotation": 0,
            "g_flSticker2Wear": 0,
            "g_flSticker3Rotation": 0,
            "g_flSticker3Wear": 0,
            "g_flSticker4Rotation": 0,
            "g_flSticker4Wear": 0,
            "g_flTexCoordRotation": 0,
            "g_fWearScratchesSticker0": 1,
            "g_fWearScratchesSticker1": 1,
            "g_fWearScratchesSticker2": 1,
            "g_fWearScratchesSticker3": 1,
            "g_fWearScratchesSticker4": 1
          },
          "VectorParams": {
            "g_vColorTint": [
              1,
              1,
              1,
              0
            ],
            "g_vMetalnessRemapRange": [
              0,
              1,
              0,
              0
            ],
            "g_vSticker0Offset": [
              0.402,
              -0.357,
              0,
              0
            ],
            "g_vSticker0Scale": [
              17.4,
              17.4,
              0,
              0
            ],
            "g_vSticker1Offset": [
              0.326,
              -0.363,
              0,
              0
            ],
            "g_vSticker1Scale": [
              17.4,
              17.4,
              0,
              0
            ],
            "g_vSticker2Offset": [
              0.199,
              -0.383,
              0,
              0
            ],
            "g_vSticker2Scale": [
              17.4,
              17.4,
              0,
              0
            ],
            "g_vSticker3Offset": [
              0.231,
              -0.451,
              0,
              0
            ],
            "g_vSticker3Scale": [
              18.7,
              18.7,
              0,
              0
            ],
            "g_vSticker4Offset": [
              -0.042,
              -0.387,
              0,
              0
            ],
            "g_vSticker4Scale": [
              18.4,
              18.4,
              0,
              0
            ],
            "g_vTexCoordCenter": [
              0.5,
              0.5,
              0,
              0
            ],
            "g_vTexCoordOffset": [
              0,
              0,
              0,
              0
            ],
            "g_vTexCoordScale": [
              1,
              1,
              0,
              0
            ],
            "g_vTexCoordScrollSpeed": [
              0,
              0,
              0,
              0
            ],
            "g_vWearBiasSticker0": [
              1,
              1,
              0,
              0
            ],
            "g_vWearBiasSticker1": [
              1,
              1,
              0,
              0
            ],
            "g_vWearBiasSticker2": [
              1,
              1,
              0,
              0
            ],
            "g_vWearBiasSticker3": [
              1,
              1,
              0,
              0
            ],
            "g_vWearBiasSticker4": [
              1,
              1,
              0,
              0
            ]
          },
          "TextureParams": {
            "g_tAmbientOcclusion": "materials/models/weapons/v_models/snip_g3sg1/snip_g3sg1_substrate_ao_psd_5582f27.vtex",
            "g_tColor": "materials/models/weapons/v_models/snip_g3sg1/snip_g3sg1_substrate_color_psd_2ef5cffa.vtex",
            "g_tGlitterNormalSticker0": "materials/default/stickers/squares_glitter_normal_tga_25145674.vtex",
            "g_tGlitterNormalSticker1": "materials/default/stickers/squares_glitter_normal_tga_25145674.vtex",
            "g_tGlitterNormalSticker2": "materials/default/stickers/squares_glitter_normal_tga_25145674.vtex",
            "g_tGlitterNormalSticker3": "materials/default/stickers/squares_glitter_normal_tga_25145674.vtex",
            "g_tGlitterNormalSticker4": "materials/default/stickers/squares_glitter_normal_tga_25145674.vtex",
            "g_tHoloSpectrumSticker0": "materials/default/stickers/default_holospectrum_tga_e12c79bd.vtex",
            "g_tHoloSpectrumSticker1": "materials/default/stickers/default_holospectrum_tga_e12c79bd.vtex",
            "g_tHoloSpectrumSticker2": "materials/default/stickers/default_holospectrum_tga_e12c79bd.vtex",
            "g_tHoloSpectrumSticker3": "materials/default/stickers/default_holospectrum_tga_e12c79bd.vtex",
            "g_tHoloSpectrumSticker4": "materials/default/stickers/default_holospectrum_tga_e12c79bd.vtex",
            "g_tMetalness": "materials/models/weapons/v_models/snip_g3sg1/snip_g3sg1_exponent_rough_psd_562f1d85.vtex",
            "g_tNormal": "materials/default/default_normal_tga_4fc2d3dd.vtex",
            "g_tNormalRoughnessSticker0": "materials/default/default_normal_tga_4c6e7391.vtex",
            "g_tNormalRoughnessSticker1": "materials/default/default_normal_tga_4c6e7391.vtex",
            "g_tNormalRoughnessSticker2": "materials/default/default_normal_tga_4c6e7391.vtex",
            "g_tNormalRoughnessSticker3": "materials/default/default_normal_tga_4c6e7391.vtex",
            "g_tNormalRoughnessSticker4": "materials/default/default_normal_tga_4c6e7391.vtex",
            "g_tSfxMaskSticker0": "materials/default/stickers/default_holomask_tga_daef1ed1.vtex",
            "g_tSfxMaskSticker1": "materials/default/stickers/default_holomask_tga_daef1ed1.vtex",
            "g_tSfxMaskSticker2": "materials/default/stickers/default_holomask_tga_daef1ed1.vtex",
            "g_tSfxMaskSticker3": "materials/default/stickers/default_holomask_tga_daef1ed1.vtex",
            "g_tSfxMaskSticker4": "materials/default/stickers/default_holomask_tga_daef1ed1.vtex",
            "g_tSticker0": "materials/default/stickers/sticker_default_psd_7f7731d3.vtex",
            "g_tSticker1": "materials/default/stickers/sticker_default_psd_7f7731d3.vtex",
            "g_tSticker2": "materials/default/stickers/sticker_default_psd_7f7731d3.vtex",
            "g_tSticker3": "materials/default/stickers/sticker_default_psd_7f7731d3.vtex",
            "g_tSticker4": "materials/default/stickers/sticker_default_psd_7f7731d3.vtex",
            "g_tStickerScratches": "materials/default/stickers/sticker_default_scratches_psd_a9ad199b.vtex",
            "g_tStickerWepInputs": "weapons/models/g3sg1/materials/stickers/weapon_snip_g3sg1_sticker_mask_legacy_tga_a1242040.vtex"
          }
        }
      },
      "name": "snip_g3sg1"
    },
    {
      "extras": {
        "vmat": {
          "Name": "weapons/models/shared/materials/scope/shared_scope.vmat",
          "ShaderName": "csgo_weapon.vfx",
          "IntParams": {
            "g_bFogEnabled": 1,
            "g_nScaleTexCoordUByModelScaleAxis": 0,
            "g_nScaleTexCoordVByModelScaleAxis": 0,
            "g_nTextureAddressModeU": 0,
            "g_nTextureAddressModeV": 0
          },
          "FloatParams": {
            "g_flMetalnessTransitionBias": 2,
            "g_flModelTintAmount": 1,
            "g_flTexCoordRotation": 0
          },
          "VectorParams": {
            "g_vColorTint": [
              1,
              1,
              1,
              0
            ],
            "g_vMetalnessRemapRange": [
              0,
              1,
              0,
              0
            ],
            "g_vTexCoordCenter": [
              0.5,
              0.5,
              0,
              0
            ],
            "g_vTexCoordOffset": [
              0,
              0,
              0,
              0
            ],
            "g_vTexCoordScale": [
              1,
              1,
              0,
              0
            ],
            "g_vTexCoordScrollSpeed": [
              0,
              0,
              0,
              0
            ],
            "TextureColor1": [
              0.290196,
              0.290196,
              0.290196,
              1
            ],
            "TextureMetalness1": [
              1,
              1,
              1,
              0
            ],
            "TextureRoughness1": [
              0.27451,
              0.27451,
              0.27451,
              1
            ]
          },
          "TextureParams": {
            "g_tAmbientOcclusion": "weapons/models/shared/materials/scope/shared_scope_ao_psd_60406729.vtex",
            "g_tColor": "weapons/models/shared/materials/scope/shared_scope_vmat_g_tcolor_b1605615.vtex",
            "g_tMetalness": "weapons/models/shared/materials/scope/shared_scope_vmat_g_tmetalness_b51739c.vtex",
            "g_tNormal": "weapons/models/shared/materials/scope/shared_scope_normal_psd_85f00f27.vtex"
          }
        }
      },
      "name": "shared_scope"
    },
    {
      "extras": {
        "vmat": {
          "Name": "weapons/models/g3sg1/materials/weapon_snip_g3sg1.vmat",
          "ShaderName": "csgo_weapon.vfx",
          "IntParams": {
            "F_STICKERS": 1,
            "g_bEnableSticker0": 0,
            "g_bEnableSticker1": 0,
            "g_bEnableSticker2": 0,
            "g_bEnableSticker3": 0,
            "g_bEnableSticker4": 0,
            "g_bFogEnabled": 1,
            "g_nScaleTexCoordUByModelScaleAxis": 0,
            "g_nScaleTexCoordVByModelScaleAxis": 0,
            "g_nTextureAddressModeU": 0,
            "g_nTextureAddressModeV": 0
          },
          "FloatParams": {
            "g_flMetalnessTransitionBias": 1.67,
            "g_flModelTintAmount": 1,
            "g_flSticker0Rotation": 0,
            "g_flSticker0Wear": 0,
            "g_flSticker1Rotation": 0,
            "g_flSticker1Wear": 0,
            "g_flSticker2Rotation": 0,
            "g_flSticker2Wear": 0,
            "g_flSticker3Rotation": 0,
            "g_flSticker3Wear": 0,
            "g_flSticker4Rotation": 0,
            "g_flSticker4Wear": 0,
            "g_flTexCoordRotation": 0,
            "g_fWearScratchesSticker0": 1,
            "g_fWearScratchesSticker1": 1,
            "g_fWearScratchesSticker2": 1,
            "g_fWearScratchesSticker3": 1,
            "g_fWearScratchesSticker4": 1
          },
          "VectorParams": {
            "g_vColorTint": [
              1,
              1,
              1,
              0
            ],
            "g_vMetalnessRemapRange": [
              0,
              1,
              0,
              0
            ],
            "g_vSticker0Offset": [
              0.421,
              -0.365,
              0,
              0
            ],
            "g_vSticker0Scale": [
              16.071,
              16.071,
              0,
              0
            ],
            "g_vSticker1Offset": [
              0.35,
              -0.37,
              0,
              0
            ],
            "g_vSticker1Scale": [
              16.071,
              16.071,
              0,
              0
            ],
            "g_vSticker2Offset": [
              0.206,
              -0.386,
              0,
              0
            ],
            "g_vSticker2Scale": [
              16.071,
              16.071,
              0,
              0
            ],
            "g_vSticker3Offset": [
              0.217,
              -0.461,
              0,
              0
            ],
            "g_vSticker3Scale": [
              18,
              18,
              0,
              0
            ],
            "g_vSticker4Offset": [
              -0.032,
              -0.386,
              0,
              0
            ],
            "g_vSticker4Scale": [
              18,
              18,
              0,
              0
            ],
            "g_vTexCoordCenter": [
              0.5,
              0.5,
              0,
              0
            ],
            "g_vTexCoordOffset": [
              0,
              0,
              0,
              0
            ],
            "g_vTexCoordScale": [
              1,
              1,
              0,
              0
            ],
            "g_vTexCoordScrollSpeed": [
              0,
              0,
              0,
              0
            ],
            "g_vWearBiasSticker0": [
              1,
              1,
              0,
              0
            ],
            "g_vWearBiasSticker1": [
              1,
              1,
              0,
              0
            ],
            "g_vWearBiasSticker2": [
              1,
              1,
              0,
              0
            ],
            "g_vWearBiasSticker3": [
              1,
              1,
              0,
              0
            ],
            "g_vWearBiasSticker4": [
              1,
              1,
              0,
              0
            ]
          },
          "TextureParams": {
            "g_tAmbientOcclusion": "weapons/models/g3sg1/materials/g3sg1_default_ao_tga_2bf432b.vtex",
            "g_tColor": "weapons/models/g3sg1/materials/g3sg1_default_color_psd_28024d3b.vtex",
            "g_tGlitterNormalSticker0": "materials/default/stickers/squares_glitter_normal_tga_25145674.vtex",
            "g_tGlitterNormalSticker1": "materials/default/stickers/squares_glitter_normal_tga_25145674.vtex",
            "g_tGlitterNormalSticker2": "materials/default/stickers/squares_glitter_normal_tga_25145674.vtex",
            "g_tGlitterNormalSticker3": "materials/default/stickers/squares_glitter_normal_tga_25145674.vtex",
            "g_tGlitterNormalSticker4": "materials/default/stickers/squares_glitter_normal_tga_25145674.vtex",
            "g_tHoloSpectrumSticker0": "materials/default/stickers/default_holospectrum_tga_e12c79bd.vtex",
            "g_tHoloSpectrumSticker1": "materials/default/stickers/default_holospectrum_tga_e12c79bd.vtex",
            "g_tHoloSpectrumSticker2": "materials/default/stickers/default_holospectrum_tga_e12c79bd.vtex",
            "g_tHoloSpectrumSticker3": "materials/default/stickers/default_holospectrum_tga_e12c79bd.vtex",
            "g_tHoloSpectrumSticker4": "materials/default/stickers/default_holospectrum_tga_e12c79bd.vtex",
            "g_tMetalness": "weapons/models/g3sg1/materials/g3sg1_default_rough_psd_d26efdac.vtex",
            "g_tNormal": "weapons/models/g3sg1/materials/g3sg1_default_normal_tga_bfdc6592.vtex",
            "g_tNormalRoughnessSticker0": "materials/default/default_normal_tga_4c6e7391.vtex",
            "g_tNormalRoughnessSticker1": "materials/default/default_normal_tga_4c6e7391.vtex",
            "g_tNormalRoughnessSticker2": "materials/default/default_normal_tga_4c6e7391.vtex",
            "g_tNormalRoughnessSticker3": "materials/default/default_normal_tga_4c6e7391.vtex",
            "g_tNormalRoughnessSticker4": "materials/default/default_normal_tga_4c6e7391.vtex",
            "g_tSfxMaskSticker0": "materials/default/stickers/default_holomask_tga_daef1ed1.vtex",
            "g_tSfxMaskSticker1": "materials/default/stickers/default_holomask_tga_daef1ed1.vtex",
            "g_tSfxMaskSticker2": "materials/default/stickers/default_holomask_tga_daef1ed1.vtex",
            "g_tSfxMaskSticker3": "materials/default/stickers/default_holomask_tga_daef1ed1.vtex",
            "g_tSfxMaskSticker4": "materials/default/stickers/default_holomask_tga_daef1ed1.vtex",
            "g_tSticker0": "materials/default/stickers/sticker_default_psd_7f7731d3.vtex",
            "g_tSticker1": "materials/default/stickers/sticker_default_psd_7f7731d3.vtex",
            "g_tSticker2": "materials/default/stickers/sticker_default_psd_7f7731d3.vtex",
            "g_tSticker3": "materials/default/stickers/sticker_default_psd_7f7731d3.vtex",
            "g_tSticker4": "materials/default/stickers/sticker_default_psd_7f7731d3.vtex",
            "g_tStickerScratches": "materials/default/stickers/sticker_default_scratches_psd_a9ad199b.vtex",
            "g_tStickerWepInputs": "weapons/models/g3sg1/materials/stickers/weapon_snip_g3sg1_sticker_mask_hd_tga_4273e447.vtex"
          }
        }
      },
      "name": "weapon_snip_g3sg1"
    }
  ],
  "meshes": [
    {
      "extras": {},
      "name": "weapons\\models\\g3sg1\\weapon_snip_g3sg1.vmdl_c.body_legacy",
      "primitives": [
        {
          "attributes": {
            "POSITION": 0,
            "TEXCOORD_0": 1,
            "NORMAL": 2,
            "TANGENT": 3,
            "TEXCOORD_1": 4,
            "JOINTS_0": 5,
            "WEIGHTS_0": 6
          },
          "indices": 7,
          "material": 0
        },
        {
          "attributes": {
            "POSITION": 0,
            "TEXCOORD_0": 1,
            "NORMAL": 2,
            "TANGENT": 3,
            "TEXCOORD_1": 4,
            "JOINTS_0": 5,
            "WEIGHTS_0": 6
          },
          "indices": 8,
          "material": 1
        }
      ]
    },
    {
      "extras": {},
      "name": "weapons\\models\\g3sg1\\weapon_snip_g3sg1.vmdl_c.body_hd",
      "primitives": [
        {
          "attributes": {
            "POSITION": 9,
            "TEXCOORD_0": 10,
            "NORMAL": 11,
            "TANGENT": 12,
            "TEXCOORD_1": 13,
            "JOINTS_0": 14,
            "WEIGHTS_0": 15
          },
          "indices": 16,
          "material": 2
        }
      ]
    }
  ],
  "nodes": [
    {
      "name": "weapons\\models\\g3sg1\\weapon_snip_g3sg1.vmdl_c.body_legacy",
      "matrix": [
        3.027916e-09,
        0,
        0.025399996,
        0,
        0.025399996,
        3.027916e-09,
        0,
        0,
        0,
        0.025399996,
        3.027916e-09,
        0,
        0,
        0,
        0,
        1
      ],
      "mesh": 0
    },
    {
      "name": "weapons\\models\\g3sg1\\weapon_snip_g3sg1.vmdl_c.body_hd",
      "matrix": [
        3.027916e-09,
        0,
        0.025399996,
        0,
        0.025399996,
        3.027916e-09,
        0,
        0,
        0,
        0.025399996,
        3.027916e-09,
        0,
        0,
        0,
        0,
        1
      ],
      "mesh": 1
    }
  ],
  "scenes": [
    {
      "name": "weapon_snip_g3sg1.vmdl_c",
      "nodes": [
        0,
        1
      ]
    }
  ],
  "extensionsUsed": [],
  "images": [],
  "textures": []
}