{
  "asset": {
    "copyright": "",
    "generator": "Source 2 Viewer 19.2.0.0 - https://valveresourceformat.github.io",
    "version": "2.0"
  },
  "accessors": [
    {
      "bufferView": 0,
      "componentType": 5126,
      "count": 16479,
      "max": [
        18.22867774963379,
        1.1892298460006714,
        4.35527229309082
      ],
      "min": [
        -11.515003204345703,
        -1.5826094150543213,
        -3.836733818054199
      ],
      "type": "VEC3"
    },
    {
      "bufferView": 1,
      "componentType": 5126,
      "count": 16479,
      "max": [
        3.25,
        0.99609375
      ],
      "min": [
        0.006145477294921875,
        -0.439453125
      ],
      "type": "VEC2"
    },
    {
      "bufferView": 2,
      "componentType": 5126,
      "count": 16479,
      "max": [
        0.9999995231628418,
        0.9998885989189148,
        0.9999990463256836
      ],
      "min": [
        -0.9999995231628418,
        -0.9999995231628418,
        -1
      ],
      "type": "VEC3"
    },
    {
      "bufferView": 3,
      "componentType": 5126,
      "count": 16479,
      "type": "VEC4"
    },
    {
      "bufferView": 4,
      "componentType": 5126,
      "count": 16479,
      "max": [
        0.9423828125,
        0.2685546875
      ],
      "min": [
        -1.9580078125,
        0.0204010009765625
      ],
      "type": "VEC2"
    },
    {
      "bufferView": 5,
      "componentType": 5123,
      "count": 16479,
      "type": "VEC4"
    },
    {
      "bufferView": 6,
      "componentType": 5126,
      "count": 16479,
      "type": "VEC4"
    },
    {
      "bufferView": 7,
      "componentType": 5125,
      "count": 47916,
      "type": "SCALAR"
    },
    {
      "bufferView": 8,
      "componentType": 5126,
      "count": 23582,
      "max": [
        18.865385055541992,
        1.394675850868225,
        4.713422775268555
      ],
      "min": [
        -12.66313362121582,
        -1.9944450855255127,
        -4.074763774871826
      ],
      "type": "VEC3"
    },
    {
      "bufferView": 9,
      "componentType": 5126,
      "count": 23582,
      "max": [
        0.9970701932907104,
        0.9970701932907104
      ],
      "min": [
        0.0024414807558059692,
        0.0024109622463583946
      ],
      "type": "VEC2"
    },
    {
      "bufferView": 10,
      "componentType": 5126,
      "count": 23582,
      "max": [
        0.9999995231628418,
        0.9999995231628418,
        0.9999990463256836
      ],
      "min": [
        -0.9999995231628418,
        -0.9999995231628418,
        -1
      ],
      "type": "VEC3"
    },
    {
      "bufferView": 11,
      "componentType": 5126,
      "count": 23582,
      "type": "VEC4"
    },
    {
      "bufferView": 12,
      "componentType": 5126,
      "count": 23582,
      "max": [
        0.9765625,
        0.275634765625
      ],
      "min": [
        -1.9775390625,
        0.009552001953125
      ],
      "type": "VEC2"
    },
    {
      "bufferView": 13,
      "componentType": 5123,
      "count": 23582,
      "type": "VEC4"
    },
    {
      "bufferView": 14,
      "componentType": 5126,
      "count": 23582,
      "type": "VEC4"
    },
    {
      "bufferView": 15,
      "componentType": 5125,
      "count": 80742,
      "type": "SCALAR"
    }
  ],
  "bufferViews": [
    {
      "buffer": 0,
      "byteLength": 197748,
      "byteOffset": 2170888,
      "target": 34962
    },
    {
      "buffer": 0,
      "byteLength": 131832,
      "byteOffset": 3324016,
      "target": 34962
    },
    {
      "buffer": 0,
      "byteLength": 197748,
      "byteOffset": 2368636,
      "target": 34962
    },
    {
      "buffer": 0,
      "byteLength": 263664,
      "byteOffset": 1643560,
      "target": 34962
    },
    {
      "buffer": 0,
      "byteLength": 131832,
      "byteOffset": 3455848,
      "target": 34962
    },
    {
      "buffer": 0,
      "byteLength": 131832,
      "byteOffset": 3587680,
      "byteStride": 8,
      "target": 34962
    },
    {
      "buffer": 0,
      "byteLength": 263664,
      "byteOffset": 1907224,
      "target": 34962
    },
    {
      "buffer": 0,
      "byteLength": 191664,
      "byteOffset": 2566384,
      "target": 34963
    },
    {
      "buffer": 0,
      "byteLength": 282984,
      "byteOffset": 1077592,
      "target": 34962
    },
    {
      "buffer": 0,
      "byteLength": 188656,
      "byteOffset": 2758048,
      "target": 34962
    },
    {
      "buffer": 0,
      "byteLength": 282984,
      "byteOffset": 1360576,
      "target": 34962
    },
    {
      "buffer": 0,
      "byteLength": 377312,
      "target": 34962
    },
    {
      "buffer": 0,
      "byteLength": 188656,
      "byteOffset": 2946704,
      "target": 34962
    },
    {
      "buffer": 0,
      "byteLength": 188656,
      "byteOffset": 3135360,
      "byteStride": 8,
      "target": 34962
    },
    {
      "buffer": 0,
      "byteLength": 377312,
      "byteOffset": 377312,
      "target": 34962
    },
    {
      "buffer": 0,
      "byteLength": 322968,
      "byteOffset": 754624,
      "target": 34963
    }
  ],
  "buffers": [
    {
      "byteLength": 3719512,
      "uri": "weapon_smg_bizon.bin"
    }
  ],
  "materials": [
    {
      "extras": {
        "vmat": {
          "Name": "materials/models/weapons/v_models/smg_bizon/bizon.vmat",
          "ShaderName": "csgo_weapon.vfx",
          "IntParams": {
            "F_STICKERS": 1,
            "g_bEnableSticker0": 0,
            "g_bEnableSticker1": 0,
            "g_bEnableSticker2": 0,
            "g_bEnableSticker3": 0,
            "g_bEnableSticker4": 0,
            "g_bFogEnabled": 1,
            "g_nScaleTexCoordUByModelScaleAxis": 0,
            "g_nScaleTexCoordVByModelScaleAxis": 0,
            "g_nTextureAddressModeU": 0,
            "g_nTextureAddressModeV": 0
          },
          "FloatParams": {
            "g_flMetalnessTransitionBias": 2,
            "g_flModelTintAmount": 1,
            "g_flSticker0Rotation": 0,
            "g_flSticker0Wear": 0,
            "g_flSticker1Rotation": 0,
            "g_flSticker1Wear": 0,
            "g_flSticker2Rotation": 0,
            "g_flSticker2Wear": 0,
            "g_flSticker3Rotation": 0,
            "g_flSticker3Wear": 0,
            "g_flSticker4Rotation": 0,
            "g_flSticker4Wear": 0,
            "g_flTexCoordRotation": 0,
            "g_fWearScratchesSticker0": 1,
            "g_fWearScratchesSticker1": 1,
            "g_fWearScratchesSticker2": 1,
            "g_fWearScratchesSticker3": 1,
            "g_fWearScratchesSticker4": 1
          },
          "VectorParams": {
            "g_vColorTint": [
              1,
              1,
              1,
              0
            ],
            "g_vMetalnessRemapRange": [
              0,
              1,
              0,
              0
            ],
            "g_vSticker0Offset": [
              0.058,
              -0.419,
              0,
              0
            ],
            "g_vSticker0Scale": [
              13.3,
              13.3,
              0,
              0
            ],
            "g_vSticker1Offset": [
              -0.023,
              -0.412,
              0,
              0
            ],
            "g_vSticker1Scale": [
              13.3,
              13.3,
              0,
              0
            ],
            "g_vSticker2Offset": [
              -0.109,
              -0.42,
              0,
              0
            ],
            "g_vSticker2Scale": [
              13.3,
              13.3,
              0,
              0
            ],
            "g_vSticker3Offset": [
              -0.13,
              -0.348,
              0,
              0
            ],
            "g_vSticker3Scale": [
              14,
              14,
              0,
              0
            ],
            "g_vSticker4Offset": [
              0,
              0,
              0,
              0
            ],
            "g_vSticker4Scale": [
              0,
              0,
              0,
              0
            ],
            "g_vTexCoordCenter": [
              0.5,
              0.5,
              0,
              0
            ],
            "g_vTexCoordOffset": [
              0,
              0,
              0,
              0
            ],
            "g_vTexCoordScale": [
              1,
              1,
              0,
              0
            ],
            "g_vTexCoordScrollSpeed": [
              0,
              0,
              0,
              0
            ],
            "g_vWearBiasSticker0": [
              1,
              1,
              0,
              0
            ],
            "g_vWearBiasSticker1": [
              1,
              1,
              0,
              0
            ],
            "g_vWearBiasSticker2": [
              1,
              1,
              0,
              0
            ],
            "g_vWearBiasSticker3": [
              1,
              1,
              0,
              0
            ],
            "g_vWearBiasSticker4": [
              1,
              1,
              0,
              0
            ],
            "TextureStickerMask": [
              1,
              1,
              1,
              0
            ]
          },
          "TextureParams": {
            "g_tAmbientOcclusion": "materials/models/weapons/v_models/smg_bizon/bizon_ao_psd_5e7702b.vtex",
            "g_tColor": "materials/models/weapons/v_models/smg_bizon/bizon_color_psd_b050db0f.vtex",
            "g_tGlitterNormalSticker0": "materials/default/stickers/squares_glitter_normal_tga_25145674.vtex",
            "g_tGlitterNormalSticker1": "materials/default/stickers/squares_glitter_normal_tga_25145674.vtex",
            "g_tGlitterNormalSticker2": "materials/default/stickers/squares_glitter_normal_tga_25145674.vtex",
            "g_tGlitterNormalSticker3": "materials/default/stickers/squares_glitter_normal_tga_25145674.vtex",
            "g_tGlitterNormalSticker4": "materials/default/stickers/squares_glitter_normal_tga_25145674.vtex",
            "g_tHoloSpectrumSticker0": "materials/default/stickers/default_holospectrum_tga_e12c79bd.vtex",
            "g_tHoloSpectrumSticker1": "materials/default/stickers/default_holospectrum_tga_e12c79bd.vtex",
            "g_tHoloSpectrumSticker2": "materials/default/stickers/default_holospectrum_tga_e12c79bd.vtex",
            "g_tHoloSpectrumSticker3": "materials/default/stickers/default_holospectrum_tga_e12c79bd.vtex",
            "g_tHoloSpectrumSticker4": "materials/default/stickers/default_holospectrum_tga_e12c79bd.vtex",
            "g_tMetalness": "materials/models/weapons/v_models/smg_bizon/bizon_rough_psd_b4a2d208.vtex",
            "g_tNormal": "materials/default/default_normal_tga_4fc2d3dd.vtex",
            "g_tNormalRoughnessSticker0": "materials/default/default_normal_tga_4c6e7391.vtex",
            "g_tNormalRoughnessSticker1": "materials/default/default_normal_tga_4c6e7391.vtex",
            "g_tNormalRoughnessSticker2": "materials/default/default_normal_tga_4c6e7391.vtex",
            "g_tNormalRoughnessSticker3": "materials/default/default_normal_tga_4c6e7391.vtex",
            "g_tNormalRoughnessSticker4": "materials/default/default_normal_tga_4c6e7391.vtex",
            "g_tSfxMaskSticker0": "materials/default/stickers/default_holomask_tga_daef1ed1.vtex",
            "g_tSfxMaskSticker1": "materials/default/stickers/default_holomask_tga_daef1ed1.vtex",
            "g_tSfxMaskSticker2": "materials/default/stickers/default_holomask_tga_daef1ed1.vtex",
            "g_tSfxMaskSticker3": "materials/default/stickers/default_holomask_tga_daef1ed1.vtex",
            "g_tSfxMaskSticker4": "materials/default/stickers/default_holomask_tga_daef1ed1.vtex",
            "g_tSticker0": "materials/default/stickers/sticker_default_psd_7f7731d3.vtex",
            "g_tSticker1": "materials/default/stickers/sticker_default_psd_7f7731d3.vtex",
            "g_tSticker2": "materials/default/stickers/sticker_default_psd_7f7731d3.vtex",
            "g_tSticker3": "materials/default/stickers/sticker_default_psd_7f7731d3.vtex",
            "g_tSticker4": "materials/default/stickers/sticker_default_psd_7f7731d3.vtex",
            "g_tStickerScratches": "materials/default/stickers/sticker_default_scratches_psd_a9ad199b.vtex",
            "g_tStickerWepInputs": "weapons/models/bizon/materials/stickers/weapon_smg_bizon_sticker_cavity_legacy_tga_642d4ba3.vtex"
          }
        }
      },
      "name": "bizon"
    },
    {
      "extras": {
        "vmat": {
          "Name": "weapons/models/bizon/materials/weapon_smg_bizon.vmat",
          "ShaderName": "csgo_weapon.vfx",
          "IntParams": {
            "F_STICKERS": 1,
            "g_bEnableSticker0": 0,
            "g_bEnableSticker1": 0,
            "g_bEnableSticker2": 0,
            "g_bEnableSticker3": 0,
            "g_bEnableSticker4": 0,
            "g_bFogEnabled": 1,
            "g_nScaleTexCoordUByModelScaleAxis": 0,
            "g_nScaleTexCoordVByModelScaleAxis": 0,
            "g_nTextureAddressModeU": 0,
            "g_nTextureAddressModeV": 0
          },
          "FloatParams": {
            "g_flMetalnessTransitionBias": 2,
            "g_flModelTintAmount": 1,
            "g_flSticker0Rotation": 0,
            "g_flSticker0Wear": 0,
            "g_flSticker1Rotation": 0,
            "g_flSticker1Wear": 0,
            "g_flSticker2Rotation": 0,
            "g_flSticker2Wear": 0,
            "g_flSticker3Rotation": 0,
            "g_flSticker3Wear": 0,
            "g_flSticker4Rotation": 0,
            "g_flSticker4Wear": 0,
            "g_flTexCoordRotation": 0,
            "g_fWearScratchesSticker0": 1,
            "g_fWearScratchesSticker1": 1,
            "g_fWearScratchesSticker2": 1,
            "g_fWearScratchesSticker3": 1,
            "g_fWearScratchesSticker4": 1
          },
          "VectorParams": {
            "g_vColorTint": [
              1,
              1,
              1,
              0
            ],
            "g_vMetalnessRemapRange": [
              0,
              1,
              0,
              0
            ],
            "g_vSticker0Offset": [
              0.071,
              -0.418,
              0,
              0
            ],
            "g_vSticker0Scale": [
              11.786,
              11.786,
              0,
              0
            ],
            "g_vSticker1Offset": [
              -0.018,
              -0.415,
              0,
              0
            ],
            "g_vSticker1Scale": [
              11.786,
              11.786,
              0,
              0
            ],
            "g_vSticker2Offset": [
              -0.107,
              -0.429,
              0,
              0
            ],
            "g_vSticker2Scale": [
              12.692,
              12.692,
              0,
              0
            ],
            "g_vSticker3Offset": [
              -0.129,
              -0.354,
              0,
              0
            ],
            "g_vSticker3Scale": [
              13.2,
              13.2,
              0,
              0
            ],
            "g_vSticker4Offset": [
              0,
              0,
              0,
              0
            ],
            "g_vSticker4Scale": [
              0,
              0,
              0,
              0
            ],
            "g_vTexCoordCenter": [
              0.5,
              0.5,
              0,
              0
            ],
            "g_vTexCoordOffset": [
              0,
              0,
              0,
              0
            ],
            "g_vTexCoordScale": [
              1,
              1,
              0,
              0
            ],
            "g_vTexCoordScrollSpeed": [
              0,
              0,
              0,
              0
            ],
            "g_vWearBiasSticker0": [
              1,
              1,
              0,
              0
            ],
            "g_vWearBiasSticker1": [
              1,
              1,
              0,
              0
            ],
            "g_vWearBiasSticker2": [
              1,
              1,
              0,
              0
            ],
            "g_vWearBiasSticker3": [
              1,
              1,
              0,
              0
            ],
            "g_vWearBiasSticker4": [
              1,
              1,
              0,
              0
            ]
          },
          "TextureParams": {
            "g_tAmbientOcclusion": "weapons/models/bizon/materials/bizon_default_ao_tga_b0793b57.vtex",
            "g_tColor": "weapons/models/bizon/materials/bizon_default_color_psd_6feb41a7.vtex",
            "g_tGlitterNormalSticker0": "materials/default/stickers/squares_glitter_normal_tga_25145674.vtex",
            "g_tGlitterNormalSticker1": "materials/default/stickers/squares_glitter_normal_tga_25145674.vtex",
            "g_tGlitterNormalSticker2": "materials/default/stickers/squares_glitter_normal_tga_25145674.vtex",
            "g_tGlitterNormalSticker3": "materials/default/stickers/squares_glitter_normal_tga_25145674.vtex",
            "g_tGlitterNormalSticker4": "materials/default/stickers/squares_glitter_normal_tga_25145674.vtex",
            "g_tHoloSpectrumSticker0": "materials/default/stickers/default_holospectrum_tga_e12c79bd.vtex",
            "g_tHoloSpectrumSticker1": "materials/default/stickers/default_holospectrum_tga_e12c79bd.vtex",
            "g_tHoloSpectrumSticker2": "materials/default/stickers/default_holospectrum_tga_e12c79bd.vtex",
            "g_tHoloSpectrumSticker3": "materials/default/stickers/default_holospectrum_tga_e12c79bd.vtex",
            "g_tHoloSpectrumSticker4": "materials/default/stickers/default_holospectrum_tga_e12c79bd.vtex",
            "g_tMetalness": "weapons/models/bizon/materials/bizon_default_rough_psd_746e3e8a.vtex",
            "g_tNormal": "weapons/models/bizon/materials/bizon_default_normal_tga_d1c78744.vtex",
            "g_tNormalRoughnessSticker0": "materials/default/default_normal_tga_b59982b.vtex",
            "g_tNormalRoughnessSticker1": "materials/default/default_normal_tga_b59982b.vtex",
            "g_tNormalRoughnessSticker2": "materials/default/default_normal_tga_b59982b.vtex",
            "g_tNormalRoughnessSticker3": "materials/default/default_normal_tga_b59982b.vtex",
            "g_tNormalRoughnessSticker4": "materials/default/default_normal_tga_b59982b.vtex",
            "g_tSfxMaskSticker0": "materials/default/stickers/default_holomask_tga_daef1ed1.vtex",
            "g_tSfxMaskSticker1": "materials/default/stickers/default_holomask_tga_daef1ed1.vtex",
            "g_tSfxMaskSticker2": "materials/default/stickers/default_holomask_tga_daef1ed1.vtex",
            "g_tSfxMaskSticker3": "materials/default/stickers/default_holomask_tga_daef1ed1.vtex",
            "g_tSfxMaskSticker4": "materials/default/stickers/default_holomask_tga_daef1ed1.vtex",
            "g_tSticker0": "materials/default/stickers/sticker_default_psd_7f7731d3.vtex",
            "g_tSticker1": "materials/default/stickers/sticker_default_psd_7f7731d3.vtex",
            "g_tSticker2": "materials/default/stickers/sticker_default_psd_7f7731d3.vtex",
            "g_tSticker3": "materials/default/stickers/sticker_default_psd_7f7731d3.vtex",
            "g_tSticker4": "materials/default/stickers/sticker_default_psd_7f7731d3.vtex",
            "g_tStickerScratches": "materials/default/stickers/sticker_default_scratches_psd_a9ad199b.vtex",
            "g_tStickerWepInputs": "weapons/models/bizon/materials/stickers/weapon_smg_bizon_sticker_mask_hd_tga_e7283590.vtex"
          }
        }
      },
      "name": "weapon_smg_bizon"
    }
  ],
  "meshes": [
    {
      "extras": {},
      "name": "weapons\\models\\bizon\\weapon_smg_bizon.vmdl_c.body_legacy",
      "primitives": [
        {
          "attributes": {
            "POSITION": 0,
            "TEXCOORD_0": 1,
            "NORMAL": 2,
            "TANGENT": 3,
            "TEXCOORD_1": 4,
            "JOINTS_0": 5,
            "WEIGHTS_0": 6
          },
          "indices": 7,
          "material": 0
        }
      ]
    },
    {
      "extras": {},
      "name": "weapons\\models\\bizon\\weapon_smg_bizon.vmdl_c.body_hd",
      "primitives": [
        {
          "attributes": {
            "POSITION": 8,
            "TEXCOORD_0": 9,
            "NORMAL": 10,
            "TANGENT": 11,
            "TEXCOORD_1": 12,
            "JOINTS_0": 13,
            "WEIGHTS_0": 14
          },
          "indices": 15,
          "material": 1
        }
      ]
    }
  ],
  "nodes": [
    {
      "name": "weapons\\models\\bizon\\weapon_smg_bizon.vmdl_c.body_legacy",
      "matrix": [
        3.027916e-09,
        0,
        0.025399996,
        0,
        0.025399996,
        3.027916e-09,
        0,
        0,
        0,
        0.025399996,
        3.027916e-09,
        0,
        0,
        0,
        0,
        1
      ],
      "mesh": 0
    },
    {
      "name": "weapons\\models\\bizon\\weapon_smg_bizon.vmdl_c.body_hd",
      "matrix": [
        3.027916e-09,
        0,
        0.025399996,
        0,
        0.025399996,
        3.027916e-09,
        0,
        0,
        0,
        0.025399996,
        3.027916e-09,
        0,
        0,
        0,
        0,
        1
      ],
      "mesh": 1
    }
  ],
  "scenes": [
    {
      "name": "weapon_smg_bizon.vmdl_c",
      "nodes": [
        0,
        1
      ]
    }
  ],
  "extensionsUsed": [],
  "images": [],
  "textures": []
}