{
  "asset": {
    "copyright": "",
    "generator": "Source 2 Viewer 19.2.0.0 - https://valveresourceformat.github.io",
    "version": "2.0"
  },
  "accessors": [
    {
      "bufferView": 0,
      "componentType": 5126,
      "count": 4756,
      "max": [
        1.7523986101150513,
        0.5435848832130432,
        9.960747718811035
      ],
      "min": [
        -1.7492716312408447,
        -0.543583869934082,
        -5.2184529304504395
      ],
      "type": "VEC3"
    },
    {
      "bufferView": 1,
      "componentType": 5126,
      "count": 4756,
      "max": [
        0.9985350966453552,
        0.9897457957267761
      ],
      "min": [
        0.00238044373691082,
        0.011932737194001675
      ],
      "type": "VEC2"
    },
    {
      "bufferView": 2,
      "componentType": 5126,
      "count": 4756,
      "max": [
        0.9999995231628418,
        0.9999995231628418,
        0.9999990463256836
      ],
      "min": [
        -0.9999995231628418,
        -0.9999995231628418,
        -0.9999922513961792
      ],
      "type": "VEC3"
    },
    {
      "bufferView": 3,
      "componentType": 5126,
      "count": 4756,
      "type": "VEC4"
    },
    {
      "bufferView": 4,
      "componentType": 5123,
      "count": 4756,
      "type": "VEC4"
    },
    {
      "bufferView": 5,
      "componentType": 5126,
      "count": 4756,
      "type": "VEC4"
    },
    {
      "bufferView": 6,
      "componentType": 5125,
      "count": 16374,
      "type": "SCALAR"
    }
  ],
  "bufferViews": [
    {
      "buffer": 0,
      "byteLength": 57072,
      "byteOffset": 217688,
      "target": 34962
    },
    {
      "buffer": 0,
      "byteLength": 38048,
      "byteOffset": 331832,
      "target": 34962
    },
    {
      "buffer": 0,
      "byteLength": 57072,
      "byteOffset": 274760,
      "target": 34962
    },
    {
      "buffer": 0,
      "byteLength": 76096,
      "target": 34962
    },
    {
      "buffer": 0,
      "byteLength": 38048,
      "byteOffset": 369880,
      "byteStride": 8,
      "target": 34962
    },
    {
      "buffer": 0,
      "byteLength": 76096,
      "byteOffset": 76096,
      "target": 34962
    },
    {
      "buffer": 0,
      "byteLength": 65496,
      "byteOffset": 152192,
      "target": 34963
    }
  ],
  "buffers": [
    {
      "byteLength": 407928,
      "uri": "weapon_knife_default_ct.bin"
    }
  ],
  "materials": [
    {
      "extras": {
        "vmat": {
          "Name": "weapons/models/knife/knife_default_ct/materials/weapon_knife_default_ct.vmat",
          "ShaderName": "csgo_weapon.vfx",
          "IntParams": {
            "g_bFogEnabled": 1,
            "g_nScaleTexCoordUByModelScaleAxis": 0,
            "g_nScaleTexCoordVByModelScaleAxis": 0,
            "g_nTextureAddressModeU": 0,
            "g_nTextureAddressModeV": 0
          },
          "FloatParams": {
            "g_flMetalnessTransitionBias": 2,
            "g_flModelTintAmount": 1,
            "g_flTexCoordRotation": 0
          },
          "VectorParams": {
            "g_vColorTint": [
              1,
              1,
              1,
              0
            ],
            "g_vMetalnessRemapRange": [
              0,
              1,
              0,
              0
            ],
            "g_vTexCoordCenter": [
              0.5,
              0.5,
              0,
              0
            ],
            "g_vTexCoordOffset": [
              0,
              0,
              0,
              0
            ],
            "g_vTexCoordScale": [
              1,
              1,
              0,
              0
            ],
            "g_vTexCoordScrollSpeed": [
              0,
              0,
              0,
              0
            ]
          },
          "TextureParams": {
            "g_tAmbientOcclusion": "materials/models/weapons/v_models/knife_ct/knife_ct_ao_psd_e90468db.vtex",
            "g_tColor": "materials/models/weapons/v_models/knife_ct/knife_ct_color_psd_123faa81.vtex",
            "g_tMetalness": "materials/models/weapons/v_models/knife_ct/knife_ct_rough_psd_8c860d48.vtex",
            "g_tNormal": "materials/default/default_normal_tga_4fc2d3dd.vtex"
          }
        }
      },
      "name": "weapon_knife_default_ct"
    }
  ],
  "meshes": [
    {
      "extras": {},
      "name": "weapons\\models\\knife\\knife_default_ct\\weapon_knife_default_ct.vmdl_c.body_legacy",
      "primitives": [
        {
          "attributes": {
            "POSITION": 0,
            "TEXCOORD_0": 1,
            "NORMAL": 2,
            "TANGENT": 3,
            "JOINTS_0": 4,
            "WEIGHTS_0": 5
          },
          "indices": 6,
          "material": 0
        }
      ]
    }
  ],
  "nodes": [
    {
      "name": "weapons\\models\\knife\\knife_default_ct\\weapon_knife_default_ct.vmdl_c.body_legacy",
      "matrix": [
        3.027916e-09,
        0,
        0.025399996,
        0,
        0.025399996,
        3.027916e-09,
        0,
        0,
        0,
        0.025399996,
        3.027916e-09,
        0,
        0,
        0,
        0,
        1
      ],
      "mesh": 0
    }
  ],
  "scenes": [
    {
      "name": "weapon_knife_default_ct.vmdl_c",
      "nodes": [
        0
      ]
    }
  ],
  "extensionsUsed": [],
  "images": [],
  "textures": []
}