{
  "asset": {
    "copyright": "",
    "generator": "Source 2 Viewer 19.2.0.0 - https://valveresourceformat.github.io",
    "version": "2.0"
  },
  "accessors": [
    {
      "bufferView": 0,
      "componentType": 5126,
      "count": 10337,
      "max": [
        1.7010937929153442,
        0.3724946975708008,
        8.543451309204102
      ],
      "min": [
        -0.5768095850944519,
        -0.4163498282432556,
        -4.721540451049805
      ],
      "type": "VEC3"
    },
    {
      "bufferView": 1,
      "componentType": 5126,
      "count": 10337,
      "max": [
        0.9912106394767761,
        0.9990233778953552
      ],
      "min": [
        0.004791405983269215,
        0.00012207403779029846
      ],
      "type": "VEC2"
    },
    {
      "bufferView": 2,
      "componentType": 5126,
      "count": 10337,
      "max": [
        0.9999995231628418,
        0.9999995231628418,
        0.9999757409095764
      ],
      "min": [
        -0.9999995231628418,
        -0.9999995231628418,
        -0.9999825954437256
      ],
      "type": "VEC3"
    },
    {
      "bufferView": 3,
      "componentType": 5126,
      "count": 10337,
      "type": "VEC4"
    },
    {
      "bufferView": 4,
      "componentType": 5123,
      "count": 10337,
      "type": "VEC4"
    },
    {
      "bufferView": 5,
      "componentType": 5126,
      "count": 10337,
      "type": "VEC4"
    },
    {
      "bufferView": 6,
      "componentType": 5125,
      "count": 35988,
      "type": "SCALAR"
    }
  ],
  "bufferViews": [
    {
      "buffer": 0,
      "byteLength": 124044,
      "byteOffset": 474736,
      "target": 34962
    },
    {
      "buffer": 0,
      "byteLength": 82696,
      "byteOffset": 722824,
      "target": 34962
    },
    {
      "buffer": 0,
      "byteLength": 124044,
      "byteOffset": 598780,
      "target": 34962
    },
    {
      "buffer": 0,
      "byteLength": 165392,
      "target": 34962
    },
    {
      "buffer": 0,
      "byteLength": 82696,
      "byteOffset": 805520,
      "byteStride": 8,
      "target": 34962
    },
    {
      "buffer": 0,
      "byteLength": 165392,
      "byteOffset": 165392,
      "target": 34962
    },
    {
      "buffer": 0,
      "byteLength": 143952,
      "byteOffset": 330784,
      "target": 34963
    }
  ],
  "buffers": [
    {
      "byteLength": 888216,
      "uri": "weapon_knife_butterfly.bin"
    }
  ],
  "materials": [
    {
      "extras": {
        "vmat": {
          "Name": "weapons/models/knife/knife_butterfly/materials/weapon_knife_butterfly.vmat",
          "ShaderName": "csgo_weapon.vfx",
          "IntParams": {
            "g_bFogEnabled": 1,
            "g_nScaleTexCoordUByModelScaleAxis": 0,
            "g_nScaleTexCoordVByModelScaleAxis": 0,
            "g_nTextureAddressModeU": 0,
            "g_nTextureAddressModeV": 0
          },
          "FloatParams": {
            "g_flMetalnessTransitionBias": 2,
            "g_flModelTintAmount": 1,
            "g_flTexCoordRotation": 0
          },
          "VectorParams": {
            "g_vColorTint": [
              1,
              1,
              1,
              0
            ],
            "g_vMetalnessRemapRange": [
              0,
              1,
              0,
              0
            ],
            "g_vRoughnessAdjustBrightnessContrast": [
              0,
              1,
              0,
              0
            ],
            "g_vTexCoordCenter": [
              0.5,
              0.5,
              0,
              0
            ],
            "g_vTexCoordOffset": [
              0,
              0,
              0,
              0
            ],
            "g_vTexCoordScale": [
              1,
              1,
              0,
              0
            ],
            "g_vTexCoordScrollSpeed": [
              0,
              0,
              0,
              0
            ]
          },
          "TextureParams": {
            "g_tAmbientOcclusion": "materials/models/weapons/v_models/knife_butterfly/knife_butterfly_ao_psd_496afc91.vtex",
            "g_tColor": "materials/models/weapons/v_models/knife_butterfly/knife_butterfly_color_psd_5a5a48d7.vtex",
            "g_tMetalness": "materials/models/weapons/v_models/knife_butterfly/knife_butterfly_rough_psd_80f06397.vtex",
            "g_tNormal": "materials/default/default_normal_tga_4fc2d3dd.vtex"
          }
        }
      },
      "name": "weapon_knife_butterfly"
    }
  ],
  "meshes": [
    {
      "extras": {},
      "name": "weapons\\models\\knife\\knife_butterfly\\weapon_knife_butterfly.vmdl_c.body_legacy",
      "primitives": [
        {
          "attributes": {
            "POSITION": 0,
            "TEXCOORD_0": 1,
            "NORMAL": 2,
            "TANGENT": 3,
            "JOINTS_0": 4,
            "WEIGHTS_0": 5
          },
          "indices": 6,
          "material": 0
        }
      ]
    }
  ],
  "nodes": [
    {
      "name": "weapons\\models\\knife\\knife_butterfly\\weapon_knife_butterfly.vmdl_c.body_legacy",
      "matrix": [
        3.027916e-09,
        0,
        0.025399996,
        0,
        0.025399996,
        3.027916e-09,
        0,
        0,
        0,
        0.025399996,
        3.027916e-09,
        0,
        0,
        0,
        0,
        1
      ],
      "mesh": 0
    }
  ],
  "scenes": [
    {
      "name": "weapon_knife_butterfly.vmdl_c",
      "nodes": [
        0
      ]
    }
  ],
  "extensionsUsed": [],
  "images": [],
  "textures": []
}