{
  "asset": {
    "copyright": "",
    "generator": "Source 2 Viewer 19.2.0.0 - https://valveresourceformat.github.io",
    "version": "2.0"
  },
  "accessors": [
    {
      "bufferView": 0,
      "componentType": 5126,
      "count": 12228,
      "max": [
        6.242770671844482,
        0.6499847769737244,
        5.369630813598633
      ],
      "min": [
        -1.4447928667068481,
        -0.076352559030056,
        -4.443668842315674
      ],
      "type": "VEC3"
    },
    {
      "bufferView": 1,
      "componentType": 5126,
      "count": 12228,
      "max": [
        0.9941404461860657,
        0.9975585341453552
      ],
      "min": [
        0.002136295661330223,
        0.022522659972310066
      ],
      "type": "VEC2"
    },
    {
      "bufferView": 2,
      "componentType": 5126,
      "count": 12228,
      "max": [
        0.9998210072517395,
        0.9999995231628418,
        0.9998564720153809
      ],
      "min": [
        -0.9997345805168152,
        -0.9999995231628418,
        -0.999968945980072
      ],
      "type": "VEC3"
    },
    {
      "bufferView": 3,
      "componentType": 5126,
      "count": 12228,
      "type": "VEC4"
    },
    {
      "bufferView": 4,
      "componentType": 5123,
      "count": 12228,
      "type": "VEC4"
    },
    {
      "bufferView": 5,
      "componentType": 5126,
      "count": 12228,
      "type": "VEC4"
    },
    {
      "bufferView": 6,
      "componentType": 5125,
      "count": 41814,
      "type": "SCALAR"
    }
  ],
  "bufferViews": [
    {
      "buffer": 0,
      "byteLength": 146736,
      "byteOffset": 558552,
      "target": 34962
    },
    {
      "buffer": 0,
      "byteLength": 97824,
      "byteOffset": 852024,
      "target": 34962
    },
    {
      "buffer": 0,
      "byteLength": 146736,
      "byteOffset": 705288,
      "target": 34962
    },
    {
      "buffer": 0,
      "byteLength": 195648,
      "target": 34962
    },
    {
      "buffer": 0,
      "byteLength": 97824,
      "byteOffset": 949848,
      "byteStride": 8,
      "target": 34962
    },
    {
      "buffer": 0,
      "byteLength": 195648,
      "byteOffset": 195648,
      "target": 34962
    },
    {
      "buffer": 0,
      "byteLength": 167256,
      "byteOffset": 391296,
      "target": 34963
    }
  ],
  "buffers": [
    {
      "byteLength": 1047672,
      "uri": "weapon_knife_karambit.bin"
    }
  ],
  "materials": [
    {
      "extras": {
        "vmat": {
          "Name": "weapons/models/knife/knife_karambit/materials/weapon_knife_karambit.vmat",
          "ShaderName": "csgo_weapon.vfx",
          "IntParams": {
            "g_bFogEnabled": 1,
            "g_nScaleTexCoordUByModelScaleAxis": 0,
            "g_nScaleTexCoordVByModelScaleAxis": 0,
            "g_nTextureAddressModeU": 0,
            "g_nTextureAddressModeV": 0
          },
          "FloatParams": {
            "g_flMetalnessTransitionBias": 2,
            "g_flModelTintAmount": 1,
            "g_flTexCoordRotation": 0
          },
          "VectorParams": {
            "g_vColorTint": [
              1,
              1,
              1,
              0
            ],
            "g_vMetalnessRemapRange": [
              0,
              1,
              0,
              0
            ],
            "g_vRoughnessAdjustBrightnessContrast": [
              0,
              1,
              0,
              0
            ],
            "g_vTexCoordCenter": [
              0.5,
              0.5,
              0,
              0
            ],
            "g_vTexCoordOffset": [
              0,
              0,
              0,
              0
            ],
            "g_vTexCoordScale": [
              1,
              1,
              0,
              0
            ],
            "g_vTexCoordScrollSpeed": [
              0,
              0,
              0,
              0
            ]
          },
          "TextureParams": {
            "g_tAmbientOcclusion": "materials/default/default_ao_tga_559f1ac6.vtex",
            "g_tColor": "materials/models/weapons/v_models/knife_karam/karam_color_psd_fd5024ca.vtex",
            "g_tMetalness": "materials/models/weapons/v_models/knife_karam/karam_rough_psd_b223c31d.vtex",
            "g_tNormal": "materials/default/default_normal_tga_4fc2d3dd.vtex"
          }
        }
      },
      "name": "weapon_knife_karambit"
    }
  ],
  "meshes": [
    {
      "extras": {},
      "name": "weapons\\models\\knife\\knife_karambit\\weapon_knife_karambit.vmdl_c.body_legacy",
      "primitives": [
        {
          "attributes": {
            "POSITION": 0,
            "TEXCOORD_0": 1,
            "NORMAL": 2,
            "TANGENT": 3,
            "JOINTS_0": 4,
            "WEIGHTS_0": 5
          },
          "indices": 6,
          "material": 0
        }
      ]
    }
  ],
  "nodes": [
    {
      "name": "weapons\\models\\knife\\knife_karambit\\weapon_knife_karambit.vmdl_c.body_legacy",
      "matrix": [
        3.027916e-09,
        0,
        0.025399996,
        0,
        0.025399996,
        3.027916e-09,
        0,
        0,
        0,
        0.025399996,
        3.027916e-09,
        0,
        0,
        0,
        0,
        1
      ],
      "mesh": 0
    }
  ],
  "scenes": [
    {
      "name": "weapon_knife_karambit.vmdl_c",
      "nodes": [
        0
      ]
    }
  ],
  "extensionsUsed": [],
  "images": [],
  "textures": []
}