{
  "asset": {
    "copyright": "",
    "generator": "Source 2 Viewer 19.2.0.0 - https://valveresourceformat.github.io",
    "version": "2.0"
  },
  "accessors": [
    {
      "bufferView": 0,
      "componentType": 5126,
      "count": 8918,
      "max": [
        1.852527141571045,
        0.38870373368263245,
        8.765270233154297
      ],
      "min": [
        -0.8066465258598328,
        -0.33676421642303467,
        -4.891991138458252
      ],
      "type": "VEC3"
    },
    {
      "bufferView": 1,
      "componentType": 5126,
      "count": 8918,
      "max": [
        0.9965819120407104,
        0.9946287274360657
      ],
      "min": [
        -0.07718130946159363,
        -0.10367137938737869
      ],
      "type": "VEC2"
    },
    {
      "bufferView": 2,
      "componentType": 5126,
      "count": 8918,
      "max": [
        0.9999874234199524,
        0.9999995231628418,
        0.9997345805168152
      ],
      "min": [
        -0.9999995231628418,
        -0.9999995231628418,
        -0.9999980926513672
      ],
      "type": "VEC3"
    },
    {
      "bufferView": 3,
      "componentType": 5126,
      "count": 8918,
      "type": "VEC4"
    },
    {
      "bufferView": 4,
      "componentType": 5123,
      "count": 8918,
      "type": "VEC4"
    },
    {
      "bufferView": 5,
      "componentType": 5126,
      "count": 8918,
      "type": "VEC4"
    },
    {
      "bufferView": 6,
      "componentType": 5125,
      "count": 31029,
      "type": "SCALAR"
    }
  ],
  "bufferViews": [
    {
      "buffer": 0,
      "byteLength": 107016,
      "byteOffset": 409492,
      "target": 34962
    },
    {
      "buffer": 0,
      "byteLength": 71344,
      "byteOffset": 623524,
      "target": 34962
    },
    {
      "buffer": 0,
      "byteLength": 107016,
      "byteOffset": 516508,
      "target": 34962
    },
    {
      "buffer": 0,
      "byteLength": 142688,
      "target": 34962
    },
    {
      "buffer": 0,
      "byteLength": 71344,
      "byteOffset": 694868,
      "byteStride": 8,
      "target": 34962
    },
    {
      "buffer": 0,
      "byteLength": 142688,
      "byteOffset": 142688,
      "target": 34962
    },
    {
      "buffer": 0,
      "byteLength": 124116,
      "byteOffset": 285376,
      "target": 34963
    }
  ],
  "buffers": [
    {
      "byteLength": 766212,
      "uri": "weapon_knife_falchion.bin"
    }
  ],
  "materials": [
    {
      "extras": {
        "vmat": {
          "Name": "weapons/models/knife/knife_falchion/materials/weapon_knife_falchion.vmat",
          "ShaderName": "csgo_weapon.vfx",
          "IntParams": {
            "g_bFogEnabled": 1,
            "g_nScaleTexCoordUByModelScaleAxis": 0,
            "g_nScaleTexCoordVByModelScaleAxis": 0,
            "g_nTextureAddressModeU": 0,
            "g_nTextureAddressModeV": 0
          },
          "FloatParams": {
            "g_flMetalnessTransitionBias": 2,
            "g_flModelTintAmount": 1,
            "g_flTexCoordRotation": 0
          },
          "VectorParams": {
            "g_vColorTint": [
              1,
              1,
              1,
              0
            ],
            "g_vMetalnessRemapRange": [
              0,
              1,
              0,
              0
            ],
            "g_vRoughnessAdjustBrightnessContrast": [
              0,
              1,
              0,
              0
            ],
            "g_vTexCoordCenter": [
              0.5,
              0.5,
              0,
              0
            ],
            "g_vTexCoordOffset": [
              0,
              0,
              0,
              0
            ],
            "g_vTexCoordScale": [
              1,
              1,
              0,
              0
            ],
            "g_vTexCoordScrollSpeed": [
              0,
              0,
              0,
              0
            ]
          },
          "TextureParams": {
            "g_tAmbientOcclusion": "materials/models/weapons/v_models/knife_falchion_advanced/knife_falchion_advanced_ao_psd_aec80317.vtex",
            "g_tColor": "materials/models/weapons/v_models/knife_falchion_advanced/knife_falchion_advanced_color_psd_5ef467d6.vtex",
            "g_tMetalness": "materials/models/weapons/v_models/knife_falchion_advanced/knife_falchion_advanced_rough_psd_2c53fc9.vtex",
            "g_tNormal": "materials/default/default_normal_tga_4fc2d3dd.vtex"
          }
        }
      },
      "name": "weapon_knife_falchion"
    }
  ],
  "meshes": [
    {
      "extras": {},
      "name": "weapons\\models\\knife\\knife_falchion\\weapon_knife_falchion.vmdl_c.body_legacy",
      "primitives": [
        {
          "attributes": {
            "POSITION": 0,
            "TEXCOORD_0": 1,
            "NORMAL": 2,
            "TANGENT": 3,
            "JOINTS_0": 4,
            "WEIGHTS_0": 5
          },
          "indices": 6,
          "material": 0
        }
      ]
    }
  ],
  "nodes": [
    {
      "name": "weapons\\models\\knife\\knife_falchion\\weapon_knife_falchion.vmdl_c.body_legacy",
      "matrix": [
        3.027916e-09,
        0,
        0.025399996,
        0,
        0.025399996,
        3.027916e-09,
        0,
        0,
        0,
        0.025399996,
        3.027916e-09,
        0,
        0,
        0,
        0,
        1
      ],
      "mesh": 0
    }
  ],
  "scenes": [
    {
      "name": "weapon_knife_falchion.vmdl_c",
      "nodes": [
        0
      ]
    }
  ],
  "extensionsUsed": [],
  "images": [],
  "textures": []
}