{
  "asset": {
    "copyright": "",
    "generator": "Source 2 Viewer 19.2.0.0 - https://valveresourceformat.github.io",
    "version": "2.0"
  },
  "accessors": [
    {
      "bufferView": 0,
      "componentType": 5126,
      "count": 3085,
      "max": [
        1.0624949932098389,
        0.4860979914665222,
        8.870465278625488
      ],
      "min": [
        -1.1523720026016235,
        -0.453539103269577,
        -4.034691333770752
      ],
      "type": "VEC3"
    },
    {
      "bufferView": 1,
      "componentType": 5126,
      "count": 3085,
      "max": [
        0.99951171875,
        0.9980468153953552
      ],
      "min": [
        0,
        0.0002441480755805969
      ],
      "type": "VEC2"
    },
    {
      "bufferView": 2,
      "componentType": 5126,
      "count": 3085,
      "max": [
        0.9999995231628418,
        0.9999995231628418,
        0.9999990463256836
      ],
      "min": [
        -0.9999995231628418,
        -0.9999995231628418,
        -1
      ],
      "type": "VEC3"
    },
    {
      "bufferView": 3,
      "componentType": 5126,
      "count": 3085,
      "type": "VEC4"
    },
    {
      "bufferView": 4,
      "componentType": 5123,
      "count": 3085,
      "type": "VEC4"
    },
    {
      "bufferView": 5,
      "componentType": 5126,
      "count": 3085,
      "type": "VEC4"
    },
    {
      "bufferView": 6,
      "componentType": 5125,
      "count": 9696,
      "type": "SCALAR"
    }
  ],
  "bufferViews": [
    {
      "buffer": 0,
      "byteLength": 37020,
      "byteOffset": 137504,
      "target": 34962
    },
    {
      "buffer": 0,
      "byteLength": 24680,
      "byteOffset": 211544,
      "target": 34962
    },
    {
      "buffer": 0,
      "byteLength": 37020,
      "byteOffset": 174524,
      "target": 34962
    },
    {
      "buffer": 0,
      "byteLength": 49360,
      "target": 34962
    },
    {
      "buffer": 0,
      "byteLength": 24680,
      "byteOffset": 236224,
      "byteStride": 8,
      "target": 34962
    },
    {
      "buffer": 0,
      "byteLength": 49360,
      "byteOffset": 49360,
      "target": 34962
    },
    {
      "buffer": 0,
      "byteLength": 38784,
      "byteOffset": 98720,
      "target": 34963
    }
  ],
  "buffers": [
    {
      "byteLength": 260904,
      "uri": "weapon_knife_flip.bin"
    }
  ],
  "materials": [
    {
      "extras": {
        "vmat": {
          "Name": "weapons/models/knife/knife_flip/materials/weapon_knife_flip.vmat",
          "ShaderName": "csgo_weapon.vfx",
          "IntParams": {
            "g_bFogEnabled": 1,
            "g_nScaleTexCoordUByModelScaleAxis": 0,
            "g_nScaleTexCoordVByModelScaleAxis": 0,
            "g_nTextureAddressModeU": 0,
            "g_nTextureAddressModeV": 0
          },
          "FloatParams": {
            "g_flMetalnessTransitionBias": 2,
            "g_flModelTintAmount": 1,
            "g_flTexCoordRotation": 0
          },
          "VectorParams": {
            "g_vColorTint": [
              1,
              1,
              1,
              0
            ],
            "g_vMetalnessRemapRange": [
              0,
              1,
              0,
              0
            ],
            "g_vRoughnessAdjustBrightnessContrast": [
              0,
              1,
              0,
              0
            ],
            "g_vTexCoordCenter": [
              0.5,
              0.5,
              0,
              0
            ],
            "g_vTexCoordOffset": [
              0,
              0,
              0,
              0
            ],
            "g_vTexCoordScale": [
              1,
              1,
              0,
              0
            ],
            "g_vTexCoordScrollSpeed": [
              0,
              0,
              0,
              0
            ]
          },
          "TextureParams": {
            "g_tAmbientOcclusion": "materials/models/weapons/v_models/knife_flip/knife_flip_ao_psd_6ab44393.vtex",
            "g_tColor": "materials/models/weapons/v_models/knife_flip/knife_flip_color_psd_1067d194.vtex",
            "g_tMetalness": "materials/models/weapons/v_models/knife_flip/knife_flip_rough_psd_a6e13a6b.vtex",
            "g_tNormal": "materials/models/weapons/v_models/knife_flip/knife_flip_normal_psd_925de8ab.vtex"
          }
        }
      },
      "name": "weapon_knife_flip"
    }
  ],
  "meshes": [
    {
      "extras": {},
      "name": "weapons\\models\\knife\\knife_flip\\weapon_knife_flip.vmdl_c.body_legacy",
      "primitives": [
        {
          "attributes": {
            "POSITION": 0,
            "TEXCOORD_0": 1,
            "NORMAL": 2,
            "TANGENT": 3,
            "JOINTS_0": 4,
            "WEIGHTS_0": 5
          },
          "indices": 6,
          "material": 0
        }
      ]
    }
  ],
  "nodes": [
    {
      "name": "weapons\\models\\knife\\knife_flip\\weapon_knife_flip.vmdl_c.body_legacy",
      "matrix": [
        3.027916e-09,
        0,
        0.025399996,
        0,
        0.025399996,
        3.027916e-09,
        0,
        0,
        0,
        0.025399996,
        3.027916e-09,
        0,
        0,
        0,
        0,
        1
      ],
      "mesh": 0
    }
  ],
  "scenes": [
    {
      "name": "weapon_knife_flip.vmdl_c",
      "nodes": [
        0
      ]
    }
  ],
  "extensionsUsed": [],
  "images": [],
  "textures": []
}