{
  "asset": {
    "copyright": "",
    "generator": "Source 2 Viewer 19.2.0.0 - https://valveresourceformat.github.io",
    "version": "2.0"
  },
  "accessors": [
    {
      "bufferView": 0,
      "componentType": 5126,
      "count": 3821,
      "max": [
        0.8212360143661499,
        0.359032541513443,
        10.775104522705078
      ],
      "min": [
        -0.943324625492096,
        -0.35901519656181335,
        -3.7133772373199463
      ],
      "type": "VEC3"
    },
    {
      "bufferView": 1,
      "componentType": 5126,
      "count": 3821,
      "max": [
        0.9877926111221313,
        0.9941404461860657
      ],
      "min": [
        0.021942809224128723,
        0.0060731833800673485
      ],
      "type": "VEC2"
    },
    {
      "bufferView": 2,
      "componentType": 5126,
      "count": 3821,
      "max": [
        0.9999995231628418,
        0.9999995231628418,
        0.9999990463256836
      ],
      "min": [
        -0.9999995231628418,
        -0.9999995231628418,
        -1
      ],
      "type": "VEC3"
    },
    {
      "bufferView": 3,
      "componentType": 5126,
      "count": 3821,
      "type": "VEC4"
    },
    {
      "bufferView": 4,
      "componentType": 5123,
      "count": 3821,
      "type": "VEC4"
    },
    {
      "bufferView": 5,
      "componentType": 5126,
      "count": 3821,
      "type": "VEC4"
    },
    {
      "bufferView": 6,
      "componentType": 5125,
      "count": 17682,
      "type": "SCALAR"
    }
  ],
  "bufferViews": [
    {
      "buffer": 0,
      "byteLength": 45852,
      "byteOffset": 193000,
      "target": 34962
    },
    {
      "buffer": 0,
      "byteLength": 30568,
      "byteOffset": 284704,
      "target": 34962
    },
    {
      "buffer": 0,
      "byteLength": 45852,
      "byteOffset": 238852,
      "target": 34962
    },
    {
      "buffer": 0,
      "byteLength": 61136,
      "byteOffset": 70728,
      "target": 34962
    },
    {
      "buffer": 0,
      "byteLength": 30568,
      "byteOffset": 315272,
      "byteStride": 8,
      "target": 34962
    },
    {
      "buffer": 0,
      "byteLength": 61136,
      "byteOffset": 131864,
      "target": 34962
    },
    {
      "buffer": 0,
      "byteLength": 70728,
      "target": 34963
    }
  ],
  "buffers": [
    {
      "byteLength": 345840,
      "uri": "weapon_knife_cord.bin"
    }
  ],
  "materials": [
    {
      "extras": {
        "vmat": {
          "Name": "weapons/models/knife/knife_cord/materials/weapon_knife_cord.vmat",
          "ShaderName": "csgo_weapon.vfx",
          "IntParams": {
            "g_bFogEnabled": 1,
            "g_nScaleTexCoordUByModelScaleAxis": 0,
            "g_nScaleTexCoordVByModelScaleAxis": 0,
            "g_nTextureAddressModeU": 0,
            "g_nTextureAddressModeV": 0
          },
          "FloatParams": {
            "g_flMetalnessTransitionBias": 2,
            "g_flModelTintAmount": 1,
            "g_flTexCoordRotation": 0
          },
          "VectorParams": {
            "g_vColorTint": [
              1,
              1,
              1,
              0
            ],
            "g_vMetalnessRemapRange": [
              0,
              1,
              0,
              0
            ],
            "g_vTexCoordCenter": [
              0.5,
              0.5,
              0,
              0
            ],
            "g_vTexCoordOffset": [
              0,
              0,
              0,
              0
            ],
            "g_vTexCoordScale": [
              1,
              1,
              0,
              0
            ],
            "g_vTexCoordScrollSpeed": [
              0,
              0,
              0,
              0
            ]
          },
          "TextureParams": {
            "g_tAmbientOcclusion": "materials/models/weapons/v_models/knife_cord/knife_cord_ao_psd_bdd79594.vtex",
            "g_tColor": "materials/models/weapons/v_models/knife_cord/knife_cord_color_psd_7a7f7a34.vtex",
            "g_tMetalness": "materials/models/weapons/v_models/knife_cord/knife_cord_rough_psd_41b03a75.vtex",
            "g_tNormal": "materials/models/weapons/v_models/knife_cord/knife_cord_normal_psd_9fb1ea77.vtex"
          }
        }
      },
      "name": "weapon_knife_cord"
    }
  ],
  "meshes": [
    {
      "extras": {},
      "name": "weapons\\models\\knife\\knife_cord\\weapon_knife_cord.vmdl_c.body_legacy",
      "primitives": [
        {
          "attributes": {
            "POSITION": 0,
            "TEXCOORD_0": 1,
            "NORMAL": 2,
            "TANGENT": 3,
            "JOINTS_0": 4,
            "WEIGHTS_0": 5
          },
          "indices": 6,
          "material": 0
        }
      ]
    }
  ],
  "nodes": [
    {
      "name": "weapons\\models\\knife\\knife_cord\\weapon_knife_cord.vmdl_c.body_legacy",
      "matrix": [
        3.027916e-09,
        0,
        0.025399996,
        0,
        0.025399996,
        3.027916e-09,
        0,
        0,
        0,
        0.025399996,
        3.027916e-09,
        0,
        0,
        0,
        0,
        1
      ],
      "mesh": 0
    }
  ],
  "scenes": [
    {
      "name": "weapon_knife_cord.vmdl_c",
      "nodes": [
        0
      ]
    }
  ],
  "extensionsUsed": [],
  "images": [],
  "textures": []
}