{
  "asset": {
    "copyright": "",
    "generator": "Source 2 Viewer 19.2.0.0 - https://valveresourceformat.github.io",
    "version": "2.0"
  },
  "accessors": [
    {
      "bufferView": 0,
      "componentType": 5126,
      "count": 7830,
      "max": [
        1.7474879026412964,
        0.6835269927978516,
        8.947795867919922
      ],
      "min": [
        -1.2796740531921387,
        -0.6799690127372742,
        -5.666203022003174
      ],
      "type": "VEC3"
    },
    {
      "bufferView": 1,
      "componentType": 5126,
      "count": 7830,
      "max": [
        0.9985350966453552,
        0.9907223582267761
      ],
      "min": [
        0.003723258152604103,
        0.005371257662773132
      ],
      "type": "VEC2"
    },
    {
      "bufferView": 2,
      "componentType": 5126,
      "count": 7830,
      "max": [
        0.9999874234199524,
        0.9999995231628418,
        0.9999165534973145
      ],
      "min": [
        -0.9999990463256836,
        -0.9999995231628418,
        -0.9989853501319885
      ],
      "type": "VEC3"
    },
    {
      "bufferView": 3,
      "componentType": 5126,
      "count": 7830,
      "type": "VEC4"
    },
    {
      "bufferView": 4,
      "componentType": 5123,
      "count": 7830,
      "type": "VEC4"
    },
    {
      "bufferView": 5,
      "componentType": 5126,
      "count": 7830,
      "type": "VEC4"
    },
    {
      "bufferView": 6,
      "componentType": 5125,
      "count": 36012,
      "type": "SCALAR"
    }
  ],
  "bufferViews": [
    {
      "buffer": 0,
      "byteLength": 93960,
      "byteOffset": 394608,
      "target": 34962
    },
    {
      "buffer": 0,
      "byteLength": 62640,
      "byteOffset": 582528,
      "target": 34962
    },
    {
      "buffer": 0,
      "byteLength": 93960,
      "byteOffset": 488568,
      "target": 34962
    },
    {
      "buffer": 0,
      "byteLength": 125280,
      "byteOffset": 144048,
      "target": 34962
    },
    {
      "buffer": 0,
      "byteLength": 62640,
      "byteOffset": 645168,
      "byteStride": 8,
      "target": 34962
    },
    {
      "buffer": 0,
      "byteLength": 125280,
      "byteOffset": 269328,
      "target": 34962
    },
    {
      "buffer": 0,
      "byteLength": 144048,
      "target": 34963
    }
  ],
  "buffers": [
    {
      "byteLength": 707808,
      "uri": "weapon_knife_gut.bin"
    }
  ],
  "materials": [
    {
      "extras": {
        "vmat": {
          "Name": "weapons/models/knife/knife_gut/materials/weapon_knife_gut.vmat",
          "ShaderName": "csgo_weapon.vfx",
          "IntParams": {
            "g_bFogEnabled": 1,
            "g_nScaleTexCoordUByModelScaleAxis": 0,
            "g_nScaleTexCoordVByModelScaleAxis": 0,
            "g_nTextureAddressModeU": 0,
            "g_nTextureAddressModeV": 0
          },
          "FloatParams": {
            "g_flMetalnessTransitionBias": 2,
            "g_flModelTintAmount": 1,
            "g_flTexCoordRotation": 0
          },
          "VectorParams": {
            "g_vColorTint": [
              1,
              1,
              1,
              0
            ],
            "g_vMetalnessRemapRange": [
              0,
              1,
              0,
              0
            ],
            "g_vRoughnessAdjustBrightnessContrast": [
              0,
              1,
              0,
              0
            ],
            "g_vTexCoordCenter": [
              0.5,
              0.5,
              0,
              0
            ],
            "g_vTexCoordOffset": [
              0,
              0,
              0,
              0
            ],
            "g_vTexCoordScale": [
              1,
              1,
              0,
              0
            ],
            "g_vTexCoordScrollSpeed": [
              0,
              0,
              0,
              0
            ]
          },
          "TextureParams": {
            "g_tAmbientOcclusion": "materials/models/weapons/v_models/knife_gut/knife_gut_ao_psd_25e5aba5.vtex",
            "g_tColor": "materials/models/weapons/v_models/knife_gut/knife_gut_color_psd_ec0947b4.vtex",
            "g_tMetalness": "materials/models/weapons/v_models/knife_gut/knife_gut_rough_psd_88b83b19.vtex",
            "g_tNormal": "materials/default/default_normal_tga_4fc2d3dd.vtex"
          }
        }
      },
      "name": "weapon_knife_gut"
    }
  ],
  "meshes": [
    {
      "extras": {},
      "name": "weapons\\models\\knife\\knife_gut\\weapon_knife_gut.vmdl_c.body_legacy",
      "primitives": [
        {
          "attributes": {
            "POSITION": 0,
            "TEXCOORD_0": 1,
            "NORMAL": 2,
            "TANGENT": 3,
            "JOINTS_0": 4,
            "WEIGHTS_0": 5
          },
          "indices": 6,
          "material": 0
        }
      ]
    }
  ],
  "nodes": [
    {
      "name": "weapons\\models\\knife\\knife_gut\\weapon_knife_gut.vmdl_c.body_legacy",
      "matrix": [
        3.027916e-09,
        0,
        0.025399996,
        0,
        0.025399996,
        3.027916e-09,
        0,
        0,
        0,
        0.025399996,
        3.027916e-09,
        0,
        0,
        0,
        0,
        1
      ],
      "mesh": 0
    }
  ],
  "scenes": [
    {
      "name": "weapon_knife_gut.vmdl_c",
      "nodes": [
        0
      ]
    }
  ],
  "extensionsUsed": [],
  "images": [],
  "textures": []
}