{
  "asset": {
    "copyright": "",
    "generator": "Source 2 Viewer 19.2.0.0 - https://valveresourceformat.github.io",
    "version": "2.0"
  },
  "accessors": [
    {
      "bufferView": 0,
      "componentType": 5126,
      "count": 5746,
      "max": [
        1.0838842391967773,
        0.3630140721797943,
        9.654043197631836
      ],
      "min": [
        -1.228630542755127,
        -0.3495338261127472,
        -4.072741985321045
      ],
      "type": "VEC3"
    },
    {
      "bufferView": 1,
      "componentType": 5126,
      "count": 5746,
      "max": [
        0.9965819120407104,
        0.9916989803314209
      ],
      "min": [
        0.00634784996509552,
        0.0062257759273052216
      ],
      "type": "VEC2"
    },
    {
      "bufferView": 2,
      "componentType": 5126,
      "count": 5746,
      "max": [
        0.9999762177467346,
        0.9999995231628418,
        0.9999874234199524
      ],
      "min": [
        -0.9999874234199524,
        -0.9999995231628418,
        -0.9999903440475464
      ],
      "type": "VEC3"
    },
    {
      "bufferView": 3,
      "componentType": 5126,
      "count": 5746,
      "type": "VEC4"
    },
    {
      "bufferView": 4,
      "componentType": 5123,
      "count": 5746,
      "type": "VEC4"
    },
    {
      "bufferView": 5,
      "componentType": 5126,
      "count": 5746,
      "type": "VEC4"
    },
    {
      "bufferView": 6,
      "componentType": 5125,
      "count": 24702,
      "type": "SCALAR"
    }
  ],
  "bufferViews": [
    {
      "buffer": 0,
      "byteLength": 68952,
      "byteOffset": 282680,
      "target": 34962
    },
    {
      "buffer": 0,
      "byteLength": 45968,
      "byteOffset": 420584,
      "target": 34962
    },
    {
      "buffer": 0,
      "byteLength": 68952,
      "byteOffset": 351632,
      "target": 34962
    },
    {
      "buffer": 0,
      "byteLength": 91936,
      "byteOffset": 98808,
      "target": 34962
    },
    {
      "buffer": 0,
      "byteLength": 45968,
      "byteOffset": 466552,
      "byteStride": 8,
      "target": 34962
    },
    {
      "buffer": 0,
      "byteLength": 91936,
      "byteOffset": 190744,
      "target": 34962
    },
    {
      "buffer": 0,
      "byteLength": 98808,
      "target": 34963
    }
  ],
  "buffers": [
    {
      "byteLength": 512520,
      "uri": "weapon_knife_canis.bin"
    }
  ],
  "materials": [
    {
      "extras": {
        "vmat": {
          "Name": "weapons/models/knife/knife_canis/materials/weapon_knife_canis.vmat",
          "ShaderName": "csgo_weapon.vfx",
          "IntParams": {
            "g_bFogEnabled": 1,
            "g_nScaleTexCoordUByModelScaleAxis": 0,
            "g_nScaleTexCoordVByModelScaleAxis": 0,
            "g_nTextureAddressModeU": 0,
            "g_nTextureAddressModeV": 0
          },
          "FloatParams": {
            "g_flMetalnessTransitionBias": 2,
            "g_flModelTintAmount": 1,
            "g_flTexCoordRotation": 0
          },
          "VectorParams": {
            "g_vColorTint": [
              1,
              1,
              1,
              0
            ],
            "g_vMetalnessRemapRange": [
              0,
              1,
              0,
              0
            ],
            "g_vRoughnessAdjustBrightnessContrast": [
              0,
              1,
              0,
              0
            ],
            "g_vTexCoordCenter": [
              0.5,
              0.5,
              0,
              0
            ],
            "g_vTexCoordOffset": [
              0,
              0,
              0,
              0
            ],
            "g_vTexCoordScale": [
              1,
              1,
              0,
              0
            ],
            "g_vTexCoordScrollSpeed": [
              0,
              0,
              0,
              0
            ]
          },
          "TextureParams": {
            "g_tAmbientOcclusion": "materials/models/weapons/v_models/knife_canis/knife_canis_ao_psd_ca31fd08.vtex",
            "g_tColor": "materials/models/weapons/v_models/knife_canis/knife_canis_color_psd_f661931d.vtex",
            "g_tMetalness": "materials/models/weapons/v_models/knife_canis/knife_canis_rough_psd_5aea1c6c.vtex",
            "g_tNormal": "materials/default/default_normal_tga_4fc2d3dd.vtex"
          }
        }
      },
      "name": "weapon_knife_canis"
    }
  ],
  "meshes": [
    {
      "extras": {},
      "name": "weapons\\models\\knife\\knife_canis\\weapon_knife_canis.vmdl_c.body_legacy",
      "primitives": [
        {
          "attributes": {
            "POSITION": 0,
            "TEXCOORD_0": 1,
            "NORMAL": 2,
            "TANGENT": 3,
            "JOINTS_0": 4,
            "WEIGHTS_0": 5
          },
          "indices": 6,
          "material": 0
        }
      ]
    }
  ],
  "nodes": [
    {
      "name": "weapons\\models\\knife\\knife_canis\\weapon_knife_canis.vmdl_c.body_legacy",
      "matrix": [
        3.027916e-09,
        0,
        0.025399996,
        0,
        0.025399996,
        3.027916e-09,
        0,
        0,
        0,
        0.025399996,
        3.027916e-09,
        0,
        0,
        0,
        0,
        1
      ],
      "mesh": 0
    }
  ],
  "scenes": [
    {
      "name": "weapon_knife_canis.vmdl_c",
      "nodes": [
        0
      ]
    }
  ],
  "extensionsUsed": [],
  "images": [],
  "textures": []
}