{
  "asset": {
    "copyright": "",
    "generator": "Source 2 Viewer 19.2.0.0 - https://valveresourceformat.github.io",
    "version": "2.0"
  },
  "accessors": [
    {
      "bufferView": 0,
      "componentType": 5126,
      "count": 27709,
      "max": [
        33.77775192260742,
        1.5199013948440552,
        8.025096893310547
      ],
      "min": [
        -13.682831764221191,
        -2.0651416778564453,
        -3.6540915966033936
      ],
      "type": "VEC3"
    },
    {
      "bufferView": 1,
      "componentType": 5126,
      "count": 27709,
      "max": [
        2.46484375,
        1.7255859375
      ],
      "min": [
        0,
        0.00799560546875
      ],
      "type": "VEC2"
    },
    {
      "bufferView": 2,
      "componentType": 5126,
      "count": 27709,
      "max": [
        0.9999995231628418,
        0.9999995231628418,
        0.9999990463256836
      ],
      "min": [
        -0.9999995231628418,
        -0.9999995231628418,
        -1
      ],
      "type": "VEC3"
    },
    {
      "bufferView": 3,
      "componentType": 5126,
      "count": 27709,
      "type": "VEC4"
    },
    {
      "bufferView": 4,
      "componentType": 5126,
      "count": 27709,
      "max": [
        0.97998046875,
        0.253662109375
      ],
      "min": [
        -1.96875,
        0.020263671875
      ],
      "type": "VEC2"
    },
    {
      "bufferView": 5,
      "componentType": 5123,
      "count": 27709,
      "type": "VEC4"
    },
    {
      "bufferView": 6,
      "componentType": 5126,
      "count": 27709,
      "type": "VEC4"
    },
    {
      "bufferView": 7,
      "componentType": 5125,
      "count": 71100,
      "type": "SCALAR"
    },
    {
      "bufferView": 8,
      "componentType": 5126,
      "count": 37010,
      "max": [
        32.919227600097656,
        1.3754361867904663,
        8.066024780273438
      ],
      "min": [
        -13.412891387939453,
        -1.6985877752304077,
        -3.721778154373169
      ],
      "type": "VEC3"
    },
    {
      "bufferView": 9,
      "componentType": 5126,
      "count": 37010,
      "max": [
        0.9970701932907104,
        0.9970701932907104
      ],
      "min": [
        0.002685628831386566,
        0.0037537766620516777
      ],
      "type": "VEC2"
    },
    {
      "bufferView": 10,
      "componentType": 5126,
      "count": 37010,
      "max": [
        0.9999995231628418,
        0.9999995231628418,
        0.9999990463256836
      ],
      "min": [
        -0.9999995231628418,
        -0.9999995231628418,
        -1
      ],
      "type": "VEC3"
    },
    {
      "bufferView": 11,
      "componentType": 5126,
      "count": 37010,
      "type": "VEC4"
    },
    {
      "bufferView": 12,
      "componentType": 5126,
      "count": 37010,
      "max": [
        0.974609375,
        0.255126953125
      ],
      "min": [
        -1.951171875,
        0.0194549560546875
      ],
      "type": "VEC2"
    },
    {
      "bufferView": 13,
      "componentType": 5123,
      "count": 37010,
      "type": "VEC4"
    },
    {
      "bufferView": 14,
      "componentType": 5126,
      "count": 37010,
      "type": "VEC4"
    },
    {
      "bufferView": 15,
      "componentType": 5125,
      "count": 136116,
      "type": "SCALAR"
    }
  ],
  "bufferViews": [
    {
      "buffer": 0,
      "byteLength": 332508,
      "byteOffset": 3503712,
      "target": 34962
    },
    {
      "buffer": 0,
      "byteLength": 221672,
      "byteOffset": 5341368,
      "target": 34962
    },
    {
      "buffer": 0,
      "byteLength": 332508,
      "byteOffset": 3836220,
      "target": 34962
    },
    {
      "buffer": 0,
      "byteLength": 443344,
      "byteOffset": 2617024,
      "target": 34962
    },
    {
      "buffer": 0,
      "byteLength": 221672,
      "byteOffset": 5563040,
      "target": 34962
    },
    {
      "buffer": 0,
      "byteLength": 221672,
      "byteOffset": 5784712,
      "byteStride": 8,
      "target": 34962
    },
    {
      "buffer": 0,
      "byteLength": 443344,
      "byteOffset": 3060368,
      "target": 34962
    },
    {
      "buffer": 0,
      "byteLength": 284400,
      "byteOffset": 5056968,
      "target": 34963
    },
    {
      "buffer": 0,
      "byteLength": 444120,
      "byteOffset": 1728784,
      "target": 34962
    },
    {
      "buffer": 0,
      "byteLength": 296080,
      "byteOffset": 4168728,
      "target": 34962
    },
    {
      "buffer": 0,
      "byteLength": 444120,
      "byteOffset": 2172904,
      "target": 34962
    },
    {
      "buffer": 0,
      "byteLength": 592160,
      "target": 34962
    },
    {
      "buffer": 0,
      "byteLength": 296080,
      "byteOffset": 4464808,
      "target": 34962
    },
    {
      "buffer": 0,
      "byteLength": 296080,
      "byteOffset": 4760888,
      "byteStride": 8,
      "target": 34962
    },
    {
      "buffer": 0,
      "byteLength": 592160,
      "byteOffset": 592160,
      "target": 34962
    },
    {
      "buffer": 0,
      "byteLength": 544464,
      "byteOffset": 1184320,
      "target": 34963
    }
  ],
  "buffers": [
    {
      "byteLength": 6006384,
      "uri": "weapon_rif_m4a1_silencer.bin"
    }
  ],
  "materials": [
    {
      "extras": {
        "vmat": {
          "Name": "materials/models/weapons/v_models/rif_m4a1_s/rif_m4a1_s.vmat",
          "ShaderName": "csgo_weapon.vfx",
          "IntParams": {
            "F_STICKERS": 1,
            "g_bEnableSticker0": 0,
            "g_bEnableSticker1": 0,
            "g_bEnableSticker2": 0,
            "g_bEnableSticker3": 0,
            "g_bEnableSticker4": 0,
            "g_bFogEnabled": 1,
            "g_nScaleTexCoordUByModelScaleAxis": 0,
            "g_nScaleTexCoordVByModelScaleAxis": 0,
            "g_nTextureAddressModeU": 0,
            "g_nTextureAddressModeV": 0
          },
          "FloatParams": {
            "g_flMetalnessTransitionBias": 2,
            "g_flModelTintAmount": 1,
            "g_flSticker0Rotation": 0,
            "g_flSticker0Wear": 0,
            "g_flSticker1Rotation": 0,
            "g_flSticker1Wear": 0,
            "g_flSticker2Rotation": 0,
            "g_flSticker2Wear": 0,
            "g_flSticker3Rotation": 0,
            "g_flSticker3Wear": 0,
            "g_flSticker4Rotation": 0,
            "g_flSticker4Wear": 0,
            "g_flTexCoordRotation": 0,
            "g_fWearScratchesSticker0": 1,
            "g_fWearScratchesSticker1": 1,
            "g_fWearScratchesSticker2": 1,
            "g_fWearScratchesSticker3": 1,
            "g_fWearScratchesSticker4": 1
          },
          "VectorParams": {
            "g_vColorTint": [
              1,
              1,
              1,
              0
            ],
            "g_vMetalnessRemapRange": [
              0,
              1,
              0,
              0
            ],
            "g_vSticker0Offset": [
              0.208,
              -0.405,
              0,
              0
            ],
            "g_vSticker0Scale": [
              20,
              20,
              0,
              0
            ],
            "g_vSticker1Offset": [
              0.092,
              -0.372,
              0,
              0
            ],
            "g_vSticker1Scale": [
              20,
              20,
              0,
              0
            ],
            "g_vSticker2Offset": [
              0.155,
              -0.391,
              0,
              0
            ],
            "g_vSticker2Scale": [
              20,
              20,
              0,
              0
            ],
            "g_vSticker3Offset": [
              0.003,
              -0.419,
              0,
              0
            ],
            "g_vSticker3Scale": [
              20.5,
              20.5,
              0,
              0
            ],
            "g_vSticker4Offset": [
              0,
              0,
              0,
              0
            ],
            "g_vSticker4Scale": [
              0,
              0,
              0,
              0
            ],
            "g_vTexCoordCenter": [
              0.5,
              0.5,
              0,
              0
            ],
            "g_vTexCoordOffset": [
              0,
              0,
              0,
              0
            ],
            "g_vTexCoordScale": [
              1,
              1,
              0,
              0
            ],
            "g_vTexCoordScrollSpeed": [
              0,
              0,
              0,
              0
            ],
            "g_vWearBiasSticker0": [
              1,
              1,
              0,
              0
            ],
            "g_vWearBiasSticker1": [
              1,
              1,
              0,
              0
            ],
            "g_vWearBiasSticker2": [
              1,
              1,
              0,
              0
            ],
            "g_vWearBiasSticker3": [
              1,
              1,
              0,
              0
            ],
            "g_vWearBiasSticker4": [
              1,
              1,
              0,
              0
            ],
            "TextureMetalness1": [
              0,
              0,
              0,
              0
            ]
          },
          "TextureParams": {
            "g_tAmbientOcclusion": "materials/models/weapons/v_models/rif_m4a1_s/rif_m4a1_s_ao_psd_a4b42063.vtex",
            "g_tColor": "materials/models/weapons/v_models/rif_m4a1_s/rif_m4a1_s_color_psd_ebbb222d.vtex",
            "g_tGlitterNormalSticker0": "materials/default/stickers/squares_glitter_normal_tga_25145674.vtex",
            "g_tGlitterNormalSticker1": "materials/default/stickers/squares_glitter_normal_tga_25145674.vtex",
            "g_tGlitterNormalSticker2": "materials/default/stickers/squares_glitter_normal_tga_25145674.vtex",
            "g_tGlitterNormalSticker3": "materials/default/stickers/squares_glitter_normal_tga_25145674.vtex",
            "g_tGlitterNormalSticker4": "materials/default/stickers/squares_glitter_normal_tga_25145674.vtex",
            "g_tHoloSpectrumSticker0": "materials/default/stickers/default_holospectrum_tga_e12c79bd.vtex",
            "g_tHoloSpectrumSticker1": "materials/default/stickers/default_holospectrum_tga_e12c79bd.vtex",
            "g_tHoloSpectrumSticker2": "materials/default/stickers/default_holospectrum_tga_e12c79bd.vtex",
            "g_tHoloSpectrumSticker3": "materials/default/stickers/default_holospectrum_tga_e12c79bd.vtex",
            "g_tHoloSpectrumSticker4": "materials/default/stickers/default_holospectrum_tga_e12c79bd.vtex",
            "g_tMetalness": "materials/models/weapons/v_models/rif_m4a1_s/rif_m4a1_s_rough_psd_856b2953.vtex",
            "g_tNormal": "materials/default/default_normal_tga_4fc2d3dd.vtex",
            "g_tNormalRoughnessSticker0": "materials/default/default_normal_tga_4c6e7391.vtex",
            "g_tNormalRoughnessSticker1": "materials/default/default_normal_tga_4c6e7391.vtex",
            "g_tNormalRoughnessSticker2": "materials/default/default_normal_tga_4c6e7391.vtex",
            "g_tNormalRoughnessSticker3": "materials/default/default_normal_tga_4c6e7391.vtex",
            "g_tNormalRoughnessSticker4": "materials/default/default_normal_tga_4c6e7391.vtex",
            "g_tSfxMaskSticker0": "materials/default/stickers/default_holomask_tga_daef1ed1.vtex",
            "g_tSfxMaskSticker1": "materials/default/stickers/default_holomask_tga_daef1ed1.vtex",
            "g_tSfxMaskSticker2": "materials/default/stickers/default_holomask_tga_daef1ed1.vtex",
            "g_tSfxMaskSticker3": "materials/default/stickers/default_holomask_tga_daef1ed1.vtex",
            "g_tSfxMaskSticker4": "materials/default/stickers/default_holomask_tga_daef1ed1.vtex",
            "g_tSticker0": "materials/default/stickers/sticker_default_psd_7f7731d3.vtex",
            "g_tSticker1": "materials/default/stickers/sticker_default_psd_7f7731d3.vtex",
            "g_tSticker2": "materials/default/stickers/sticker_default_psd_7f7731d3.vtex",
            "g_tSticker3": "materials/default/stickers/sticker_default_psd_7f7731d3.vtex",
            "g_tSticker4": "materials/default/stickers/sticker_default_psd_7f7731d3.vtex",
            "g_tStickerScratches": "materials/default/stickers/sticker_default_scratches_psd_a9ad199b.vtex",
            "g_tStickerWepInputs": "weapons/models/m4a1_silencer/materials/stickers/weapon_rif_m4a1_silencer_sticker_mask_legacy_tga_239c4868.vtex"
          }
        }
      },
      "name": "rif_m4a1_s"
    },
    {
      "extras": {
        "vmat": {
          "Name": "weapons/models/m4a1_silencer/materials/weapon_rif_m4a1_silencer.vmat",
          "ShaderName": "csgo_weapon.vfx",
          "IntParams": {
            "F_STICKERS": 1,
            "g_bEnableSticker0": 0,
            "g_bEnableSticker1": 0,
            "g_bEnableSticker2": 0,
            "g_bEnableSticker3": 0,
            "g_bEnableSticker4": 0,
            "g_bFogEnabled": 1,
            "g_nScaleTexCoordUByModelScaleAxis": 0,
            "g_nScaleTexCoordVByModelScaleAxis": 0,
            "g_nTextureAddressModeU": 0,
            "g_nTextureAddressModeV": 0
          },
          "FloatParams": {
            "g_flMetalnessTransitionBias": 2.407,
            "g_flModelTintAmount": 1,
            "g_flSticker0Rotation": 0,
            "g_flSticker0Wear": 0,
            "g_flSticker1Rotation": 0,
            "g_flSticker1Wear": 0,
            "g_flSticker2Rotation": 0,
            "g_flSticker2Wear": 0,
            "g_flSticker3Rotation": 0,
            "g_flSticker3Wear": 0,
            "g_flSticker4Rotation": 0,
            "g_flSticker4Wear": 0,
            "g_flTexCoordRotation": 0,
            "g_fWearScratchesSticker0": 1,
            "g_fWearScratchesSticker1": 1,
            "g_fWearScratchesSticker2": 1,
            "g_fWearScratchesSticker3": 1,
            "g_fWearScratchesSticker4": 1
          },
          "VectorParams": {
            "g_vColorTint": [
              1,
              1,
              1,
              0
            ],
            "g_vMetalnessRemapRange": [
              0,
              1,
              0,
              0
            ],
            "g_vSticker0Offset": [
              0.198,
              -0.409,
              0,
              0
            ],
            "g_vSticker0Scale": [
              18,
              18,
              0,
              0
            ],
            "g_vSticker1Offset": [
              0.09,
              -0.379,
              0,
              0
            ],
            "g_vSticker1Scale": [
              18.1,
              18.1,
              0,
              0
            ],
            "g_vSticker2Offset": [
              0.144,
              -0.399,
              0,
              0
            ],
            "g_vSticker2Scale": [
              18,
              18,
              0,
              0
            ],
            "g_vSticker3Offset": [
              -0.01,
              -0.414,
              0,
              0
            ],
            "g_vSticker3Scale": [
              20,
              20,
              0,
              0
            ],
            "g_vSticker4Offset": [
              0,
              0,
              0,
              0
            ],
            "g_vSticker4Scale": [
              0,
              0,
              0,
              0
            ],
            "g_vTexCoordCenter": [
              0.5,
              0.5,
              0,
              0
            ],
            "g_vTexCoordOffset": [
              0,
              0,
              0,
              0
            ],
            "g_vTexCoordScale": [
              1,
              1,
              0,
              0
            ],
            "g_vTexCoordScrollSpeed": [
              0,
              0,
              0,
              0
            ],
            "g_vWearBiasSticker0": [
              1,
              1,
              0,
              0
            ],
            "g_vWearBiasSticker1": [
              1,
              1,
              0,
              0
            ],
            "g_vWearBiasSticker2": [
              1,
              1,
              0,
              0
            ],
            "g_vWearBiasSticker3": [
              1,
              1,
              0,
              0
            ],
            "g_vWearBiasSticker4": [
              1,
              1,
              0,
              0
            ]
          },
          "TextureParams": {
            "g_tAmbientOcclusion": "weapons/models/m4a1_silencer/materials/m4a1_silencer_default_ao_tga_9a4bb8ca.vtex",
            "g_tColor": "weapons/models/m4a1_silencer/materials/m4a1_silencer_default_color_psd_ee3b9cfe.vtex",
            "g_tGlitterNormalSticker0": "materials/default/stickers/squares_glitter_normal_tga_25145674.vtex",
            "g_tGlitterNormalSticker1": "materials/default/stickers/squares_glitter_normal_tga_25145674.vtex",
            "g_tGlitterNormalSticker2": "materials/default/stickers/squares_glitter_normal_tga_25145674.vtex",
            "g_tGlitterNormalSticker3": "materials/default/stickers/squares_glitter_normal_tga_25145674.vtex",
            "g_tGlitterNormalSticker4": "materials/default/stickers/squares_glitter_normal_tga_25145674.vtex",
            "g_tHoloSpectrumSticker0": "materials/default/stickers/default_holospectrum_tga_e12c79bd.vtex",
            "g_tHoloSpectrumSticker1": "materials/default/stickers/default_holospectrum_tga_e12c79bd.vtex",
            "g_tHoloSpectrumSticker2": "materials/default/stickers/default_holospectrum_tga_e12c79bd.vtex",
            "g_tHoloSpectrumSticker3": "materials/default/stickers/default_holospectrum_tga_e12c79bd.vtex",
            "g_tHoloSpectrumSticker4": "materials/default/stickers/default_holospectrum_tga_e12c79bd.vtex",
            "g_tMetalness": "weapons/models/m4a1_silencer/materials/m4a1_silencer_default_rough_psd_ba5e1173.vtex",
            "g_tNormal": "weapons/models/m4a1_silencer/materials/m4a1_silencer_default_normal_psd_46b09176.vtex",
            "g_tNormalRoughnessSticker0": "materials/default/default_normal_tga_4c6e7391.vtex",
            "g_tNormalRoughnessSticker1": "materials/default/default_normal_tga_4c6e7391.vtex",
            "g_tNormalRoughnessSticker2": "materials/default/default_normal_tga_4c6e7391.vtex",
            "g_tNormalRoughnessSticker3": "materials/default/default_normal_tga_4c6e7391.vtex",
            "g_tNormalRoughnessSticker4": "materials/default/default_normal_tga_4c6e7391.vtex",
            "g_tSfxMaskSticker0": "materials/default/stickers/default_holomask_tga_daef1ed1.vtex",
            "g_tSfxMaskSticker1": "materials/default/stickers/default_holomask_tga_daef1ed1.vtex",
            "g_tSfxMaskSticker2": "materials/default/stickers/default_holomask_tga_daef1ed1.vtex",
            "g_tSfxMaskSticker3": "materials/default/stickers/default_holomask_tga_daef1ed1.vtex",
            "g_tSfxMaskSticker4": "materials/default/stickers/default_holomask_tga_daef1ed1.vtex",
            "g_tSticker0": "materials/default/stickers/sticker_default_psd_7f7731d3.vtex",
            "g_tSticker1": "materials/default/stickers/sticker_default_psd_7f7731d3.vtex",
            "g_tSticker2": "materials/default/stickers/sticker_default_psd_7f7731d3.vtex",
            "g_tSticker3": "materials/default/stickers/sticker_default_psd_7f7731d3.vtex",
            "g_tSticker4": "materials/default/stickers/sticker_default_psd_7f7731d3.vtex",
            "g_tStickerScratches": "materials/default/stickers/sticker_default_scratches_psd_a9ad199b.vtex",
            "g_tStickerWepInputs": "weapons/models/m4a1_silencer/materials/stickers/weapon_rif_m4a1_silencer_sticker_mask_hd_tga_977ab25e.vtex"
          }
        }
      },
      "name": "weapon_rif_m4a1_silencer"
    }
  ],
  "meshes": [
    {
      "extras": {},
      "name": "weapons\\models\\m4a1_silencer\\weapon_rif_m4a1_silencer.vmdl_c.body_legacy",
      "primitives": [
        {
          "attributes": {
            "POSITION": 0,
            "TEXCOORD_0": 1,
            "NORMAL": 2,
            "TANGENT": 3,
            "TEXCOORD_1": 4,
            "JOINTS_0": 5,
            "WEIGHTS_0": 6
          },
          "indices": 7,
          "material": 0
        }
      ]
    },
    {
      "extras": {},
      "name": "weapons\\models\\m4a1_silencer\\weapon_rif_m4a1_silencer.vmdl_c.body_hd",
      "primitives": [
        {
          "attributes": {
            "POSITION": 8,
            "TEXCOORD_0": 9,
            "NORMAL": 10,
            "TANGENT": 11,
            "TEXCOORD_1": 12,
            "JOINTS_0": 13,
            "WEIGHTS_0": 14
          },
          "indices": 15,
          "material": 1
        }
      ]
    }
  ],
  "nodes": [
    {
      "name": "weapons\\models\\m4a1_silencer\\weapon_rif_m4a1_silencer.vmdl_c.body_legacy",
      "matrix": [
        3.027916e-09,
        0,
        0.025399996,
        0,
        0.025399996,
        3.027916e-09,
        0,
        0,
        0,
        0.025399996,
        3.027916e-09,
        0,
        0,
        0,
        0,
        1
      ],
      "mesh": 0
    },
    {
      "name": "weapons\\models\\m4a1_silencer\\weapon_rif_m4a1_silencer.vmdl_c.body_hd",
      "matrix": [
        3.027916e-09,
        0,
        0.025399996,
        0,
        0.025399996,
        3.027916e-09,
        0,
        0,
        0,
        0.025399996,
        3.027916e-09,
        0,
        0,
        0,
        0,
        1
      ],
      "mesh": 1
    }
  ],
  "scenes": [
    {
      "name": "weapon_rif_m4a1_silencer.vmdl_c",
      "nodes": [
        0,
        1
      ]
    }
  ],
  "extensionsUsed": [],
  "images": [],
  "textures": []
}