{
  "asset": {
    "copyright": "",
    "generator": "Source 2 Viewer 19.2.0.0 - https://valveresourceformat.github.io",
    "version": "2.0"
  },
  "accessors": [
    {
      "bufferView": 0,
      "componentType": 5126,
      "count": 14013,
      "max": [
        16.41796112060547,
        1.175503134727478,
        8.183979034423828
      ],
      "min": [
        -3.2191667556762695,
        -1.1732676029205322,
        0.1974034309387207
      ],
      "type": "VEC3"
    },
    {
      "bufferView": 1,
      "componentType": 5126,
      "count": 14013,
      "max": [
        1.998046875,
        0.99609375
      ],
      "min": [
        0.00047397613525390625,
        0.004436492919921875
      ],
      "type": "VEC2"
    },
    {
      "bufferView": 2,
      "componentType": 5126,
      "count": 14013,
      "max": [
        0.9999995231628418,
        0.9999995231628418,
        0.9999990463256836
      ],
      "min": [
        -0.9999995231628418,
        -0.9999995231628418,
        -1
      ],
      "type": "VEC3"
    },
    {
      "bufferView": 3,
      "componentType": 5126,
      "count": 14013,
      "type": "VEC4"
    },
    {
      "bufferView": 4,
      "componentType": 5126,
      "count": 14013,
      "max": [
        0.939453125,
        0.423095703125
      ],
      "min": [
        -1.9521484375,
        0.06024169921875
      ],
      "type": "VEC2"
    },
    {
      "bufferView": 5,
      "componentType": 5123,
      "count": 14013,
      "type": "VEC4"
    },
    {
      "bufferView": 6,
      "componentType": 5126,
      "count": 14013,
      "type": "VEC4"
    },
    {
      "bufferView": 7,
      "componentType": 5125,
      "count": 47715,
      "type": "SCALAR"
    },
    {
      "bufferView": 8,
      "componentType": 5126,
      "count": 22086,
      "max": [
        16.684850692749023,
        1.1359546184539795,
        8.980372428894043
      ],
      "min": [
        -3.696317434310913,
        -1.1359525918960571,
        0.2821855843067169
      ],
      "type": "VEC3"
    },
    {
      "bufferView": 9,
      "componentType": 5126,
      "count": 22086,
      "max": [
        0.9975585341453552,
        0.9975585341453552
      ],
      "min": [
        0.0019531846046447754,
        0.0020447401329874992
      ],
      "type": "VEC2"
    },
    {
      "bufferView": 10,
      "componentType": 5126,
      "count": 22086,
      "max": [
        0.9999995231628418,
        0.9999995231628418,
        0.9999990463256836
      ],
      "min": [
        -0.9999995231628418,
        -0.9999995231628418,
        -1
      ],
      "type": "VEC3"
    },
    {
      "bufferView": 11,
      "componentType": 5126,
      "count": 22086,
      "type": "VEC4"
    },
    {
      "bufferView": 12,
      "componentType": 5126,
      "count": 22086,
      "max": [
        0.96044921875,
        0.419189453125
      ],
      "min": [
        -1.96484375,
        0.0240478515625
      ],
      "type": "VEC2"
    },
    {
      "bufferView": 13,
      "componentType": 5123,
      "count": 22086,
      "type": "VEC4"
    },
    {
      "bufferView": 14,
      "componentType": 5126,
      "count": 22086,
      "type": "VEC4"
    },
    {
      "bufferView": 15,
      "componentType": 5125,
      "count": 74352,
      "type": "SCALAR"
    }
  ],
  "bufferViews": [
    {
      "buffer": 0,
      "byteLength": 168156,
      "byteOffset": 2703564,
      "target": 34962
    },
    {
      "buffer": 0,
      "byteLength": 112104,
      "byteOffset": 3039876,
      "target": 34962
    },
    {
      "buffer": 0,
      "byteLength": 168156,
      "byteOffset": 2871720,
      "target": 34962
    },
    {
      "buffer": 0,
      "byteLength": 224208,
      "byteOffset": 1534224,
      "target": 34962
    },
    {
      "buffer": 0,
      "byteLength": 112104,
      "byteOffset": 3151980,
      "target": 34962
    },
    {
      "buffer": 0,
      "byteLength": 112104,
      "byteOffset": 3264084,
      "byteStride": 8,
      "target": 34962
    },
    {
      "buffer": 0,
      "byteLength": 224208,
      "byteOffset": 1758432,
      "target": 34962
    },
    {
      "buffer": 0,
      "byteLength": 190860,
      "byteOffset": 1982640,
      "target": 34963
    },
    {
      "buffer": 0,
      "byteLength": 265032,
      "byteOffset": 1004160,
      "target": 34962
    },
    {
      "buffer": 0,
      "byteLength": 176688,
      "byteOffset": 2173500,
      "target": 34962
    },
    {
      "buffer": 0,
      "byteLength": 265032,
      "byteOffset": 1269192,
      "target": 34962
    },
    {
      "buffer": 0,
      "byteLength": 353376,
      "target": 34962
    },
    {
      "buffer": 0,
      "byteLength": 176688,
      "byteOffset": 2350188,
      "target": 34962
    },
    {
      "buffer": 0,
      "byteLength": 176688,
      "byteOffset": 2526876,
      "byteStride": 8,
      "target": 34962
    },
    {
      "buffer": 0,
      "byteLength": 353376,
      "byteOffset": 353376,
      "target": 34962
    },
    {
      "buffer": 0,
      "byteLength": 297408,
      "byteOffset": 706752,
      "target": 34963
    }
  ],
  "buffers": [
    {
      "byteLength": 3376188,
      "uri": "weapon_smg_p90.bin"
    }
  ],
  "materials": [
    {
      "extras": {
        "vmat": {
          "Name": "materials/models/weapons/v_models/smg_p90/smg_p90.vmat",
          "ShaderName": "csgo_weapon.vfx",
          "IntParams": {
            "F_STICKERS": 1,
            "g_bEnableSticker0": 0,
            "g_bEnableSticker1": 0,
            "g_bEnableSticker2": 0,
            "g_bEnableSticker3": 0,
            "g_bEnableSticker4": 0,
            "g_bFogEnabled": 1,
            "g_nScaleTexCoordUByModelScaleAxis": 0,
            "g_nScaleTexCoordVByModelScaleAxis": 0,
            "g_nTextureAddressModeU": 0,
            "g_nTextureAddressModeV": 0
          },
          "FloatParams": {
            "g_flMetalnessTransitionBias": 2,
            "g_flModelTintAmount": 1,
            "g_flSticker0Rotation": 0,
            "g_flSticker0Wear": 0,
            "g_flSticker1Rotation": 0,
            "g_flSticker1Wear": 0,
            "g_flSticker2Rotation": 0,
            "g_flSticker2Wear": 0,
            "g_flSticker3Rotation": 0,
            "g_flSticker3Wear": 0,
            "g_flSticker4Rotation": 0,
            "g_flSticker4Wear": 0,
            "g_flTexCoordRotation": 0,
            "g_fWearScratchesSticker0": 1,
            "g_fWearScratchesSticker1": 1,
            "g_fWearScratchesSticker2": 1,
            "g_fWearScratchesSticker3": 1,
            "g_fWearScratchesSticker4": 1
          },
          "VectorParams": {
            "g_vColorTint": [
              1,
              1,
              1,
              0
            ],
            "g_vMetalnessRemapRange": [
              0,
              1,
              0,
              0
            ],
            "g_vSticker0Offset": [
              0.275,
              -0.254,
              0,
              0
            ],
            "g_vSticker0Scale": [
              8.6,
              8.6,
              0,
              0
            ],
            "g_vSticker1Offset": [
              -0.087,
              -0.26,
              0,
              0
            ],
            "g_vSticker1Scale": [
              8.65,
              8.65,
              0,
              0
            ],
            "g_vSticker2Offset": [
              0.358,
              -0.229,
              0,
              0
            ],
            "g_vSticker2Scale": [
              8.7,
              8.7,
              0,
              0
            ],
            "g_vSticker3Offset": [
              0.172,
              -0.209,
              0,
              0
            ],
            "g_vSticker3Scale": [
              6.6,
              6.6,
              0,
              0
            ],
            "g_vSticker4Offset": [
              0,
              0,
              0,
              0
            ],
            "g_vSticker4Scale": [
              0,
              0,
              0,
              0
            ],
            "g_vTexCoordCenter": [
              0.5,
              0.5,
              0,
              0
            ],
            "g_vTexCoordOffset": [
              0,
              0,
              0,
              0
            ],
            "g_vTexCoordScale": [
              1,
              1,
              0,
              0
            ],
            "g_vTexCoordScrollSpeed": [
              0,
              0,
              0,
              0
            ],
            "g_vWearBiasSticker0": [
              1,
              1,
              0,
              0
            ],
            "g_vWearBiasSticker1": [
              1,
              1,
              0,
              0
            ],
            "g_vWearBiasSticker2": [
              1,
              1,
              0,
              0
            ],
            "g_vWearBiasSticker3": [
              1,
              1,
              0,
              0
            ],
            "g_vWearBiasSticker4": [
              1,
              1,
              0,
              0
            ]
          },
          "TextureParams": {
            "g_tAmbientOcclusion": "materials/models/weapons/v_models/smg_p90/smg_p90_ao_psd_887ee148.vtex",
            "g_tColor": "materials/models/weapons/v_models/smg_p90/smg_p90_color_psd_6d343015.vtex",
            "g_tGlitterNormalSticker0": "materials/default/stickers/squares_glitter_normal_tga_25145674.vtex",
            "g_tGlitterNormalSticker1": "materials/default/stickers/squares_glitter_normal_tga_25145674.vtex",
            "g_tGlitterNormalSticker2": "materials/default/stickers/squares_glitter_normal_tga_25145674.vtex",
            "g_tGlitterNormalSticker3": "materials/default/stickers/squares_glitter_normal_tga_25145674.vtex",
            "g_tGlitterNormalSticker4": "materials/default/stickers/squares_glitter_normal_tga_25145674.vtex",
            "g_tHoloSpectrumSticker0": "materials/default/stickers/default_holospectrum_tga_e12c79bd.vtex",
            "g_tHoloSpectrumSticker1": "materials/default/stickers/default_holospectrum_tga_e12c79bd.vtex",
            "g_tHoloSpectrumSticker2": "materials/default/stickers/default_holospectrum_tga_e12c79bd.vtex",
            "g_tHoloSpectrumSticker3": "materials/default/stickers/default_holospectrum_tga_e12c79bd.vtex",
            "g_tHoloSpectrumSticker4": "materials/default/stickers/default_holospectrum_tga_e12c79bd.vtex",
            "g_tMetalness": "materials/models/weapons/v_models/smg_p90/smg_p90_rough_psd_ec246e9.vtex",
            "g_tNormal": "materials/default/default_normal_tga_4fc2d3dd.vtex",
            "g_tNormalRoughnessSticker0": "materials/default/default_normal_tga_4c6e7391.vtex",
            "g_tNormalRoughnessSticker1": "materials/default/default_normal_tga_4c6e7391.vtex",
            "g_tNormalRoughnessSticker2": "materials/default/default_normal_tga_4c6e7391.vtex",
            "g_tNormalRoughnessSticker3": "materials/default/default_normal_tga_4c6e7391.vtex",
            "g_tNormalRoughnessSticker4": "materials/default/default_normal_tga_4c6e7391.vtex",
            "g_tSfxMaskSticker0": "materials/default/stickers/default_holomask_tga_daef1ed1.vtex",
            "g_tSfxMaskSticker1": "materials/default/stickers/default_holomask_tga_daef1ed1.vtex",
            "g_tSfxMaskSticker2": "materials/default/stickers/default_holomask_tga_daef1ed1.vtex",
            "g_tSfxMaskSticker3": "materials/default/stickers/default_holomask_tga_daef1ed1.vtex",
            "g_tSfxMaskSticker4": "materials/default/stickers/default_holomask_tga_daef1ed1.vtex",
            "g_tSticker0": "materials/default/stickers/sticker_default_psd_7f7731d3.vtex",
            "g_tSticker1": "materials/default/stickers/sticker_default_psd_7f7731d3.vtex",
            "g_tSticker2": "materials/default/stickers/sticker_default_psd_7f7731d3.vtex",
            "g_tSticker3": "materials/default/stickers/sticker_default_psd_7f7731d3.vtex",
            "g_tSticker4": "materials/default/stickers/sticker_default_psd_7f7731d3.vtex",
            "g_tStickerScratches": "materials/default/stickers/sticker_default_scratches_psd_a9ad199b.vtex",
            "g_tStickerWepInputs": "weapons/models/p90/materials/stickers/weapon_smg_p90_sticker_mask_legacy_tga_1c1eeb87.vtex"
          }
        }
      },
      "name": "smg_p90"
    },
    {
      "extras": {
        "vmat": {
          "Name": "weapons/models/p90/materials/weapon_smg_p90.vmat",
          "ShaderName": "csgo_weapon.vfx",
          "IntParams": {
            "F_STICKERS": 1,
            "g_bEnableSticker0": 0,
            "g_bEnableSticker1": 0,
            "g_bEnableSticker2": 0,
            "g_bEnableSticker3": 0,
            "g_bEnableSticker4": 0,
            "g_bFogEnabled": 1,
            "g_nScaleTexCoordUByModelScaleAxis": 0,
            "g_nScaleTexCoordVByModelScaleAxis": 0,
            "g_nTextureAddressModeU": 0,
            "g_nTextureAddressModeV": 0
          },
          "FloatParams": {
            "g_flMetalnessTransitionBias": 2,
            "g_flModelTintAmount": 1,
            "g_flSticker0Rotation": 0,
            "g_flSticker0Wear": 0,
            "g_flSticker1Rotation": 0,
            "g_flSticker1Wear": 0,
            "g_flSticker2Rotation": 0,
            "g_flSticker2Wear": 0,
            "g_flSticker3Rotation": 0,
            "g_flSticker3Wear": 0,
            "g_flSticker4Rotation": 0,
            "g_flSticker4Wear": 0,
            "g_flTexCoordRotation": 0,
            "g_fWearScratchesSticker0": 1,
            "g_fWearScratchesSticker1": 1,
            "g_fWearScratchesSticker2": 1,
            "g_fWearScratchesSticker3": 1,
            "g_fWearScratchesSticker4": 1
          },
          "VectorParams": {
            "g_vColorTint": [
              1,
              1,
              1,
              0
            ],
            "g_vMetalnessRemapRange": [
              0,
              1,
              0,
              0
            ],
            "g_vSticker0Offset": [
              0.29,
              -0.252,
              0,
              0
            ],
            "g_vSticker0Scale": [
              7.857,
              7.857,
              0,
              0
            ],
            "g_vSticker1Offset": [
              -0.079,
              -0.235,
              0,
              0
            ],
            "g_vSticker1Scale": [
              7.857,
              7.857,
              0,
              0
            ],
            "g_vSticker2Offset": [
              0.39,
              -0.218,
              0,
              0
            ],
            "g_vSticker2Scale": [
              7.857,
              7.857,
              0,
              0
            ],
            "g_vSticker3Offset": [
              0.18,
              -0.205,
              0,
              0
            ],
            "g_vSticker3Scale": [
              6.875,
              6.875,
              0,
              0
            ],
            "g_vSticker4Offset": [
              0,
              0,
              0,
              0
            ],
            "g_vSticker4Scale": [
              0,
              0,
              0,
              0
            ],
            "g_vTexCoordCenter": [
              0.5,
              0.5,
              0,
              0
            ],
            "g_vTexCoordOffset": [
              0,
              0,
              0,
              0
            ],
            "g_vTexCoordScale": [
              1,
              1,
              0,
              0
            ],
            "g_vTexCoordScrollSpeed": [
              0,
              0,
              0,
              0
            ],
            "g_vWearBiasSticker0": [
              1,
              1,
              0,
              0
            ],
            "g_vWearBiasSticker1": [
              1,
              1,
              0,
              0
            ],
            "g_vWearBiasSticker2": [
              1,
              1,
              0,
              0
            ],
            "g_vWearBiasSticker3": [
              1,
              1,
              0,
              0
            ],
            "g_vWearBiasSticker4": [
              1,
              1,
              0,
              0
            ]
          },
          "TextureParams": {
            "g_tAmbientOcclusion": "weapons/models/p90/materials/p90_default_ao_tga_839baa85.vtex",
            "g_tColor": "weapons/models/p90/materials/p90_default_color_psd_2727e8c1.vtex",
            "g_tGlitterNormalSticker0": "materials/default/stickers/squares_glitter_normal_tga_25145674.vtex",
            "g_tGlitterNormalSticker1": "materials/default/stickers/squares_glitter_normal_tga_25145674.vtex",
            "g_tGlitterNormalSticker2": "materials/default/stickers/squares_glitter_normal_tga_25145674.vtex",
            "g_tGlitterNormalSticker3": "materials/default/stickers/squares_glitter_normal_tga_25145674.vtex",
            "g_tGlitterNormalSticker4": "materials/default/stickers/squares_glitter_normal_tga_25145674.vtex",
            "g_tHoloSpectrumSticker0": "materials/default/stickers/default_holospectrum_tga_e12c79bd.vtex",
            "g_tHoloSpectrumSticker1": "materials/default/stickers/default_holospectrum_tga_e12c79bd.vtex",
            "g_tHoloSpectrumSticker2": "materials/default/stickers/default_holospectrum_tga_e12c79bd.vtex",
            "g_tHoloSpectrumSticker3": "materials/default/stickers/default_holospectrum_tga_e12c79bd.vtex",
            "g_tHoloSpectrumSticker4": "materials/default/stickers/default_holospectrum_tga_e12c79bd.vtex",
            "g_tMetalness": "weapons/models/p90/materials/p90_default_rough_psd_7ac6dedb.vtex",
            "g_tNormal": "weapons/models/p90/materials/p90_default_normal_tga_ce606f21.vtex",
            "g_tNormalRoughnessSticker0": "materials/default/default_normal_tga_4c6e7391.vtex",
            "g_tNormalRoughnessSticker1": "materials/default/default_normal_tga_4c6e7391.vtex",
            "g_tNormalRoughnessSticker2": "materials/default/default_normal_tga_4c6e7391.vtex",
            "g_tNormalRoughnessSticker3": "materials/default/default_normal_tga_4c6e7391.vtex",
            "g_tNormalRoughnessSticker4": "materials/default/default_normal_tga_4c6e7391.vtex",
            "g_tSfxMaskSticker0": "materials/default/stickers/default_holomask_tga_daef1ed1.vtex",
            "g_tSfxMaskSticker1": "materials/default/stickers/default_holomask_tga_daef1ed1.vtex",
            "g_tSfxMaskSticker2": "materials/default/stickers/default_holomask_tga_daef1ed1.vtex",
            "g_tSfxMaskSticker3": "materials/default/stickers/default_holomask_tga_daef1ed1.vtex",
            "g_tSfxMaskSticker4": "materials/default/stickers/default_holomask_tga_daef1ed1.vtex",
            "g_tSticker0": "materials/default/stickers/sticker_default_psd_7f7731d3.vtex",
            "g_tSticker1": "materials/default/stickers/sticker_default_psd_7f7731d3.vtex",
            "g_tSticker2": "materials/default/stickers/sticker_default_psd_7f7731d3.vtex",
            "g_tSticker3": "materials/default/stickers/sticker_default_psd_7f7731d3.vtex",
            "g_tSticker4": "materials/default/stickers/sticker_default_psd_7f7731d3.vtex",
            "g_tStickerScratches": "materials/default/stickers/sticker_default_scratches_psd_a9ad199b.vtex",
            "g_tStickerWepInputs": "weapons/models/p90/materials/stickers/weapon_smg_p90_sticker_mask_hd_tga_75e7da91.vtex"
          }
        }
      },
      "name": "weapon_smg_p90"
    }
  ],
  "meshes": [
    {
      "extras": {},
      "name": "weapons\\models\\p90\\weapon_smg_p90.vmdl_c.body_legacy",
      "primitives": [
        {
          "attributes": {
            "POSITION": 0,
            "TEXCOORD_0": 1,
            "NORMAL": 2,
            "TANGENT": 3,
            "TEXCOORD_1": 4,
            "JOINTS_0": 5,
            "WEIGHTS_0": 6
          },
          "indices": 7,
          "material": 0
        }
      ]
    },
    {
      "extras": {},
      "name": "weapons\\models\\p90\\weapon_smg_p90.vmdl_c.body_hd",
      "primitives": [
        {
          "attributes": {
            "POSITION": 8,
            "TEXCOORD_0": 9,
            "NORMAL": 10,
            "TANGENT": 11,
            "TEXCOORD_1": 12,
            "JOINTS_0": 13,
            "WEIGHTS_0": 14
          },
          "indices": 15,
          "material": 1
        }
      ]
    }
  ],
  "nodes": [
    {
      "name": "weapons\\models\\p90\\weapon_smg_p90.vmdl_c.body_legacy",
      "matrix": [
        3.027916e-09,
        0,
        0.025399996,
        0,
        0.025399996,
        3.027916e-09,
        0,
        0,
        0,
        0.025399996,
        3.027916e-09,
        0,
        0,
        0,
        0,
        1
      ],
      "mesh": 0
    },
    {
      "name": "weapons\\models\\p90\\weapon_smg_p90.vmdl_c.body_hd",
      "matrix": [
        3.027916e-09,
        0,
        0.025399996,
        0,
        0.025399996,
        3.027916e-09,
        0,
        0,
        0,
        0.025399996,
        3.027916e-09,
        0,
        0,
        0,
        0,
        1
      ],
      "mesh": 1
    }
  ],
  "scenes": [
    {
      "name": "weapon_smg_p90.vmdl_c",
      "nodes": [
        0,
        1
      ]
    }
  ],
  "extensionsUsed": [],
  "images": [],
  "textures": []
}