{
  "asset": {
    "copyright": "",
    "generator": "Source 2 Viewer 19.2.0.0 - https://valveresourceformat.github.io",
    "version": "2.0"
  },
  "accessors": [
    {
      "bufferView": 0,
      "componentType": 5126,
      "count": 11549,
      "max": [
        1.7876088619232178,
        0.34608182311058044,
        8.77938175201416
      ],
      "min": [
        -0.8885155320167542,
        -0.34608229994773865,
        -4.319633483886719
      ],
      "type": "VEC3"
    },
    {
      "bufferView": 1,
      "componentType": 5126,
      "count": 11549,
      "max": [
        0.9956053495407104,
        0.9912106394767761
      ],
      "min": [
        0.0058290353044867516,
        0.005706961266696453
      ],
      "type": "VEC2"
    },
    {
      "bufferView": 2,
      "componentType": 5126,
      "count": 11549,
      "max": [
        0.9999995231628418,
        0.9999995231628418,
        0.9999990463256836
      ],
      "min": [
        -0.9999995231628418,
        -0.9999995231628418,
        -1
      ],
      "type": "VEC3"
    },
    {
      "bufferView": 3,
      "componentType": 5126,
      "count": 11549,
      "type": "VEC4"
    },
    {
      "bufferView": 4,
      "componentType": 5123,
      "count": 11549,
      "type": "VEC4"
    },
    {
      "bufferView": 5,
      "componentType": 5126,
      "count": 11549,
      "type": "VEC4"
    },
    {
      "bufferView": 6,
      "componentType": 5125,
      "count": 40524,
      "type": "SCALAR"
    }
  ],
  "bufferViews": [
    {
      "buffer": 0,
      "byteLength": 138588,
      "byteOffset": 531664,
      "target": 34962
    },
    {
      "buffer": 0,
      "byteLength": 92392,
      "byteOffset": 808840,
      "target": 34962
    },
    {
      "buffer": 0,
      "byteLength": 138588,
      "byteOffset": 670252,
      "target": 34962
    },
    {
      "buffer": 0,
      "byteLength": 184784,
      "target": 34962
    },
    {
      "buffer": 0,
      "byteLength": 92392,
      "byteOffset": 901232,
      "byteStride": 8,
      "target": 34962
    },
    {
      "buffer": 0,
      "byteLength": 184784,
      "byteOffset": 184784,
      "target": 34962
    },
    {
      "buffer": 0,
      "byteLength": 162096,
      "byteOffset": 369568,
      "target": 34963
    }
  ],
  "buffers": [
    {
      "byteLength": 993624,
      "uri": "weapon_knife_outdoor.bin"
    }
  ],
  "materials": [
    {
      "extras": {
        "vmat": {
          "Name": "weapons/models/knife/knife_outdoor/materials/weapon_knife_outdoor.vmat",
          "ShaderName": "csgo_weapon.vfx",
          "IntParams": {
            "g_bFogEnabled": 1,
            "g_nScaleTexCoordUByModelScaleAxis": 0,
            "g_nScaleTexCoordVByModelScaleAxis": 0,
            "g_nTextureAddressModeU": 0,
            "g_nTextureAddressModeV": 0
          },
          "FloatParams": {
            "g_flMetalnessTransitionBias": 2,
            "g_flModelTintAmount": 1,
            "g_flTexCoordRotation": 0
          },
          "VectorParams": {
            "g_vColorTint": [
              1,
              1,
              1,
              0
            ],
            "g_vMetalnessRemapRange": [
              0,
              1,
              0,
              0
            ],
            "g_vRoughnessAdjustBrightnessContrast": [
              0,
              1,
              0,
              0
            ],
            "g_vTexCoordCenter": [
              0.5,
              0.5,
              0,
              0
            ],
            "g_vTexCoordOffset": [
              0,
              0,
              0,
              0
            ],
            "g_vTexCoordScale": [
              1,
              1,
              0,
              0
            ],
            "g_vTexCoordScrollSpeed": [
              0,
              0,
              0,
              0
            ]
          },
          "TextureParams": {
            "g_tAmbientOcclusion": "materials/models/weapons/v_models/knife_outdoor/knife_outdoor_ao_psd_1257ab4c.vtex",
            "g_tColor": "materials/models/weapons/v_models/knife_outdoor/knife_outdoor_color_psd_2875a13e.vtex",
            "g_tMetalness": "materials/models/weapons/v_models/knife_outdoor/knife_outdoor_rough_psd_a9ca0ca9.vtex",
            "g_tNormal": "materials/models/weapons/v_models/knife_outdoor/knife_outdoor_normal_psd_e6ff987b.vtex"
          }
        }
      },
      "name": "weapon_knife_outdoor"
    }
  ],
  "meshes": [
    {
      "extras": {},
      "name": "weapons\\models\\knife\\knife_outdoor\\weapon_knife_outdoor.vmdl_c.body_legacy",
      "primitives": [
        {
          "attributes": {
            "POSITION": 0,
            "TEXCOORD_0": 1,
            "NORMAL": 2,
            "TANGENT": 3,
            "JOINTS_0": 4,
            "WEIGHTS_0": 5
          },
          "indices": 6,
          "material": 0
        }
      ]
    }
  ],
  "nodes": [
    {
      "name": "weapons\\models\\knife\\knife_outdoor\\weapon_knife_outdoor.vmdl_c.body_legacy",
      "matrix": [
        3.027916e-09,
        0,
        0.025399996,
        0,
        0.025399996,
        3.027916e-09,
        0,
        0,
        0,
        0.025399996,
        3.027916e-09,
        0,
        0,
        0,
        0,
        1
      ],
      "mesh": 0
    }
  ],
  "scenes": [
    {
      "name": "weapon_knife_outdoor.vmdl_c",
      "nodes": [
        0
      ]
    }
  ],
  "extensionsUsed": [],
  "images": [],
  "textures": []
}