{
  "asset": {
    "copyright": "",
    "generator": "Source 2 Viewer 19.2.0.0 - https://valveresourceformat.github.io",
    "version": "2.0"
  },
  "accessors": [
    {
      "bufferView": 0,
      "componentType": 5126,
      "count": 7773,
      "max": [
        0.9413967132568359,
        0.940898060798645,
        2.282804489135742
      ],
      "min": [
        -1.395362138748169,
        -1.1338196992874146,
        -2.365541934967041
      ],
      "type": "VEC3"
    },
    {
      "bufferView": 1,
      "componentType": 5126,
      "count": 7773,
      "max": [
        0.9956053495407104,
        0.9960936307907104
      ],
      "min": [
        0.00436414685100317,
        0.004333628341555595
      ],
      "type": "VEC2"
    },
    {
      "bufferView": 2,
      "componentType": 5126,
      "count": 7773,
      "max": [
        0.9999995231628418,
        0.9999995231628418,
        0.9999990463256836
      ],
      "min": [
        -0.9999995231628418,
        -0.9999995231628418,
        -1
      ],
      "type": "VEC3"
    },
    {
      "bufferView": 3,
      "componentType": 5126,
      "count": 7773,
      "type": "VEC4"
    },
    {
      "bufferView": 4,
      "componentType": 5126,
      "count": 7773,
      "max": [
        0,
        0
      ],
      "min": [
        0,
        0
      ],
      "type": "VEC2"
    },
    {
      "bufferView": 5,
      "componentType": 5123,
      "count": 7773,
      "type": "VEC4"
    },
    {
      "bufferView": 6,
      "componentType": 5126,
      "count": 7773,
      "type": "VEC4"
    },
    {
      "bufferView": 7,
      "componentType": 5125,
      "count": 33363,
      "type": "SCALAR"
    }
  ],
  "bufferViews": [
    {
      "buffer": 0,
      "byteLength": 93276,
      "byteOffset": 382188,
      "target": 34962
    },
    {
      "buffer": 0,
      "byteLength": 62184,
      "byteOffset": 568740,
      "target": 34962
    },
    {
      "buffer": 0,
      "byteLength": 93276,
      "byteOffset": 475464,
      "target": 34962
    },
    {
      "buffer": 0,
      "byteLength": 124368,
      "byteOffset": 133452,
      "target": 34962
    },
    {
      "buffer": 0,
      "byteLength": 62184,
      "byteOffset": 630924,
      "target": 34962
    },
    {
      "buffer": 0,
      "byteLength": 62184,
      "byteOffset": 693108,
      "byteStride": 8,
      "target": 34962
    },
    {
      "buffer": 0,
      "byteLength": 124368,
      "byteOffset": 257820,
      "target": 34962
    },
    {
      "buffer": 0,
      "byteLength": 133452,
      "target": 34963
    }
  ],
  "buffers": [
    {
      "byteLength": 755292,
      "uri": "weapon_incendiarygrenade.bin"
    }
  ],
  "materials": [
    {
      "extras": {
        "vmat": {
          "Name": "weapons/models/grenade/incendiary/materials/weapon_incendiarygrenade.vmat",
          "ShaderName": "csgo_weapon.vfx",
          "IntParams": {
            "g_bFogEnabled": 1,
            "g_nScaleTexCoordUByModelScaleAxis": 0,
            "g_nScaleTexCoordVByModelScaleAxis": 0,
            "g_nTextureAddressModeU": 0,
            "g_nTextureAddressModeV": 0
          },
          "FloatParams": {
            "g_flMetalnessTransitionBias": 1.5,
            "g_flModelTintAmount": 1,
            "g_flPearlescentScale": 0.4,
            "g_flTexCoordRotation": 0
          },
          "VectorParams": {
            "g_vColorTint": [
              0.921569,
              0.921569,
              0.921569,
              0
            ],
            "g_vMetalnessRemapRange": [
              0,
              1,
              0,
              0
            ],
            "g_vRoughnessAdjustBrightnessContrast": [
              0.08,
              1,
              0,
              0
            ],
            "g_vTexCoordCenter": [
              0.5,
              0.5,
              0,
              0
            ],
            "g_vTexCoordOffset": [
              0,
              0,
              0,
              0
            ],
            "g_vTexCoordScale": [
              1,
              1,
              0,
              0
            ],
            "g_vTexCoordScrollSpeed": [
              0,
              0,
              0,
              0
            ]
          },
          "TextureParams": {
            "g_tAmbientOcclusion": "weapons/models/grenade/incendiary/materials/incendiary_grenade_ao_tga_e55fed76.vtex",
            "g_tColor": "weapons/models/grenade/incendiary/materials/incendiary_grenade_color_tga_1a0321a7.vtex",
            "g_tMetalness": "weapons/models/grenade/incendiary/materials/incendiary_grenade_rough_tga_cc1cc38a.vtex",
            "g_tNormal": "weapons/models/grenade/incendiary/materials/incendiary_grenade_normal_tga_ed9c9b24.vtex"
          }
        }
      },
      "name": "weapon_incendiarygrenade"
    }
  ],
  "meshes": [
    {
      "extras": {},
      "name": "weapons\\models\\grenade\\incendiary\\weapon_incendiarygrenade.vmdl_c.body",
      "primitives": [
        {
          "attributes": {
            "POSITION": 0,
            "TEXCOORD_0": 1,
            "NORMAL": 2,
            "TANGENT": 3,
            "TEXCOORD_1": 4,
            "JOINTS_0": 5,
            "WEIGHTS_0": 6
          },
          "indices": 7,
          "material": 0
        }
      ]
    }
  ],
  "nodes": [
    {
      "name": "weapons\\models\\grenade\\incendiary\\weapon_incendiarygrenade.vmdl_c.body",
      "matrix": [
        3.027916e-09,
        0,
        0.025399996,
        0,
        0.025399996,
        3.027916e-09,
        0,
        0,
        0,
        0.025399996,
        3.027916e-09,
        0,
        0,
        0,
        0,
        1
      ],
      "mesh": 0
    }
  ],
  "scenes": [
    {
      "name": "weapon_incendiarygrenade.vmdl_c",
      "nodes": [
        0
      ]
    }
  ],
  "extensionsUsed": [],
  "images": [],
  "textures": []
}