{
  "asset": {
    "copyright": "",
    "generator": "Source 2 Viewer 19.2.0.0 - https://valveresourceformat.github.io",
    "version": "2.0"
  },
  "accessors": [
    {
      "bufferView": 0,
      "componentType": 5126,
      "count": 8749,
      "max": [
        1.6844781637191772,
        0.6738979816436768,
        11.020751953125
      ],
      "min": [
        -2.558228015899658,
        -0.6463479995727539,
        -4.294088840484619
      ],
      "type": "VEC3"
    },
    {
      "bufferView": 1,
      "componentType": 5126,
      "count": 8749,
      "max": [
        0.983397901058197,
        0.9980468153953552
      ],
      "min": [
        0.0016785180196166039,
        0.01739555038511753
      ],
      "type": "VEC2"
    },
    {
      "bufferView": 2,
      "componentType": 5126,
      "count": 8749,
      "max": [
        0.9999995231628418,
        0.9999995231628418,
        0.9999990463256836
      ],
      "min": [
        -0.9999995231628418,
        -0.9999995231628418,
        -1
      ],
      "type": "VEC3"
    },
    {
      "bufferView": 3,
      "componentType": 5126,
      "count": 8749,
      "type": "VEC4"
    },
    {
      "bufferView": 4,
      "componentType": 5126,
      "count": 8749,
      "max": [
        0,
        0
      ],
      "min": [
        0,
        0
      ],
      "type": "VEC2"
    },
    {
      "bufferView": 5,
      "componentType": 5123,
      "count": 8749,
      "type": "VEC4"
    },
    {
      "bufferView": 6,
      "componentType": 5126,
      "count": 8749,
      "type": "VEC4"
    },
    {
      "bufferView": 7,
      "componentType": 5125,
      "count": 30372,
      "type": "SCALAR"
    }
  ],
  "bufferViews": [
    {
      "buffer": 0,
      "byteLength": 104988,
      "byteOffset": 401456,
      "target": 34962
    },
    {
      "buffer": 0,
      "byteLength": 69992,
      "byteOffset": 611432,
      "target": 34962
    },
    {
      "buffer": 0,
      "byteLength": 104988,
      "byteOffset": 506444,
      "target": 34962
    },
    {
      "buffer": 0,
      "byteLength": 139984,
      "target": 34962
    },
    {
      "buffer": 0,
      "byteLength": 69992,
      "byteOffset": 681424,
      "target": 34962
    },
    {
      "buffer": 0,
      "byteLength": 69992,
      "byteOffset": 751416,
      "byteStride": 8,
      "target": 34962
    },
    {
      "buffer": 0,
      "byteLength": 139984,
      "byteOffset": 139984,
      "target": 34962
    },
    {
      "buffer": 0,
      "byteLength": 121488,
      "byteOffset": 279968,
      "target": 34963
    }
  ],
  "buffers": [
    {
      "byteLength": 821408,
      "uri": "weapon_knife_m9.bin"
    }
  ],
  "materials": [
    {
      "extras": {
        "vmat": {
          "Name": "weapons/models/knife/knife_m9/materials/weapon_knife_m9.vmat",
          "ShaderName": "csgo_weapon.vfx",
          "IntParams": {
            "g_bFogEnabled": 1,
            "g_nScaleTexCoordUByModelScaleAxis": 0,
            "g_nScaleTexCoordVByModelScaleAxis": 0,
            "g_nTextureAddressModeU": 0,
            "g_nTextureAddressModeV": 0
          },
          "FloatParams": {
            "g_flMetalnessTransitionBias": 2,
            "g_flModelTintAmount": 1,
            "g_flTexCoordRotation": 0
          },
          "VectorParams": {
            "g_vColorTint": [
              1,
              1,
              1,
              0
            ],
            "g_vMetalnessRemapRange": [
              0,
              1,
              0,
              0
            ],
            "g_vTexCoordCenter": [
              0.5,
              0.5,
              0,
              0
            ],
            "g_vTexCoordOffset": [
              0,
              0,
              0,
              0
            ],
            "g_vTexCoordScale": [
              1,
              1,
              0,
              0
            ],
            "g_vTexCoordScrollSpeed": [
              0,
              0,
              0,
              0
            ]
          },
          "TextureParams": {
            "g_tAmbientOcclusion": "materials/models/weapons/v_models/knife_m9_bay/knife_m9_bay_ao_psd_1c49e1c8.vtex",
            "g_tColor": "materials/models/weapons/v_models/knife_m9_bay/knife_m9_bay_color_psd_a4b8e53b.vtex",
            "g_tMetalness": "materials/models/weapons/v_models/knife_m9_bay/knife_m9_bay_rough_psd_2cd44509.vtex",
            "g_tNormal": "materials/default/default_normal_tga_4fc2d3dd.vtex"
          }
        }
      },
      "name": "weapon_knife_m9"
    }
  ],
  "meshes": [
    {
      "extras": {},
      "name": "weapons\\models\\knife\\knife_m9\\weapon_knife_m9.vmdl_c.body_legacy",
      "primitives": [
        {
          "attributes": {
            "POSITION": 0,
            "TEXCOORD_0": 1,
            "NORMAL": 2,
            "TANGENT": 3,
            "TEXCOORD_1": 4,
            "JOINTS_0": 5,
            "WEIGHTS_0": 6
          },
          "indices": 7,
          "material": 0
        }
      ]
    }
  ],
  "nodes": [
    {
      "name": "weapons\\models\\knife\\knife_m9\\weapon_knife_m9.vmdl_c.body_legacy",
      "matrix": [
        3.027916e-09,
        0,
        0.025399996,
        0,
        0.025399996,
        3.027916e-09,
        0,
        0,
        0,
        0.025399996,
        3.027916e-09,
        0,
        0,
        0,
        0,
        1
      ],
      "mesh": 0
    }
  ],
  "scenes": [
    {
      "name": "weapon_knife_m9.vmdl_c",
      "nodes": [
        0
      ]
    }
  ],
  "extensionsUsed": [],
  "images": [],
  "textures": []
}