{
  "asset": {
    "copyright": "",
    "generator": "Source 2 Viewer 19.2.0.0 - https://valveresourceformat.github.io",
    "version": "2.0"
  },
  "accessors": [
    {
      "bufferView": 0,
      "componentType": 5126,
      "count": 8526,
      "max": [
        0.8660199046134949,
        0.9999287724494934,
        3.4779372215270996
      ],
      "min": [
        -2.4215149879455566,
        -1.5871344804763794,
        -2.4992618560791016
      ],
      "type": "VEC3"
    },
    {
      "bufferView": 1,
      "componentType": 5126,
      "count": 8526,
      "max": [
        0.9956053495407104,
        0.9956053495407104
      ],
      "min": [
        0.004028443247079849,
        0.007904293946921825
      ],
      "type": "VEC2"
    },
    {
      "bufferView": 2,
      "componentType": 5126,
      "count": 8526,
      "max": [
        0.9998885989189148,
        0.9997384548187256,
        0.9999990463256836
      ],
      "min": [
        -0.9998885989189148,
        -0.9999995231628418,
        -1
      ],
      "type": "VEC3"
    },
    {
      "bufferView": 3,
      "componentType": 5126,
      "count": 8526,
      "type": "VEC4"
    },
    {
      "bufferView": 4,
      "componentType": 5126,
      "count": 8526,
      "max": [
        0,
        0
      ],
      "min": [
        0,
        0
      ],
      "type": "VEC2"
    },
    {
      "bufferView": 5,
      "componentType": 5123,
      "count": 8526,
      "type": "VEC4"
    },
    {
      "bufferView": 6,
      "componentType": 5126,
      "count": 8526,
      "type": "VEC4"
    },
    {
      "bufferView": 7,
      "componentType": 5125,
      "count": 34407,
      "type": "SCALAR"
    }
  ],
  "bufferViews": [
    {
      "buffer": 0,
      "byteLength": 102312,
      "byteOffset": 410460,
      "target": 34962
    },
    {
      "buffer": 0,
      "byteLength": 68208,
      "byteOffset": 615084,
      "target": 34962
    },
    {
      "buffer": 0,
      "byteLength": 102312,
      "byteOffset": 512772,
      "target": 34962
    },
    {
      "buffer": 0,
      "byteLength": 136416,
      "byteOffset": 137628,
      "target": 34962
    },
    {
      "buffer": 0,
      "byteLength": 68208,
      "byteOffset": 683292,
      "target": 34962
    },
    {
      "buffer": 0,
      "byteLength": 68208,
      "byteOffset": 751500,
      "byteStride": 8,
      "target": 34962
    },
    {
      "buffer": 0,
      "byteLength": 136416,
      "byteOffset": 274044,
      "target": 34962
    },
    {
      "buffer": 0,
      "byteLength": 137628,
      "target": 34963
    }
  ],
  "buffers": [
    {
      "byteLength": 819708,
      "uri": "weapon_flashbang.bin"
    }
  ],
  "materials": [
    {
      "extras": {
        "vmat": {
          "Name": "weapons/models/grenade/flashbang/materials/weapon_flashbang.vmat",
          "ShaderName": "csgo_weapon.vfx",
          "IntParams": {
            "g_bFogEnabled": 1,
            "g_nScaleTexCoordUByModelScaleAxis": 0,
            "g_nScaleTexCoordVByModelScaleAxis": 0,
            "g_nTextureAddressModeU": 0,
            "g_nTextureAddressModeV": 0
          },
          "FloatParams": {
            "g_flMetalnessTransitionBias": 1.332,
            "g_flModelTintAmount": 1,
            "g_flTexCoordRotation": 0
          },
          "VectorParams": {
            "g_vColorTint": [
              0.921569,
              0.921569,
              0.921569,
              0
            ],
            "g_vMetalnessRemapRange": [
              0,
              1,
              0,
              0
            ],
            "g_vTexCoordCenter": [
              0.5,
              0.5,
              0,
              0
            ],
            "g_vTexCoordOffset": [
              0,
              0,
              0,
              0
            ],
            "g_vTexCoordScale": [
              1,
              1,
              0,
              0
            ],
            "g_vTexCoordScrollSpeed": [
              0,
              0,
              0,
              0
            ]
          },
          "TextureParams": {
            "g_tAmbientOcclusion": "weapons/models/grenade/flashbang/materials/flashbang_ao_tga_c2cd4931.vtex",
            "g_tColor": "weapons/models/grenade/flashbang/materials/flashbang_color_tga_ac602955.vtex",
            "g_tMetalness": "weapons/models/grenade/flashbang/materials/flashbang_rough_tga_11efa000.vtex",
            "g_tNormal": "weapons/models/grenade/flashbang/materials/flashbang_normal_tga_35f79cc7.vtex"
          }
        }
      },
      "name": "weapon_flashbang"
    }
  ],
  "meshes": [
    {
      "extras": {},
      "name": "weapons\\models\\grenade\\flashbang\\weapon_flashbang.vmdl_c.body",
      "primitives": [
        {
          "attributes": {
            "POSITION": 0,
            "TEXCOORD_0": 1,
            "NORMAL": 2,
            "TANGENT": 3,
            "TEXCOORD_1": 4,
            "JOINTS_0": 5,
            "WEIGHTS_0": 6
          },
          "indices": 7,
          "material": 0
        }
      ]
    }
  ],
  "nodes": [
    {
      "name": "weapons\\models\\grenade\\flashbang\\weapon_flashbang.vmdl_c.body",
      "matrix": [
        3.027916e-09,
        0,
        0.025399996,
        0,
        0.025399996,
        3.027916e-09,
        0,
        0,
        0,
        0.025399996,
        3.027916e-09,
        0,
        0,
        0,
        0,
        1
      ],
      "mesh": 0
    }
  ],
  "scenes": [
    {
      "name": "weapon_flashbang.vmdl_c",
      "nodes": [
        0
      ]
    }
  ],
  "extensionsUsed": [],
  "images": [],
  "textures": []
}